<!-- Generated by IcoMoon.io -->
<svg version="1.1" xmlns="http://www.w3.org/2000/svg" width="24" height="24" viewBox="0 0 24 24">
<title>psychology</title>
<path d="M12.984 8.578q-0.563 0-0.984 0.422t-0.422 0.984q0 0.609 0.422 1.031t0.984 0.422q0.609 0 1.031-0.422t0.422-1.031q0-0.563-0.422-0.984t-1.031-0.422zM12.984 3q-1.406 0-2.625 0.516t-2.18 1.43-1.523 2.109-0.656 2.602l-1.922 2.531q-0.188 0.281-0.047 0.539t0.469 0.258h1.5v3q0 0.844 0.586 1.43t1.43 0.586h0.984v3h6.984v-4.688q1.781-0.844 2.906-2.531t1.125-3.797q0-1.453-0.563-2.719t-1.523-2.227-2.227-1.5-2.719-0.539zM15.984 9.984v0.422l0.844 0.656q0.094 0.094 0.047 0.234l-0.797 1.406q-0.094 0.141-0.281 0.094l-0.984-0.422q-0.281 0.234-0.656 0.375l-0.141 1.078q-0.047 0.188-0.234 0.188h-1.594q-0.141 0-0.188-0.188l-0.141-1.078q-0.375-0.141-0.703-0.375l-0.984 0.422q-0.141 0.047-0.234-0.094l-0.797-1.406q-0.094-0.141 0.047-0.234l0.844-0.656q0-0.094-0.023-0.211t-0.023-0.211 0.023-0.188 0.023-0.188l-0.844-0.656q-0.141-0.094-0.047-0.281l0.797-1.359q0.094-0.141 0.234-0.094l1.031 0.422q0.328-0.281 0.656-0.422l0.141-1.031q0.047-0.188 0.188-0.188h1.594q0.188 0 0.234 0.188l0.141 1.031q0.328 0.141 0.656 0.422l0.984-0.422q0.188-0.047 0.281 0.094l0.797 1.359q0.094 0.188-0.047 0.281l-0.891 0.656q0.047 0.141 0.047 0.375z"></path>
</svg>
