<svg aria-hidden="true" style="position: absolute; width: 0; height: 0; overflow: hidden;" version="1.1" xmlns="http://www.w3.org/2000/svg" xmlns:xlink="http://www.w3.org/1999/xlink">
<defs>
<symbol id="icon-email" viewBox="0 0 24 24">
<path d="M20.016 8.016v-2.016l-8.016 5.016-8.016-5.016v2.016l8.016 4.969zM20.016 3.984q0.797 0 1.383 0.609t0.586 1.406v12q0 0.797-0.586 1.406t-1.383 0.609h-16.031q-0.797 0-1.383-0.609t-0.586-1.406v-12q0-0.797 0.586-1.406t1.383-0.609h16.031z"></path>
</symbol>
<symbol id="icon-transfer_within_a_station" viewBox="0 0 24 24">
<path d="M5.766 8.906l-2.766 14.109h2.109l1.734-8.016 2.156 2.016v6h2.016v-7.547l-2.063-2.063 0.609-3q2.109 2.578 5.438 2.578v-1.969q-1.359 0-2.508-0.68t-1.852-1.805l-0.938-1.594q-0.516-0.938-1.688-0.938-0.422 0-0.75 0.141l-5.25 2.156v4.688h1.969v-3.328l1.781-0.75zM9.516 5.484q-0.797 0-1.406-0.586t-0.609-1.383 0.609-1.406 1.406-0.609 1.383 0.609 0.586 1.406-0.586 1.383-1.383 0.586zM19.5 19.734v-1.734l2.484 2.484-2.484 2.531v-1.781h-5.484v-1.5h5.484zM16.5 15.516h5.484v1.5h-5.484v1.734l-2.484-2.484 2.484-2.531v1.781z"></path>
</symbol>
<symbol id="icon-phone_in_talk" viewBox="0 0 24 24">
<path d="M15 12q0-1.219-0.891-2.109t-2.109-0.891v-2.016q2.063 0 3.539 1.477t1.477 3.539h-2.016zM18.984 12q0-2.906-2.039-4.945t-4.945-2.039v-2.016q3.75 0 6.375 2.625t2.625 6.375h-2.016zM20.016 15.516q0.422 0 0.703 0.281t0.281 0.703v3.516q0 0.422-0.281 0.703t-0.703 0.281q-7.031 0-12.023-4.992t-4.992-12.023q0-0.422 0.281-0.703t0.703-0.281h3.516q0.422 0 0.703 0.281t0.281 0.703v0.047q0 1.922 0.563 3.516 0.094 0.188 0.094 0.328 0 0.469-0.328 0.703l-2.203 2.203q0.938 1.781 2.883 3.727t3.727 2.883l2.203-2.203q0.328-0.328 0.703-0.328 0.141 0 0.328 0.094 1.688 0.563 3.563 0.563z"></path>
</symbol>
<symbol id="icon-vpn_lock" viewBox="0 0 24 24">
<path d="M9.984 20.953v-1.969q-0.797 0-1.383-0.586t-0.586-1.383v-1.031l-4.828-4.781q-0.188 0.75-0.188 1.781 0 3.047 2.016 5.32t4.969 2.648zM18.938 12h2.016q0.047 0.328 0.047 0.984 0 4.172-2.93 7.102t-7.055 2.93q-4.172 0-7.102-2.93t-2.93-7.102q0-4.125 2.93-7.055t7.102-2.93q1.453 0 3 0.469v2.531q0 0.797-0.609 1.406t-1.406 0.609h-2.016v1.969q0 0.422-0.281 0.727t-0.703 0.305h-2.016v1.969h6q0.422 0 0.727 0.305t0.305 0.727v3h0.984q1.453 0 1.922 1.359 2.063-2.203 2.063-5.391 0-0.656-0.047-0.984zM21.188 3.984v-0.469q0-0.703-0.492-1.219t-1.195-0.516-1.195 0.516-0.492 1.219v0.469h3.375zM21.984 3.984q0.422 0 0.727 0.305t0.305 0.727v3.984q0 0.422-0.305 0.703t-0.727 0.281h-4.969q-0.422 0-0.727-0.281t-0.305-0.703v-3.984q0-0.422 0.305-0.727t0.727-0.305v-0.469q0-1.031 0.727-1.781t1.758-0.75 1.758 0.75 0.727 1.781v0.469z"></path>
</symbol>
<symbol id="icon-group" viewBox="0 0 24 24">
<path d="M15.984 12.984q1.313 0 2.859 0.375t2.859 1.219 1.313 1.922v2.484h-6v-2.484q0-2.063-1.969-3.469 0.328-0.047 0.938-0.047zM8.016 12.984q1.313 0 2.859 0.375t2.836 1.219 1.289 1.922v2.484h-14.016v-2.484q0-1.078 1.313-1.922t2.859-1.219 2.859-0.375zM8.016 11.016q-1.219 0-2.109-0.891t-0.891-2.109 0.891-2.109 2.109-0.891 2.086 0.891 0.867 2.109-0.867 2.109-2.086 0.891zM15.984 11.016q-1.219 0-2.109-0.891t-0.891-2.109 0.891-2.109 2.109-0.891 2.109 0.891 0.891 2.109-0.891 2.109-2.109 0.891z"></path>
</symbol>
<symbol id="icon-accessibility_new" viewBox="0 0 24 24">
<path d="M12 6q-0.797 0-1.406-0.609t-0.609-1.406 0.609-1.383 1.406-0.586 1.406 0.586 0.609 1.383-0.609 1.406-1.406 0.609zM20.484 6l0.516 2.016q-2.344 0.656-6 0.984v12.984h-2.016v-6h-1.969v6h-2.016v-12.984q-3.656-0.328-6-0.984l0.516-2.016q3.656 0.984 8.484 0.984t8.484-0.984z"></path>
</symbol>
<symbol id="icon-mark_as_unread" viewBox="0 0 24 24">
<path d="M20.016 11.672v-1.688l-6.516 3.328-6.516-3.328v1.688l6.516 3.328zM20.016 8.016q0.797 0 1.383 0.586t0.586 1.383v9q0 0.797-0.586 1.406t-1.383 0.609h-13.031q-0.797 0-1.383-0.609t-0.586-1.406v-9q0-0.797 0.586-1.383t1.383-0.586h13.031zM18.844 6.984h-2.625l-5.719-3-6.516 3.422v9.609q-0.797 0-1.383-0.609t-0.586-1.406v-7.828q0-0.984 0.797-1.359l7.688-3.797 7.547 3.797q0.703 0.422 0.797 1.172z"></path>
</symbol>
<symbol id="icon-emoji_flags" viewBox="0 0 24 24">
<path d="M18 17.016v-6h-5.016l-0.984-2.016h-5.016v6h6l1.031 2.016h3.984zM14.016 9h6v9.984h-7.031l-0.984-1.969h-5.016v3.984h-1.969v-15.281q-1.031-0.563-1.031-1.734 0-0.797 0.609-1.383t1.406-0.586 1.406 0.586 0.609 1.383q0 1.172-1.031 1.734v1.266h6z"></path>
</symbol>
<symbol id="icon-emoji_nature" viewBox="0 0 24 24">
<path d="M12.188 14.578q0.516-0.609 0.469-1.336t-0.609-1.289q-0.609-0.609-1.359-0.609-0.703 0-1.266 0.469l1.594 0.609q0.047 0 0.141 0.047l0.375 0.375 0.047 0.094v0.047zM10.969 19.922q0.938-0.328 0.609-1.266l-1.172-3.141q-1.219 2.344-0.703 3.797 0.375 0.984 1.266 0.609zM4.688 14.297q1.453 0.516 3.797-0.703l-3.188-1.172q-0.891-0.328-1.219 0.609-0.375 0.891 0.609 1.266zM12 9.563q1.781 0.609 2.391 2.438h1.594v1.031h-1.359q0.141 1.875-1.125 3.141l-0.563 0.422 0.563 1.406q0.141 0.422 0.141 0.984 0 0.891-0.563 1.734t-1.406 1.125q-0.516 0.141-1.031 0.141-1.594 0-2.438-1.266-0.422 0.141-1.125 0.141-1.594 0-2.766-1.172-1.641-1.641-1.031-3.891-0.703-0.469-1.102-1.477t-0.023-1.992q0.281-0.797 1.125-1.383t1.734-0.586q0.563 0 0.984 0.141l1.406 0.563 0.422-0.563q1.172-1.172 2.813-1.172 0.047 0 0.188 0.023t0.188 0.023v-1.359h0.984v1.547zM18 6.984q0.422 0 0.703-0.281t0.281-0.703-0.281-0.703-0.703-0.281-0.703 0.281-0.281 0.703 0.281 0.703 0.703 0.281zM21.938 4.875q0.328 0.938-0.563 1.5l-0.844 0.516 0.375 1.219q0.281 0.609-0.117 1.242t-1.102 0.633q-0.563 0-0.891-0.281l-0.797-0.703-0.797 0.703q-0.328 0.281-0.891 0.281-0.703 0-1.102-0.633t-0.117-1.242l0.422-1.219-0.891-0.516q-0.891-0.563-0.563-1.5 0.328-0.891 1.266-0.891h1.078l0.281-0.938q0.234-1.031 1.313-1.031t1.313 1.031l0.281 0.938h1.125q0.844 0 1.219 0.891z"></path>
</symbol>
<symbol id="icon-post_add" viewBox="0 0 24 24">
<path d="M6.984 15h8.016v2.016h-8.016v-2.016zM6.984 12h8.016v2.016h-8.016v-2.016zM6.984 9h8.016v2.016h-8.016v-2.016zM18.984 2.016v3h3v1.969h-3v3h-1.969v-3h-3v-1.969h3v-3h1.969zM17.016 19.219v-7.219h1.969v6.984q0 0.797-0.586 1.406t-1.383 0.609h-12q-0.797 0-1.406-0.609t-0.609-1.406v-12q0-0.797 0.609-1.383t1.406-0.586h6.984v1.969h-6.984v12.234h12z"></path>
</symbol>
<symbol id="icon-emoji_events" viewBox="0 0 24 24">
<path d="M18.984 8.016v-1.031h-1.969v3.844q1.969-0.703 1.969-2.813zM6.984 10.828v-3.844h-1.969v1.031q0 2.109 1.969 2.813zM18.984 5.016q0.797 0 1.406 0.586t0.609 1.383v1.031q0 1.875-1.266 3.281t-3.141 1.641q-0.422 1.031-1.477 1.875t-2.133 1.078v3.094h4.031v2.016h-10.031v-2.016h4.031v-3.094q-1.078-0.234-2.133-1.078t-1.477-1.875q-1.875-0.234-3.141-1.641t-1.266-3.281v-1.031q0-0.797 0.609-1.383t1.406-0.586h1.969v-2.016h10.031v2.016h1.969z"></path>
</symbol>
<symbol id="icon-elevator" viewBox="0 0 24 24">
<path d="M18.984 3h-13.969q-0.844 0-1.43 0.586t-0.586 1.43v13.969q0 0.844 0.586 1.43t1.43 0.586h13.969q0.844 0 1.43-0.586t0.586-1.43v-13.969q0-0.844-0.586-1.43t-1.43-0.586zM8.484 6q0.516 0 0.891 0.375t0.375 0.891-0.375 0.867-0.891 0.352-0.867-0.352-0.352-0.867 0.352-0.891 0.867-0.375zM11.016 14.016h-1.031v3.984h-3v-3.984h-0.984v-2.531q0-0.797 0.586-1.383t1.43-0.586h0.984q0.844 0 1.43 0.586t0.586 1.383v2.531zM15.516 17.016l-2.531-4.031h5.016zM12.984 11.016l2.531-4.031 2.484 4.031h-5.016z"></path>
</symbol>
<symbol id="icon-engineering" viewBox="0 0 24 24">
<path d="M9 15q-0.797 0-1.852 0.164t-2.133 0.492-1.992 0.797-1.477 1.102-0.563 1.43v2.016h16.031v-2.016q0-0.797-0.563-1.43t-1.477-1.102-1.992-0.797-2.133-0.492-1.852-0.164zM22.078 6.844q0.047-0.094 0.047-0.164v-0.164q0-0.188-0.047-0.375l0.75-0.563q0.141-0.094 0.047-0.234l-0.703-1.172q-0.047-0.141-0.234-0.094l-0.844 0.328q-0.234-0.188-0.563-0.328l-0.141-0.938q-0.047-0.141-0.188-0.141h-1.406q-0.141 0-0.188 0.141l-0.094 0.938q-0.328 0.141-0.609 0.328l-0.844-0.328q-0.188-0.047-0.234 0.094l-0.703 1.172q-0.047 0.141 0.047 0.234l0.75 0.563q-0.047 0.188-0.047 0.375 0 0.141 0.047 0.328l-0.75 0.563q-0.141 0.094-0.047 0.234l0.703 1.219q0.047 0.094 0.234 0.094l0.844-0.375q0.234 0.188 0.609 0.328l0.094 0.938q0.047 0.141 0.188 0.141h1.406q0.141 0 0.188-0.141l0.094-0.938q0.328-0.094 0.609-0.328l0.844 0.375q0.188 0.047 0.234-0.094l0.703-1.219q0.047-0.141-0.047-0.234zM19.5 7.734q-0.516 0-0.891-0.352t-0.375-0.867 0.375-0.891 0.891-0.375 0.891 0.375 0.375 0.891-0.375 0.867-0.891 0.352zM19.922 11.672l-0.516-0.844q-0.047-0.141-0.141-0.094l-0.609 0.281q-0.188-0.188-0.422-0.234l-0.094-0.703q-0.047-0.094-0.141-0.094h-0.984q-0.141 0-0.141 0.141l-0.094 0.656q-0.094 0.047-0.211 0.094t-0.211 0.141l-0.609-0.234q-0.094-0.047-0.141 0.047l-0.516 0.844q-0.047 0.094 0.047 0.188l0.516 0.422v0.469l-0.516 0.422q-0.094 0.047-0.047 0.141l0.516 0.891q0.047 0.094 0.141 0.047l0.609-0.281q0.188 0.188 0.422 0.281l0.094 0.656q0 0.094 0.141 0.094h0.984q0.141 0 0.141-0.094l0.047-0.656q0.141-0.047 0.234-0.117t0.188-0.164l0.656 0.281q0.094 0.047 0.141-0.047l0.516-0.891q0.047-0.094-0.047-0.141l-0.516-0.422v-0.469l0.516-0.422q0.094-0.094 0.047-0.188zM17.484 13.313q-0.328 0-0.563-0.234t-0.234-0.563q0-0.375 0.234-0.609t0.563-0.234q0.375 0 0.609 0.234t0.234 0.609q0 0.328-0.234 0.563t-0.609 0.234zM4.734 9h8.531q0.188 0 0.352-0.141t0.164-0.328v-0.047q0-0.188-0.164-0.328t-0.352-0.141h-0.281q0-1.125-0.539-2.039t-1.43-1.43v0.938q0 0.234-0.164 0.375t-0.352 0.141-0.352-0.141-0.164-0.375v-1.359l-0.469-0.094t-0.516-0.047-0.516 0.047l-0.469 0.094v1.359q0 0.234-0.164 0.375t-0.352 0.141-0.352-0.141-0.164-0.375v-0.938q-0.891 0.516-1.43 1.43t-0.539 2.039h-0.281q-0.188 0-0.328 0.141t-0.141 0.328v0.047q0 0.188 0.141 0.328t0.328 0.141zM9 12.984q1.406 0 2.461-0.844t1.383-2.156h-7.688q0.328 1.313 1.383 2.156t2.461 0.844z"></path>
</symbol>
<symbol id="icon-escalator_warning" viewBox="0 0 24 24">
<path d="M6.516 2.016q0.797 0 1.383 0.586t0.586 1.383q0 0.844-0.586 1.43t-1.383 0.586q-0.844 0-1.43-0.586t-0.586-1.43q0-0.797 0.586-1.383t1.43-0.586zM15.516 9.516q0 0.609 0.422 1.055t1.078 0.445q0.609 0 1.055-0.445t0.445-1.055q0-0.656-0.445-1.078t-1.055-0.422q-0.656 0-1.078 0.422t-0.422 1.078zM18.516 12h-2.859q-0.422 0-0.82 0.234t-0.633 0.609l-0.891 1.359-3.609-6.188q-0.281-0.469-0.727-0.75t-0.961-0.281h-3q-0.844 0-1.43 0.586t-0.586 1.43v6h1.5v6.984h5.016v-10.359l2.531 4.359h2.203l0.75-1.078v7.078h3.984v-4.969h1.031v-3.516q0-0.609-0.445-1.055t-1.055-0.445z"></path>
</symbol>
<symbol id="icon-family_restroom" viewBox="0 0 24 24">
<path d="M15.984 3.984q0-0.797 0.586-1.383t1.43-0.586 1.43 0.586 0.586 1.383q0 0.844-0.586 1.43t-1.43 0.586-1.43-0.586-0.586-1.43zM20.016 21.984v-6h2.484l-2.531-7.594q-0.234-0.656-0.75-1.031t-1.172-0.375h-0.094q-0.656 0-1.172 0.375t-0.75 1.031l-0.844 2.578q0.797 0.422 1.313 1.242t0.516 1.805v7.969h3zM12.516 11.484q0.609 0 1.055-0.422t0.445-1.078q0-0.609-0.445-1.055t-1.055-0.445q-0.656 0-1.078 0.445t-0.422 1.055q0 0.656 0.422 1.078t1.078 0.422zM5.484 6q0.844 0 1.43-0.586t0.586-1.43q0-0.797-0.586-1.383t-1.43-0.586q-0.797 0-1.383 0.586t-0.586 1.383q0 0.844 0.586 1.43t1.383 0.586zM7.5 21.984v-6.984h1.5v-6q0-0.844-0.586-1.43t-1.43-0.586h-3q-0.797 0-1.383 0.586t-0.586 1.43v6h1.5v6.984h3.984zM14.016 21.984v-3.984h0.984v-3.984q0-0.609-0.445-1.055t-1.055-0.445h-2.016q-0.609 0-1.055 0.445t-0.445 1.055v3.984h1.031v3.984h3z"></path>
</symbol>
<symbol id="icon-local_police" viewBox="0 0 24 24">
<path d="M12 0.984l-9 4.031v6q0 2.063 0.68 4.008t1.898 3.586 2.859 2.789 3.563 1.617q1.922-0.469 3.563-1.617t2.859-2.789 1.898-3.586 0.68-4.008v-6zM14.484 12.609l0.938 3.844-3.422-2.016-3.422 2.016 0.938-3.844-3-2.578 3.938-0.375 1.547-3.656 1.547 3.656 3.938 0.328z"></path>
</symbol>
<symbol id="icon-psychology" viewBox="0 0 24 24">
<path d="M12.984 8.578q-0.563 0-0.984 0.422t-0.422 0.984q0 0.609 0.422 1.031t0.984 0.422q0.609 0 1.031-0.422t0.422-1.031q0-0.563-0.422-0.984t-1.031-0.422zM12.984 3q-1.406 0-2.625 0.516t-2.18 1.43-1.523 2.109-0.656 2.602l-1.922 2.531q-0.188 0.281-0.047 0.539t0.469 0.258h1.5v3q0 0.844 0.586 1.43t1.43 0.586h0.984v3h6.984v-4.688q1.781-0.844 2.906-2.531t1.125-3.797q0-1.453-0.563-2.719t-1.523-2.227-2.227-1.5-2.719-0.539zM15.984 9.984v0.422l0.844 0.656q0.094 0.094 0.047 0.234l-0.797 1.406q-0.094 0.141-0.281 0.094l-0.984-0.422q-0.281 0.234-0.656 0.375l-0.141 1.078q-0.047 0.188-0.234 0.188h-1.594q-0.141 0-0.188-0.188l-0.141-1.078q-0.375-0.141-0.703-0.375l-0.984 0.422q-0.141 0.047-0.234-0.094l-0.797-1.406q-0.094-0.141 0.047-0.234l0.844-0.656q0-0.094-0.023-0.211t-0.023-0.211 0.023-0.188 0.023-0.188l-0.844-0.656q-0.141-0.094-0.047-0.281l0.797-1.359q0.094-0.141 0.234-0.094l1.031 0.422q0.328-0.281 0.656-0.422l0.141-1.031q0.047-0.188 0.188-0.188h1.594q0.188 0 0.234 0.188l0.141 1.031q0.328 0.141 0.656 0.422l0.984-0.422q0.188-0.047 0.281 0.094l0.797 1.359q0.094 0.188-0.047 0.281l-0.891 0.656q0.047 0.141 0.047 0.375z"></path>
</symbol>
<symbol id="icon-receipt_long" viewBox="0 0 24 24">
<path d="M19.5 3.516l-1.5-1.5-1.5 1.5-1.5-1.5-1.5 1.5-1.5-1.5-1.5 1.5-1.5-1.5-1.5 1.5-1.5-1.5v13.969h-3v3q0 0.844 0.398 1.523t1.078 1.078 1.523 0.398h12q0.844 0 1.523-0.398t1.078-1.078 0.398-1.523v-16.969zM18.984 18.984q0 0.422-0.281 0.727t-0.703 0.305-0.703-0.305-0.281-0.727v-3h-9v-10.969h10.969v13.969zM9 6.984h6v2.016h-6v-2.016zM15.984 6.984h2.016v2.016h-2.016v-2.016zM9 9.984h6v2.016h-6v-2.016zM15.984 9.984h2.016v2.016h-2.016v-2.016z"></path>
</symbol>
<symbol id="icon-verified" viewBox="0 0 24 24">
<path d="M23.016 12l-2.438-2.813 0.328-3.656-3.609-0.844-1.875-3.188-3.422 1.453-3.422-1.453-1.875 3.188-3.609 0.797 0.328 3.703-2.438 2.813 2.438 2.813-0.328 3.656 3.609 0.844 1.875 3.188 3.422-1.453 3.422 1.453 1.875-3.188 3.609-0.844-0.328-3.656zM10.078 16.734l-3.797-3.844 1.5-1.453 2.297 2.344 5.859-5.906 1.5 1.5z"></path>
</symbol>
<symbol id="icon-check_circle" viewBox="0 0 24 24">
<path d="M9.984 17.016l9-9-1.406-1.453-7.594 7.594-3.563-3.563-1.406 1.406zM12 2.016q4.125 0 7.055 2.93t2.93 7.055-2.93 7.055-7.055 2.93-7.055-2.93-2.93-7.055 2.93-7.055 7.055-2.93z"></path>
</symbol>
<symbol id="icon-envelope" viewBox="0 0 38 32">
<path d="M20.060 0.413c-0.58-0.533-1.539-0.533-2.119 0l-17.688 10.671c-0.15 0.091-0.242 0.253-0.242 0.428v18.922c0 0.863 0.706 1.566 1.574 1.566h34.83c0.868 0 1.574-0.703 1.574-1.566v-18.922c0-0.175-0.092-0.337-0.242-0.428l-17.687-10.671zM18.504 1.24c0.035-0.021 0.066-0.046 0.095-0.074 0.108-0.107 0.25-0.166 0.401-0.166s0.293 0.059 0.4 0.166c0.029 0.028 0.061 0.053 0.095 0.074l17.227 10.394-12.478 7.436c-0.237 0.142-0.315 0.448-0.174 0.686 0.094 0.157 0.26 0.244 0.43 0.244 0.087 0 0.175-0.022 0.255-0.070l12.245-7.29v17.757l-16.935-11.266c-0.538-0.429-1.594-0.429-2.096-0.025l-16.969 11.286v-17.752l12.244 7.29c0.080 0.048 0.169 0.070 0.256 0.070 0.17 0 0.336-0.087 0.43-0.244 0.141-0.237 0.063-0.544-0.174-0.686l-12.479-7.436 17.227-10.394zM36.090 31h-34.188l16.656-11.086c0.173-0.138 0.712-0.137 0.919 0.025l16.613 11.061zM6.5 13h25c0.276 0 0.5-0.224 0.5-0.5s-0.224-0.5-0.5-0.5h-25c-0.276 0-0.5 0.224-0.5 0.5s0.224 0.5 0.5 0.5z"></path>
</symbol>
<symbol id="icon-telescope" viewBox="0 0 35 32">
<path d="M27.464 2.314c-0.053-0.132-0.159-0.235-0.292-0.284s-0.281-0.039-0.406 0.027l-11.906 6.282c-0.224 0.118-0.324 0.385-0.233 0.621l0.245 0.641-6.873 3.769c-0.225 0.123-0.32 0.395-0.222 0.63l0.228 0.549-7.299 3.488c-0.24 0.115-0.348 0.397-0.246 0.643l1.498 3.61c0.080 0.192 0.265 0.309 0.462 0.309 0.056 0 0.112-0.009 0.167-0.029l7.625-2.701 0.228 0.549c0.079 0.191 0.264 0.309 0.462 0.309 0.046 0 0.092-0.006 0.139-0.020l7.276-2.097 0.218 0.569c0.074 0.197 0.263 0.321 0.465 0.321 0.049 0 0.098-0.007 0.147-0.022l13-4c0.134-0.041 0.244-0.136 0.304-0.262s0.065-0.272 0.013-0.401l-5-12.501zM2.7 21.469l-1.134-2.734 6.823-3.261 1.439 3.47-7.128 2.525zM11.191 19.623l-0.238-0.574c0 0 0 0 0 0l-1.843-4.445c0 0 0 0 0 0l-0.238-0.573 6.336-3.475 2.374 6.134 0.375 0.981-6.766 1.952zM19.3 18.385l-0.203-0.531c-0.003-0.011-0.001-0.024-0.006-0.035l-0.618-1.597-2.754-7.206 11.023-5.815 4.592 11.48-12.034 3.704zM28.964 0.314c-0.103-0.257-0.395-0.381-0.65-0.279-0.256 0.103-0.381 0.394-0.279 0.65l6 15c0.079 0.196 0.267 0.315 0.465 0.315 0.062 0 0.125-0.011 0.186-0.036 0.256-0.103 0.381-0.394 0.279-0.65l-6.001-15zM18 21h-3c-1.14 0-2 0.86-2 2v1.315l-5.879 6.859c-0.18 0.209-0.156 0.525 0.054 0.705 0.094 0.081 0.21 0.121 0.325 0.121 0.141 0 0.281-0.059 0.379-0.175l5.851-6.825h2.27v6.5c0 0.276 0.224 0.5 0.5 0.5s0.5-0.224 0.5-0.5v-6.5h2.27l5.85 6.825c0.099 0.116 0.239 0.175 0.38 0.175 0.115 0 0.231-0.040 0.325-0.121 0.21-0.18 0.234-0.495 0.054-0.705l-5.879-6.859v-1.24c0-1.163-0.878-2.075-2-2.075zM19 24h-5v-1c0-0.589 0.411-1 1-1h3c0.57 0 1 0.462 1 1.075v0.925z"></path>
</symbol>
<symbol id="icon-gears" viewBox="0 0 42 32">
<path d="M3.692 21.72c0.176 0.042 0.415 0.259 0.484 0.457l0.35 0.844c0.079 0.162 0.064 0.483-0.030 0.637l-1.397 2.284c-0.299 0.49-0.237 1.184 0.165 1.634l1.183 1.182c0.412 0.366 1.139 0.432 1.613 0.145l2.284-1.397c0.143-0.088 0.45-0.119 0.665-0.018l0.843 0.348c0.17 0.059 0.387 0.297 0.429 0.473l0.627 2.604c0.133 0.552 0.66 1.006 1.226 1.058 0 0 0.347 0.032 0.867 0.032s0.867-0.032 0.868-0.032c0.565-0.051 1.092-0.506 1.225-1.058l0.628-2.604c0.042-0.175 0.258-0.414 0.456-0.483l0.844-0.35c0.149-0.073 0.494-0.058 0.637 0.030l2.284 1.397c0.201 0.123 0.441 0.188 0.696 0.188 0.345 0 0.679-0.121 0.938-0.352l1.182-1.183c0.382-0.429 0.444-1.123 0.145-1.613l-1.397-2.284c-0.094-0.154-0.109-0.475-0.018-0.665l0.348-0.843c0.059-0.17 0.297-0.387 0.473-0.429l2.604-0.627c0.552-0.133 1.006-0.66 1.058-1.226 0 0 0.032-0.347 0.032-0.867s-0.032-0.867-0.032-0.868c-0.051-0.565-0.506-1.092-1.058-1.226l-2.603-0.626c-0.176-0.042-0.415-0.259-0.484-0.457l-0.35-0.844c-0.079-0.162-0.064-0.483 0.030-0.637l1.397-2.284c0.299-0.49 0.237-1.184-0.165-1.634l-1.183-1.182c-0.413-0.367-1.141-0.433-1.613-0.145l-2.284 1.397c-0.143 0.087-0.451 0.12-0.665 0.018l-0.843-0.348c-0.17-0.059-0.386-0.297-0.428-0.473l-0.628-2.604c-0.133-0.552-0.66-1.006-1.226-1.058-0.002 0.001-0.349-0.031-0.869-0.031s-0.867 0.032-0.868 0.032c-0.565 0.051-1.092 0.506-1.226 1.058l-0.626 2.602c-0.042 0.176-0.259 0.415-0.457 0.484l-0.844 0.35c-0.15 0.073-0.494 0.057-0.637-0.030l-2.283-1.397c-0.473-0.288-1.185-0.238-1.634 0.164l-1.182 1.183c-0.382 0.429-0.444 1.123-0.145 1.613l1.397 2.284c0.094 0.154 0.109 0.475 0.018 0.665l-0.348 0.843c-0.059 0.17-0.297 0.387-0.473 0.429l-2.604 0.627c-0.552 0.133-1.006 0.66-1.058 1.226 0.002 0-0.030 0.347-0.030 0.867s0.032 0.867 0.032 0.868c0.051 0.565 0.506 1.092 1.058 1.226l2.602 0.626zM1 19c0-0.458 0.027-0.767 0.028-0.777 0.012-0.135 0.165-0.312 0.296-0.344l2.604-0.627c0.505-0.122 1.014-0.584 1.172-1.047l0.324-0.787c0.228-0.467 0.196-1.153-0.075-1.597l-1.397-2.283c-0.067-0.111-0.048-0.331 0.018-0.406l1.141-1.142c0.091-0.081 0.323-0.101 0.427-0.038l2.284 1.397c0.433 0.265 1.175 0.283 1.568 0.088l0.788-0.326c0.491-0.169 0.953-0.678 1.075-1.184l0.626-2.603c0.032-0.132 0.209-0.285 0.344-0.297 0.010 0 0.319-0.027 0.777-0.027s0.767 0.027 0.777 0.028c0.135 0.012 0.312 0.165 0.344 0.296l0.627 2.603c0.122 0.505 0.583 1.015 1.047 1.173l0.787 0.324c0.457 0.224 1.165 0.189 1.597-0.075l2.283-1.397c0.104-0.063 0.35-0.030 0.406 0.018l1.142 1.141c0.086 0.097 0.105 0.316 0.038 0.427l-1.397 2.284c-0.271 0.443-0.303 1.13-0.088 1.568l0.326 0.788c0.169 0.491 0.678 0.953 1.184 1.075l2.603 0.626c0.132 0.032 0.285 0.209 0.297 0.344 0 0.010 0.027 0.319 0.027 0.777s-0.027 0.767-0.028 0.777c-0.012 0.135-0.165 0.312-0.296 0.344l-2.604 0.627c-0.505 0.122-1.014 0.584-1.172 1.047l-0.324 0.787c-0.228 0.467-0.196 1.153 0.075 1.597l1.397 2.283c0.067 0.111 0.048 0.331-0.018 0.406l-1.141 1.142c-0.054 0.048-0.152 0.079-0.251 0.079-0.069 0-0.133-0.015-0.175-0.041l-2.284-1.397c-0.432-0.264-1.174-0.283-1.568-0.088l-0.788 0.326c-0.491 0.169-0.953 0.679-1.074 1.184l-0.627 2.603c-0.032 0.132-0.209 0.285-0.344 0.297-0.011 0-0.32 0.027-0.778 0.027s-0.767-0.027-0.777-0.028c-0.135-0.012-0.312-0.165-0.344-0.296l-0.627-2.604c-0.122-0.505-0.584-1.014-1.047-1.172l-0.787-0.324c-0.204-0.1-0.451-0.152-0.715-0.152-0.329 0-0.642 0.081-0.882 0.228l-2.283 1.397c-0.104 0.063-0.351 0.029-0.406-0.018l-1.142-1.142c-0.086-0.097-0.105-0.316-0.038-0.427l1.397-2.284c0.271-0.443 0.303-1.13 0.088-1.568l-0.326-0.788c-0.169-0.491-0.678-0.953-1.184-1.075l-2.603-0.626c-0.132-0.032-0.285-0.209-0.297-0.344 0-0.010-0.027-0.319-0.027-0.777zM13 24.5c3.033 0 5.5-2.467 5.5-5.5s-2.467-5.5-5.5-5.5-5.5 2.467-5.5 5.5 2.467 5.5 5.5 5.5zM13 14.5c2.481 0 4.5 2.019 4.5 4.5s-2.019 4.5-4.5 4.5-4.5-2.019-4.5-4.5 2.019-4.5 4.5-4.5zM27.477 5.314c-0.040 0.061-0.185 0.138-0.259 0.138l-1.861-0.018c-0.452 0-0.905 0.321-1.053 0.746 0 0-0.082 0.233-0.172 0.59s-0.128 0.601-0.128 0.601c-0.070 0.451 0.181 0.95 0.584 1.161l1.641 0.86c0.063 0.033 0.156 0.172 0.166 0.273l0.093 0.635c0.015 0.070-0.033 0.23-0.084 0.28l-1.322 1.296c-0.331 0.324-0.418 0.878-0.19 1.313l0.599 1c0.253 0.372 0.801 0.562 1.231 0.428l1.824-0.558c0.099 0 0.198 0.038 0.254 0.083l0.515 0.38c0.060 0.040 0.139 0.187 0.138 0.259l-0.018 1.852c-0.004 0.456 0.316 0.913 0.746 1.063 0 0 0.233 0.082 0.59 0.172s0.601 0.128 0.601 0.128c0.026 0.004 0.13 0.012 0.156 0.012 0.408 0 0.822-0.245 1.005-0.596l0.86-1.641c0.033-0.063 0.172-0.156 0.273-0.166l0.663-0.096c0.1 0 0.218 0.052 0.251 0.086l1.296 1.322c0.315 0.322 0.846 0.437 1.313 0.19l0.999-0.599c0.382-0.26 0.567-0.79 0.429-1.231l-0.552-1.767c-0.021-0.068 0.012-0.232 0.078-0.311l0.38-0.515c0.040-0.061 0.185-0.138 0.259-0.138l1.861 0.018c0.452 0 0.905-0.321 1.053-0.746 0 0 0.082-0.233 0.172-0.59s0.128-0.601 0.128-0.601c0.070-0.451-0.181-0.95-0.584-1.161l-1.641-0.86c-0.063-0.033-0.156-0.172-0.166-0.273l-0.092-0.633c-0.015-0.070 0.033-0.23 0.084-0.28l1.322-1.296c0.331-0.324 0.418-0.878 0.19-1.313l-0.599-1c-0.253-0.371-0.8-0.563-1.231-0.429l-1.825 0.558c-0.099 0-0.198-0.038-0.254-0.083l-0.515-0.38c-0.060-0.040-0.139-0.187-0.138-0.259l0.018-1.852c0.004-0.456-0.316-0.913-0.746-1.063 0 0-0.233-0.082-0.59-0.172s-0.601-0.128-0.601-0.128c-0.026-0.003-0.13-0.011-0.156-0.011-0.408 0-0.822 0.245-1.005 0.596l-0.86 1.641c-0.033 0.063-0.172 0.156-0.273 0.166l-0.663 0.095c-0.1 0-0.218-0.052-0.251-0.086l-1.296-1.322c-0.314-0.321-0.844-0.437-1.313-0.19l-1 0.598c-0.382 0.26-0.567 0.79-0.429 1.231l0.552 1.767c0.021 0.068-0.012 0.232-0.078 0.311l-0.379 0.515zM28.297 5.886l0.343-0.466c0.268-0.317 0.372-0.834 0.248-1.229l-0.551-1.766c-0.005-0.028 0.017-0.091 0.012-0.092l0.948-0.568 0.113 0.017 1.297 1.322c0.23 0.234 0.609 0.386 0.965 0.386 0.082 0 0.161-0.008 0.204-0.019l0.575-0.085c0.412-0.036 0.851-0.328 1.043-0.694l0.859-1.64c0.016-0.025 0.079-0.061 0.12-0.061 0.011 0.001 0.215 0.035 0.513 0.109s0.493 0.142 0.502 0.146c0.031 0.013 0.076 0.078 0.078 0.11l-0.018 1.852c-0.004 0.414 0.245 0.879 0.567 1.089l0.465 0.343c0.309 0.261 0.839 0.371 1.229 0.248l1.774-0.552c0.042 0 0.089 0.026 0.083 0.013l0.568 0.948c0.011 0.026 0 0.092-0.017 0.113l-1.322 1.297c-0.295 0.291-0.448 0.795-0.367 1.169l0.084 0.575c0.036 0.412 0.328 0.851 0.695 1.043l1.64 0.859c0.028 0.018 0.063 0.088 0.061 0.12-0.001 0.011-0.035 0.215-0.109 0.513s-0.142 0.493-0.146 0.502c-0.013 0.031-0.078 0.076-0.11 0.078l-1.862-0.018c-0.411 0-0.871 0.249-1.079 0.567l-0.342 0.465c-0.268 0.317-0.372 0.834-0.248 1.229l0.551 1.766c0.005 0.027-0.017 0.091-0.012 0.092l-0.948 0.568-0.113-0.017-1.297-1.322c-0.23-0.234-0.609-0.386-0.965-0.386-0.082 0-0.161 0.008-0.204 0.019l-0.575 0.085c-0.412 0.036-0.851 0.328-1.043 0.694l-0.859 1.64c-0.016 0.025-0.079 0.061-0.12 0.061v0c-0.011-0.001-0.215-0.035-0.513-0.109-0.297-0.075-0.493-0.142-0.502-0.146-0.031-0.013-0.076-0.078-0.078-0.11l0.018-1.852c0.004-0.414-0.245-0.879-0.567-1.089l-0.465-0.343c-0.222-0.188-0.549-0.3-0.875-0.3-0.126 0-0.246 0.018-0.355 0.052l-1.774 0.552c-0.043 0-0.090-0.023-0.083-0.013l-0.568-0.948c-0.011-0.026 0-0.092 0.017-0.113l1.322-1.297c0.295-0.291 0.448-0.795 0.367-1.169l-0.084-0.574c-0.036-0.412-0.328-0.851-0.695-1.043l-1.64-0.859c-0.028-0.018-0.063-0.088-0.061-0.12 0.001-0.011 0.035-0.215 0.109-0.513 0.075-0.297 0.142-0.493 0.146-0.502 0.013-0.031 0.078-0.076 0.11-0.078l1.862 0.018c0.411 0 0.871-0.249 1.079-0.567zM33 12c1.654 0 3-1.346 3-3s-1.346-3-3-3-3 1.346-3 3 1.346 3 3 3zM33 7c1.103 0 2 0.897 2 2s-0.897 2-2 2-2-0.897-2-2 0.897-2 2-2z"></path>
</symbol>
<symbol id="icon-key" viewBox="0 0 32 32">
<path d="M14.683 14.698c0.117 0 0.235-0.041 0.33-0.124l11.317-9.922-0.66-0.752-11.317 9.921c-0.208 0.182-0.229 0.498-0.046 0.706 0.099 0.113 0.237 0.171 0.376 0.171zM10.188 32c6.142 0 9.812-4.83 9.812-9.5 0-1.346-0.322-2.829-0.798-3.792l4.522-2.261c0.169-0.085 0.276-0.258 0.276-0.447v-4h3c0.011 0 0.102-0.006 0.113-0.006 0.666-0.045 0.865-0.257 0.887-0.994v-4h3c0.129 0 0.218 0.014 0.278 0.023 0.121 0.019 0.347 0.054 0.543-0.122 0.202-0.18 0.193-0.408 0.185-0.609-0.002-0.072-0.006-0.167-0.006-0.292v-4.531c0-0.81-0.659-1.469-1.469-1.469h-3.875c-0.354 0-0.698 0.129-0.969 0.364l-13.187 11.56c-0.649-0.13-1.63-0.299-2.313-0.299-5.617 0-10.187 4.57-10.187 10.187s4.57 10.188 10.188 10.188zM10.188 12.625c0.501 0 1.359 0.12 2.354 0.328 0.155 0.034 0.314-0.010 0.432-0.113l13.371-11.722c0.087-0.076 0.198-0.118 0.311-0.118h3.875c0.259 0 0.469 0.21 0.469 0.469v4.531h-3.5c-0.276 0-0.5 0.224-0.5 0.5v4.5h-3.5c-0.276 0-0.5 0.224-0.5 0.5v4.191l-4.724 2.362c-0.131 0.065-0.227 0.186-0.262 0.328s-0.006 0.293 0.080 0.412c0.44 0.607 0.906 2.114 0.906 3.707 0 4.178-3.296 8.5-8.812 8.5-5.066 0-9.188-4.122-9.188-9.188s4.122-9.187 9.188-9.187zM8.5 27c1.93 0 3.5-1.57 3.5-3.5s-1.57-3.5-3.5-3.5-3.5 1.57-3.5 3.5 1.57 3.5 3.5 3.5zM8.5 21c1.378 0 2.5 1.122 2.5 2.5s-1.122 2.5-2.5 2.5-2.5-1.122-2.5-2.5 1.122-2.5 2.5-2.5z"></path>
</symbol>
<symbol id="icon-pricetags" viewBox="0 0 42 32">
<path d="M40.5 0h-10c-0.691 0-1.574 0.376-2.047 0.87l-1.33 1.34c-0.194 0.196-0.192 0.513 0.004 0.707 0.194 0.194 0.513 0.193 0.707-0.003l1.334-1.346c0.285-0.297 0.92-0.568 1.332-0.568h10c0.275 0 0.5 0.224 0.5 0.5v10.049c0 0.411-0.271 1.046-0.574 1.337l-14.081 13.972c-0.201 0.191-0.535 0.186-0.73-0.008l-2.648-2.649c-0.195-0.195-0.512-0.195-0.707 0s-0.195 0.512 0 0.707l2.648 2.649c0.294 0.293 0.684 0.441 1.074 0.441 0.382 0 0.765-0.141 1.062-0.424l14.082-13.973c0.498-0.478 0.874-1.361 0.874-2.052v-10.049c0-0.827-0.673-1.5-1.5-1.5zM39.038 5c0-1.103-0.897-2-2-2s-2 0.897-2 2 0.897 2 2 2 2-0.897 2-2zM36.038 5c0-0.551 0.448-1 1-1s1 0.449 1 1-0.448 1-1 1-1-0.449-1-1zM16.462 4c-0.691 0-1.574 0.376-2.048 0.87l-13.993 14.131c-0.568 0.592-0.56 1.547 0.021 2.128l10.428 10.428c0.285 0.286 0.667 0.443 1.076 0.443 0.396 0 0.77-0.149 1.059-0.426l14.081-13.972c0.499-0.478 0.876-1.361 0.876-2.053v-10.049c0-0.827-0.673-1.5-1.5-1.5h-10zM27 5.5v10.049c0 0.412-0.309 1.046-0.612 1.337l-14.081 13.972c-0.195 0.185-0.54 0.181-0.729-0.008l-10.429-10.427c-0.195-0.196-0.199-0.53-0.013-0.723l13.994-14.132c0.285-0.297 0.92-0.568 1.332-0.568h10c0.275 0 0.538 0.224 0.538 0.5zM23 7c-1.103 0-2 0.897-2 2s0.897 2 2 2 2-0.897 2-2-0.897-2-2-2zM23 10c-0.552 0-1-0.449-1-1s0.448-1 1-1 1 0.449 1 1-0.448 1-1 1z"></path>
</symbol>
<symbol id="icon-tools-2" viewBox="0 0 32 32">
<path d="M28.354 1.354c0.115-0.115 0.167-0.279 0.139-0.439s-0.132-0.297-0.28-0.366c-2.291-1.080-5.010-0.606-6.798 1.191-1.698 1.709-2.291 4.393-1.499 6.637l-11.539 11.539c-0.627-0.224-1.297-0.336-1.996-0.336-1.714 0-3.376 0.682-4.559 1.872-1.782 1.792-2.284 4.44-1.281 6.747 0.066 0.152 0.203 0.262 0.366 0.292 0.164 0.031 0.331-0.021 0.447-0.139l3.491-3.509c0.23-0.232 0.601-0.263 0.793-0.068l1.507 1.577c0.219 0.221 0.209 0.562-0.022 0.795l-3.478 3.5c-0.115 0.115-0.166 0.279-0.138 0.439s0.132 0.296 0.279 0.365c0.829 0.391 1.701 0.588 2.591 0.588 1.572 0 3.065-0.632 4.207-1.78 1.698-1.708 2.291-4.392 1.498-6.636l11.539-11.54c0.628 0.224 1.298 0.336 1.997 0.336 1.714 0 3.376-0.682 4.559-1.872 1.782-1.792 2.284-4.44 1.281-6.747-0.066-0.152-0.203-0.262-0.366-0.292-0.161-0.028-0.33 0.021-0.447 0.139l-3.491 3.509c-0.215 0.216-0.58 0.214-0.801-0.010l-1.499-1.499c-0.226-0.227-0.225-0.568-0.001-0.794l3.501-3.499zM24.146 6.354l1.499 1.499c0.599 0.602 1.625 0.605 2.218 0.009l2.93-2.944c0.469 1.741-0.016 3.609-1.324 4.926-0.997 1.003-2.399 1.577-3.85 1.577-0.683 0-1.33-0.128-1.923-0.38-0.188-0.081-0.405-0.037-0.549 0.106l-12 12c-0.144 0.144-0.186 0.36-0.107 0.547 0.803 1.91 0.314 4.375-1.163 5.861-1.321 1.328-3.244 1.801-4.985 1.258l2.941-2.96c0.621-0.625 0.631-1.594 0.029-2.198l-1.506-1.577c-0.581-0.585-1.614-0.549-2.218 0.062l-2.93 2.944c-0.469-1.741 0.016-3.609 1.324-4.926 0.997-1.003 2.399-1.577 3.85-1.577 0.683 0 1.33 0.128 1.923 0.38 0.187 0.082 0.405 0.037 0.549-0.106l12-12c0.144-0.144 0.186-0.36 0.107-0.547-0.803-1.91-0.314-4.376 1.163-5.862 1.32-1.328 3.242-1.798 4.982-1.258l-2.96 2.961c-0.616 0.617-0.616 1.585 0 2.205zM29.21 30.647c-0.221 0.222-0.604 0.222-0.827-0.002l-10.030-10c-0.195-0.193-0.512-0.194-0.707 0.002s-0.194 0.512 0.001 0.707l10.029 9.998c0.3 0.301 0.698 0.467 1.122 0.467 0 0 0 0 0 0 0.424 0 0.822-0.166 1.128-0.474l1.429-1.493c0.615-0.618 0.615-1.587-0.001-2.206l-10-10c-0.195-0.195-0.512-0.195-0.707 0s-0.195 0.512 0 0.707l9.999 9.999c0.229 0.23 0.229 0.564-0.007 0.802l-1.429 1.493zM5.854 3.146l-3-3c-0.195-0.195-0.512-0.195-0.707 0l-2 2c-0.195 0.195-0.195 0.512 0 0.707l3 3c0.097 0.098 0.225 0.147 0.353 0.147s0.256-0.049 0.354-0.146l0.646-0.647 7.646 7.646c0.098 0.098 0.226 0.147 0.354 0.147s0.256-0.049 0.354-0.146c0.195-0.195 0.195-0.512 0-0.707l-7.647-7.647 0.646-0.646c0.196-0.196 0.196-0.512 0.001-0.708zM3.5 4.793l-2.293-2.293 1.293-1.293 2.293 2.293-1.293 1.293z"></path>
</symbol>
<symbol id="icon-anchor" viewBox="0 0 35 32">
<path d="M0.812 18.896l2.188-2.189v0.793c0 7.589 6.911 14.5 14.5 14.5s14.5-6.911 14.5-14.5v-0.772l2.209 2.209c0.098 0.098 0.226 0.146 0.354 0.146s0.256-0.049 0.354-0.146c0.195-0.195 0.195-0.512 0-0.707l-3.018-3.018c-0.092-0.125-0.232-0.212-0.399-0.212-0.045 0-0.084 0.014-0.126 0.025-0.092 0.019-0.181 0.054-0.249 0.121l-3.042 3.042c-0.195 0.195-0.195 0.512 0 0.707s0.512 0.195 0.707 0l2.21-2.209v0.814c0 6.898-6.135 13.177-13 13.472v-18.972h8.5c0.276 0 0.5-0.224 0.5-0.5s-0.224-0.5-0.5-0.5h-8.5v-4.051c1.692-0.245 3-1.691 3-3.449 0-1.93-1.57-3.5-3.5-3.5s-3.5 1.57-3.5 3.5c0 1.758 1.308 3.204 3 3.449v4.051h-8.5c-0.276 0-0.5 0.224-0.5 0.5s0.224 0.5 0.5 0.5h8.5v18.972c-6.865-0.295-13-6.574-13-13.472v-0.793l2.23 2.23c0.098 0.098 0.226 0.146 0.354 0.146s0.256-0.049 0.354-0.146c0.195-0.195 0.195-0.512 0-0.707l-3.083-3.082c-0.091-0.092-0.217-0.148-0.355-0.148s-0.264 0.056-0.354 0.147l-3.041 3.041c-0.195 0.195-0.195 0.512 0 0.707s0.512 0.196 0.707 0.001zM17.5 1c1.378 0 2.5 1.121 2.5 2.5s-1.122 2.5-2.5 2.5-2.5-1.121-2.5-2.5 1.122-2.5 2.5-2.5z"></path>
</symbol>
<symbol id="icon-target" viewBox="0 0 42 32">
<path d="M41.779 13.090c-0.225-0.189-0.562-0.159-0.752 0.068l-2.367 2.84c-0.051-0.016-0.103-0.032-0.16 0.002h-1.391l1.77-2.158c0.189-0.227 0.158-0.563-0.068-0.752s-0.563-0.159-0.752 0.068l-2.34 2.842h-1.579l1.77-2.158c0.189-0.227 0.158-0.563-0.068-0.752s-0.562-0.159-0.752 0.068l-2.34 2.842h-0.752c-0.019-8.841-7.187-16-15.998-16-8.822 0-16 7.178-16 16s7.178 16 16 16c8.473 0 15.41-6.626 15.948-15h0.803l2.34 2.842c0.105 0.127 0.258 0.192 0.41 0.192 0.121 0 0.242-0.040 0.342-0.124 0.227-0.188 0.258-0.525 0.068-0.752l-1.771-2.158h1.579l2.34 2.842c0.105 0.127 0.258 0.192 0.41 0.192 0.121 0 0.242-0.040 0.342-0.124 0.227-0.188 0.258-0.525 0.068-0.752l-1.77-2.158h1.391c0.057 0.034 0.109 0.018 0.161 0.002l2.367 2.84c0.105 0.127 0.258 0.192 0.41 0.192 0.121 0 0.242-0.040 0.342-0.124 0.227-0.188 0.258-0.525 0.068-0.752l-2.215-2.658 2.215-2.658c0.189-0.227 0.158-0.564-0.069-0.752zM16 31c-8.271 0-15-6.729-15-15s6.729-15 15-15c8.26 0 14.979 6.71 14.998 15h-3c-0.018-6.635-5.392-12-11.998-12-6.617 0-12 5.383-12 12s5.383 12 12 12c6.268 0 11.421-4.832 11.948-11h3c-0.535 7.823-7.026 14-14.948 14zM23.998 16c-0.018-4.429-3.598-8-7.998-8-4.411 0-8 3.589-8 8s3.589 8 8 8c4.060 0 7.416-3.043 7.925-7h3.022c-0.523 5.616-5.231 10-10.947 10-6.065 0-11-4.935-11-11s4.935-11 11-11c6.054 0 10.98 4.916 10.998 11h-3zM19.997 16c-0.019-2.224-1.802-4-3.997-4-2.206 0-4 1.794-4 4s1.794 4 4 4c1.846 0 3.388-1.263 3.847-3h3.068c-0.503 3.404-3.408 6-6.915 6-3.859 0-7-3.141-7-7s3.141-7 7-7c3.848 0 6.98 3.122 6.998 7h-3.001zM16.5 17h2.305c-0.423 1.178-1.516 2-2.805 2-1.654 0-3-1.346-3-3s1.346-3 3-3c1.643 0 2.978 1.328 2.997 3h-2.497c-0.295-0.034-0.534 0.205-0.534 0.5s0.239 0.534 0.534 0.5z"></path>
</symbol>
<symbol id="icon-instagram" viewBox="0 0 32 32">
<path fill="#e4405f" style="fill: var(--color1, #e4405f)" d="M16 0c-4.347 0-4.889 0.020-6.596 0.096-1.704 0.080-2.864 0.348-3.884 0.744-1.052 0.408-1.945 0.956-2.835 1.845s-1.439 1.781-1.845 2.835c-0.396 1.020-0.665 2.18-0.744 3.884-0.080 1.707-0.096 2.249-0.096 6.596s0.020 4.889 0.096 6.596c0.080 1.703 0.348 2.864 0.744 3.884 0.408 1.051 0.956 1.945 1.845 2.835 0.889 0.888 1.781 1.439 2.835 1.845 1.021 0.395 2.181 0.665 3.884 0.744 1.707 0.080 2.249 0.096 6.596 0.096s4.889-0.020 6.596-0.096c1.703-0.080 2.864-0.349 3.884-0.744 1.051-0.408 1.945-0.957 2.835-1.845 0.888-0.889 1.439-1.78 1.845-2.835 0.395-1.020 0.665-2.181 0.744-3.884 0.080-1.707 0.096-2.249 0.096-6.596s-0.020-4.889-0.096-6.596c-0.080-1.703-0.349-2.865-0.744-3.884-0.408-1.052-0.957-1.945-1.845-2.835-0.889-0.889-1.78-1.439-2.835-1.845-1.020-0.396-2.181-0.665-3.884-0.744-1.707-0.080-2.249-0.096-6.596-0.096zM16 2.88c4.271 0 4.78 0.021 6.467 0.095 1.56 0.073 2.407 0.332 2.969 0.553 0.749 0.289 1.28 0.636 1.843 1.195 0.559 0.56 0.905 1.092 1.195 1.841 0.219 0.563 0.48 1.409 0.551 2.969 0.076 1.688 0.093 2.195 0.093 6.467s-0.020 4.78-0.099 6.467c-0.081 1.56-0.341 2.407-0.561 2.969-0.299 0.749-0.639 1.28-1.199 1.843-0.559 0.559-1.099 0.905-1.84 1.195-0.56 0.219-1.42 0.48-2.98 0.551-1.699 0.076-2.199 0.093-6.479 0.093-4.281 0-4.781-0.020-6.479-0.099-1.561-0.081-2.421-0.341-2.981-0.561-0.759-0.299-1.28-0.639-1.839-1.199-0.561-0.559-0.92-1.099-1.2-1.84-0.22-0.56-0.479-1.42-0.56-2.98-0.060-1.68-0.081-2.199-0.081-6.459 0-4.261 0.021-4.781 0.081-6.481 0.081-1.56 0.34-2.419 0.56-2.979 0.28-0.76 0.639-1.28 1.2-1.841 0.559-0.559 1.080-0.919 1.839-1.197 0.56-0.221 1.401-0.481 2.961-0.561 1.7-0.060 2.2-0.080 6.479-0.080zM16 7.784c-4.54 0-8.216 3.68-8.216 8.216 0 4.54 3.68 8.216 8.216 8.216 4.54 0 8.216-3.68 8.216-8.216 0-4.54-3.68-8.216-8.216-8.216zM16 21.333c-2.947 0-5.333-2.387-5.333-5.333s2.387-5.333 5.333-5.333 5.333 2.387 5.333 5.333-2.387 5.333-5.333 5.333zM26.461 7.46c0 1.060-0.861 1.92-1.92 1.92-1.060 0-1.92-0.861-1.92-1.92s0.861-1.919 1.92-1.919c1.057-0.001 1.92 0.86 1.92 1.919z"></path>
</symbol>
<symbol id="icon-x" viewBox="0 0 32 32">
<path d="M24.325 3h4.411l-9.636 11.013 11.336 14.987h-8.876l-6.952-9.089-7.955 9.089h-4.413l10.307-11.78-10.875-14.22h9.101l6.284 8.308zM22.777 26.36h2.444l-15.776-20.859h-2.623z"></path>
</symbol>
<symbol id="icon-gmail" viewBox="0 0 32 32">
<path fill="#d14836" style="fill: var(--color2, #d14836)" d="M32 6v20c0 1.133-0.867 2-2 2h-2v-18.151l-12 8.617-12-8.617v18.151h-2c-1.135 0-2-0.867-2-2v-20c0-0.567 0.216-1.067 0.575-1.424 0.359-0.363 0.86-0.576 1.425-0.576h0.667l13.333 9.667 13.333-9.667h0.667c0.567 0 1.067 0.216 1.425 0.576 0.36 0.357 0.575 0.857 0.575 1.424z"></path>
</symbol>
<symbol id="icon-location-pin" viewBox="0 0 20 20">
<path d="M10 2.009c-2.762 0-5 2.229-5 4.99 0 4.774 5 11 5 11s5-6.227 5-11c0-2.76-2.238-4.99-5-4.99zM10 9.76c-1.492 0-2.7-1.209-2.7-2.7s1.208-2.7 2.7-2.7c1.49 0 2.699 1.209 2.699 2.7s-1.209 2.7-2.699 2.7z"></path>
</symbol>
<symbol id="icon-magnifying-glass" viewBox="0 0 20 20">
<path d="M17.545 15.467l-3.779-3.779c0.57-0.935 0.898-2.035 0.898-3.21 0-3.417-2.961-6.377-6.378-6.377s-6.186 2.769-6.186 6.186c0 3.416 2.961 6.377 6.377 6.377 1.137 0 2.2-0.309 3.115-0.844l3.799 3.801c0.372 0.371 0.975 0.371 1.346 0l0.943-0.943c0.371-0.371 0.236-0.84-0.135-1.211zM4.004 8.287c0-2.366 1.917-4.283 4.282-4.283s4.474 2.107 4.474 4.474c0 2.365-1.918 4.283-4.283 4.283s-4.473-2.109-4.473-4.474z"></path>
</symbol>
<symbol id="icon-search" viewBox="0 0 32 32">
<path d="M31.008 27.231l-7.58-6.447c-0.784-0.705-1.622-1.029-2.299-0.998 1.789-2.096 2.87-4.815 2.87-7.787 0-6.627-5.373-12-12-12s-12 5.373-12 12 5.373 12 12 12c2.972 0 5.691-1.081 7.787-2.87-0.031 0.677 0.293 1.515 0.998 2.299l6.447 7.58c1.104 1.226 2.907 1.33 4.007 0.23s0.997-2.903-0.23-4.007zM12 20c-4.418 0-8-3.582-8-8s3.582-8 8-8 8 3.582 8 8-3.582 8-8 8z"></path>
</symbol>
<symbol id="icon-checkmark" viewBox="0 0 32 32">
<path d="M27 4l-15 15-7-7-5 5 12 12 20-20z"></path>
</symbol>
<symbol id="icon-facebook" viewBox="0 0 32 32">
<path d="M19 6h5v-6h-5c-3.86 0-7 3.14-7 7v3h-4v6h4v16h6v-16h5l1-6h-6v-3c0-0.542 0.458-1 1-1z"></path>
</symbol>
</defs>
</svg>
