<svg width="109" height="86" viewBox="0 0 109 86" fill="none" xmlns="http://www.w3.org/2000/svg">
<g id="Group">
<path id="Vector" d="M57.3556 64.1705C55.2963 64.085 53.234 64.0022 51.1747 63.9113C49.6344 63.8445 48.3936 64.2828 47.2955 65.3919C45.1905 67.5139 42.9486 69.521 40.7437 71.5549C40.3159 71.9504 40.1818 72.2364 40.4785 72.819C41.8248 75.4542 41.3256 78.2844 39.1778 80.3984C37.9028 81.6545 36.5993 82.8866 35.253 84.0732C32.3066 86.671 28.0623 86.6362 25.1615 84.0037C23.627 82.614 22.1295 81.1895 20.6321 79.765C19.6138 78.7949 19.551 77.5896 20.441 76.7504C21.328 75.9112 22.6116 75.962 23.6555 76.9187C25.0788 78.2229 26.4708 79.5619 27.8884 80.8715C29.4799 82.3414 31.0145 82.336 32.6203 80.8581C33.6101 79.9468 34.5856 79.0221 35.5639 78.1027C37.3752 76.4029 37.3181 75.2804 35.6181 73.5326C32.5262 70.3522 29.1776 67.4151 25.9545 64.3576C22.0782 60.6828 18.162 57.0455 14.2514 53.4027C13.6981 52.8869 13.1134 52.4005 12.5115 51.9355C11.6701 51.2861 10.1441 51.2941 9.24847 52.0691C7.78523 53.3333 6.36193 54.6455 5.01849 56.0219C3.96028 57.1043 4.10289 58.5662 5.28375 59.71C6.6928 61.0757 8.14748 62.4013 9.58219 63.7429C9.93588 64.0743 10.2753 64.4138 10.435 64.8734C10.7231 65.71 10.3723 66.6854 9.55937 67.1478C8.67516 67.6476 7.74245 67.6476 6.99514 66.9714C5.1554 65.3037 3.26431 63.6654 1.59856 61.8534C-0.660472 59.3973 -0.486481 55.6504 1.87524 53.2424C3.2472 51.8446 4.67906 50.4896 6.17938 49.2148C8.20738 47.491 10.6119 47.018 13.2246 47.8064C13.9149 48.0148 14.3056 47.9053 14.7905 47.4402C16.7272 45.5774 18.6982 43.7467 20.6805 41.9294C21.0884 41.5552 21.1483 41.3414 20.7404 40.8951C17.2435 37.0733 18.3074 32.0916 23.1079 29.7745C23.5329 29.5687 23.684 29.4538 23.4074 28.9888C20.9743 24.9104 23.4074 20.0196 27.7315 18.9025C28.2249 18.7742 28.2791 18.5337 28.2249 18.1034C27.7258 14.1079 29.3316 11.6063 33.4104 10.1124C34.0351 9.88254 33.8554 9.57786 33.8041 9.19836C33.2421 5.02112 35.8606 1.69911 40.1961 1.06304C41.3142 0.900012 42.4038 1.31961 43.4563 1.27685C44.4689 1.23676 45.259 0.250577 46.4056 0.0902223C48.4764 -0.201088 50.4416 0.277302 52.424 0.614047C56.3402 1.27952 60.245 2.00111 64.1498 2.70935C65.0626 2.87505 65.9896 2.71469 66.9109 2.88841C71.0154 3.66078 73.571 7.02823 72.9064 10.9061C72.7981 11.5342 72.9863 11.7533 73.5996 11.9565C77.2049 13.1377 79.1587 16.2727 78.5198 19.8432C78.4285 20.351 78.5255 20.506 79.0418 20.6797C82.8439 21.9652 84.6665 24.7608 84.156 28.5505C84.0761 29.1438 84.2216 29.3282 84.7977 29.5206C89.9547 31.2364 91.5834 36.8488 88.0266 40.7294C87.4846 41.32 87.5845 41.598 88.1121 42.079C90.0774 43.867 92.0113 45.687 93.928 47.5177C94.3587 47.9293 94.6953 48.0068 95.3057 47.7903C98.158 46.7801 100.768 47.2238 103.01 49.1828C104.362 50.364 105.671 51.5934 106.937 52.8549C109.678 55.5809 109.71 59.571 106.897 62.2249C99.2048 69.489 91.4779 76.721 83.7139 83.9182C80.9272 86.5026 76.623 86.4518 73.7878 83.9289C72.4472 82.7343 71.1266 81.5182 69.863 80.2541C67.7409 78.1321 67.2246 75.6706 68.3713 72.9606C68.5994 72.4235 68.4911 72.1348 68.0889 71.7633C65.5047 69.3767 62.9376 66.9741 60.3848 64.5581C59.9969 64.1893 59.6175 64.0503 59.067 64.1144C58.508 64.1786 57.9318 64.1278 57.3613 64.1278C57.3556 64.1385 57.3556 64.1545 57.3556 64.1705ZM58.2997 16.9221C58.2684 20.637 55.416 23.6142 51.6339 23.9617C51.0263 24.0178 50.7953 24.1701 50.704 24.7608C50.145 28.4008 47.903 30.4614 43.9469 31.0039C43.4877 31.068 43.2851 31.1936 43.2081 31.656C42.5578 35.4911 40.4842 37.4501 36.4738 38.0328C35.9832 38.1049 35.7636 38.2252 35.698 38.7463C35.0676 43.7441 29.942 46.4781 25.0817 44.4122C24.5283 44.177 24.2231 44.2385 23.8095 44.634C21.8956 46.4701 19.9618 48.2901 17.9937 50.0727C17.4688 50.5484 17.5402 50.8077 18.0136 51.2486C24.2203 57.0294 30.4184 62.8182 36.5936 68.6284C37.1099 69.1148 37.378 69.0533 37.8486 68.6044C40.1932 66.3701 42.5835 64.1786 44.9309 61.947C46.2202 60.7203 47.7747 60.1216 49.5745 59.9586C51.748 59.7608 53.9129 59.9425 56.0721 60.1029C59.2724 60.3408 62.1903 59.9345 64.2725 57.3207C64.378 57.1898 64.5178 57.0802 64.6518 56.9706C65.6216 56.1635 66.8795 56.1528 67.7152 56.9439C68.5766 57.7564 68.5909 58.8976 67.6724 59.8062C66.8424 60.6294 65.9839 61.4365 65.0569 62.1581C64.5406 62.559 64.4864 62.7487 64.9827 63.2004C66.9993 65.0338 68.9845 66.8993 70.9526 68.7781C71.3719 69.179 71.6143 69.1896 72.045 68.7861C78.2745 62.9331 84.5182 57.0909 90.7734 51.262C91.1983 50.8665 91.224 50.6393 90.7819 50.2384C89.1447 48.7551 87.5531 47.2291 85.9358 45.7298C85.4338 45.2648 84.9575 44.5592 84.3699 44.4523C83.7852 44.3454 83.3973 45.206 82.8867 45.5988C81.7458 46.4808 80.2939 46.3258 79.5609 45.2247C79.0018 44.3855 79.1473 43.426 80.0173 42.5975C81.5632 41.1223 83.1605 39.6951 84.6837 38.2011C85.9415 36.9664 85.913 35.1891 84.7093 34.0613C83.4828 32.9121 81.6459 32.8747 80.2854 34.0025C79.7007 34.4863 79.1758 35.0368 78.6139 35.5446C77.4958 36.5602 76.2437 36.6404 75.3195 35.7691C74.4239 34.9219 74.5294 33.7032 75.6047 32.6796C76.7285 31.6106 77.8866 30.5736 78.9904 29.4885C80.2825 28.2137 80.2968 26.4231 79.0789 25.2686C77.8096 24.0632 75.9242 24.0899 74.5009 25.3461C73.9048 25.8726 73.3428 26.4284 72.7581 26.9656C71.6172 28.0106 70.2937 28.1068 69.3838 27.2169C68.4939 26.3483 68.608 25.175 69.7061 24.1327C70.907 22.9942 72.142 21.8877 73.3229 20.7332C74.6806 19.4049 74.7063 17.641 73.4313 16.4437C72.1648 15.2544 70.2652 15.3052 68.8533 16.5773C68.2885 17.0851 67.7466 17.6143 67.1876 18.1301C66.0267 19.1991 64.7403 19.3247 63.8104 18.4668C62.8691 17.6009 62.9804 16.3796 64.1156 15.3052C65.2679 14.2148 66.4374 13.1431 67.5869 12.0527C69.0359 10.679 69.1357 8.93377 67.8464 7.69103C66.56 6.45095 64.6433 6.48035 63.1915 7.81129C61.3603 9.48967 59.5804 11.2162 57.7407 12.8838C57.2872 13.2954 57.29 13.6001 57.5667 14.0812C58.0915 15.0059 58.2598 16.0295 58.2997 16.9221ZM97.927 51.3288C97.1112 51.2861 96.4152 51.6495 95.8134 52.2108C88.2177 59.3172 80.6163 66.4209 73.0348 73.5406C71.7341 74.762 71.757 76.2907 73.0348 77.5361C74.1928 78.6639 75.3794 79.7677 76.5831 80.8528C77.9636 82.0982 79.5609 82.1249 80.9243 80.8528C88.5343 73.7571 96.1271 66.6507 103.709 59.5283C105.021 58.2962 105.001 56.7862 103.717 55.5355C102.533 54.3836 101.307 53.2745 100.095 52.1466C99.5128 51.6068 98.8283 51.2994 97.927 51.3288ZM43.3251 27.0057C44.6514 26.9683 45.6611 26.4284 46.1831 25.2686C46.7336 24.0472 46.5083 22.898 45.5071 21.9519C42.9543 19.5385 40.3958 17.1279 37.8001 14.7546C36.4424 13.5119 34.5656 13.5226 33.3049 14.6825C32.047 15.8424 32.0185 17.625 33.3363 18.8891C35.872 21.3185 38.4562 23.7051 41.0261 26.1051C41.6565 26.693 42.4123 27.0298 43.3251 27.0057ZM50.8409 19.9795C52.3441 19.9769 53.5906 19.0308 53.8901 17.6677C54.1924 16.2834 53.7674 15.6286 52.4069 15.0353C48.0884 13.1511 44.8539 10.2487 43.0855 6.04205C42.8744 5.53693 42.5493 5.29907 42.0501 5.16544C40.6952 4.79663 39.252 5.28571 38.5018 6.37345C37.7089 7.52533 37.8173 9.01662 38.904 10.0456C42.1214 13.1003 45.3759 16.1257 48.6275 19.151C49.2294 19.7096 49.9767 19.9982 50.8409 19.9795ZM35.8634 34.0266C37.1983 33.9865 38.1824 33.4039 38.6929 32.2493C39.2177 31.0627 38.9896 29.9456 38.0226 29.0235C36.103 27.1928 34.172 25.3728 32.2153 23.5795C30.8234 22.3047 28.8981 22.2993 27.6374 23.5047C26.4109 24.6779 26.4166 26.4445 27.7372 27.722C29.6197 29.5393 31.5536 31.3112 33.4703 33.0965C34.1264 33.7085 34.9079 34.064 35.8634 34.0266ZM31.4423 38.121C31.4766 37.6987 31.391 37.2176 31.1115 36.8381C30.1417 35.5179 28.9836 34.3313 27.5175 33.5028C26.3139 32.8239 24.7936 33.1607 23.8267 34.1255C22.9339 35.0181 22.6743 36.5041 23.4159 37.5437C24.303 38.7891 25.4354 39.8929 26.7874 40.6813C28.7954 41.8572 31.411 40.3953 31.4423 38.121ZM59.1326 5.89773C55.1907 5.26967 51.5226 4.4091 47.7604 4.01356C46.976 3.93071 46.9589 4.33427 47.1957 4.87413C48.3822 7.5761 50.5586 9.42553 53.137 10.9275C53.3538 11.0531 53.5763 11.1146 53.8045 10.8981C55.5216 9.28121 57.2444 7.66964 59.1326 5.89773Z" fill="white"/>
<path id="Vector_2" d="M14.7534 73.6207C13.5783 73.6073 12.6598 72.7494 12.6456 71.6537C12.6342 70.5472 13.6467 69.5958 14.8133 69.6145C15.9486 69.6332 16.9069 70.5419 16.9183 71.6109C16.9326 72.7521 15.9828 73.634 14.7534 73.6207Z" fill="white"/>
<path id="Vector_3" d="M72.992 54.004C71.8169 54.0147 70.887 53.1728 70.8556 52.0691C70.8214 50.9412 71.7855 50.0005 72.9777 49.9951C74.1044 49.9898 75.097 50.8878 75.1369 51.9515C75.1769 53.0579 74.2014 53.9933 72.992 54.004Z" fill="white"/>
</g>
</svg>
