<svg width="96" height="90" viewBox="0 0 96 90" fill="none" xmlns="http://www.w3.org/2000/svg">
<g id="Group">
<path id="Vector" d="M95.488 62.1042C95.0387 63.9782 93.8181 65.2868 92.4214 66.5299C87.0578 71.3001 81.6829 76.0609 76.4185 80.9397C73.6084 83.5438 70.3921 84.9329 66.6272 85.4328C58.9964 86.4456 51.3862 87.6288 43.7629 88.7034C37.1449 89.6357 37.8208 89.866 31.9067 87.5464C31.2421 87.2862 30.5719 87.0447 29.9035 86.792C26.3933 85.4628 22.8774 84.1467 19.3765 82.795C18.7194 82.5422 18.4349 82.4898 18.4424 83.3828C18.4611 85.3579 17.0794 86.7452 15.1174 86.7583C11.2028 86.7864 7.28633 86.7864 3.36983 86.7583C1.40223 86.7452 0.0112328 85.3598 0.00936065 83.4034C-0.00374426 71.4386 -0.00187213 59.4739 0.00748852 47.5091C0.00936065 45.5827 1.30675 44.1392 3.23317 44.1074C7.2414 44.0381 11.2515 44.0363 15.2597 44.1093C17.1787 44.1449 18.4349 45.5995 18.4629 47.5353C18.4761 48.4976 18.4798 49.4617 18.4592 50.4259C18.4498 50.8564 18.5135 51.0905 19.0452 51.1223C22.6472 51.3376 25.9683 52.4609 29.0667 54.2899C29.9747 54.8272 30.9351 55.2765 31.8412 55.8138C34.6531 57.4875 37.6953 58.2008 40.9566 58.4011C46.163 58.7194 51.36 59.2267 56.5552 59.7266C60.6495 60.1216 63.7779 63.3304 64.141 67.4304C64.2028 68.1268 64.4031 68.4301 65.1295 68.4189C65.9664 68.4058 66.8088 68.4526 67.6419 68.5406C68.1736 68.5967 68.5256 68.3159 68.9075 68.0594C74.7148 64.1729 80.5053 60.2639 86.3314 56.4054C89.8117 54.1008 94.067 55.6734 95.2914 59.6536C95.3363 59.7977 95.3289 59.9644 95.488 60.0505C95.488 60.7357 95.488 61.419 95.488 62.1042ZM2.79883 65.3561C2.79883 71.1354 2.79883 76.9165 2.79883 82.6958C2.79883 83.9557 2.80819 83.9669 4.02134 83.9669C7.50163 83.9688 10.9819 83.9688 14.4622 83.9669C15.6473 83.9669 15.6641 83.9482 15.6641 82.7688C15.666 76.5851 15.6641 70.3996 15.666 64.216C15.666 63.937 15.6416 63.6525 15.6828 63.3772C15.7989 62.6003 16.2594 62.1248 17.0514 62.1173C17.8451 62.1079 18.3132 62.5779 18.4424 63.351C18.4892 63.6244 18.4629 63.9089 18.4629 64.1879C18.4629 69.0049 18.4779 73.8219 18.4461 78.6388C18.4424 79.2791 18.6408 79.5524 19.2286 79.7734C24.8057 81.8608 30.3753 83.9707 35.9374 86.0993C37.1374 86.558 38.3506 86.6534 39.5993 86.4737C48.5724 85.1838 57.5399 83.8527 66.5187 82.6153C69.5459 82.1978 72.1332 81.0839 74.3966 78.9871C79.002 74.7242 83.7104 70.57 88.3758 66.3708C89.5065 65.3523 90.6785 64.3713 91.7531 63.2986C93.4399 61.6137 92.7135 58.8392 90.4651 58.2514C89.4354 57.9818 88.5293 58.2719 87.6531 58.8617C81.7278 62.8493 75.7857 66.8126 69.8529 70.7909C69.3287 71.1428 68.8158 71.4574 68.138 71.3787C63.1619 70.7946 58.2139 71.4162 53.2565 71.7045C47.2713 72.0527 41.2861 72.4065 35.299 72.7398C33.6178 72.8334 32.21 72.1613 31.0268 71.0062C30.2574 70.2536 30.1656 69.4036 30.7422 68.7933C31.3282 68.1736 32.1669 68.2298 32.942 68.9843C33.6759 69.6976 34.5221 70.042 35.5536 69.9559C36.5758 69.8698 37.5999 69.8249 38.6239 69.7631C45.9739 69.3156 53.322 68.8607 60.6739 68.4395C61.3534 68.4002 61.4115 68.1119 61.3591 67.5633C61.1138 64.9311 58.9084 62.737 56.1995 62.4992C51.0024 62.0405 45.8092 61.4789 40.6009 61.1887C36.9128 60.9828 33.528 60.0336 30.3528 58.1989C29.0367 57.4388 27.6963 56.7181 26.3521 56.0067C24.128 54.831 21.7485 54.1813 19.2511 53.9174C18.6764 53.8556 18.3974 53.9604 18.4461 54.6269C18.5041 55.4301 18.4779 56.2426 18.4536 57.0494C18.4274 57.9836 17.8582 58.5752 17.042 58.5659C16.2332 58.5565 15.6997 57.9574 15.6622 57.0139C15.6548 56.7967 15.6604 56.5795 15.6604 56.3605C15.6604 53.5954 15.6285 50.8284 15.6791 48.0632C15.6959 47.1702 15.4207 46.8501 14.5165 46.8594C11.0044 46.895 7.49414 46.8707 3.98202 46.8763C2.84938 46.8782 2.79322 46.9418 2.79322 48.1119C2.79883 53.8593 2.79883 59.6087 2.79883 65.3561Z" fill="white"/>
<path id="Vector_2" d="M47.6401 3.42349e-06C52.2062 3.42349e-06 56.7742 0.00187555 61.3403 3.42349e-06C63.5569 -0.00186871 64.4387 0.763832 64.7626 2.92614C65.4366 7.40428 67.7973 10.6524 71.8954 12.6088C73.8275 13.5318 74.4939 14.5109 74.2187 16.6676C72.3073 31.6371 66.0244 44.0194 52.9326 52.3148C51.7569 53.0599 50.4839 53.6553 49.2707 54.3423C48.3796 54.8478 47.5428 54.7954 46.6198 54.3517C35.3421 48.9169 28.0408 40.0093 23.8865 28.3572C22.5386 24.5736 21.6343 20.6814 21.2038 16.6826C21.0222 14.9958 21.6493 13.7939 23.2032 13.0562C27.6139 10.9613 30.0664 7.50163 30.5981 2.64907C30.7685 1.09146 31.8786 0.179728 33.5673 0.175984C38.2589 0.162879 42.9485 0.172239 47.6401 0.172239C47.6401 0.116075 47.6401 0.0580395 47.6401 3.42349e-06ZM47.642 2.79884C47.642 2.85687 47.642 2.91304 47.642 2.97107C43.1676 2.97107 38.6913 2.9898 34.2169 2.95235C33.528 2.94674 33.3408 3.16952 33.2434 3.80979C32.4403 9.1491 29.5872 13.015 24.7477 15.3889C24.1018 15.7072 23.9277 16.0591 24.0138 16.7612C24.4313 20.1947 25.1951 23.5495 26.3128 26.8183C30.0496 37.7421 36.69 46.2248 47.1402 51.4948C47.6757 51.7644 48.0932 51.8337 48.6754 51.5229C62.7688 44.0082 69.4242 31.6895 71.4573 16.3643C71.5416 15.7353 71.3263 15.4114 70.7553 15.1437C65.8372 12.8297 62.9279 8.97687 62.0686 3.60947C61.96 2.9355 61.7166 2.78012 61.0651 2.78573C56.5926 2.81381 52.1164 2.79884 47.642 2.79884Z" fill="white"/>
<path id="Vector_3" d="M9.04801 71.594C11.7532 71.6202 13.953 73.848 13.9343 76.5439C13.9155 79.2697 11.6241 81.5181 8.90947 81.477C6.20986 81.4358 4.04006 79.2154 4.04942 76.5008C4.05691 73.7338 6.26603 71.5678 9.04801 71.594ZM6.852 76.5196C6.852 77.7009 7.78245 78.6557 8.95066 78.6725C10.1301 78.6894 11.1504 77.6578 11.1242 76.4784C11.098 75.3064 10.1413 74.3872 8.95815 74.3947C7.76747 74.4022 6.852 75.327 6.852 76.5196Z" fill="white"/>
<path id="Vector_4" d="M47.6607 5.26819C51.0174 5.26819 54.3723 5.26819 57.729 5.26819C59.3128 5.26819 59.9344 5.70065 60.4305 7.16091C61.7054 10.9145 63.9894 13.895 67.3255 16.0311C68.4619 16.7593 68.9786 17.6355 68.6566 18.989C68.3477 20.2864 68.1362 21.6063 67.8329 22.9055C67.612 23.8472 66.9324 24.3209 66.1686 24.1655C65.3317 23.9951 64.9105 23.2931 65.1052 22.3008C65.313 21.2356 65.5564 20.176 65.8035 19.1182C65.9083 18.667 65.7941 18.3787 65.3935 18.1073C61.9188 15.7484 59.4589 12.5863 58.0023 8.65113C57.8338 8.19433 57.5942 8.05205 57.1187 8.05579C50.8096 8.11383 44.5024 8.16063 38.1933 8.18497C37.686 8.18684 37.5044 8.39839 37.3509 8.82336C35.9449 12.7455 33.5299 15.9075 30.1207 18.2945C29.692 18.594 29.5853 18.9029 29.7051 19.3878C29.9672 20.4418 30.2106 21.5014 30.4315 22.5629C30.6224 23.4784 30.2068 24.1879 29.4205 24.3714C28.7129 24.5343 28.0033 24.0756 27.7506 23.2369C27.2957 21.7186 26.968 20.1685 26.7396 18.6015C26.6123 17.7253 27.0074 17.0177 27.7468 16.544C31.3432 14.2376 33.7583 11.0418 35.05 6.9737C35.4076 5.84855 36.1209 5.4086 37.4033 5.40485C40.8218 5.39737 44.2403 5.40298 47.6588 5.40298C47.6607 5.35805 47.6607 5.31312 47.6607 5.26819Z" fill="white"/>
<path id="Vector_5" d="M47.8329 48.8719C47.4154 48.8944 47.0298 48.7016 46.646 48.4881C38.9047 44.1935 33.4943 37.8301 30.0102 29.7575C29.6002 28.8064 29.8492 28.0613 30.6449 27.7131C31.4331 27.3668 32.1669 27.7281 32.6087 28.7428C34.7224 33.5897 37.6223 37.8788 41.5519 41.4452C43.2836 43.0159 45.1707 44.3713 47.1702 45.5826C47.7412 45.9289 48.1362 45.884 48.6791 45.5526C55.0668 41.6511 59.6105 36.1658 62.649 29.3756C62.7875 29.0648 62.9092 28.7447 63.0571 28.4358C63.4783 27.5596 64.1747 27.2282 64.9236 27.5371C65.7174 27.8648 66.0001 28.6361 65.6144 29.5572C64.1317 33.0992 62.2427 36.4092 59.8408 39.4102C56.9146 43.0665 53.4175 46.06 49.3512 48.3852C48.6098 48.812 48.3927 48.8813 47.8329 48.8719Z" fill="white"/>
<path id="Vector_6" d="M47.0691 33.5879C46.5898 33.6328 46.236 33.3314 45.8934 33.0056C44.0924 31.2945 42.2858 29.5909 40.4923 27.8723C39.721 27.1328 39.6386 26.2828 40.2452 25.6744C40.8462 25.0716 41.6175 25.1128 42.385 25.8279C43.6113 26.9718 44.8207 28.1325 46.0376 29.2857C46.8519 30.057 46.8519 30.057 47.4492 29.1584C49.9353 25.4085 52.4178 21.6568 54.9077 17.9107C55.0949 17.628 55.2859 17.3303 55.5368 17.1113C56.0385 16.6769 56.6226 16.6451 57.1674 17.0233C57.7346 17.4164 57.9593 17.9724 57.6972 18.6464C57.598 18.9029 57.4388 19.1407 57.2853 19.3709C54.3742 23.7686 51.4574 28.1643 48.5481 32.5638C48.1961 33.0993 47.8404 33.601 47.0691 33.5879Z" fill="white"/>
</g>
</svg>
