<svg width="109" height="82" viewBox="0 0 109 82" fill="none" xmlns="http://www.w3.org/2000/svg">
<g id="Group">
<path id="Vector" d="M0 34.7202C0.556119 33.9257 1.32504 33.693 2.27838 33.6987C7.2267 33.7299 12.175 33.7129 17.1262 33.7129C17.5489 33.7129 17.9774 33.6845 18.3831 33.8491C19.1379 34.1555 19.4783 34.723 19.3875 35.5203C19.3024 36.275 18.8541 36.7347 18.1022 36.8623C17.8611 36.9021 17.6085 36.8992 17.3617 36.8992C12.2715 36.9021 7.18131 36.885 2.09112 36.9163C1.13777 36.9219 0.445462 36.6325 0.00283734 35.787C0 35.4266 0 35.0748 0 34.7202Z" fill="white"/>
<path id="Vector_2" d="M0 45.9759C0.425601 45.1872 1.05549 44.8439 1.98046 44.8495C7.14158 44.8779 12.3027 44.858 17.4638 44.8665C18.8853 44.8694 19.6713 45.7149 19.3421 46.8669C19.0527 47.8713 18.2498 48.0529 17.339 48.05C13.3809 48.0444 9.41997 48.0472 5.46188 48.0472C4.40071 48.0472 3.33955 48.0075 2.28122 48.0586C1.3222 48.1068 0.561793 47.8231 0.00283734 47.0371C0 46.6853 0 46.3306 0 45.9759Z" fill="white"/>
<path id="Vector_3" d="M45.3321 75.2459C43.956 74.0003 42.4806 72.9788 41.147 71.7786C30.6177 62.2934 25.9332 50.4816 27.2441 36.3772C27.8172 30.1974 29.9055 24.4688 33.2053 19.1999C33.4295 18.8396 33.6423 18.4622 34.0196 18.238C34.5899 17.9032 35.1716 17.9032 35.7192 18.2806C36.3037 18.6835 36.542 19.2595 36.3519 19.9433C36.2498 20.3093 36.0512 20.6555 35.8497 20.9846C23.3172 41.3907 32.3938 67.8404 54.8117 76.2333C76.6563 84.4105 100.961 70.4763 104.947 47.4853C108.443 27.3402 95.6722 8.17401 75.615 4.04284C62.3732 1.31332 50.7798 5.00186 41.0421 14.4133C40.6619 14.7822 40.3185 15.1936 39.9327 15.5539C39.212 16.2264 38.2785 16.2576 37.6514 15.6589C37.0074 15.046 36.9676 14.1324 37.6372 13.3805C39.002 11.8427 40.4945 10.4325 42.1089 9.15573C43.1587 8.32439 44.2454 7.54128 45.3718 6.69292C45.003 6.40351 44.6143 6.52268 44.2653 6.51984C37.6826 6.51133 31.1 6.51416 24.5174 6.51133C24.1287 6.51133 23.7315 6.53686 23.3512 6.4716C22.6107 6.34392 22.1511 5.88427 22.0688 5.12387C21.9808 4.32374 22.3241 3.76194 23.0817 3.45267C23.5272 3.27109 23.9897 3.32783 24.4465 3.32783C33.1543 3.32499 41.8592 3.31932 50.567 3.33351C51.3586 3.33351 52.0878 3.20015 52.8284 2.90507C76.8805 -6.6823 103.781 8.43221 108.137 33.9711C111.936 56.2442 96.8951 77.5101 74.6957 81.1873C67.1683 82.4329 59.8196 81.6696 52.7177 78.8266C52.0453 78.5571 51.3842 78.4265 50.6635 78.4265C41.9216 78.4379 33.1798 78.435 24.4379 78.4322C24.0492 78.4322 23.6463 78.4549 23.2775 78.3613C22.4575 78.1541 22.0092 77.6009 22.0659 76.7326C22.1227 75.8729 22.6164 75.3764 23.4676 75.2771C23.8535 75.2317 24.245 75.2515 24.6337 75.2515C31.5313 75.2459 38.4317 75.2459 45.3321 75.2459Z" fill="white"/>
<path id="Vector_4" d="M67.7245 72.6356C51.6623 72.3689 38.6786 60.9599 36.3804 45.0963C33.98 28.5206 45.6982 12.4641 62.2683 9.63243C79.6924 6.65323 95.8368 17.8749 99.1168 35.2593C99.3211 36.3346 99.4176 37.4299 99.5339 38.5222C99.6587 39.6969 99.0714 40.5254 98.0925 40.6105C97.1647 40.6928 96.4809 40.0374 96.3816 38.8712C95.8056 32.1127 93.3655 26.1231 88.5959 21.2882C80.3932 12.9777 70.4653 10.2027 59.3373 13.7069C48.0787 17.2507 41.3968 25.3002 39.6008 36.9589C37.2117 52.4734 48.4561 67.1481 63.9366 69.1627C79.42 71.1772 93.3513 60.9684 96.0213 45.6525C96.1262 45.0566 96.2341 44.4523 96.8044 44.0919C97.3605 43.7429 97.9393 43.7174 98.5096 44.055C99.1338 44.4267 99.3239 45.0084 99.2331 45.695C98.9295 47.9848 98.3025 50.1894 97.4853 52.3429C92.869 64.4924 80.6145 72.8512 67.7245 72.6356Z" fill="white"/>
<path id="Vector_5" d="M66.2689 34.1669C66.2689 32.0814 66.2632 29.9931 66.2717 27.9077C66.2774 26.6054 66.8931 25.8421 67.9004 25.8677C68.8707 25.8932 69.4496 26.6252 69.4524 27.8737C69.4581 31.338 69.4865 34.8053 69.4325 38.2697C69.4184 39.1322 69.6936 39.3507 70.5051 39.3166C71.8812 39.2571 73.2629 39.2826 74.6419 39.3081C75.7258 39.328 76.4152 39.955 76.4294 40.8545C76.4436 41.7482 75.757 42.4462 74.6901 42.4633C72.4628 42.503 70.2355 42.5058 68.0082 42.4604C66.8364 42.4349 66.2859 41.8192 66.2774 40.636C66.2547 38.4796 66.2689 36.3233 66.2689 34.1669Z" fill="white"/>
<path id="Vector_6" d="M16.6751 18.1813C13.9853 18.1813 11.2983 18.187 8.6085 18.1785C7.37425 18.1756 6.64789 17.5571 6.66776 16.5754C6.68762 15.6419 7.41398 15.0063 8.5631 15.0035C13.9399 14.9921 19.3195 14.9921 24.6962 15.0035C25.9305 15.0063 26.6341 15.6362 26.6171 16.6378C26.6001 17.6479 25.9305 18.1785 24.6366 18.1813C21.9809 18.1841 19.328 18.1813 16.6751 18.1813Z" fill="white"/>
<path id="Vector_7" d="M16.6296 63.5787C19.3194 63.5787 22.0064 63.573 24.6962 63.5815C25.9474 63.5844 26.6369 64.1745 26.6199 65.1846C26.6029 66.1408 25.9105 66.7537 24.7416 66.7565C19.3648 66.7707 13.9852 66.7679 8.60846 66.7565C7.39691 66.7537 6.65069 66.0926 6.67055 65.1194C6.69041 64.1376 7.39975 63.5815 8.67088 63.5787C11.3238 63.573 13.9767 63.5787 16.6296 63.5787Z" fill="white"/>
<path id="Vector_8" d="M21.1154 29.0313C20.0571 29.0313 18.996 29.0569 17.9405 29.0228C16.9077 28.9916 16.2976 28.3958 16.2806 27.485C16.2636 26.5856 16.8765 25.8904 17.878 25.8705C20.0656 25.8252 22.2532 25.828 24.4408 25.8705C25.4169 25.8904 26.0836 26.6196 26.0723 27.4765C26.0581 28.3475 25.397 28.9916 24.3982 29.02C23.303 29.0569 22.2107 29.0313 21.1154 29.0313Z" fill="white"/>
<path id="Vector_9" d="M21.1779 52.7231C22.2362 52.7231 23.2974 52.7004 24.3529 52.7316C25.3686 52.76 26.0297 53.3643 26.0695 54.2325C26.112 55.1206 25.4084 55.8697 24.3784 55.8895C22.2249 55.9264 20.0713 55.9293 17.9206 55.8867C16.9048 55.8668 16.2863 55.2057 16.2778 54.312C16.2693 53.3643 16.9048 52.7571 18.0001 52.7287C19.0584 52.7004 20.1196 52.7231 21.1779 52.7231Z" fill="white"/>
<path id="Vector_10" d="M69.4382 18.9161C69.4382 19.3729 69.4865 19.8383 69.4269 20.2894C69.3106 21.1832 68.7431 21.7081 67.8664 21.7109C66.9868 21.7137 66.3796 21.1888 66.3001 20.2979C66.2179 19.39 66.2207 18.4622 66.2973 17.5514C66.3739 16.6576 66.9754 16.1355 67.855 16.1327C68.7346 16.1299 69.3049 16.6519 69.4269 17.5429C69.4893 17.9912 69.4411 18.4565 69.4382 18.9161Z" fill="white"/>
<path id="Vector_11" d="M54.7805 26.1656C54.8174 27.3431 53.4867 28.2226 52.4822 27.5899C51.5034 26.9742 50.6408 26.14 50.0563 25.1299C49.4889 24.1454 50.3486 22.8884 51.4863 22.8998C52.4369 22.9055 54.7521 25.2009 54.7805 26.1656Z" fill="white"/>
<path id="Vector_12" d="M82.629 27.7687C81.9281 27.7801 81.4628 27.5049 81.1564 26.9743C80.8216 26.3955 80.8329 25.7854 81.2642 25.2974C81.9168 24.5625 82.6091 23.8532 83.3553 23.2148C83.9256 22.7296 84.6094 22.7949 85.2081 23.2432C85.7784 23.6688 86.0451 24.3384 85.7387 24.9257C85.1173 26.1202 84.1554 27.0509 82.9609 27.7091C82.8474 27.7772 82.6857 27.7602 82.629 27.7687Z" fill="white"/>
<path id="Vector_13" d="M54.7805 55.4469C54.7862 55.9803 54.6074 56.3605 54.3067 56.6726C53.7477 57.2571 53.1888 57.8501 52.5844 58.3864C51.841 59.0446 50.9246 58.9992 50.3145 58.341C49.7414 57.7224 49.7329 56.8429 50.3628 56.1477C50.9274 55.5207 51.5346 54.9277 52.1616 54.363C52.6837 53.8892 53.3193 53.8551 53.935 54.1644C54.4741 54.434 54.7493 54.9191 54.7805 55.4469Z" fill="white"/>
<path id="Vector_14" d="M82.5439 53.9857C82.9496 53.98 83.3156 54.1049 83.6022 54.3858C84.2094 54.9731 84.8279 55.5519 85.3869 56.1847C85.9997 56.877 85.96 57.7792 85.3727 58.3779C84.7768 58.9823 83.8774 59.0362 83.1823 58.4205C82.524 57.8388 81.9083 57.2033 81.3238 56.5478C80.8925 56.0683 80.796 55.4838 81.1053 54.8795C81.4061 54.2893 81.8799 53.9857 82.5439 53.9857Z" fill="white"/>
<path id="Vector_15" d="M69.4496 62.8524C69.4496 63.2411 69.4694 63.6298 69.4467 64.0157C69.3843 64.986 68.7204 65.65 67.8465 65.6415C67.0123 65.6329 66.3342 64.9974 66.2859 64.0866C66.2405 63.2439 66.2377 62.3927 66.2888 61.55C66.3455 60.6534 67.0548 60.0178 67.8805 60.0264C68.7118 60.0349 69.3701 60.6761 69.441 61.5812C69.4751 62.0011 69.4467 62.4267 69.4467 62.8495C69.4467 62.8523 69.4496 62.8524 69.4496 62.8524Z" fill="white"/>
<path id="Vector_16" d="M45.877 42.5058C45.4259 42.4803 44.9293 42.4973 44.447 42.415C43.556 42.2646 43.0822 41.6858 43.1248 40.7921C43.1645 39.9494 43.661 39.3989 44.5122 39.3393C45.423 39.2741 46.3423 39.2741 47.2503 39.3337C48.1525 39.3933 48.6576 39.9494 48.6661 40.8602C48.6774 41.7709 48.1752 42.3015 47.2843 42.4292C46.8388 42.4945 46.3764 42.4831 45.877 42.5058Z" fill="white"/>
<path id="Vector_17" d="M89.8189 39.3251C90.2757 39.3251 90.7353 39.2854 91.1893 39.3336C92.0377 39.4216 92.5455 39.921 92.5966 40.7722C92.6505 41.6688 92.1909 42.2703 91.3 42.4122C90.3267 42.5654 89.3308 42.5625 88.3576 42.415C87.461 42.2788 87.0127 41.683 87.0581 40.7807C87.1035 39.921 87.6029 39.4273 88.4513 39.3365C88.8996 39.2854 89.3621 39.3251 89.8189 39.3251Z" fill="white"/>
</g>
</svg>
