<svg width="53" height="53" viewBox="0 0 53 53" fill="none" xmlns="http://www.w3.org/2000/svg">
<g id="Group">
<path id="Vector" d="M28.2656 35.2389C28.2656 40.1132 28.2656 44.9876 28.2656 49.8619C28.2656 50.8792 28.0105 51.1372 27.0021 51.1372C19.6817 51.1372 12.3613 51.1431 5.04099 51.1255C4.53085 51.124 4.39963 51.2626 4.41585 51.7594C4.45123 52.9036 4.42617 52.9036 5.56587 52.9036C12.7019 52.9036 19.8395 52.9036 26.9755 52.905C27.4193 52.905 27.8572 52.8991 28.2818 52.7458C28.3659 52.7163 28.4809 52.6662 28.5413 52.6986C29.2372 53.0805 29.9877 52.8918 30.7087 52.8932C37.6796 52.9095 44.6505 52.9021 51.6214 52.9021C52.7597 52.9021 52.9882 52.6795 52.9882 51.5648C52.9882 44.7959 52.9808 38.027 53 31.2595C53.0015 30.5842 52.77 30.1743 52.195 29.8382C50.8312 29.042 49.5057 28.178 48.1463 27.3715C47.8028 27.1681 47.6789 26.9469 47.6804 26.5459C47.6951 21.0464 47.6804 15.5469 47.7025 10.0474C47.7055 9.33825 47.4592 8.94606 46.8031 8.66445C40.2952 5.85573 33.796 3.02933 27.3028 0.186698C26.7308 -0.0639481 26.2516 -0.0609993 25.6839 0.188173C19.2246 3.01606 12.7609 5.83214 6.28537 8.62169C5.57177 8.92837 5.27984 9.3294 5.29458 10.1153C5.33734 12.4138 5.29753 14.7139 5.32112 17.0125C5.32555 17.4548 5.2415 17.6361 4.75938 17.5978C4.19321 17.5521 3.61967 17.5875 3.04908 17.5875C1.05276 17.5889 0.011837 18.6195 0.011837 20.5996C0.011837 27.056 0.011837 33.5124 0.011837 39.9673C0.011837 42.6153 0.0221634 45.2647 0.00151825 47.9128C-0.00143051 48.3506 0.0752373 48.5158 0.56031 48.501C1.77668 48.4671 1.77816 48.4937 1.77816 47.2581C1.77816 38.3926 1.77816 29.5271 1.77816 20.6616C1.77816 19.6015 2.02143 19.3523 3.06383 19.3523C5.12355 19.3523 7.18328 19.3626 9.24448 19.3435C9.6293 19.3405 9.7384 19.4393 9.73545 19.83C9.72513 21.1186 9.74135 21.1186 8.45568 21.1186C7.18623 21.1186 5.91677 21.1157 4.6488 21.1201C3.85705 21.1231 3.54743 21.4312 3.54743 22.223C3.54448 27.2801 3.55185 32.3388 3.53564 37.3959C3.53416 37.825 3.66538 37.9075 4.06199 37.9031C5.3108 37.8854 5.3108 37.9031 5.3108 36.6396C5.3108 32.2429 5.31818 27.8478 5.30048 23.4511C5.29901 23.0014 5.39632 22.8555 5.86665 22.8717C6.98719 22.9085 8.11067 22.8982 9.23268 22.8761C9.5998 22.8687 9.74282 22.9395 9.73693 23.3494C9.72071 24.4183 9.97283 24.6498 11.0196 24.6498C13.7237 24.6498 16.4277 24.6513 19.1317 24.6498C20.037 24.6498 20.3511 24.3682 20.3068 23.4673C20.2832 22.9631 20.4454 22.8584 20.9172 22.8732C22.0201 22.9085 23.1244 22.9041 24.2272 22.8746C24.6401 22.8628 24.7462 22.9749 24.7448 23.3907C24.7285 27.6767 24.7344 31.9613 24.7344 36.2474C24.7344 39.8346 24.7256 43.4203 24.7448 47.0075C24.7477 47.4719 24.6622 47.6238 24.1535 47.6208C20.7138 47.5943 17.274 47.6149 13.8357 47.5972C13.4052 47.5958 13.2283 47.6592 13.243 48.1516C13.2784 49.3724 13.2504 49.3724 14.483 49.3724C18.051 49.3724 21.619 49.3724 25.1871 49.3724C26.2501 49.3724 26.4993 49.1291 26.4993 48.0912C26.4993 39.5205 26.4993 30.9484 26.4993 22.3778C26.4993 21.3722 26.2427 21.1201 25.2195 21.1201C23.7304 21.1201 22.2398 21.1113 20.7506 21.1275C20.4218 21.1304 20.3127 21.0538 20.3098 20.7029C20.298 19.3538 20.2832 19.3538 21.6397 19.3538C23.4606 19.3538 25.2814 19.3523 27.1023 19.3538C27.9722 19.3553 28.2641 19.6442 28.2641 20.5068C28.2671 25.418 28.2656 30.3292 28.2656 35.2389ZM30.0319 29.244C30.0319 26.6181 30.0437 24.1175 30.0216 21.617C30.0172 21.1909 30.1455 21.1039 30.5465 21.1083C32.6431 21.129 34.7397 21.1201 36.8362 21.1172C37.6707 21.1157 37.9774 20.8179 37.9774 19.9981C37.9804 16.6321 37.9804 13.2675 37.9774 9.90147C37.9774 9.06549 37.6796 8.75881 36.8613 8.75881C29.9464 8.75734 23.0315 8.75734 16.1166 8.75881C15.3308 8.75881 15.027 9.07286 15.0241 9.8705C15.0197 11.1208 15.0123 12.3711 15.03 13.6214C15.0344 13.9428 14.9533 14.0371 14.6172 14.0873C13.0676 14.3143 12.0532 15.196 11.6124 16.7058C11.5504 16.9196 11.459 17.0508 11.2644 17.1584C10.7425 17.4489 10.2161 17.6405 9.59538 17.5963C8.91864 17.5491 8.23452 17.5624 7.55482 17.5948C7.16411 17.614 7.06385 17.4916 7.0668 17.1053C7.08597 14.9542 7.0845 12.8016 7.0668 10.6505C7.06385 10.2907 7.20834 10.1506 7.51502 10.0179C13.6971 7.33897 19.8748 4.65116 26.0511 1.95449C26.3622 1.81885 26.6187 1.8159 26.9328 1.95302C33.1075 4.65116 39.2852 7.34045 45.4688 10.015C45.833 10.1728 45.9332 10.3659 45.9332 10.7448C45.92 15.6368 45.9259 20.5289 45.9214 25.4194C45.9214 25.5742 45.976 25.7438 45.8669 25.8927C45.6649 25.8809 45.5307 25.7438 45.3789 25.6509C44.0622 24.8444 42.7368 24.0541 41.4422 23.2152C40.8731 22.8466 40.4028 22.8407 39.8248 23.2049C37.5543 24.6336 35.2616 26.0269 32.9763 27.432C32.0268 28.0188 31.0773 28.6026 30.0319 29.244ZM51.2219 41.1866C51.2219 44.3123 51.213 47.4395 51.2322 50.5652C51.2351 51.0075 51.1496 51.1623 50.6705 51.1505C49.2742 51.1151 47.875 51.1166 46.4788 51.1505C46.007 51.1623 45.9111 51.0178 45.9141 50.5696C45.9318 46.487 45.9244 42.4044 45.9244 38.3233C45.9244 37.2603 45.6841 37.0126 44.6431 37.0126C41.9583 37.0126 39.2734 37.0126 36.5885 37.0126C35.583 37.0126 35.3294 37.2706 35.3294 38.2923C35.3294 42.3926 35.3235 46.4944 35.3383 50.5947C35.3397 51.006 35.2616 51.1623 34.806 51.152C33.3906 51.1196 31.9737 51.1196 30.5583 51.152C30.1071 51.1623 30.0216 51.0149 30.0231 50.5976C30.0363 44.327 30.0349 38.0564 30.0246 31.7859C30.0246 31.4541 30.1145 31.2595 30.4049 31.0826C33.6825 29.0818 36.9527 27.0708 40.2155 25.0464C40.534 24.8488 40.7508 24.8754 41.0545 25.0641C44.3026 27.0767 47.558 29.0803 50.8194 31.0693C51.126 31.2565 51.2322 31.4526 51.2307 31.8094C51.216 34.9337 51.2219 38.0594 51.2219 41.1866ZM44.1581 44.9817C44.1581 46.8748 44.1463 48.7679 44.1669 50.661C44.1713 51.0547 44.0563 51.1476 43.6745 51.1446C41.6339 51.1255 39.5934 51.1284 37.5528 51.1431C37.2048 51.1461 37.0839 51.0665 37.0854 50.6935C37.0987 46.8704 37.0987 43.0473 37.0854 39.2227C37.0839 38.8556 37.1945 38.7656 37.5484 38.7671C39.5889 38.7833 41.6295 38.7907 43.6686 38.7627C44.1168 38.7568 44.1669 38.9204 44.164 39.3008C44.1492 41.1954 44.1581 43.0885 44.1581 44.9817ZM30.9151 14.9955C30.9151 13.6538 30.9284 12.3121 30.9062 10.9704C30.9003 10.6033 31.0153 10.5104 31.3707 10.5148C32.8406 10.534 34.3106 10.531 35.7806 10.5163C36.1064 10.5133 36.2229 10.5856 36.2199 10.938C36.2052 13.6022 36.2052 16.2679 36.2199 18.9321C36.2214 19.2786 36.1182 19.3626 35.785 19.3597C34.315 19.342 32.8451 19.3361 31.3751 19.3626C30.9608 19.37 30.9033 19.2122 30.9077 18.854C30.9269 17.5683 30.9151 16.2812 30.9151 14.9955ZM15.0079 22.8835C13.9787 22.8835 12.9481 22.8702 11.919 22.8909C11.5858 22.8968 11.4723 22.8112 11.4826 22.4633C11.5091 21.6553 11.5607 20.837 11.4708 20.0379C11.3794 19.2211 11.6743 18.7803 12.4292 18.537C12.9614 18.3659 13.2416 18.0047 13.2814 17.3928C13.3403 16.4817 14.1424 15.8123 15.0374 15.8197C15.9382 15.827 16.7034 16.4964 16.7698 17.4194C16.8096 17.9723 17.0514 18.304 17.5409 18.5075C17.7783 18.6063 17.995 18.7522 18.2309 18.8495C18.4638 18.9454 18.5641 19.081 18.5597 19.3464C18.5449 20.3947 18.542 21.443 18.5612 22.4913C18.5671 22.8127 18.458 22.8923 18.1528 22.8879C17.1045 22.8746 16.0562 22.8835 15.0079 22.8835ZM29.1488 18.2672C28.3909 17.6199 27.5977 17.5624 26.7765 17.583C25.9493 17.6037 25.1222 17.5771 24.2951 17.5934C23.9869 17.5993 23.8395 17.5536 23.8424 17.1835C23.8616 15.0884 23.8557 12.9933 23.8469 10.8982C23.8454 10.6165 23.9176 10.5148 24.2155 10.5178C25.74 10.531 27.266 10.5281 28.792 10.5207C29.0338 10.5192 29.1561 10.562 29.1561 10.848C29.1443 13.2719 29.1488 15.6973 29.1488 18.2672ZM19.4384 10.5237C20.1727 10.5237 20.9084 10.5355 21.6426 10.5178C21.9523 10.5104 22.0968 10.559 22.0938 10.9276C22.0746 13.0228 22.0805 15.1164 22.0894 17.2115C22.0909 17.4916 22.0201 17.6022 21.7223 17.5919C21.1163 17.5712 20.5103 17.5948 19.9029 17.583C19.2232 17.5698 18.57 17.0847 18.3562 16.4507C18.1129 15.7312 17.6854 15.1459 17.0602 14.7183C16.8538 14.5768 16.7786 14.4234 16.7816 14.1757C16.7934 13.092 16.7963 12.0069 16.7801 10.9232C16.7757 10.618 16.8538 10.5045 17.1767 10.5148C17.9316 10.5384 18.685 10.5237 19.4384 10.5237Z" fill="white"/>
<path id="Vector_2" d="M15.0226 42.3117C15.0271 40.0205 13.5409 37.9711 11.3647 37.2634C9.18846 36.5557 6.77194 37.3445 5.43761 39.1992C4.08855 41.0747 4.0738 43.5723 5.4671 45.4197C5.77525 45.8281 5.68236 45.9991 5.37864 46.2984C3.7804 47.8701 2.20722 49.4684 0.61193 51.0415C0.349488 51.2996 0.303782 51.4485 0.592762 51.7316C1.52163 52.6442 1.50836 52.6575 2.44607 51.7212C3.91457 50.2542 5.39043 48.7931 6.84566 47.3113C7.10662 47.0445 7.2983 47.015 7.6433 47.1609C11.1627 48.653 15.0167 46.1127 15.0226 42.3117ZM6.19545 42.3058C6.1925 40.3596 7.78779 38.7731 9.74136 38.7776C11.6669 38.782 13.246 40.3566 13.2563 42.2807C13.2666 44.2343 11.6831 45.8369 9.73989 45.8384C7.78779 45.8414 6.1984 44.2564 6.19545 42.3058Z" fill="white"/>
<path id="Vector_3" d="M20.3201 31.7106C20.5737 31.7106 20.7875 31.606 20.9615 31.4349C21.4716 30.9336 21.9715 30.4205 22.4831 29.9207C22.6423 29.7644 22.7013 29.6317 22.4978 29.4769C22.4683 29.4548 22.4462 29.4253 22.4197 29.3988C22.1174 29.1054 21.8491 28.6365 21.5011 28.5672C21.1119 28.4906 20.873 29.042 20.5841 29.3295C20.3319 29.5816 20.2022 29.471 20.0135 29.2794C18.9681 28.2237 17.9036 27.1842 16.8701 26.1168C16.5988 25.8367 16.4484 25.8485 16.18 26.1212C15.2777 27.0383 15.2659 27.028 16.1727 27.9332C17.2888 29.0494 18.4064 30.164 19.5195 31.2816C19.7451 31.5086 19.9796 31.7062 20.3201 31.7106Z" fill="white"/>
<path id="Vector_4" d="M20.3186 37.891C20.5722 37.891 20.786 37.7863 20.96 37.6153C21.4701 37.114 21.97 36.6009 22.4816 36.1011C22.6408 35.9463 22.7013 35.8136 22.4978 35.6573C22.4683 35.6352 22.4462 35.6057 22.4197 35.5792C22.1174 35.2858 21.8491 34.8169 21.5011 34.7476C21.1119 34.671 20.873 35.2224 20.584 35.5084C20.3319 35.7591 20.2036 35.6529 20.0134 35.4598C18.9681 34.4026 17.9036 33.3646 16.87 32.2972C16.5988 32.0185 16.4484 32.0259 16.18 32.3001C15.2762 33.2187 15.2659 33.2069 16.1712 34.1122C17.2873 35.2283 18.4049 36.3429 19.5181 37.4605C19.7436 37.689 19.9781 37.8866 20.3186 37.891Z" fill="white"/>
<path id="Vector_5" d="M20.3452 44.0704C20.5973 44.0616 20.8052 43.951 20.9791 43.7785C21.4745 43.2875 21.9567 42.7833 22.4639 42.3056C22.6865 42.0962 22.6305 41.9724 22.4447 41.7763C21.5188 40.7973 21.5114 40.7781 20.6046 41.6686C20.3319 41.9355 20.2036 41.8367 19.9957 41.6244C18.9651 40.5791 17.9109 39.5558 16.8921 38.4987C16.6046 38.1994 16.4483 38.2038 16.1608 38.4987C15.2821 39.404 15.2688 39.3922 16.1505 40.2724C17.2799 41.4018 18.4093 42.5297 19.5372 43.6605C19.7628 43.8876 20.0031 44.0793 20.3452 44.0704Z" fill="white"/>
<path id="Vector_6" d="M10.5832 29.0643C11.6123 29.0643 12.6415 29.0452 13.6691 29.0746C14.0687 29.0864 14.1513 28.9537 14.1483 28.5778C14.1395 27.298 14.1542 27.298 12.8641 27.298C11.1007 27.298 9.33736 27.3069 7.57399 27.2906C7.21571 27.2877 7.06238 27.3422 7.06533 27.7565C7.07417 29.0629 7.055 29.0629 8.37901 29.0629C9.11473 29.0643 9.84898 29.0643 10.5832 29.0643Z" fill="white"/>
<path id="Vector_7" d="M10.5802 32.5971C9.55112 32.5971 8.52346 32.6118 7.49434 32.5882C7.14638 32.5809 7.06971 32.6929 7.06676 33.0246C7.05497 34.3634 7.04317 34.3619 8.40256 34.3619C10.1468 34.3619 11.8924 34.3531 13.6367 34.3693C13.989 34.3722 14.1527 34.3265 14.1497 33.9063C14.1409 32.5956 14.1615 32.5956 12.839 32.5956C12.0871 32.5971 11.3337 32.5971 10.5802 32.5971Z" fill="white"/>
<path id="Vector_8" d="M40.6225 35.2448C42.0202 35.2448 43.4165 35.2477 44.8142 35.2433C45.6103 35.2403 45.9185 34.9351 45.9229 34.1478C45.9273 33.1187 45.9111 32.0881 45.9303 31.059C45.9391 30.5665 45.7622 30.2245 45.3332 29.9723C43.9561 29.1614 42.5864 28.3402 41.2226 27.5072C40.8156 27.258 40.447 27.2536 40.0386 27.5013C38.6571 28.3417 37.2697 29.1703 35.8808 29.9959C35.496 30.2259 35.3206 30.5459 35.325 30.9956C35.3368 32.0616 35.3235 33.1275 35.3309 34.1935C35.3353 34.9145 35.6567 35.2389 36.3762 35.2418C37.7916 35.2492 39.2071 35.2448 40.6225 35.2448ZM40.624 33.4785C39.5963 33.4785 38.5687 33.4829 37.5425 33.474C37.395 33.4726 37.1326 33.5654 37.1208 33.3546C37.0854 32.697 37.1046 32.0365 37.1252 31.3774C37.1282 31.3052 37.2682 31.2241 37.3582 31.1696C38.346 30.5739 39.3412 29.9871 40.3261 29.3841C40.5443 29.2499 40.7139 29.2543 40.9292 29.3885C41.5351 29.7674 42.119 30.2127 42.7736 30.4766C43.9576 30.9513 44.3984 31.7534 44.1595 32.9772C44.1522 33.0125 44.1536 33.0509 44.1595 33.0863C44.2082 33.4003 44.0726 33.4917 43.7615 33.4858C42.7161 33.4681 41.6708 33.4785 40.624 33.4785Z" fill="white"/>
</g>
</svg>
