<svg width="41" height="41" viewBox="0 0 41 41" fill="none" xmlns="http://www.w3.org/2000/svg">
<g id="Group 17">
<g id="Group">
<path id="Vector" d="M25.3816 31.9472C25.0031 31.8833 24.6211 31.8352 24.2461 31.7527C22.8233 31.4398 21.5212 30.8256 20.2585 30.1209C18.2969 29.026 16.5472 27.6537 15.0187 26.0096C13.1547 24.0051 11.6134 21.7869 10.6422 19.2065C10.2886 18.2672 10.0286 17.3053 10.0019 16.2923C9.97516 15.2723 10.2323 14.3545 10.962 13.6079C11.5414 13.0152 12.0917 12.39 12.7239 11.8542C13.6992 11.0275 14.7378 11.0298 15.6736 11.8966C16.6639 12.8138 17.6259 13.7653 18.5245 14.7736C19.2153 15.5486 19.2043 16.6464 18.5355 17.4405C18.056 18.01 17.5144 18.5203 16.9745 19.0306C16.8665 19.1328 16.8567 19.203 16.9223 19.3359C17.454 20.4122 18.2058 21.326 19.0179 22.1944C19.8458 23.0797 20.7572 23.8698 21.7789 24.5258C22.0483 24.6988 22.342 24.8341 22.6189 24.9966C22.7257 25.0593 22.7733 24.9966 22.8343 24.9362C23.2645 24.5072 23.6941 24.0776 24.1254 23.6504C24.541 23.2388 25.0078 22.927 25.615 22.8835C26.1624 22.8446 26.6541 22.9926 27.0628 23.3531C27.8616 24.0585 28.578 24.8492 29.3367 25.5957C29.5962 25.8511 29.8557 26.1071 30.0914 26.3858C30.7387 27.1515 30.7782 28.2533 30.1413 29.0318C29.53 29.7789 28.8189 30.4355 28.1287 31.1072C27.6404 31.582 27.0164 31.8195 26.3395 31.9077C26.2913 31.9141 26.2449 31.9338 26.1973 31.9478C25.925 31.9472 25.6533 31.9472 25.3816 31.9472ZM25.6887 30.7008C26.4637 30.7043 27.0588 30.4854 27.5243 29.974C27.9771 29.4765 28.4648 29.015 28.935 28.5355C28.9948 28.4745 29.0517 28.4101 29.1057 28.3433C29.4366 27.9311 29.4401 27.5155 29.0819 27.1265C28.704 26.7173 28.3028 26.3295 27.9092 25.9347C27.3995 25.4233 26.8927 24.9095 26.3755 24.4062C25.9964 24.0382 25.5709 24.0341 25.1692 24.3743C25.0931 24.4387 25.0223 24.5101 24.9515 24.581C24.4603 25.0703 23.9733 25.5638 23.4787 26.0497C23.1246 26.3974 22.7315 26.4613 22.3031 26.2447C22.0036 26.0932 21.7034 25.9417 21.4161 25.7704C20.1227 24.9995 18.9976 24.0237 17.9817 22.9189C17.0842 21.9431 16.2651 20.9103 15.7125 19.6906C15.4205 19.0457 15.4768 18.7246 15.9905 18.2399C16.5211 17.7401 17.0488 17.2368 17.5376 16.6957C17.8801 16.3166 17.8749 15.9323 17.5539 15.5376C17.4952 15.4656 17.4314 15.3977 17.3658 15.3321C16.5583 14.5223 15.7514 13.7124 14.9421 12.9043C14.4202 12.383 13.9604 12.3778 13.4397 12.8916C12.941 13.3833 12.447 13.8796 11.9536 14.3771C11.715 14.6175 11.5135 14.8845 11.4044 15.2102C11.1786 15.8836 11.2308 16.5657 11.369 17.242C11.582 18.2835 11.9768 19.2628 12.4453 20.2119C13.2731 21.8891 14.35 23.3967 15.5969 24.7841C17.8018 27.2374 20.4164 29.1038 23.5211 30.2538C24.2479 30.5232 25.0031 30.6718 25.6887 30.7008Z" fill="#89A0CD"/>
<path id="Vector_2" d="M31.9445 19.8514C31.9392 19.8561 31.9311 19.8602 31.9288 19.866C31.7958 20.234 31.5805 20.4134 31.2931 20.3948C30.9436 20.3722 30.7381 20.1719 30.6603 19.7545C30.3736 18.2155 29.7872 16.8025 28.8718 15.5324C27.6736 13.8709 26.13 12.6396 24.2316 11.8577C23.5362 11.5709 22.8134 11.3816 22.0779 11.2324C21.6733 11.1506 21.4527 10.8354 21.5293 10.4778C21.6059 10.1207 21.9328 9.94194 22.3409 10.0168C24.0737 10.3338 25.6626 10.9938 27.0948 12.0196C28.448 12.9885 29.5574 14.1856 30.4148 15.6142C31.1538 16.8455 31.6379 18.1714 31.9009 19.5803C31.9102 19.6285 31.9299 19.675 31.9445 19.722C31.9445 19.7655 31.9445 19.8085 31.9445 19.8514Z" fill="#89A0CD"/>
<path id="Vector_3" d="M21.9536 13.9677C22.3675 14.0182 22.7652 14.1099 23.146 14.2515C25.767 15.2239 27.3699 17.0798 27.9405 19.8199C28.0119 20.163 27.8128 20.4765 27.4854 20.5647C27.1673 20.6506 26.8271 20.4683 26.7354 20.1276C26.6042 19.6388 26.5055 19.1407 26.2878 18.6792C25.4036 16.7994 23.9494 15.6413 21.9118 15.221C21.5612 15.1484 21.3626 14.9458 21.3446 14.6474C21.3261 14.345 21.4898 14.0971 21.7725 14.0054C21.8323 13.9856 21.8967 13.9793 21.9536 13.9677Z" fill="#89A0CD"/>
</g>
<circle id="Ellipse 3" opacity="0.64" cx="20.5" cy="20.5" r="20" stroke="#89A0CD"/>
</g>
</svg>
