<svg width="44" height="55" viewBox="0 0 44 55" fill="none" xmlns="http://www.w3.org/2000/svg">
<g id="Group">
<path id="Vector" d="M27.3167 0.00140785C28.557 1.21779 29.8072 2.42291 31.0306 3.65619C31.3784 4.00675 31.7514 4.22356 32.2301 4.34463C33.7098 4.7149 35.1753 5.13584 36.6536 5.51315C37.1562 5.64126 37.4166 5.92706 37.5447 6.42684C37.9432 7.99237 38.3669 9.55087 38.8034 11.1065C38.8752 11.3614 39.0272 11.6232 39.213 11.8133C40.3309 12.9579 41.4586 14.0926 42.6046 15.2062C43.0086 15.5976 43.0987 15.9946 42.9467 16.5324C42.5116 18.0698 42.1104 19.617 41.7204 21.167C41.6557 21.4247 41.6571 21.7274 41.7232 21.985C42.1231 23.5505 42.5412 25.1104 42.972 26.6675C43.1086 27.1603 43.0199 27.5376 42.6454 27.9022C41.4881 29.0313 40.3506 30.1801 39.2229 31.3388C39.0385 31.5288 38.8878 31.7907 38.8174 32.0469C38.3782 33.6195 37.9572 35.1977 37.5504 36.7787C37.4321 37.2377 37.1871 37.4995 36.7226 37.6178C35.554 37.9163 34.394 38.2485 33.1818 38.5808C33.5028 39.7817 33.8139 40.9474 34.1265 42.1131C34.2419 42.5439 34.1912 42.9268 33.7689 43.1647C33.2958 43.4322 32.7735 43.169 32.6074 42.5678C32.3118 41.5021 32.0358 40.4307 31.7472 39.3621C31.7176 39.2495 31.6656 39.1425 31.6064 38.989C30.566 40.0266 29.5636 41.0332 28.5528 42.0314C27.1112 43.4562 27.5955 43.3041 25.6611 42.8057C25.1402 42.672 24.6207 42.5354 23.9984 42.3735C24.8361 45.5074 25.6498 48.5455 26.4833 51.6639C27.442 50.6109 28.3543 49.6394 29.2286 48.6328C29.6185 48.1851 30.0141 48.0753 30.5745 48.2668C31.8289 48.6962 33.0987 49.0791 34.4559 49.5113C34.1926 48.5103 33.9547 47.5995 33.714 46.69C33.6689 46.5196 33.6126 46.3535 33.5732 46.1818C33.4648 45.6989 33.6746 45.299 34.0955 45.1766C34.5502 45.0428 34.943 45.2695 35.1007 45.7763C35.2049 46.1114 35.2823 46.4549 35.3738 46.7942C35.6864 47.9655 36.0243 49.1298 36.2918 50.311C36.3593 50.608 36.303 51.0698 36.1116 51.2528C35.9187 51.4359 35.4541 51.4739 35.1613 51.388C33.6802 50.9572 32.2146 50.4729 30.7505 49.9872C30.4083 49.8731 30.1901 49.9182 29.9423 50.2012C28.9906 51.2838 28.0122 52.3425 27.0379 53.404C26.8268 53.6349 26.5917 53.8433 26.3664 54.0615C26.1904 54.0615 26.0144 54.0615 25.8399 54.0615C25.6371 53.7518 25.3387 53.4674 25.2443 53.1267C24.2659 49.5592 23.3085 45.9847 22.3808 42.4031C22.2527 41.9061 21.9739 41.7175 21.5501 41.7301C21.1334 41.7414 20.7941 41.8611 20.6547 42.4017C19.7312 45.9847 18.771 49.5578 17.7926 53.1253C17.6997 53.466 17.4012 53.7504 17.1985 54.0615C17.0225 54.0615 16.8465 54.0615 16.6719 54.0615C15.6315 52.9451 14.5348 51.8765 13.5733 50.6953C12.989 49.9787 12.4779 49.8506 11.6332 50.1885C10.4309 50.6686 9.1695 50.9966 7.9334 51.3936C7.56877 51.5105 7.21258 51.5865 6.89863 51.2838C6.5889 50.9839 6.63818 50.6334 6.73954 50.2561C7.75038 46.4901 8.75277 42.7227 9.75798 38.9553C9.78473 38.8553 9.80585 38.7525 9.84527 38.585C8.89074 38.3245 7.96438 38.0007 7.00985 37.8332C6.03139 37.6614 5.53583 37.2025 5.33732 36.2029C5.0642 34.8274 4.64044 33.4815 4.24765 32.1328C4.15895 31.8301 3.97734 31.526 3.76194 31.2951C3.11433 30.6025 2.42307 29.9492 1.75716 29.2735C1.31791 28.8286 1.27849 28.3781 1.63045 28.0289C1.98523 27.6755 2.42589 27.7164 2.8764 28.1613C3.65072 28.9285 4.43348 29.6874 5.17964 30.48C5.40912 30.7235 5.59637 31.0502 5.68929 31.3712C6.10179 32.8058 6.48754 34.2474 6.85076 35.6961C6.93946 36.0509 7.09573 36.2184 7.44769 36.3071C8.90904 36.6788 10.3662 37.0659 11.8163 37.4812C12.1204 37.5685 12.4343 37.7431 12.661 37.9641C13.7478 39.0144 14.8164 40.0844 15.8681 41.1698C16.1257 41.4359 16.3495 41.4809 16.6916 41.3838C18.16 40.9699 19.6326 40.5715 21.1109 40.197C21.3854 40.1266 21.7078 40.1294 21.9824 40.1984C23.4606 40.5729 24.9346 40.9685 26.403 41.3796C26.7268 41.4697 26.938 41.4331 27.183 41.1797C28.2332 40.0928 29.299 39.02 30.3858 37.9684C30.6252 37.7375 30.9532 37.5516 31.2728 37.4587C32.7369 37.0335 34.211 36.6393 35.6878 36.2578C35.9877 36.1804 36.1116 36.0382 36.1862 35.7439C36.555 34.2967 36.9295 32.8522 37.3476 31.419C37.4546 31.0502 37.67 30.6757 37.9333 30.3969C38.9498 29.327 39.9986 28.2866 41.0559 27.256C41.3206 26.9984 41.3657 26.7731 41.2671 26.4226C40.8687 25.0203 40.4857 23.6125 40.145 22.1962C40.0521 21.8076 40.0437 21.3585 40.1366 20.97C40.4843 19.5185 40.9025 18.0839 41.2587 16.6352C41.3079 16.4324 41.2249 16.1086 41.0813 15.9594C40.0465 14.8824 38.9653 13.849 37.9333 12.7692C37.6686 12.4919 37.4476 12.1202 37.3392 11.7527C36.9225 10.3379 36.5452 8.9117 36.1848 7.48132C36.0961 7.12795 35.9412 6.9576 35.5892 6.8675C34.1279 6.49583 32.6708 6.11008 31.2207 5.69758C30.9166 5.61029 30.604 5.4329 30.376 5.21327C29.3018 4.17569 28.2417 3.12121 27.2083 2.04279C26.9211 1.74292 26.6719 1.70068 26.2932 1.80768C24.86 2.21455 23.4212 2.60312 21.9753 2.96494C21.6698 3.04096 21.3108 3.03814 21.0039 2.96071C19.5411 2.59608 18.0854 2.20188 16.6325 1.79642C16.3087 1.70632 16.0975 1.74574 15.854 1.99915C14.8164 3.07334 13.7633 4.13486 12.6877 5.17104C12.4357 5.4146 12.0964 5.61592 11.7613 5.71447C10.3479 6.12838 8.92594 6.51272 7.49697 6.86891C7.08024 6.97309 6.89863 7.17019 6.79867 7.58128C6.45516 8.97928 6.09052 10.3731 5.68788 11.7556C5.58088 12.1244 5.3683 12.5017 5.10362 12.7791C4.07448 13.8617 3.01015 14.912 1.9444 15.958C1.71211 16.1861 1.66565 16.393 1.75153 16.7028C2.15417 18.1402 2.54978 19.5804 2.90737 21.0291C2.99466 21.3853 2.99747 21.7978 2.91582 22.1554C2.68634 23.1648 2.39773 24.1616 2.12461 25.1611C1.9613 25.7595 1.59244 26.0157 1.10532 25.8862C0.635099 25.7609 0.450671 25.3427 0.605535 24.7388C0.684374 24.4319 0.737873 24.1151 0.856132 23.8251C1.47136 22.3201 1.39815 20.8404 0.846277 19.327C0.511208 18.4063 0.325372 17.432 0.0578803 16.4859C-0.0744577 16.0171 0.0156448 15.6483 0.374647 15.2963C1.53049 14.1658 2.67085 13.0184 3.79713 11.8569C3.99283 11.6556 4.15051 11.3754 4.22653 11.1037C4.66296 9.54805 5.0825 7.98815 5.48092 6.42121C5.60341 5.93832 5.85823 5.67364 6.34112 5.54975C7.86864 5.15837 9.39475 4.7515 10.9096 4.31507C11.2447 4.21792 11.5868 4.02505 11.8374 3.7829C12.9369 2.72138 14.0027 1.62325 15.0853 0.543431C15.2824 0.347739 15.5076 0.180205 15.7202 0C15.8962 0 16.0722 0 16.2468 0C16.3017 0.0351963 16.3538 0.0872868 16.4143 0.104181C18.0361 0.540615 19.658 0.974233 21.2812 1.40504C21.3798 1.43179 21.4938 1.46698 21.5853 1.44164C23.3254 0.967194 25.0571 0.482893 26.7902 0.00140785C26.9647 0.00140785 27.1407 0.00140785 27.3167 0.00140785ZM8.57257 49.5268C9.96775 49.0805 11.2404 48.692 12.4991 48.2612C13.0439 48.0739 13.4367 48.1894 13.7999 48.623C14.2392 49.1481 14.715 49.6423 15.1768 50.1477C15.6175 50.632 16.0595 51.1163 16.5593 51.6639C17.3942 48.5399 18.2037 45.5158 19.0385 42.389C18.0953 42.6396 17.2506 42.8423 16.4185 43.0915C15.9356 43.2365 15.5851 43.1225 15.2402 42.7691C14.1223 41.626 12.9862 40.5025 11.8557 39.3734C11.729 39.2467 11.591 39.1326 11.3995 38.9581C10.4478 42.5129 9.52568 45.9621 8.57257 49.5268Z" fill="white"/>
<path id="Vector_2" d="M7.35897 16.7039C7.61802 16.7039 7.80526 16.7039 7.99251 16.7039C10.4858 16.7039 12.9805 16.7095 15.4738 16.6997C15.9863 16.6969 16.3678 16.8475 16.5593 17.4627C17.7897 16.3632 19.2525 15.617 20.2281 14.2937C20.8729 13.418 21.0053 12.3945 20.9856 11.3343C20.9645 10.1672 21.4797 9.34505 22.423 8.99872C23.5915 8.56933 24.8924 9.15922 25.2781 10.3601C25.9595 12.486 26.2073 14.6512 25.6934 16.8588C25.6695 16.9601 25.6568 17.0629 25.6273 17.2262C26.4579 17.2262 27.2604 17.2262 28.0642 17.2262C28.7316 17.2262 29.3989 17.2375 30.0662 17.2234C31.2235 17.1995 32.1498 17.5993 32.6172 18.7101C33.072 19.7899 32.7749 20.7374 31.9175 21.5511C31.9598 21.6567 32.0034 21.7665 32.0485 21.8749C32.4511 22.8449 32.3244 23.7403 31.6219 24.5203C31.4276 24.7371 31.3938 24.8807 31.5135 25.1538C31.9429 26.1421 31.7641 27.0516 31.0207 27.8231C30.8222 28.0287 30.7701 28.1638 30.8814 28.4482C31.5332 30.1165 30.4055 31.7707 28.6105 31.7792C25.7652 31.7932 22.92 31.7806 20.0761 31.7848C19.42 31.7862 18.8597 31.5483 18.3022 31.2146C17.7869 30.9063 17.2139 30.6979 16.5339 30.384C16.5339 30.8007 16.5424 31.04 16.5325 31.278C16.5072 31.9284 16.2313 32.2043 15.5822 32.2072C14.0899 32.2128 12.5976 32.2086 10.9729 32.2086C11.1644 32.4071 11.2756 32.545 11.408 32.6605C15.8019 36.4715 20.8265 37.6358 26.3171 35.7592C31.8683 33.8614 35.2696 29.8462 36.2551 24.0388C37.1773 18.6003 35.409 13.991 31.3474 10.27C31.2699 10.1982 31.1855 10.1349 31.1108 10.0602C30.7307 9.68153 30.6955 9.23806 31.0165 8.89454C31.3178 8.57214 31.7838 8.52709 32.1428 8.88046C33.003 9.7308 33.9181 10.5502 34.6488 11.5061C42.1104 21.2667 36.7366 35.4832 24.7023 37.8752C15.5358 39.6969 6.55227 33.394 5.16695 24.1655C3.79992 15.0609 9.82131 6.71941 18.8879 5.2116C22.0992 4.67802 25.2176 5.08771 28.2036 6.41391C28.847 6.6997 29.0737 7.10798 28.8526 7.58242C28.6429 8.03293 28.205 8.13008 27.5828 7.8654C23.3353 6.06476 19.1061 6.1084 14.9529 8.12022C11.4713 9.80542 9.02728 12.5015 7.58141 16.0985C7.51102 16.2731 7.45048 16.4519 7.35897 16.7039ZM16.5339 28.9156C17.6138 29.0508 18.55 29.4055 19.4003 30.0081C19.6087 30.1559 19.9297 30.1869 20.2 30.1925C21.2714 30.2122 22.3427 30.201 23.4141 30.201C25.1359 30.201 26.8563 30.2052 28.5781 30.1982C29.1244 30.1953 29.4904 29.856 29.5003 29.3886C29.5101 28.9269 29.1427 28.5735 28.6077 28.5425C28.3979 28.5298 28.1867 28.5439 27.9756 28.5369C27.4138 28.5172 27.1027 28.2469 27.09 27.7752C27.0773 27.2825 27.4026 26.977 27.9812 26.9587C28.4556 26.9432 28.9301 26.9685 29.4031 26.9376C29.8452 26.908 30.1535 26.5518 30.1535 26.1337C30.1549 25.717 29.8466 25.3692 29.4045 25.327C29.0906 25.2974 28.7724 25.3242 28.457 25.3031C27.9164 25.2679 27.6067 24.9539 27.6236 24.4809C27.6391 24.0289 27.9404 23.7488 28.4669 23.7305C28.9399 23.7136 29.4172 23.7446 29.8888 23.7108C30.3942 23.6742 30.7138 23.2969 30.6843 22.8379C30.6561 22.3972 30.3281 22.0889 29.8381 22.072C29.4172 22.0565 28.9948 22.0734 28.5739 22.0664C27.9629 22.0565 27.6137 21.7539 27.6236 21.2527C27.6334 20.7684 27.9657 20.491 28.5584 20.4854C29.1736 20.4798 29.7875 20.4938 30.4027 20.4769C30.8138 20.4657 31.1643 20.2517 31.1855 19.842C31.1995 19.5562 31.0447 19.1986 30.8462 18.986C30.7012 18.8312 30.3605 18.8199 30.1056 18.8185C28.2796 18.8058 26.4523 18.8171 24.6263 18.8086C23.89 18.8058 23.5507 18.3454 23.8041 17.657C24.6122 15.4664 24.4968 13.2786 23.8491 11.0795C23.7295 10.6741 23.5225 10.3939 23.0762 10.4685C22.6525 10.5389 22.5779 10.8683 22.5511 11.2597C22.499 12.027 22.468 12.8098 22.2906 13.5531C21.9288 15.0694 20.8701 16.1013 19.6847 17.0249C18.7978 17.7147 17.9291 18.4299 17.0464 19.1254C16.6606 19.4295 16.4847 19.7885 16.5199 20.3038C16.5691 21.0218 16.5325 21.7454 16.5325 22.4676C16.5339 24.5949 16.5339 26.7222 16.5339 28.9156ZM14.9163 30.6247C14.9163 26.4842 14.9163 22.4113 14.9163 18.3286C12.2231 18.3286 9.56648 18.3286 6.91128 18.3286C6.86059 18.5566 6.80569 18.7439 6.77894 18.9339C6.70855 19.421 6.62548 19.9082 6.59169 20.3981C6.33828 24.0416 7.22945 27.3684 9.36939 30.3389C9.46512 30.4727 9.66503 30.6092 9.81708 30.6121C11.5009 30.6332 13.1861 30.6247 14.9163 30.6247Z" fill="white"/>
</g>
</svg>
