<svg width="54" height="55" viewBox="0 0 54 55" fill="none" xmlns="http://www.w3.org/2000/svg">
<g id="Group">
<path id="Vector" d="M17.308 22.6806C10.7337 19.2425 9.75075 12.2536 11.3006 7.97767C13.0951 3.0264 17.8002 -0.190467 23.1353 0.00875601C28.2682 0.200654 32.8049 3.89946 34.1131 8.97525C35.4139 14.0276 33.2708 19.8212 27.7951 22.663C28.0734 22.7509 28.2946 22.83 28.5216 22.8901C31.8191 23.7822 34.7635 25.3423 37.3402 27.5821C37.7166 27.9102 38.0389 27.9322 38.4125 27.6758C38.8783 27.355 39.3324 27.0166 39.788 26.6797C41.061 25.7378 42.4614 25.7319 43.7431 26.668C43.831 26.7324 43.9248 26.7925 44.0039 26.8687C44.8843 27.7168 45.9375 27.9966 47.1504 27.9996C48.9625 28.0025 50.0304 28.9283 50.4552 30.6803C50.4684 30.733 50.4859 30.7857 50.4918 30.8399C50.6134 32.0338 51.2037 32.9347 52.1149 33.7052C52.5719 34.092 52.9455 34.631 53.215 35.1716C53.5798 35.904 53.505 36.7009 53.1945 37.4597C53.1051 37.6794 53.0143 37.9036 52.8839 38.0984C52.2291 39.0813 52.1281 40.1258 52.32 41.286C52.6393 43.2137 51.9332 44.3666 50.1329 45.14C49.9835 45.2045 49.8341 45.2704 49.6422 45.3539C49.7227 45.5487 49.7887 45.7318 49.8707 45.9062C50.5709 47.4121 51.2682 48.9194 51.9772 50.4209C52.1867 50.8648 52.2482 51.2925 51.9362 51.71C51.6359 52.1114 51.2198 52.1802 50.7584 52.1011C50.1651 51.9986 49.5689 51.9092 48.9801 51.7803C48.5933 51.6968 48.3443 51.7569 48.1539 52.1524C47.8843 52.709 47.5357 53.2276 47.2266 53.7667C46.9995 54.1622 46.6787 54.4068 46.2129 54.3936C45.7222 54.3805 45.4116 54.1021 45.2109 53.6671C44.5298 52.1934 43.8398 50.7227 43.1528 49.2505C42.8305 48.5591 42.2504 48.2558 41.4946 48.3891C40.9921 48.477 40.6244 48.6616 40.3944 49.208C39.7792 50.6699 39.0717 52.0938 38.4081 53.5352C38.1986 53.9923 37.9203 54.3629 37.3753 54.3936C36.8026 54.4259 36.4818 54.0772 36.2298 53.6129C35.9427 53.084 35.6102 52.5787 35.3304 52.0455C35.1839 51.7686 35.011 51.7027 34.7151 51.7627C34.0706 51.8916 33.4216 51.9927 32.7742 52.1026C32.3113 52.1817 31.8967 52.104 31.6023 51.6997C31.3093 51.2984 31.3562 50.8809 31.5539 50.4575C32.2556 48.9531 32.9573 47.4472 33.6575 45.9413C33.741 45.7611 33.8172 45.5795 33.9138 45.3627C33.6018 45.225 33.2883 45.1459 33.0496 44.9687C32.5588 44.6039 32.0329 44.245 31.6667 43.7718C31.403 43.432 31.1745 43.3324 30.7834 43.3324C20.9526 43.3397 11.1204 43.3382 1.28964 43.3382C0.141181 43.3382 -0.104918 43.0614 0.0357103 41.9334C1.18417 32.7238 7.97825 25.0347 16.933 22.808C17.0517 22.7773 17.1689 22.7275 17.308 22.6806ZM12.3992 11.9196C12.3948 17.5228 16.9125 22.0566 22.5288 22.0829C28.1393 22.1108 32.7273 17.5404 32.7273 11.9255C32.7273 6.33261 28.1745 1.76514 22.5904 1.75488C16.9682 1.74463 12.4036 6.29599 12.3992 11.9196ZM20.5513 41.557C19.8247 40.7527 19.1743 40.0218 18.5092 39.3025C18.1972 38.9656 18.0947 38.6111 18.2045 38.1511C18.4199 37.2473 18.5927 36.3318 18.7788 35.4206C18.9355 34.6559 19.0849 33.8883 19.2534 33.0446C18.4052 33.695 17.954 33.5968 17.4706 32.7355C16.4423 30.9059 15.4183 29.0762 14.39 27.2466C14.1322 26.7881 13.87 26.334 13.6107 25.8813C7.34836 28.6544 2.64025 35.154 1.90782 41.5584C8.07786 41.557 14.245 41.557 20.5513 41.557ZM32.9265 41.8499C32.8577 42.6864 33.0979 43.1405 33.9461 43.4452C35.4461 43.9843 36.6356 44.8353 37.4237 46.2695C38.0199 47.3535 38.4798 47.5087 39.6444 47.0781C41.0653 46.5522 42.435 46.5463 43.8603 47.0649C45.0937 47.5131 45.5054 47.3623 46.1616 46.2167C46.8985 44.9335 47.918 44.0751 49.3067 43.5668C50.5694 43.1053 50.8082 42.701 50.5665 41.4031C50.294 39.9427 50.5035 38.6126 51.2858 37.3586C51.3824 37.2048 51.4586 37.0364 51.5333 36.8708C51.8073 36.2673 51.7384 35.6682 51.2316 35.2726C49.774 34.1344 48.9185 32.6901 48.671 30.8517C48.5801 30.1793 48.0689 29.8292 47.4009 29.7574C47.0376 29.7193 46.6714 29.7149 46.3052 29.7091C45.2651 29.6886 44.332 29.3853 43.5278 28.7086C43.3037 28.521 43.0634 28.3541 42.8291 28.1797C42.0043 27.566 41.4916 27.5205 40.7138 28.1973C39.4657 29.2857 38.0638 29.8057 36.4027 29.753C35.4388 29.7222 34.97 30.1236 34.8206 31.0773C34.5642 32.7062 33.8406 34.0173 32.5427 35.0558C31.7136 35.7194 31.6316 36.2512 32.1736 37.1697C32.969 38.5203 33.3191 39.9207 32.9602 41.4691C32.9309 41.5906 32.9368 41.7225 32.9265 41.8499ZM31.1452 41.5657C31.488 39.7801 31.4792 39.7171 30.697 38.1702C30.5812 37.9417 30.4553 37.719 30.3601 37.4817C29.9103 36.3537 30.0451 35.2888 30.7922 34.3351C31.0822 33.9645 31.4367 33.6335 31.803 33.3346C32.4431 32.8117 32.8196 32.1613 32.9456 31.3468C33.1667 29.9112 33.7102 28.691 35.3626 28.105C34.0164 27.2891 32.8079 26.5552 31.5539 25.7949C31.3957 26.0732 31.2888 26.2593 31.1833 26.4468C30.0129 28.5313 28.8439 30.6173 27.6735 32.7018C27.1842 33.5719 26.8136 33.6715 25.9273 33.1442C25.9405 33.3068 25.9391 33.4474 25.9654 33.5836C26.1793 34.6384 26.402 35.6916 26.6144 36.7478C27.1256 39.2835 27.2648 38.4983 25.6197 40.3924C25.296 40.7659 24.9664 41.1336 24.5841 41.5643C26.84 41.5657 28.9757 41.5657 31.1452 41.5657ZM22.5611 41.157C23.3272 40.3118 24.0245 39.5135 24.7554 38.7488C25.047 38.4426 25.1436 38.1614 25.0499 37.7351C24.5679 35.5261 24.0845 33.3156 23.6758 31.0919C23.525 30.273 23.1792 29.6314 22.479 29.0147C22.1714 29.5142 21.7217 29.9639 21.6001 30.4898C21.0303 32.9596 20.5469 35.4484 20.0473 37.9343C20.0137 38.1057 20.0459 38.3577 20.1514 38.4793C20.9307 39.3728 21.7334 40.243 22.5611 41.157ZM15.2235 25.1504C16.35 27.1602 17.4296 29.0836 18.5458 31.0714C19.4746 29.9683 20.374 28.9004 21.2969 27.8047C19.9331 26.7471 18.625 25.7246 17.3036 24.7182C17.1967 24.6377 16.996 24.6113 16.8627 24.6465C16.3354 24.7886 15.8183 24.9643 15.2235 25.1504ZM26.5748 31.0699C27.6896 29.0821 28.7809 27.1382 29.8957 25.1518C29.3083 24.9687 28.7897 24.7988 28.2653 24.6523C28.1422 24.6186 27.9591 24.6157 27.8683 24.6831C26.5221 25.7085 25.1876 26.7471 23.8238 27.8047C24.7423 28.8961 25.6329 29.9537 26.5748 31.0699ZM48.1465 46.3632C47.3907 47.7021 46.6245 48.8857 44.9868 49.0381C45.4307 49.9902 45.8438 50.875 46.2583 51.7627C46.3257 51.7261 46.3711 51.7188 46.3872 51.6924C46.6128 51.3189 46.8369 50.9424 47.0581 50.5659C47.4581 49.8848 47.6529 49.7895 48.441 49.9155C48.898 49.9888 49.3521 50.0723 49.9161 50.1689C49.3111 48.8667 48.7603 47.6816 48.1465 46.3632ZM35.3934 46.3735C34.7825 47.6875 34.2317 48.8711 33.6326 50.1602C34.2376 50.0606 34.7356 49.9917 35.2278 49.895C35.7889 49.7851 36.18 49.9727 36.4466 50.481C36.6781 50.9234 36.9447 51.3467 37.242 51.8579C37.7079 50.856 38.1209 49.9683 38.5575 49.0278C36.9124 48.8901 36.1697 47.6933 35.3934 46.3735ZM25.6725 24.1484C24.4874 23.7602 20.1836 23.7705 19.4863 24.1777C20.519 24.9775 21.5371 25.7656 22.5625 26.561C23.6011 25.7554 24.606 24.9761 25.6725 24.1484Z" fill="white"/>
<path id="Vector_2" d="M48.3295 37.4801C48.3427 41.094 45.4129 44.0618 41.8123 44.0823C38.1867 44.1028 35.2115 41.1379 35.2115 37.5065C35.2115 33.8941 38.1559 30.9409 41.7595 30.9351C45.3675 30.9292 48.3163 33.8677 48.3295 37.4801ZM46.5731 37.5241C46.5804 34.8624 44.4388 32.6988 41.7888 32.69C39.1389 32.6827 36.9811 34.8316 36.9694 37.4904C36.9577 40.1433 39.1096 42.3171 41.7551 42.3259C44.4021 42.3347 46.5643 40.1813 46.5731 37.5241Z" fill="white"/>
</g>
</svg>
