<svg width="51" height="64" viewBox="0 0 51 64" fill="none" xmlns="http://www.w3.org/2000/svg">
<g id="Group">
<path id="Vector" d="M27.8257 0.00156576C29.0046 0.457203 30.259 0.784447 31.3497 1.39353C35.4751 3.6952 37.6838 7.21034 37.9421 11.8528C38.011 13.0992 37.9517 14.3518 37.9774 15.6013C37.9822 15.8565 38.0319 16.1587 38.1811 16.3528C40.0802 18.844 38.712 22.5642 35.2843 23.095C35.1607 23.1138 35.0372 23.1357 34.8897 23.1608C34.6443 24.5872 34.2304 25.9447 33.3595 27.1049C32.8205 27.822 32.1501 28.4421 31.5742 29.1342C31.3818 29.3659 31.2149 29.679 31.1877 29.9687C31.1283 30.5668 31.2085 31.179 31.1572 31.7787C31.1171 32.2688 31.3368 32.4598 31.7699 32.6211C35.5505 34.0319 39.3231 35.4645 43.0989 36.8862C46.8827 38.3095 49.1491 41.5319 49.1299 45.4713C49.1267 46.2339 48.8717 46.6018 48.299 46.6707C47.6446 46.7506 47.2211 46.3372 47.2115 45.5246C47.1971 44.3643 47.0319 43.2401 46.4881 42.1973C45.707 40.6989 44.5489 39.5308 42.9658 38.8842C40.4924 37.8742 37.9741 36.9692 35.427 36C34.7213 37.3795 34.0267 38.7338 33.3338 40.0898C32.9713 40.7975 32.6136 41.5068 32.2479 42.2114C31.5758 43.5047 30.5637 43.7615 29.311 42.963C29.2404 42.9176 29.1666 42.8753 29.0576 42.8095C28.509 43.475 28.0695 44.0715 28.2796 45.0721C28.8154 47.618 29.2003 50.1952 29.627 52.7615C29.6944 53.1702 29.8371 53.3816 30.3023 53.4004C30.8107 53.4207 31.3176 53.524 31.8196 53.6211C33.1975 53.8873 33.661 55.2573 32.7195 56.2782C32.3794 56.6462 32.0041 56.9859 31.5662 57.415C33.1542 57.415 34.6459 57.415 36.2675 57.415C35.9259 57.0768 35.5874 56.8121 35.3404 56.4818C35.0613 56.1076 34.7437 55.6973 34.6571 55.2605C34.5015 54.4854 35.1126 53.7824 35.9804 53.629C36.9428 53.4599 37.9132 53.3362 38.9654 53.1796C38.9654 52.9431 38.9654 52.7224 38.9654 52.5032C38.9654 50.8153 38.9622 49.129 38.967 47.4411C38.9686 46.6973 39.3103 46.273 39.8973 46.2558C40.5117 46.2386 40.8822 46.6754 40.8886 47.4489C40.8966 48.3445 40.8902 49.2386 40.8902 50.2579C41.0394 50.0715 41.126 49.976 41.1982 49.8727C41.9649 48.7845 43.3475 48.8283 44.0051 49.9901C44.427 50.7354 44.8392 51.4948 45.1584 52.2855C45.4311 52.9588 45.8706 53.2626 46.586 53.2516C46.756 53.2485 46.9244 53.272 47.2035 53.2892C47.2035 52.5533 47.2019 51.8346 47.2035 51.1159C47.2035 50.8028 47.1859 50.488 47.2179 50.1796C47.2837 49.5642 47.6494 49.2276 48.1996 49.2401C48.7481 49.2526 49.1026 49.6034 49.1187 50.2297C49.1427 51.1457 49.1379 52.0632 49.1235 52.9792C49.1171 53.3565 49.1636 53.5945 49.6015 53.7793C50.6344 54.213 50.8221 55.4437 50.0105 56.2782C49.3208 56.9875 48.5974 57.6702 47.8563 58.3278C47.5468 58.6034 47.4666 58.8711 47.5452 59.2579C47.72 60.1143 47.8531 60.9802 48.0135 61.8382C48.1499 62.5585 48.0921 63.2208 47.4329 63.6905C46.7768 64.1571 46.1208 64.0334 45.4552 63.6733C44.7109 63.2694 43.933 62.9202 43.1983 62.5006C42.7653 62.2532 42.4172 62.225 41.9681 62.4865C41.1821 62.9437 40.3497 63.3257 39.5412 63.7453C38.9029 64.0773 38.2725 64.1164 37.6806 63.6718C37.092 63.2302 36.9717 62.6258 37.1064 61.9353C37.27 61.1023 37.4015 60.2647 37.5539 59.3878C35.1223 59.3878 32.7403 59.3878 30.2846 59.3878C30.429 60.2255 30.5525 61.0366 30.7129 61.8429C30.8572 62.5726 30.7738 63.2255 30.1258 63.6921C29.4987 64.1431 28.8523 64.0444 28.2026 63.6999C27.3974 63.2725 26.5714 62.881 25.7742 62.4411C25.4197 62.2453 25.1358 62.2297 24.7733 62.4301C23.9392 62.892 23.0779 63.3069 22.231 63.7469C21.5926 64.0789 20.9638 64.1086 20.3704 63.6671C19.7977 63.2396 19.6726 62.6462 19.7881 61.987C19.9341 61.1462 20.0897 60.3085 20.2501 59.4098C17.8264 59.4098 15.4349 59.4098 12.9808 59.4098C13.1251 60.2506 13.2486 61.0867 13.4187 61.9134C13.5662 62.6337 13.4299 63.2521 12.8156 63.6968C12.2173 64.1305 11.5821 64.0585 10.9485 63.7266C10.1032 63.2834 9.26433 62.8262 8.39657 62.4317C8.15437 62.3221 7.77262 62.3205 7.53202 62.4301C6.66266 62.8231 5.82217 63.2787 4.97847 63.7219C4.3465 64.0538 3.71934 64.1305 3.11143 63.7015C2.47946 63.2568 2.37199 62.6211 2.4987 61.915C2.66391 60.9927 2.85158 60.0736 2.97028 59.1451C3.00075 58.9071 2.88045 58.5799 2.71043 58.4014C2.13139 57.7908 1.49942 57.2286 0.888298 56.6462C-0.44141 55.3763 -0.284219 54.3429 1.39997 53.5319C1.39997 51.3022 1.40478 49.0538 1.39837 46.8054C1.39355 45.1597 1.3711 43.5173 2.04157 41.9515C3.04887 39.5982 4.77637 37.9369 7.17594 36.999C11.0111 35.4974 14.8751 34.0632 18.7359 32.6242C19.2123 32.4473 19.3262 32.2124 19.3711 31.7271C19.501 30.3648 19.1626 29.3408 18.0157 28.3888C16.593 27.2083 15.8567 25.5172 15.5407 23.7041C15.4686 23.2892 15.3146 23.1216 14.8815 23.0496C11.558 22.4969 10.262 18.7578 12.113 16.4577C12.2638 16.2698 12.3119 15.963 12.3199 15.7093C12.3745 14.0668 12.283 12.4102 12.4643 10.7818C13.0305 5.68059 16.8785 1.45303 21.9743 0.191023C22.1781 0.140919 22.3753 0.0657621 22.5758 0.00156576C22.7892 0.00156576 23.0025 0.00156576 23.2158 0.00156576C23.5944 0.284969 23.9553 0.588727 23.8366 1.12265C23.7195 1.64875 23.3008 1.83664 22.8116 1.92589C22.7491 1.93685 22.6897 1.96347 22.6272 1.97756C16.9474 3.37109 13.4764 8.32673 14.3506 14.9937C14.7628 14.7839 15.2921 14.6884 15.4686 14.3925C15.9241 13.63 16.5224 13.3356 17.3998 13.334C18.5915 13.3309 19.7913 13.3121 20.9719 13.1728C23.936 12.8236 26.6596 11.7949 29.1971 10.2651C30.3087 9.595 31.069 9.72809 31.9704 10.6722C32.7692 11.5099 33.568 12.3492 34.3491 13.2041C34.5576 13.4327 34.8432 13.7098 34.8544 13.9744C34.8881 14.7698 35.4238 14.7573 35.9788 14.7824C35.9788 13.5501 36.1199 12.3085 35.9531 11.106C35.3035 6.39927 32.2672 3.13466 27.5755 1.95251C27.0895 1.83038 26.6115 1.70198 26.4735 1.13988C26.3404 0.602819 26.7109 0.305324 27.059 0C27.314 0.00156576 27.5691 0.00156576 27.8257 0.00156576ZM15.1125 36.0282C14.9986 36.0611 14.92 36.0783 14.8446 36.1065C12.4611 37.0052 10.0359 37.8147 7.70526 38.8294C5.04744 39.9865 3.4627 42.0313 3.36646 44.939C3.27824 47.5804 3.33438 50.2281 3.33117 52.8727C3.33117 53.0073 3.37448 53.142 3.40015 53.2876C3.63273 53.2704 3.8236 53.2485 4.01447 53.2453C4.66569 53.2297 5.09396 52.987 5.34579 52.3372C5.65536 51.5434 6.08843 50.7949 6.49424 50.0402C6.90326 49.2808 7.6026 48.8957 8.33241 49.1681C8.82484 49.3513 9.21782 49.7866 9.64287 50.1013C9.64287 49.2432 9.63165 48.2928 9.64608 47.3424C9.65731 46.6378 10.0792 46.2151 10.6807 46.2605C11.226 46.3012 11.5612 46.6989 11.5645 47.3612C11.5725 49.0898 11.5837 50.8184 11.5564 52.547C11.5484 53.0246 11.6382 53.2579 12.1916 53.2876C12.891 53.3252 13.5823 53.4865 14.28 53.5757C15.013 53.6697 15.5808 53.9687 15.8247 54.6937C16.0717 55.4296 15.7412 55.9823 15.2199 56.4771C14.912 56.7699 14.6152 57.0736 14.2543 57.4291C15.8808 57.4291 17.3757 57.4291 19.0471 57.4291C18.5498 56.9672 18.1392 56.6352 17.7895 56.25C16.8785 55.2495 17.3484 53.8904 18.6878 53.6258C19.2091 53.5225 19.7384 53.4238 20.2677 53.3972C20.712 53.3737 20.8355 53.1592 20.8981 52.7834C21.3247 50.2375 21.7001 47.6822 22.2326 45.1582C22.4459 44.1467 22.061 43.5 21.4932 42.8408C21.105 43.0287 20.7617 43.2636 20.38 43.3638C19.5202 43.5893 18.784 43.19 18.3173 42.2866C17.2474 40.2088 16.1856 38.1263 15.1125 36.0282ZM30.3712 11.7604C26.3613 14.2265 22.0305 15.3852 17.326 15.2333C17.3083 15.3993 17.2891 15.4979 17.2891 15.5981C17.2923 17.8262 17.241 20.0574 17.3164 22.2824C17.4511 26.3236 20.8147 29.4316 25.046 29.5099C29.2244 29.5867 32.7147 26.6054 32.9617 22.5705C33.1173 20.0167 33.0258 17.4489 33.0274 14.8888C33.0274 14.7025 32.9344 14.477 32.8061 14.3377C32.0249 13.4875 31.2197 12.6561 30.3712 11.7604ZM13.4636 55.3654C12.6167 55.2433 11.8002 55.0945 10.9758 55.0178C10.1032 54.9364 9.51776 54.5496 9.16328 53.7589C8.81682 52.9886 8.40139 52.2479 7.96189 51.3868C7.53202 52.237 7.13423 52.9447 6.81023 53.6838C6.43169 54.5465 5.79811 54.9567 4.84694 55.0303C4.04174 55.0929 3.24616 55.2589 2.49389 55.3732C3.14511 56.0512 3.74019 56.7041 4.37056 57.3226C4.89346 57.8362 5.11481 58.3998 4.95922 59.1295C4.77637 59.9891 4.65767 60.8612 4.49246 61.8461C5.3506 61.4061 6.09966 61.0569 6.81183 60.6483C7.58816 60.2005 8.31477 60.1848 9.09752 60.6389C9.82573 61.0601 10.594 61.4155 11.4474 61.8523C11.2773 60.8847 11.1442 60.0267 10.9726 59.1764C10.8234 58.4374 11.0111 57.8409 11.5709 57.3101C12.2061 56.7025 12.7979 56.0512 13.4636 55.3654ZM39.0905 61.8429C39.9503 61.4061 40.733 61.0397 41.4821 60.617C42.2215 60.1989 42.9096 60.1942 43.6507 60.6154C44.3949 61.0381 45.1745 61.3983 46.0422 61.8382C45.8802 60.8753 45.776 60.0298 45.5851 59.2031C45.399 58.3967 45.6508 57.7923 46.2411 57.2427C46.8699 56.6587 47.4569 56.0324 48.1114 55.3763C47.2645 55.2526 46.4528 55.0945 45.6332 55.024C44.7077 54.9458 44.095 54.5324 43.7261 53.6963C43.3972 52.9494 42.9962 52.2323 42.5696 51.3915C42.1349 52.2464 41.7355 52.9557 41.4083 53.6947C41.0378 54.5293 40.4283 54.9458 39.5028 55.0256C38.6863 55.0945 37.8795 55.2542 37.0679 55.3732C37.6902 56.0167 38.2436 56.6477 38.8612 57.2114C39.5028 57.7954 39.7305 58.4437 39.5364 59.2861C39.352 60.0909 39.2493 60.9144 39.0905 61.8429ZM30.7578 55.3638C29.9221 55.2448 29.0832 55.1008 28.2395 55.0131C27.3974 54.9254 26.82 54.5434 26.4687 53.7808C26.1142 53.012 25.7084 52.2667 25.2641 51.393C24.8294 52.2495 24.4301 52.976 24.0884 53.7276C23.7227 54.5355 23.1212 54.9395 22.223 55.0209C21.3953 55.0961 20.5741 55.2542 19.7977 55.3685C20.4586 56.059 21.0713 56.7245 21.7129 57.3602C22.2214 57.8628 22.4026 58.4249 22.2615 59.1216C22.085 59.9859 21.9551 60.8596 21.7851 61.8429C22.5582 61.4484 23.2447 61.1556 23.8655 60.7657C24.8198 60.166 25.7116 60.1676 26.6644 60.7673C27.29 61.1603 27.9797 61.4546 28.7464 61.8476C28.5748 60.8549 28.4625 60.0094 28.278 59.1796C28.1048 58.403 28.3374 57.808 28.9068 57.2662C29.5307 56.6744 30.1098 56.0355 30.7578 55.3638ZM25.2593 37.5C26.3516 36.1848 27.29 34.8805 28.4144 33.7547C29.3543 32.8137 29.2917 31.7819 29.1987 30.595C26.5714 31.6863 23.9537 31.619 21.2189 30.6482C21.283 31.4499 21.0905 32.3111 21.4402 32.8027C22.5871 34.4186 23.9328 35.8983 25.2593 37.5ZM33.6081 35.3252C32.6297 34.9541 31.7025 34.594 30.7658 34.2636C30.6503 34.2229 30.421 34.2886 30.3408 34.3842C29.1089 35.845 27.8947 37.3184 26.6532 38.8137C27.9412 39.7062 29.1843 40.5689 30.4723 41.4614C31.5373 39.3821 32.5607 37.3763 33.6081 35.3252ZM20.0464 41.4614C21.3424 40.5611 22.5855 39.6999 23.8606 38.8153C22.6192 37.3153 21.4162 35.856 20.1987 34.4092C20.1153 34.309 19.894 34.2166 19.7849 34.2542C18.8337 34.5893 17.8922 34.9557 16.9089 35.3267C17.9708 37.4014 18.9957 39.4056 20.0464 41.4614ZM23.1725 50.9249C23.7885 50.2062 23.9858 49.1242 25.2401 49.1055C26.5152 49.0882 26.7334 50.1811 27.2964 50.9405C27.0927 49.3857 26.8232 47.8716 26.565 46.356C26.2907 44.7495 26.2955 44.7605 24.6691 44.82C24.3162 44.8325 24.1782 44.9578 24.1301 45.2787C24.0226 45.9786 23.8927 46.6738 23.774 47.3722C23.5719 48.5559 23.373 49.7396 23.1725 50.9249ZM15.3114 21.1816C15.3114 19.6754 15.3114 18.1738 15.3114 16.666C14.0555 16.8507 13.1797 17.8246 13.2021 18.9692C13.2246 20.1357 14.0699 21.0392 15.3114 21.1816ZM27.4841 41.7025C26.7895 41.2187 26.1576 40.7646 25.5047 40.3372C25.3941 40.2652 25.1583 40.2432 25.0556 40.3106C24.3867 40.7459 23.7403 41.2125 23.1469 41.6258C23.5495 43.3419 24.9 42.8706 26.034 42.9473C26.9932 43.0115 26.9596 42.1206 27.4841 41.7025ZM35.0244 16.6065C35.0244 18.1629 35.0244 19.6801 35.0244 21.2067C36.3381 20.9483 37.1401 20.0277 37.116 18.8596C37.0936 17.69 36.2499 16.7646 35.0244 16.6065Z" fill="white"/>
</g>
</svg>
