<svg width="53" height="53" viewBox="0 0 53 53" fill="none" xmlns="http://www.w3.org/2000/svg">
<g id="Group">
<path id="Vector" d="M52.9408 26.4428C51.7271 29.1396 50.5121 31.835 49.3013 34.5332C48.7871 35.6777 48.0862 36.6895 47.1947 37.5756C45.5194 39.2412 43.8551 40.9179 42.1798 42.5835C41.9766 42.7854 41.8619 42.9305 42.0844 43.218C42.347 43.5553 42.354 43.9879 42.3526 44.4068C42.3498 46.4581 42.318 48.5121 42.365 50.562C42.3913 51.6526 42.0844 52.4778 41.0408 52.9312C37.5229 52.9312 34.005 52.9312 30.4872 52.9312C29.4518 52.558 29.0703 51.8144 29.0938 50.7279C29.1394 48.6089 29.1049 46.4885 29.1076 44.3681C29.109 43.1904 29.4726 42.6969 30.6254 42.3693C30.9309 42.2822 30.8714 42.0845 30.8728 41.891C30.8811 40.7382 30.8092 39.5771 31.1133 38.4464C31.8238 35.8007 33.1964 33.7232 35.8808 32.6837C37.5962 32.0188 39.1181 31.0029 40.4948 29.7809C41.9697 28.4719 43.5883 28.2079 45.3576 29.1022C45.6686 29.2598 45.7032 29.087 45.7848 28.8963C46.3349 27.6149 46.8823 26.3336 47.4338 25.0536C48.0088 23.7211 48.9654 23.0562 50.2398 23.1018C51.5115 23.146 52.392 23.8745 52.8689 25.272C52.8855 25.3204 52.9159 25.3632 52.9408 25.4088C52.9408 25.753 52.9408 26.0986 52.9408 26.4428ZM36.3038 42.343C37.3557 42.343 38.4062 42.3306 39.4581 42.3499C39.7981 42.3569 40.0345 42.2463 40.2709 42.0071C42.1632 40.0968 44.0666 38.1976 45.9686 36.297C46.5837 35.6832 47.1186 35.0073 47.4822 34.218C48.6792 31.6249 49.8583 29.0221 51.0415 26.422C51.1494 26.1843 51.2185 25.9355 51.1355 25.6701C50.9945 25.2153 50.707 24.9264 50.2205 24.8822C49.6869 24.8338 49.3303 25.0937 49.1243 25.5692C48.4968 27.0233 47.8706 28.4761 47.2527 29.9344C46.8477 30.8923 46.3584 31.806 45.6714 32.5856C44.1786 34.2816 42.5143 35.8132 40.9205 37.4111C40.557 37.7746 40.0511 37.7539 39.7083 37.4346C39.3074 37.0614 39.3268 36.532 39.7829 36.0703C40.7643 35.0764 41.7582 34.0964 42.741 33.1053C43.3713 32.4695 44.0251 31.8571 44.5753 31.1425C44.8075 30.8411 44.7163 30.7237 44.426 30.5799C43.5828 30.1625 42.5986 30.2841 41.8315 30.9656C40.1935 32.4197 38.3799 33.5946 36.3452 34.4088C35.2449 34.8497 34.4252 35.581 33.7866 36.5679C32.6877 38.2653 32.5619 40.1507 32.6393 42.0873C32.6518 42.3886 32.8619 42.3389 33.043 42.3403C34.1322 42.3444 35.2173 42.343 36.3038 42.343ZM35.69 51.1688C37.1552 51.1688 38.6191 51.1578 40.0843 51.1771C40.4478 51.1813 40.5971 51.1149 40.5929 50.7058C40.5722 48.6559 40.5777 46.6046 40.5888 44.5547C40.5902 44.234 40.5155 44.1027 40.1589 44.104C37.2119 44.1179 34.2663 44.1179 31.3193 44.104C30.9392 44.1027 30.8687 44.2381 30.87 44.5809C30.8839 46.6143 30.8908 48.6476 30.8659 50.6809C30.8604 51.1177 31.0207 51.1827 31.3994 51.1771C32.8287 51.1564 34.2594 51.1688 35.69 51.1688Z" fill="white"/>
<path id="Vector_2" d="M11.8638 52.9311C10.8202 52.4777 10.5133 51.6539 10.5396 50.5633C10.588 48.4954 10.5548 46.4275 10.5534 44.3583C10.5534 43.9933 10.5492 43.6091 10.7704 43.3119C11.0206 42.9746 10.9404 42.7838 10.6612 42.5088C9.02599 40.9026 7.4184 39.2673 5.79009 37.6542C4.84738 36.7212 4.11063 35.6582 3.56878 34.446C2.47816 32.0118 1.34885 29.5956 0.267911 27.1573C-0.622272 25.1488 0.813909 23.0132 2.96058 23.1418C4.15762 23.2136 4.97178 23.8702 5.44175 24.9622C5.99328 26.2422 6.54895 27.5208 7.08113 28.8091C7.21659 29.1367 7.29676 29.2431 7.68518 29.0537C9.27756 28.2783 10.8216 28.4317 12.1665 29.5887C13.8031 30.9958 15.6056 32.0906 17.5836 32.9504C19.9998 33.9995 21.1596 36.0674 21.8009 38.4974C22.0857 39.5784 22.0373 40.6856 22.0276 41.7872C22.0249 42.13 22.047 42.336 22.4852 42.4106C23.2205 42.5364 23.7721 43.2013 23.7804 43.9546C23.8039 46.4012 23.8066 48.8493 23.7817 51.2959C23.7734 52.1709 23.1722 52.6325 22.4216 52.9297C18.8996 52.9311 15.3817 52.9311 11.8638 52.9311ZM16.569 42.3429C17.6555 42.3429 18.7406 42.3457 19.8271 42.3415C20.0206 42.3401 20.2639 42.4106 20.2639 42.0692C20.2611 40.7616 20.3426 39.4443 19.8768 38.1836C19.3059 36.6396 18.5098 35.2518 16.9132 34.5814C14.732 33.665 12.7471 32.4638 10.9736 30.8935C10.2493 30.2522 9.39367 30.1996 8.50487 30.5798C8.1828 30.718 8.08328 30.859 8.34591 31.1714C8.67904 31.5681 9.01216 31.9607 9.37847 32.327C10.6336 33.5821 11.8942 34.833 13.141 36.0964C13.7091 36.6714 13.5571 37.4469 12.8549 37.6584C12.4554 37.7786 12.1554 37.6031 11.8845 37.3322C10.534 35.9775 9.17804 34.6271 7.8317 33.2683C6.88761 32.3145 6.18265 31.1976 5.65877 29.9633C5.05334 28.5382 4.44099 27.1158 3.82588 25.6934C3.5121 24.9677 2.95643 24.6954 2.36205 24.9594C1.77321 25.2207 1.59627 25.8247 1.91696 26.5325C3.02416 28.9777 4.13689 31.4216 5.24685 33.8654C5.64218 34.7363 6.16468 35.5214 6.842 36.1987C8.791 38.1491 10.7455 40.0967 12.6876 42.054C12.9005 42.2683 13.1189 42.3512 13.4161 42.347C14.4666 42.3346 15.5185 42.3429 16.569 42.3429ZM17.1662 51.1687C18.6134 51.1687 20.0607 51.1563 21.5079 51.177C21.8908 51.1825 22.0442 51.1106 22.0401 50.678C22.0152 48.6447 22.0221 46.6114 22.0359 44.578C22.0387 44.2325 21.9627 44.1011 21.5853 44.1025C18.6563 44.1177 15.7272 44.1191 12.7968 44.1011C12.3918 44.0984 12.3116 44.238 12.3144 44.6071C12.3296 46.6224 12.331 48.6391 12.313 50.6545C12.3103 51.0471 12.4001 51.1867 12.8231 51.1784C14.2717 51.1507 15.7189 51.1687 17.1662 51.1687Z" fill="white"/>
<path id="Vector_3" d="M40.5473 14.1515C40.5473 16.4779 40.6317 18.8098 40.5266 21.132C40.3967 24.0071 39.1291 26.3943 36.8359 28.1222C33.7535 30.4444 30.595 32.6643 27.4614 34.9174C26.7661 35.4164 26.1109 35.3957 25.4045 34.887C22.3691 32.703 19.317 30.5425 16.312 28.3171C13.6566 26.3501 12.3435 23.656 12.3296 20.3565C12.3103 15.8738 12.3296 11.3925 12.3186 6.90981C12.3172 6.31958 12.5342 5.96157 13.0927 5.71829C17.3404 3.8771 21.5798 2.01933 25.8151 0.149117C26.2629 -0.0485482 26.6472 -0.0499305 27.0937 0.146352C31.3138 2.00689 35.538 3.85913 39.7705 5.69203C40.3649 5.94913 40.5971 6.32787 40.5916 6.96233C40.5722 9.35781 40.5833 11.7547 40.5833 14.1515C40.5708 14.1515 40.5584 14.1515 40.5473 14.1515ZM14.0948 14.4363C14.0948 16.4019 14.0907 18.3675 14.0962 20.3344C14.1045 23.1556 15.2601 25.3922 17.5436 27.0426C20.3786 29.0925 23.2233 31.13 26.0515 33.1896C26.3514 33.408 26.538 33.4259 26.8476 33.2006C29.6758 31.141 32.5205 29.1036 35.3555 27.0523C37.6377 25.4018 38.8043 23.1653 38.8084 20.3455C38.8167 16.1213 38.8057 11.8957 38.8195 7.67144C38.8209 7.32311 38.7075 7.15309 38.3938 7.01624C34.5262 5.3354 30.6627 3.6435 26.8006 1.94607C26.5601 1.83964 26.3611 1.83825 26.1206 1.94469C22.2599 3.64212 18.3964 5.3354 14.5275 7.01348C14.1846 7.16276 14.0851 7.35352 14.0879 7.71153C14.1031 9.95219 14.0948 12.1942 14.0948 14.4363Z" fill="white"/>
<path id="Vector_4" d="M33.9497 48.4969C33.7783 48.4969 33.6042 48.5121 33.4355 48.4941C32.978 48.4457 32.6698 48.1278 32.6518 47.6882C32.6324 47.2086 32.8688 46.8796 33.3277 46.7898C33.6761 46.7207 34.0465 46.7303 34.4045 46.7525C34.9436 46.787 35.2767 47.1561 35.2671 47.6523C35.2574 48.1582 34.9242 48.4734 34.363 48.5038C34.2262 48.5107 34.088 48.5052 33.9511 48.5052C33.9497 48.5024 33.9497 48.4996 33.9497 48.4969Z" fill="white"/>
<path id="Vector_5" d="M18.9245 48.4997C18.0315 48.5066 17.6334 48.2329 17.6389 47.6219C17.6445 47.0179 18.055 46.74 18.9452 46.7442C19.1511 46.7456 19.3613 46.7373 19.5603 46.7787C20.0247 46.8755 20.304 47.2584 20.2514 47.7201C20.1975 48.1956 19.9155 48.4568 19.44 48.4983C19.27 48.5121 19.0959 48.4997 18.9245 48.4997Z" fill="white"/>
<path id="Vector_6" d="M15.8655 15.0291C15.8655 13.0981 15.8807 11.1671 15.8558 9.23604C15.8475 8.6154 16.0825 8.25878 16.6561 8.01273C19.7386 6.68575 22.8114 5.33389 25.8814 3.97788C26.274 3.80372 26.6209 3.7968 27.0163 3.97097C30.1195 5.33942 33.2268 6.69543 36.3369 8.04729C36.8221 8.2574 37.0474 8.58499 37.046 9.12408C37.0364 12.917 37.0516 16.7114 37.035 20.5043C37.0253 22.6137 36.1268 24.2987 34.4294 25.5372C32.0076 27.3051 29.5679 29.0495 27.1338 30.8009C26.5809 31.199 26.3251 31.1962 25.7805 30.8036C23.3463 29.0523 20.908 27.3065 18.4835 25.5413C16.7667 24.2917 15.8821 22.5929 15.8682 20.4615C15.8558 18.6507 15.8655 16.8399 15.8655 15.0291ZM17.632 15.3719C17.632 17.0099 17.6458 18.6479 17.6279 20.2845C17.6099 21.9502 18.29 23.2371 19.6349 24.2005C21.7927 25.7459 23.9449 27.2968 26.0888 28.8602C26.3542 29.0537 26.5269 29.0744 26.8034 28.8726C28.9888 27.2775 31.1907 25.7058 33.3789 24.1162C34.6353 23.2039 35.2712 21.9612 35.2712 20.402C35.2712 16.9201 35.267 13.4368 35.2781 9.95482C35.2795 9.6369 35.1938 9.46965 34.8869 9.33695C32.186 8.17031 29.4905 6.9857 26.7979 5.79972C26.5601 5.69466 26.3625 5.68913 26.1178 5.79695C23.4265 6.98709 20.7325 8.17169 18.0287 9.33419C17.6942 9.47794 17.6196 9.6604 17.6223 9.99215C17.6403 11.7863 17.632 13.5791 17.632 15.3719Z" fill="white"/>
<path id="Vector_7" d="M21.1389 18.4919C21.443 18.5098 21.6572 18.6495 21.8659 18.807C22.6082 19.3669 23.3671 19.9059 24.0914 20.4893C24.3996 20.7381 24.5254 20.7007 24.7397 20.3745C26.7412 17.3432 28.7621 14.3243 30.7774 11.3027C30.8728 11.1589 30.9613 11.0096 31.0732 10.8797C31.3856 10.5217 31.8611 10.4567 32.2357 10.7097C32.6062 10.9585 32.7278 11.4285 32.5219 11.8514C32.4693 11.9593 32.3947 12.056 32.3283 12.1569C30.0849 15.5241 27.8415 18.89 25.5967 22.2558C25.0673 23.0492 24.6692 23.1156 23.9006 22.5392C22.839 21.7444 21.7802 20.9482 20.7186 20.1534C20.4076 19.9198 20.2155 19.6281 20.2929 19.2259C20.3606 18.8775 20.5694 18.6384 20.9177 18.5389C21.0006 18.5154 21.0863 18.5029 21.1389 18.4919Z" fill="white"/>
</g>
</svg>
