<svg width="48" height="55" viewBox="0 0 48 55" fill="none" xmlns="http://www.w3.org/2000/svg">
<g id="Group">
<path id="Vector" d="M38.6113 -0.000976562C40.2926 0.687885 40.7194 1.33092 40.7194 3.17122C40.7194 14.4794 40.7223 25.7876 40.7108 37.0958C40.7108 37.5226 40.8254 37.8105 41.1462 38.1069C44.1737 40.9011 45.0961 45.2533 43.4835 49.0056C41.8594 52.785 38.037 55.1394 33.9368 54.8659C32.3442 54.7599 30.8505 54.2959 29.5029 53.4294C29.1362 53.1931 28.7768 53.1058 28.3514 53.1072C19.9376 53.1144 11.5223 53.1129 3.10846 53.1129C2.71605 53.1129 2.32078 53.123 1.93696 53.0199C0.85283 52.7263 0.0937944 51.7753 0.03078 50.6325C0.020755 50.4549 0.0250515 50.2759 0.0250515 50.0968C0.0250515 37.4123 0.0250515 24.7293 0.0250515 12.0448C0.0250515 11.8486 0.00786573 11.6467 0.0436693 11.4576C0.128166 11.0151 0.414595 10.7501 0.86572 10.7716C1.31112 10.7917 1.58609 11.058 1.62619 11.5206C1.64194 11.7154 1.63335 11.913 1.63335 12.1092C1.63335 24.7579 1.63335 37.4052 1.63335 50.0539C1.63335 51.2368 1.8983 51.5061 3.07981 51.5061C10.905 51.5061 18.7288 51.5061 26.5541 51.5061C26.7288 51.5061 26.905 51.5061 27.0954 51.5061C27.0825 51.2239 26.8921 51.0936 26.7718 50.9304C24.466 47.7925 24.2698 43.5376 26.2705 40.2322C26.5168 39.8241 26.8119 39.5548 27.3117 39.6938C27.8516 39.8441 28.0192 40.4256 27.6769 41.0042C26.9135 42.2931 26.5111 43.6823 26.5025 45.1789C26.4767 49.4252 29.8681 53.0428 34.08 53.269C38.4165 53.5025 42.1773 50.3489 42.5898 46.0639C42.9034 42.8044 41.6618 40.1907 38.9235 38.4277C36.1795 36.6605 33.3052 36.6877 30.4509 38.2688C30.3421 38.3289 30.2404 38.4034 30.1287 38.4592C29.6933 38.6784 29.2293 38.5552 29.0131 38.17C28.8068 37.8019 28.9143 37.3493 29.3009 37.0944C30.5584 36.2652 31.9389 35.7625 33.437 35.5935C34.0227 35.5276 34.6113 35.4632 35.1999 35.5463C35.4663 35.5835 35.5608 35.4818 35.5465 35.2298C35.5408 35.1224 35.5465 35.0149 35.5465 34.909C35.5465 28.7808 35.5465 22.6541 35.5465 16.526C35.5465 15.8185 35.5451 15.8185 34.8161 15.8185C32.5118 15.8185 30.2075 15.8199 27.9032 15.8185C25.8953 15.8171 24.8813 14.8289 24.9028 12.8382C24.9071 12.367 24.7882 12.2424 24.3142 12.2453C20.456 12.2653 16.5964 12.2567 12.7382 12.2567C11.2846 12.2567 10.6931 11.6653 10.6902 10.2174C10.6888 9.78916 10.6845 9.35952 10.6917 8.9313C10.7103 7.76984 11.3705 7.10246 12.5291 7.09816C14.4768 7.091 16.4231 7.0953 18.3708 7.0953C20.3901 7.0953 22.408 7.08527 24.4273 7.10389C24.8069 7.10675 24.9401 6.99791 24.8971 6.62412C24.8427 6.15151 25.0976 5.53856 24.7868 5.23781C24.5033 4.96283 23.9018 5.15904 23.442 5.15904C16.6351 5.15474 9.82951 5.15617 3.02253 5.15617C1.92551 5.15617 1.63621 5.4512 1.63478 6.56254C1.63478 6.99075 1.65197 7.42183 1.62476 7.8486C1.59611 8.30259 1.32973 8.5704 0.870016 8.59332C0.403137 8.61623 0.0866336 8.34985 0.0551265 7.91448C0.00213715 7.16977 -0.04942 6.41216 0.0880658 5.67031C0.321505 4.41575 1.33117 3.58082 2.62153 3.5536C3.40777 3.53642 4.19402 3.53785 4.97884 3.55504C5.28245 3.5622 5.387 3.46338 5.37268 3.15833C5.3469 2.58691 5.34833 2.01691 5.60612 1.47986C5.98134 0.69791 6.64728 0.286884 7.41635 -0.000976562C17.8151 -0.000976562 28.2139 -0.000976562 38.6113 -0.000976562ZM39.1111 19.4819C39.1111 13.981 39.1111 8.48018 39.1111 2.97931C39.1111 1.90091 38.8161 1.60732 37.7477 1.60732C27.9433 1.60732 18.1388 1.60732 8.33292 1.60732C7.25738 1.60732 7.00246 1.89375 6.96379 2.97359C6.9466 3.45479 7.08982 3.5579 7.55526 3.55647C13.4672 3.53928 19.3776 3.55074 25.2895 3.53642C25.8137 3.53499 26.1946 3.69825 26.5627 4.06774C29.8996 7.42469 33.2436 10.773 36.6034 14.1056C37.0044 14.5038 37.1677 14.9148 37.1663 15.4733C37.1519 21.8492 37.1577 28.2251 37.1577 34.6011C37.1577 35.7969 37.1577 35.7969 38.2375 36.2351C38.3363 36.2752 38.4351 36.3168 38.5325 36.3597C39.1097 36.6161 39.1111 36.6161 39.1111 35.9816C39.1111 30.4822 39.1111 24.9828 39.1111 19.4819ZM26.5025 6.44367C26.5025 8.58043 26.5025 10.7043 26.5025 12.8296C26.5025 13.908 26.7961 14.2088 27.8588 14.2102C29.8237 14.2131 31.7886 14.2131 33.7535 14.2088C33.9253 14.2088 34.1101 14.2632 34.2218 14.1801C31.6597 11.6123 29.0947 9.04158 26.5025 6.44367ZM18.6171 8.70216C16.9745 8.70216 15.3318 8.70216 13.6891 8.70216C12.2885 8.70216 12.3071 8.70216 12.2899 10.0942C12.2842 10.5425 12.4174 10.6599 12.8599 10.6585C16.3959 10.6413 19.9318 10.6527 23.4664 10.6441C23.9247 10.6427 24.519 10.8446 24.804 10.5496C25.0876 10.2575 24.8498 9.66456 24.8985 9.20628C24.9415 8.81244 24.814 8.68641 24.403 8.69214C22.4753 8.71362 20.5462 8.70216 18.6171 8.70216Z" fill="white"/>
<path id="Vector_2" d="M42.6657 20.2649C42.6657 16.1919 42.66 12.1175 42.6686 8.04445C42.6714 6.50776 43.714 5.3821 45.129 5.342C46.5841 5.30046 47.7398 6.36455 47.8171 7.82247C47.8272 8.01867 47.8214 8.21488 47.8214 8.41251C47.8214 16.1848 47.7885 23.9556 47.8529 31.7278C47.8644 33.064 47.4834 34.0593 46.4523 34.8198C46.0814 35.0934 45.9883 35.407 46.0269 35.8237C46.0456 36.0185 46.0398 36.2176 46.0155 36.4124C45.9668 36.8191 45.7305 37.0625 45.3223 37.1041C44.8913 37.1485 44.6034 36.9465 44.4716 36.5327C44.4444 36.4482 44.4115 36.3508 44.4301 36.2706C44.6406 35.3855 44.1394 34.837 43.5264 34.3443C42.8605 33.8073 42.6442 33.1256 42.65 32.272C42.6829 28.2678 42.6657 24.2663 42.6657 20.2649ZM44.274 20.739C44.274 23.1307 44.274 25.5238 44.274 27.9154C44.274 29.2989 44.274 29.2803 45.6617 29.3018C46.1057 29.3089 46.226 29.1858 46.2246 28.7389C46.2088 23.7221 46.2146 18.7053 46.2146 13.6885C46.2146 12.2349 46.2146 12.2492 44.7724 12.2449C44.3685 12.2435 44.2611 12.3595 44.264 12.7591C44.2812 15.42 44.274 18.0795 44.274 20.739ZM44.2783 9.09564C44.2769 9.09564 44.2754 9.09564 44.274 9.09564C44.274 9.48805 44.2855 9.88046 44.2697 10.2714C44.2582 10.5392 44.337 10.6638 44.6277 10.651C45.0373 10.6323 45.4469 10.6409 45.8565 10.6481C46.0871 10.6524 46.2217 10.6023 46.2174 10.3259C46.2045 9.52386 46.2289 8.72185 46.2045 7.91985C46.1859 7.32265 45.7663 6.9374 45.2164 6.94886C44.6979 6.96032 44.3098 7.34986 44.2812 7.91842C44.2625 8.31083 44.2783 8.70324 44.2783 9.09564ZM46.2146 32.0228C46.2146 30.8986 46.2146 30.8986 45.2135 30.8986C45.0001 30.8986 44.7867 30.9 44.5733 30.9C44.4215 30.9 44.2683 30.9187 44.2797 31.1163C44.3313 31.9283 44.0019 32.8148 44.8755 33.4521C45.1949 33.6856 45.3137 33.6941 45.5959 33.4335C46.0613 33.0096 46.3735 32.5642 46.2146 32.0228Z" fill="white"/>
<path id="Vector_3" d="M14.9537 44.3293C14.9537 45.4722 14.9623 46.6164 14.9509 47.7593C14.9394 48.8978 14.2921 49.5452 13.1464 49.5495C10.8607 49.5595 8.57352 49.5595 6.28782 49.5495C5.14497 49.5437 4.48904 48.895 4.48332 47.7564C4.47186 45.4521 4.47043 43.1478 4.48475 40.8435C4.49048 39.7422 5.15356 39.0805 6.2649 39.0733C8.56922 39.0576 10.8735 39.0576 13.1779 39.0733C14.3136 39.0819 14.9451 39.7479 14.9537 40.9008C14.9609 42.0422 14.9537 43.185 14.9537 44.3293ZM13.3454 44.3794C13.3454 43.2896 13.3368 42.1997 13.3512 41.1098C13.3554 40.7948 13.2738 40.6659 12.933 40.6687C10.789 40.6816 8.64513 40.6816 6.50121 40.6687C6.16036 40.6673 6.08016 40.8005 6.08159 41.1127C6.09161 43.2566 6.09161 45.4005 6.08159 47.5445C6.08016 47.8395 6.16609 47.9498 6.47543 47.9483C8.63797 47.9383 10.7991 47.9369 12.9616 47.9483C13.2752 47.9498 13.354 47.8323 13.3512 47.5416C13.3383 46.489 13.3454 45.4349 13.3454 44.3794Z" fill="white"/>
<path id="Vector_4" d="M33.6661 49.972C33.3138 49.9835 33.0474 49.8474 32.8097 49.6469C31.5709 48.5986 30.3249 47.5574 29.0976 46.4948C28.2784 45.7859 28.224 44.8092 28.9372 43.9885C29.3224 43.5446 29.7177 43.1063 30.1316 42.6882C30.7961 42.0151 31.6339 41.9563 32.4087 42.502C32.4674 42.5435 32.519 42.5922 32.5777 42.6323C32.9586 42.8887 33.2794 43.4415 33.6876 43.3842C34.0771 43.3283 34.4108 42.8529 34.7603 42.5507C35.3947 42.0022 36.0148 41.4379 36.6536 40.8937C37.4742 40.1948 38.4351 40.2607 39.1698 41.0598C39.5322 41.4537 39.8916 41.8504 40.2368 42.2599C40.9199 43.0677 40.8741 44.0358 40.0936 44.7347C38.2719 46.3645 36.4344 47.9771 34.6027 49.5954C34.3263 49.8374 34.0213 50.0078 33.6661 49.972ZM31.4162 43.778C31.2744 43.7737 31.2171 43.8754 31.1484 43.9484C30.8562 44.2607 30.5813 44.59 30.2777 44.8908C30.0571 45.1085 30.0829 45.2417 30.3178 45.435C31.3346 46.2757 32.3457 47.1221 33.3353 47.9943C33.6203 48.2463 33.7764 48.1919 34.0327 47.9613C35.356 46.7669 36.698 45.594 38.0313 44.411C38.3764 44.1045 38.9278 43.8224 38.9922 43.4601C39.0696 43.0304 38.4423 42.7454 38.1745 42.3559C37.9539 42.0337 37.7792 42.0122 37.4727 42.2958C36.529 43.1651 35.5565 44.0029 34.5841 44.8407C33.9998 45.3434 33.4527 45.3505 32.8412 44.8865C32.4431 44.5857 32.0578 44.2678 31.6668 43.9585C31.5809 43.8926 31.4921 43.8324 31.4162 43.778Z" fill="white"/>
<path id="Vector_5" d="M18.6214 17.7678C22.6028 17.7678 26.5842 17.7678 30.5655 17.7678C30.7445 17.7678 30.9235 17.7621 31.1011 17.7793C31.5408 17.8208 31.7914 18.0929 31.8229 18.5082C31.8544 18.9278 31.6282 19.2257 31.2085 19.3303C31.0381 19.3718 30.8548 19.3732 30.6786 19.3732C22.6271 19.3747 14.5756 19.3761 6.52411 19.3718C6.31216 19.3718 6.08874 19.3632 5.89254 19.2973C5.50586 19.167 5.33543 18.8605 5.38413 18.4595C5.43139 18.0814 5.6591 17.8451 6.03862 17.7879C6.23196 17.7592 6.43102 17.7678 6.62723 17.7678C10.6243 17.7678 14.6229 17.7678 18.6214 17.7678Z" fill="white"/>
<path id="Vector_6" d="M18.5799 26.4738C14.5799 26.4738 10.5814 26.4738 6.5814 26.4738C6.40238 26.4738 6.21763 26.4939 6.04721 26.4552C5.61327 26.3578 5.35262 26.0872 5.3784 25.6231C5.40131 25.1892 5.66196 24.9429 6.08301 24.877C6.24055 24.8527 6.40381 24.867 6.56421 24.867C14.5814 24.867 22.5985 24.867 30.6142 24.867C31.4391 24.867 31.8272 25.119 31.8344 25.659C31.8416 26.2003 31.4391 26.4753 30.6328 26.4753C26.6142 26.4738 22.5971 26.4738 18.5799 26.4738Z" fill="white"/>
<path id="Vector_7" d="M18.62 21.3193C22.6014 21.3193 26.5827 21.3193 30.5641 21.3193C30.7431 21.3193 30.9221 21.3107 31.0997 21.3279C31.5379 21.3708 31.7886 21.6429 31.8215 22.0583C31.8559 22.4807 31.6253 22.7772 31.21 22.8846C31.0238 22.9333 30.8219 22.9247 30.6257 22.9261C22.6085 22.9276 14.5928 22.9276 6.57568 22.9261C6.39809 22.9261 6.21335 22.9405 6.04292 22.9018C5.60755 22.803 5.3469 22.5309 5.37841 22.0668C5.40991 21.61 5.68345 21.345 6.13887 21.3279C6.72749 21.3064 7.31753 21.3193 7.90614 21.3193C11.4779 21.3178 15.0497 21.3193 18.62 21.3193Z" fill="white"/>
<path id="Vector_8" d="M18.6057 30.0192C17.4815 30.0192 16.3572 30.0221 15.233 30.0178C14.6 30.0149 14.2534 29.7214 14.2577 29.2115C14.262 28.7045 14.6114 28.4138 15.2473 28.4124C17.4786 28.4081 19.7084 28.4095 21.9397 28.4124C22.5684 28.4138 22.9394 28.7088 22.9522 29.1972C22.9666 29.7042 22.5828 30.0164 21.9254 30.0178C20.8184 30.0207 19.7127 30.0192 18.6057 30.0192Z" fill="white"/>
<path id="Vector_9" d="M9.73928 33.7491C10.8463 33.7491 11.9519 33.7448 13.059 33.7505C13.7049 33.7534 14.0543 34.0327 14.0644 34.5311C14.0744 35.0538 13.7106 35.3545 13.0404 35.356C10.8105 35.3603 8.57924 35.356 6.3494 35.3588C5.89541 35.3588 5.52591 35.2213 5.39988 34.7502C5.29677 34.3649 5.44285 34.0513 5.79516 33.8436C5.99279 33.7276 6.20905 33.7505 6.421 33.7505C7.52662 33.7462 8.63367 33.7477 9.73928 33.7491Z" fill="white"/>
<path id="Vector_10" d="M12.2828 43.406C12.2856 43.7655 12.1109 44.0161 11.7973 44.1722C10.6501 44.7465 9.50585 45.3279 8.35154 45.8865C7.89039 46.1099 7.44356 45.9667 7.23877 45.5829C7.02108 45.1761 7.17146 44.7035 7.63977 44.4629C8.78119 43.8772 9.92547 43.2971 11.0812 42.7429C11.6827 42.455 12.2685 42.7988 12.2828 43.406Z" fill="white"/>
</g>
</svg>
