<!-- Generated by IcoMoon.io -->
<svg version="1.1" xmlns="http://www.w3.org/2000/svg" width="24" height="24" viewBox="0 0 24 24">
<title>elevator</title>
<path d="M18.984 3h-13.969q-0.844 0-1.43 0.586t-0.586 1.43v13.969q0 0.844 0.586 1.43t1.43 0.586h13.969q0.844 0 1.43-0.586t0.586-1.43v-13.969q0-0.844-0.586-1.43t-1.43-0.586zM8.484 6q0.516 0 0.891 0.375t0.375 0.891-0.375 0.867-0.891 0.352-0.867-0.352-0.352-0.867 0.352-0.891 0.867-0.375zM11.016 14.016h-1.031v3.984h-3v-3.984h-0.984v-2.531q0-0.797 0.586-1.383t1.43-0.586h0.984q0.844 0 1.43 0.586t0.586 1.383v2.531zM15.516 17.016l-2.531-4.031h5.016zM12.984 11.016l2.531-4.031 2.484 4.031h-5.016z"></path>
</svg>
