<!-- Generated by IcoMoon.io -->
<svg version="1.1" xmlns="http://www.w3.org/2000/svg" width="24" height="24" viewBox="0 0 24 24">
<title>escalator_warning</title>
<path d="M6.516 2.016q0.797 0 1.383 0.586t0.586 1.383q0 0.844-0.586 1.43t-1.383 0.586q-0.844 0-1.43-0.586t-0.586-1.43q0-0.797 0.586-1.383t1.43-0.586zM15.516 9.516q0 0.609 0.422 1.055t1.078 0.445q0.609 0 1.055-0.445t0.445-1.055q0-0.656-0.445-1.078t-1.055-0.422q-0.656 0-1.078 0.422t-0.422 1.078zM18.516 12h-2.859q-0.422 0-0.82 0.234t-0.633 0.609l-0.891 1.359-3.609-6.188q-0.281-0.469-0.727-0.75t-0.961-0.281h-3q-0.844 0-1.43 0.586t-0.586 1.43v6h1.5v6.984h5.016v-10.359l2.531 4.359h2.203l0.75-1.078v7.078h3.984v-4.969h1.031v-3.516q0-0.609-0.445-1.055t-1.055-0.445z"></path>
</svg>
