<svg width="17" height="32" viewBox="0 0 17 32" fill="none" xmlns="http://www.w3.org/2000/svg">
<path id="Vector" d="M4.86798 31.5251C4.86289 31.3928 4.85271 31.2605 4.85271 31.1256C4.85271 26.5911 4.84762 22.0565 4.86034 17.5245C4.86034 17.2039 4.77128 17.1352 4.46592 17.1377C3.08164 17.153 1.69735 17.1402 0.310522 17.1504C0.0764146 17.153 -0.00246937 17.0944 7.52742e-05 16.8451C0.0102538 15.1834 0.0102538 13.5218 7.52742e-05 11.8601C-0.00246937 11.6082 0.0586021 11.5319 0.3207 11.5319C1.71516 11.5446 3.11217 11.5293 4.50664 11.5446C4.79927 11.5471 4.86034 11.453 4.8578 11.1807C4.85017 9.7048 4.82217 8.22381 4.8807 6.75047C4.9545 4.98448 5.47615 3.36609 6.72302 2.04542C7.67217 1.04283 8.85289 0.472832 10.1888 0.190376C11.3034 -0.0462756 12.4332 -0.0131953 13.5605 0.0326083C14.4002 0.0656887 15.2374 0.144573 16.0771 0.190376C16.3087 0.203099 16.385 0.274349 16.385 0.516091C16.3723 1.99198 16.3723 3.47042 16.385 4.94631C16.3876 5.20587 16.296 5.23895 16.0695 5.24149C14.9626 5.25167 13.8531 5.1906 12.7487 5.28475C11.4459 5.39417 10.7105 6.10158 10.6647 7.41462C10.6189 8.71493 10.6494 10.0203 10.6341 11.3232C10.6316 11.5726 10.7766 11.5446 10.9319 11.5446C12.563 11.5446 14.1941 11.5522 15.8252 11.5369C16.1204 11.5344 16.1789 11.6107 16.1407 11.8957C15.9143 13.5498 15.7056 15.2089 15.502 16.8654C15.4715 17.1097 15.3672 17.153 15.1458 17.153C13.7411 17.1453 12.334 17.153 10.9293 17.1428C10.7028 17.1402 10.6316 17.1988 10.6316 17.4329C10.6392 22.0692 10.6367 26.7056 10.6367 31.3419C10.6367 31.403 10.6469 31.464 10.652 31.5251C8.72566 31.5251 6.79682 31.5251 4.86798 31.5251Z" fill="white"/>
</svg>
