<!-- Generated by IcoMoon.io -->
<svg version="1.1" xmlns="http://www.w3.org/2000/svg" width="24" height="24" viewBox="0 0 24 24">
<title>family_restroom</title>
<path d="M15.984 3.984q0-0.797 0.586-1.383t1.43-0.586 1.43 0.586 0.586 1.383q0 0.844-0.586 1.43t-1.43 0.586-1.43-0.586-0.586-1.43zM20.016 21.984v-6h2.484l-2.531-7.594q-0.234-0.656-0.75-1.031t-1.172-0.375h-0.094q-0.656 0-1.172 0.375t-0.75 1.031l-0.844 2.578q0.797 0.422 1.313 1.242t0.516 1.805v7.969h3zM12.516 11.484q0.609 0 1.055-0.422t0.445-1.078q0-0.609-0.445-1.055t-1.055-0.445q-0.656 0-1.078 0.445t-0.422 1.055q0 0.656 0.422 1.078t1.078 0.422zM5.484 6q0.844 0 1.43-0.586t0.586-1.43q0-0.797-0.586-1.383t-1.43-0.586q-0.797 0-1.383 0.586t-0.586 1.383q0 0.844 0.586 1.43t1.383 0.586zM7.5 21.984v-6.984h1.5v-6q0-0.844-0.586-1.43t-1.43-0.586h-3q-0.797 0-1.383 0.586t-0.586 1.43v6h1.5v6.984h3.984zM14.016 21.984v-3.984h0.984v-3.984q0-0.609-0.445-1.055t-1.055-0.445h-2.016q-0.609 0-1.055 0.445t-0.445 1.055v3.984h1.031v3.984h3z"></path>
</svg>
