<svg width="57" height="55" viewBox="0 0 57 55" fill="none" xmlns="http://www.w3.org/2000/svg">
<g id="Group">
<g id="Vector">
<mask id="path-1-outside-1_39_141" maskUnits="userSpaceOnUse" x="0" y="0" width="57" height="55" fill="black">
<rect fill="white" width="57" height="55"/>
<path d="M13.0632 24.7666C12.7878 24.7666 12.5165 24.7666 12.2431 24.7666C9.16135 24.7666 6.08157 24.7767 2.99976 24.7626C1.35964 24.7545 0.531485 23.4201 1.2746 21.9521C4.52244 15.5394 7.78445 9.13485 11.0485 2.73231C11.6296 1.59435 12.5934 1.0112 13.863 1.00917C20.6827 0.99905 27.5003 0.995 34.32 1.00917C35.9479 1.01322 36.7498 2.36784 36.0107 3.84597C34.7351 6.39524 33.4311 8.92832 32.1412 11.4695C32.0177 11.7125 31.9023 11.9615 31.7383 12.3017C32.0663 12.3159 32.3275 12.3381 32.5887 12.3381C36.2253 12.3402 39.8619 12.3523 43.4986 12.328C44.1283 12.324 44.5069 12.5082 44.8106 13.0873C48.6275 20.3707 52.4645 27.6419 56.3016 34.9131C56.496 35.2796 56.5871 35.6521 56.5871 36.0713C56.579 41.7793 56.5831 47.4853 56.581 53.1933C56.581 54.1794 56.4373 54.3151 55.4309 54.3151C39.9247 54.3151 24.4185 54.3151 8.91229 54.3151C7.91607 54.3151 7.80875 54.2098 7.80875 53.2419C7.80673 47.4833 7.81078 41.7266 7.80268 35.968C7.80268 35.5266 7.89177 35.1358 8.09628 34.741C9.66958 31.6936 11.2287 28.6381 12.7818 25.5806C12.9012 25.3437 13.1078 25.127 13.0632 24.7666ZM44.0858 14.3265C43.9602 14.5067 43.9116 14.5614 43.8772 14.6262C40.3742 21.5026 36.8753 28.3809 33.3703 35.2553C33.2265 35.5367 33.1719 35.8182 33.1719 36.1259C33.1759 41.5566 33.184 46.9851 33.1618 52.4158C33.1597 53.0131 33.3683 53.1245 33.9069 53.1143C35.5733 53.0819 37.2418 53.0657 38.9062 53.1204C39.6028 53.1427 39.7384 52.9058 39.7364 52.2639C39.7121 47.4407 39.7222 42.6176 39.7243 37.7924C39.7243 36.782 39.8397 36.6686 40.8622 36.6686C43.3123 36.6646 45.7623 36.6666 48.2104 36.6686C49.5103 36.6686 49.5427 36.701 49.5427 37.9685C49.5427 42.7411 49.5508 47.5157 49.5326 52.2882C49.5305 52.8714 49.6176 53.1488 50.298 53.1224C51.7093 53.0678 53.1267 53.0698 54.54 53.1224C55.2102 53.1488 55.3864 52.9564 55.3823 52.2842C55.354 47.0317 55.3621 41.7793 55.3742 36.5248C55.3763 36.0024 55.2629 35.5489 55.0199 35.0852C51.6283 28.6624 48.2508 22.2315 44.8673 15.8026C44.6223 15.3369 44.3773 14.8753 44.0858 14.3265ZM43.0328 13.553C39.0885 13.553 35.2757 13.5611 31.4629 13.5429C31.0134 13.5409 30.9304 13.8406 30.7866 14.122C29.3429 16.9527 27.8688 19.7693 26.4757 22.6243C25.7306 24.149 24.6048 24.8172 22.9201 24.7808C20.3445 24.7261 17.7689 24.7787 15.1933 24.7565C14.7276 24.7524 14.4806 24.8881 14.268 25.3133C12.7858 28.2655 11.2712 31.2015 9.7688 34.1436C9.3942 34.8766 9.39825 34.8827 10.2345 34.8827C17.3052 34.8847 24.378 34.8766 31.4487 34.8969C32.0035 34.8989 32.2931 34.7369 32.5462 34.2347C35.8912 27.6176 39.2606 21.0126 42.6218 14.4055C42.7473 14.1625 42.8587 13.9135 43.0328 13.553ZM20.4498 53.1022C24.0358 53.1022 27.6218 53.09 31.2098 53.1143C31.799 53.1184 31.9792 52.9665 31.9772 52.3611C31.9549 47.1836 31.9529 42.0061 31.9772 36.8286C31.9792 36.213 31.7808 36.0814 31.2058 36.0834C24.0581 36.1016 16.9104 36.1016 9.76272 36.0814C9.17349 36.0794 9.00138 36.2312 9.00543 36.8346C9.02973 42.0121 9.02973 47.1897 9.00543 52.3672C9.00341 52.9766 9.18159 53.1184 9.7688 53.1143C13.3285 53.09 16.8881 53.1022 20.4498 53.1022ZM48.3318 45.5435C48.3318 43.221 48.3197 40.8985 48.342 38.576C48.346 38.0759 48.2367 37.8592 47.6798 37.8693C45.6611 37.8997 43.6403 37.8957 41.6215 37.8714C41.0991 37.8653 40.927 38.0252 40.929 38.5578C40.9473 43.1764 40.9452 47.7971 40.9311 52.4158C40.929 52.922 41.0525 53.1245 41.6033 53.1164C43.6221 53.086 45.6429 53.088 47.6616 53.1164C48.1901 53.1245 48.3521 52.9665 48.346 52.436C48.3177 50.1378 48.3318 47.8396 48.3318 45.5435ZM27.8729 17.1836C25.6577 17.1836 23.5883 17.1876 21.521 17.1775C21.2233 17.1755 21.0694 17.299 20.9398 17.5521C20.0064 19.3967 19.0669 21.2373 18.1172 23.0738C17.9451 23.4079 17.9451 23.5638 18.3906 23.5598C20.1076 23.5456 21.8227 23.5638 23.5397 23.5456C24.1856 23.5395 24.7445 23.2561 25.0482 22.683C25.9878 20.9052 26.8888 19.1052 27.8729 17.1836ZM27.4234 2.21598C25.2203 2.21598 23.157 2.22205 21.0937 2.2099C20.7839 2.20788 20.6523 2.35974 20.5288 2.60272C19.6277 4.37648 18.7267 6.15226 17.8074 7.91792C17.6029 8.31074 17.5847 8.50513 18.1213 8.49905C20.0145 8.48488 21.9057 8.48893 23.7989 8.49703C24.0824 8.49905 24.2606 8.40793 24.3942 8.14268C25.3722 6.21301 26.3623 4.28739 27.4234 2.21598ZM13.2738 23.5557C14.1829 23.5557 15.0921 23.5436 15.9992 23.5618C16.3333 23.5679 16.5601 23.495 16.7241 23.167C17.6495 21.3183 18.587 19.4777 19.5407 17.6432C19.7492 17.2423 19.6196 17.1775 19.239 17.1795C17.3214 17.1876 15.4019 17.1836 13.4844 17.1836C13.2495 17.1836 13.0612 17.2059 12.9296 17.465C11.9759 19.3542 11.01 21.2393 10.0381 23.1204C9.86194 23.4626 9.96521 23.5638 10.3216 23.5598C11.3056 23.5476 12.2897 23.5537 13.2738 23.5557ZM29.0007 8.495C29.9342 8.495 30.8676 8.48285 31.799 8.50108C32.1433 8.50715 32.3518 8.39983 32.5118 8.08193C33.3096 6.48231 34.1357 4.89686 34.9335 3.29522C35.2696 2.62095 35.0246 2.22813 34.2572 2.22003C32.5685 2.20383 30.8777 2.22205 29.189 2.20788C28.8954 2.20585 28.7294 2.30912 28.5998 2.56425C27.6805 4.38458 26.7572 6.20491 25.8197 8.01511C25.6152 8.40793 25.7448 8.49905 26.1254 8.49703C27.0832 8.48893 28.0409 8.495 29.0007 8.495ZM19.3584 2.2261C17.3518 2.2261 15.489 2.2018 13.6281 2.23825C12.9903 2.2504 12.4801 2.6088 12.1804 3.196C11.3623 4.78955 10.5605 6.38917 9.73235 7.97664C9.51974 8.38566 9.60883 8.50108 10.0523 8.49703C11.9455 8.48488 13.8407 8.48893 15.734 8.495C16.0154 8.495 16.1997 8.41401 16.3353 8.14673C17.3113 6.21706 18.3015 4.29144 19.3584 2.2261ZM8.36153 17.1816C7.43011 17.1816 6.49666 17.1998 5.56523 17.1735C5.18254 17.1633 4.97803 17.299 4.80997 17.6371C4.01421 19.2368 3.1901 20.8222 2.39029 22.4178C2.02177 23.1508 2.24652 23.5416 3.04836 23.5476C4.68645 23.5638 6.32455 23.5436 7.96264 23.5598C8.30889 23.5638 8.5134 23.4606 8.67336 23.1427C9.58859 21.3224 10.5119 19.504 11.4575 17.6979C11.7187 17.1998 11.498 17.1674 11.0849 17.1735C10.1758 17.1917 9.26866 17.1816 8.36153 17.1816ZM21.7801 15.9667C23.9973 15.9667 26.087 15.9626 28.1766 15.9707C28.5046 15.9727 28.5998 15.752 28.7132 15.5273C29.2174 14.5391 29.7236 13.551 30.2257 12.5609C30.6894 11.6456 31.147 10.7304 31.6593 9.71193C29.4421 9.71193 27.3505 9.71395 25.2588 9.7099C24.8943 9.7099 24.8133 9.99136 24.6898 10.2303C23.9751 11.6214 23.2623 13.0124 22.5516 14.4055C22.3046 14.8915 22.0677 15.3835 21.7801 15.9667ZM13.697 15.9687C15.8919 15.9687 17.9329 15.9646 19.972 15.9727C20.2554 15.9748 20.4356 15.8958 20.5693 15.6285C21.4886 13.8082 22.4159 11.9939 23.3534 10.1837C23.5539 9.79495 23.4263 9.70383 23.0436 9.70585C21.1281 9.71395 19.2126 9.7099 17.2971 9.70788C17.0562 9.70788 16.8679 9.7585 16.7444 10.0055C15.7542 11.9534 14.758 13.8952 13.697 15.9687ZM5.6766 15.9687C7.8614 15.9687 9.87611 15.9586 11.8908 15.9768C12.2614 15.9808 12.4173 15.8148 12.5671 15.5171C13.4398 13.7879 14.3206 12.0607 15.2197 10.3457C15.4687 9.87189 15.4363 9.68763 14.843 9.69978C13.3811 9.7261 11.9111 9.80912 10.4613 9.67751C9.20792 9.56412 8.57414 10.0015 8.09223 11.1435C7.41189 12.7553 6.5331 14.284 5.6766 15.9687Z"/>
</mask>
<path d="M13.0632 24.7666C12.7878 24.7666 12.5165 24.7666 12.2431 24.7666C9.16135 24.7666 6.08157 24.7767 2.99976 24.7626C1.35964 24.7545 0.531485 23.4201 1.2746 21.9521C4.52244 15.5394 7.78445 9.13485 11.0485 2.73231C11.6296 1.59435 12.5934 1.0112 13.863 1.00917C20.6827 0.99905 27.5003 0.995 34.32 1.00917C35.9479 1.01322 36.7498 2.36784 36.0107 3.84597C34.7351 6.39524 33.4311 8.92832 32.1412 11.4695C32.0177 11.7125 31.9023 11.9615 31.7383 12.3017C32.0663 12.3159 32.3275 12.3381 32.5887 12.3381C36.2253 12.3402 39.8619 12.3523 43.4986 12.328C44.1283 12.324 44.5069 12.5082 44.8106 13.0873C48.6275 20.3707 52.4645 27.6419 56.3016 34.9131C56.496 35.2796 56.5871 35.6521 56.5871 36.0713C56.579 41.7793 56.5831 47.4853 56.581 53.1933C56.581 54.1794 56.4373 54.3151 55.4309 54.3151C39.9247 54.3151 24.4185 54.3151 8.91229 54.3151C7.91607 54.3151 7.80875 54.2098 7.80875 53.2419C7.80673 47.4833 7.81078 41.7266 7.80268 35.968C7.80268 35.5266 7.89177 35.1358 8.09628 34.741C9.66958 31.6936 11.2287 28.6381 12.7818 25.5806C12.9012 25.3437 13.1078 25.127 13.0632 24.7666ZM44.0858 14.3265C43.9602 14.5067 43.9116 14.5614 43.8772 14.6262C40.3742 21.5026 36.8753 28.3809 33.3703 35.2553C33.2265 35.5367 33.1719 35.8182 33.1719 36.1259C33.1759 41.5566 33.184 46.9851 33.1618 52.4158C33.1597 53.0131 33.3683 53.1245 33.9069 53.1143C35.5733 53.0819 37.2418 53.0657 38.9062 53.1204C39.6028 53.1427 39.7384 52.9058 39.7364 52.2639C39.7121 47.4407 39.7222 42.6176 39.7243 37.7924C39.7243 36.782 39.8397 36.6686 40.8622 36.6686C43.3123 36.6646 45.7623 36.6666 48.2104 36.6686C49.5103 36.6686 49.5427 36.701 49.5427 37.9685C49.5427 42.7411 49.5508 47.5157 49.5326 52.2882C49.5305 52.8714 49.6176 53.1488 50.298 53.1224C51.7093 53.0678 53.1267 53.0698 54.54 53.1224C55.2102 53.1488 55.3864 52.9564 55.3823 52.2842C55.354 47.0317 55.3621 41.7793 55.3742 36.5248C55.3763 36.0024 55.2629 35.5489 55.0199 35.0852C51.6283 28.6624 48.2508 22.2315 44.8673 15.8026C44.6223 15.3369 44.3773 14.8753 44.0858 14.3265ZM43.0328 13.553C39.0885 13.553 35.2757 13.5611 31.4629 13.5429C31.0134 13.5409 30.9304 13.8406 30.7866 14.122C29.3429 16.9527 27.8688 19.7693 26.4757 22.6243C25.7306 24.149 24.6048 24.8172 22.9201 24.7808C20.3445 24.7261 17.7689 24.7787 15.1933 24.7565C14.7276 24.7524 14.4806 24.8881 14.268 25.3133C12.7858 28.2655 11.2712 31.2015 9.7688 34.1436C9.3942 34.8766 9.39825 34.8827 10.2345 34.8827C17.3052 34.8847 24.378 34.8766 31.4487 34.8969C32.0035 34.8989 32.2931 34.7369 32.5462 34.2347C35.8912 27.6176 39.2606 21.0126 42.6218 14.4055C42.7473 14.1625 42.8587 13.9135 43.0328 13.553ZM20.4498 53.1022C24.0358 53.1022 27.6218 53.09 31.2098 53.1143C31.799 53.1184 31.9792 52.9665 31.9772 52.3611C31.9549 47.1836 31.9529 42.0061 31.9772 36.8286C31.9792 36.213 31.7808 36.0814 31.2058 36.0834C24.0581 36.1016 16.9104 36.1016 9.76272 36.0814C9.17349 36.0794 9.00138 36.2312 9.00543 36.8346C9.02973 42.0121 9.02973 47.1897 9.00543 52.3672C9.00341 52.9766 9.18159 53.1184 9.7688 53.1143C13.3285 53.09 16.8881 53.1022 20.4498 53.1022ZM48.3318 45.5435C48.3318 43.221 48.3197 40.8985 48.342 38.576C48.346 38.0759 48.2367 37.8592 47.6798 37.8693C45.6611 37.8997 43.6403 37.8957 41.6215 37.8714C41.0991 37.8653 40.927 38.0252 40.929 38.5578C40.9473 43.1764 40.9452 47.7971 40.9311 52.4158C40.929 52.922 41.0525 53.1245 41.6033 53.1164C43.6221 53.086 45.6429 53.088 47.6616 53.1164C48.1901 53.1245 48.3521 52.9665 48.346 52.436C48.3177 50.1378 48.3318 47.8396 48.3318 45.5435ZM27.8729 17.1836C25.6577 17.1836 23.5883 17.1876 21.521 17.1775C21.2233 17.1755 21.0694 17.299 20.9398 17.5521C20.0064 19.3967 19.0669 21.2373 18.1172 23.0738C17.9451 23.4079 17.9451 23.5638 18.3906 23.5598C20.1076 23.5456 21.8227 23.5638 23.5397 23.5456C24.1856 23.5395 24.7445 23.2561 25.0482 22.683C25.9878 20.9052 26.8888 19.1052 27.8729 17.1836ZM27.4234 2.21598C25.2203 2.21598 23.157 2.22205 21.0937 2.2099C20.7839 2.20788 20.6523 2.35974 20.5288 2.60272C19.6277 4.37648 18.7267 6.15226 17.8074 7.91792C17.6029 8.31074 17.5847 8.50513 18.1213 8.49905C20.0145 8.48488 21.9057 8.48893 23.7989 8.49703C24.0824 8.49905 24.2606 8.40793 24.3942 8.14268C25.3722 6.21301 26.3623 4.28739 27.4234 2.21598ZM13.2738 23.5557C14.1829 23.5557 15.0921 23.5436 15.9992 23.5618C16.3333 23.5679 16.5601 23.495 16.7241 23.167C17.6495 21.3183 18.587 19.4777 19.5407 17.6432C19.7492 17.2423 19.6196 17.1775 19.239 17.1795C17.3214 17.1876 15.4019 17.1836 13.4844 17.1836C13.2495 17.1836 13.0612 17.2059 12.9296 17.465C11.9759 19.3542 11.01 21.2393 10.0381 23.1204C9.86194 23.4626 9.96521 23.5638 10.3216 23.5598C11.3056 23.5476 12.2897 23.5537 13.2738 23.5557ZM29.0007 8.495C29.9342 8.495 30.8676 8.48285 31.799 8.50108C32.1433 8.50715 32.3518 8.39983 32.5118 8.08193C33.3096 6.48231 34.1357 4.89686 34.9335 3.29522C35.2696 2.62095 35.0246 2.22813 34.2572 2.22003C32.5685 2.20383 30.8777 2.22205 29.189 2.20788C28.8954 2.20585 28.7294 2.30912 28.5998 2.56425C27.6805 4.38458 26.7572 6.20491 25.8197 8.01511C25.6152 8.40793 25.7448 8.49905 26.1254 8.49703C27.0832 8.48893 28.0409 8.495 29.0007 8.495ZM19.3584 2.2261C17.3518 2.2261 15.489 2.2018 13.6281 2.23825C12.9903 2.2504 12.4801 2.6088 12.1804 3.196C11.3623 4.78955 10.5605 6.38917 9.73235 7.97664C9.51974 8.38566 9.60883 8.50108 10.0523 8.49703C11.9455 8.48488 13.8407 8.48893 15.734 8.495C16.0154 8.495 16.1997 8.41401 16.3353 8.14673C17.3113 6.21706 18.3015 4.29144 19.3584 2.2261ZM8.36153 17.1816C7.43011 17.1816 6.49666 17.1998 5.56523 17.1735C5.18254 17.1633 4.97803 17.299 4.80997 17.6371C4.01421 19.2368 3.1901 20.8222 2.39029 22.4178C2.02177 23.1508 2.24652 23.5416 3.04836 23.5476C4.68645 23.5638 6.32455 23.5436 7.96264 23.5598C8.30889 23.5638 8.5134 23.4606 8.67336 23.1427C9.58859 21.3224 10.5119 19.504 11.4575 17.6979C11.7187 17.1998 11.498 17.1674 11.0849 17.1735C10.1758 17.1917 9.26866 17.1816 8.36153 17.1816ZM21.7801 15.9667C23.9973 15.9667 26.087 15.9626 28.1766 15.9707C28.5046 15.9727 28.5998 15.752 28.7132 15.5273C29.2174 14.5391 29.7236 13.551 30.2257 12.5609C30.6894 11.6456 31.147 10.7304 31.6593 9.71193C29.4421 9.71193 27.3505 9.71395 25.2588 9.7099C24.8943 9.7099 24.8133 9.99136 24.6898 10.2303C23.9751 11.6214 23.2623 13.0124 22.5516 14.4055C22.3046 14.8915 22.0677 15.3835 21.7801 15.9667ZM13.697 15.9687C15.8919 15.9687 17.9329 15.9646 19.972 15.9727C20.2554 15.9748 20.4356 15.8958 20.5693 15.6285C21.4886 13.8082 22.4159 11.9939 23.3534 10.1837C23.5539 9.79495 23.4263 9.70383 23.0436 9.70585C21.1281 9.71395 19.2126 9.7099 17.2971 9.70788C17.0562 9.70788 16.8679 9.7585 16.7444 10.0055C15.7542 11.9534 14.758 13.8952 13.697 15.9687ZM5.6766 15.9687C7.8614 15.9687 9.87611 15.9586 11.8908 15.9768C12.2614 15.9808 12.4173 15.8148 12.5671 15.5171C13.4398 13.7879 14.3206 12.0607 15.2197 10.3457C15.4687 9.87189 15.4363 9.68763 14.843 9.69978C13.3811 9.7261 11.9111 9.80912 10.4613 9.67751C9.20792 9.56412 8.57414 10.0015 8.09223 11.1435C7.41189 12.7553 6.5331 14.284 5.6766 15.9687Z" fill="white"/>
<path d="M13.0632 24.7666C12.7878 24.7666 12.5165 24.7666 12.2431 24.7666C9.16135 24.7666 6.08157 24.7767 2.99976 24.7626C1.35964 24.7545 0.531485 23.4201 1.2746 21.9521C4.52244 15.5394 7.78445 9.13485 11.0485 2.73231C11.6296 1.59435 12.5934 1.0112 13.863 1.00917C20.6827 0.99905 27.5003 0.995 34.32 1.00917C35.9479 1.01322 36.7498 2.36784 36.0107 3.84597C34.7351 6.39524 33.4311 8.92832 32.1412 11.4695C32.0177 11.7125 31.9023 11.9615 31.7383 12.3017C32.0663 12.3159 32.3275 12.3381 32.5887 12.3381C36.2253 12.3402 39.8619 12.3523 43.4986 12.328C44.1283 12.324 44.5069 12.5082 44.8106 13.0873C48.6275 20.3707 52.4645 27.6419 56.3016 34.9131C56.496 35.2796 56.5871 35.6521 56.5871 36.0713C56.579 41.7793 56.5831 47.4853 56.581 53.1933C56.581 54.1794 56.4373 54.3151 55.4309 54.3151C39.9247 54.3151 24.4185 54.3151 8.91229 54.3151C7.91607 54.3151 7.80875 54.2098 7.80875 53.2419C7.80673 47.4833 7.81078 41.7266 7.80268 35.968C7.80268 35.5266 7.89177 35.1358 8.09628 34.741C9.66958 31.6936 11.2287 28.6381 12.7818 25.5806C12.9012 25.3437 13.1078 25.127 13.0632 24.7666ZM44.0858 14.3265C43.9602 14.5067 43.9116 14.5614 43.8772 14.6262C40.3742 21.5026 36.8753 28.3809 33.3703 35.2553C33.2265 35.5367 33.1719 35.8182 33.1719 36.1259C33.1759 41.5566 33.184 46.9851 33.1618 52.4158C33.1597 53.0131 33.3683 53.1245 33.9069 53.1143C35.5733 53.0819 37.2418 53.0657 38.9062 53.1204C39.6028 53.1427 39.7384 52.9058 39.7364 52.2639C39.7121 47.4407 39.7222 42.6176 39.7243 37.7924C39.7243 36.782 39.8397 36.6686 40.8622 36.6686C43.3123 36.6646 45.7623 36.6666 48.2104 36.6686C49.5103 36.6686 49.5427 36.701 49.5427 37.9685C49.5427 42.7411 49.5508 47.5157 49.5326 52.2882C49.5305 52.8714 49.6176 53.1488 50.298 53.1224C51.7093 53.0678 53.1267 53.0698 54.54 53.1224C55.2102 53.1488 55.3864 52.9564 55.3823 52.2842C55.354 47.0317 55.3621 41.7793 55.3742 36.5248C55.3763 36.0024 55.2629 35.5489 55.0199 35.0852C51.6283 28.6624 48.2508 22.2315 44.8673 15.8026C44.6223 15.3369 44.3773 14.8753 44.0858 14.3265ZM43.0328 13.553C39.0885 13.553 35.2757 13.5611 31.4629 13.5429C31.0134 13.5409 30.9304 13.8406 30.7866 14.122C29.3429 16.9527 27.8688 19.7693 26.4757 22.6243C25.7306 24.149 24.6048 24.8172 22.9201 24.7808C20.3445 24.7261 17.7689 24.7787 15.1933 24.7565C14.7276 24.7524 14.4806 24.8881 14.268 25.3133C12.7858 28.2655 11.2712 31.2015 9.7688 34.1436C9.3942 34.8766 9.39825 34.8827 10.2345 34.8827C17.3052 34.8847 24.378 34.8766 31.4487 34.8969C32.0035 34.8989 32.2931 34.7369 32.5462 34.2347C35.8912 27.6176 39.2606 21.0126 42.6218 14.4055C42.7473 14.1625 42.8587 13.9135 43.0328 13.553ZM20.4498 53.1022C24.0358 53.1022 27.6218 53.09 31.2098 53.1143C31.799 53.1184 31.9792 52.9665 31.9772 52.3611C31.9549 47.1836 31.9529 42.0061 31.9772 36.8286C31.9792 36.213 31.7808 36.0814 31.2058 36.0834C24.0581 36.1016 16.9104 36.1016 9.76272 36.0814C9.17349 36.0794 9.00138 36.2312 9.00543 36.8346C9.02973 42.0121 9.02973 47.1897 9.00543 52.3672C9.00341 52.9766 9.18159 53.1184 9.7688 53.1143C13.3285 53.09 16.8881 53.1022 20.4498 53.1022ZM48.3318 45.5435C48.3318 43.221 48.3197 40.8985 48.342 38.576C48.346 38.0759 48.2367 37.8592 47.6798 37.8693C45.6611 37.8997 43.6403 37.8957 41.6215 37.8714C41.0991 37.8653 40.927 38.0252 40.929 38.5578C40.9473 43.1764 40.9452 47.7971 40.9311 52.4158C40.929 52.922 41.0525 53.1245 41.6033 53.1164C43.6221 53.086 45.6429 53.088 47.6616 53.1164C48.1901 53.1245 48.3521 52.9665 48.346 52.436C48.3177 50.1378 48.3318 47.8396 48.3318 45.5435ZM27.8729 17.1836C25.6577 17.1836 23.5883 17.1876 21.521 17.1775C21.2233 17.1755 21.0694 17.299 20.9398 17.5521C20.0064 19.3967 19.0669 21.2373 18.1172 23.0738C17.9451 23.4079 17.9451 23.5638 18.3906 23.5598C20.1076 23.5456 21.8227 23.5638 23.5397 23.5456C24.1856 23.5395 24.7445 23.2561 25.0482 22.683C25.9878 20.9052 26.8888 19.1052 27.8729 17.1836ZM27.4234 2.21598C25.2203 2.21598 23.157 2.22205 21.0937 2.2099C20.7839 2.20788 20.6523 2.35974 20.5288 2.60272C19.6277 4.37648 18.7267 6.15226 17.8074 7.91792C17.6029 8.31074 17.5847 8.50513 18.1213 8.49905C20.0145 8.48488 21.9057 8.48893 23.7989 8.49703C24.0824 8.49905 24.2606 8.40793 24.3942 8.14268C25.3722 6.21301 26.3623 4.28739 27.4234 2.21598ZM13.2738 23.5557C14.1829 23.5557 15.0921 23.5436 15.9992 23.5618C16.3333 23.5679 16.5601 23.495 16.7241 23.167C17.6495 21.3183 18.587 19.4777 19.5407 17.6432C19.7492 17.2423 19.6196 17.1775 19.239 17.1795C17.3214 17.1876 15.4019 17.1836 13.4844 17.1836C13.2495 17.1836 13.0612 17.2059 12.9296 17.465C11.9759 19.3542 11.01 21.2393 10.0381 23.1204C9.86194 23.4626 9.96521 23.5638 10.3216 23.5598C11.3056 23.5476 12.2897 23.5537 13.2738 23.5557ZM29.0007 8.495C29.9342 8.495 30.8676 8.48285 31.799 8.50108C32.1433 8.50715 32.3518 8.39983 32.5118 8.08193C33.3096 6.48231 34.1357 4.89686 34.9335 3.29522C35.2696 2.62095 35.0246 2.22813 34.2572 2.22003C32.5685 2.20383 30.8777 2.22205 29.189 2.20788C28.8954 2.20585 28.7294 2.30912 28.5998 2.56425C27.6805 4.38458 26.7572 6.20491 25.8197 8.01511C25.6152 8.40793 25.7448 8.49905 26.1254 8.49703C27.0832 8.48893 28.0409 8.495 29.0007 8.495ZM19.3584 2.2261C17.3518 2.2261 15.489 2.2018 13.6281 2.23825C12.9903 2.2504 12.4801 2.6088 12.1804 3.196C11.3623 4.78955 10.5605 6.38917 9.73235 7.97664C9.51974 8.38566 9.60883 8.50108 10.0523 8.49703C11.9455 8.48488 13.8407 8.48893 15.734 8.495C16.0154 8.495 16.1997 8.41401 16.3353 8.14673C17.3113 6.21706 18.3015 4.29144 19.3584 2.2261ZM8.36153 17.1816C7.43011 17.1816 6.49666 17.1998 5.56523 17.1735C5.18254 17.1633 4.97803 17.299 4.80997 17.6371C4.01421 19.2368 3.1901 20.8222 2.39029 22.4178C2.02177 23.1508 2.24652 23.5416 3.04836 23.5476C4.68645 23.5638 6.32455 23.5436 7.96264 23.5598C8.30889 23.5638 8.5134 23.4606 8.67336 23.1427C9.58859 21.3224 10.5119 19.504 11.4575 17.6979C11.7187 17.1998 11.498 17.1674 11.0849 17.1735C10.1758 17.1917 9.26866 17.1816 8.36153 17.1816ZM21.7801 15.9667C23.9973 15.9667 26.087 15.9626 28.1766 15.9707C28.5046 15.9727 28.5998 15.752 28.7132 15.5273C29.2174 14.5391 29.7236 13.551 30.2257 12.5609C30.6894 11.6456 31.147 10.7304 31.6593 9.71193C29.4421 9.71193 27.3505 9.71395 25.2588 9.7099C24.8943 9.7099 24.8133 9.99136 24.6898 10.2303C23.9751 11.6214 23.2623 13.0124 22.5516 14.4055C22.3046 14.8915 22.0677 15.3835 21.7801 15.9667ZM13.697 15.9687C15.8919 15.9687 17.9329 15.9646 19.972 15.9727C20.2554 15.9748 20.4356 15.8958 20.5693 15.6285C21.4886 13.8082 22.4159 11.9939 23.3534 10.1837C23.5539 9.79495 23.4263 9.70383 23.0436 9.70585C21.1281 9.71395 19.2126 9.7099 17.2971 9.70788C17.0562 9.70788 16.8679 9.7585 16.7444 10.0055C15.7542 11.9534 14.758 13.8952 13.697 15.9687ZM5.6766 15.9687C7.8614 15.9687 9.87611 15.9586 11.8908 15.9768C12.2614 15.9808 12.4173 15.8148 12.5671 15.5171C13.4398 13.7879 14.3206 12.0607 15.2197 10.3457C15.4687 9.87189 15.4363 9.68763 14.843 9.69978C13.3811 9.7261 11.9111 9.80912 10.4613 9.67751C9.20792 9.56412 8.57414 10.0015 8.09223 11.1435C7.41189 12.7553 6.5331 14.284 5.6766 15.9687Z" stroke="white" stroke-width="0.4" mask="url(#path-1-outside-1_39_141)"/>
</g>
<path id="Vector_2" d="M23.0953 40.5902C22.7817 40.5871 22.5302 40.6528 22.3594 40.82C22.1881 40.9876 22.1184 41.2371 22.1216 41.5538L22.1216 41.5538C22.1302 42.3993 22.1286 43.2455 22.1269 44.092C22.1263 44.4308 22.1256 44.7696 22.1256 45.1084C22.1256 45.4452 22.1264 45.7818 22.1272 46.1184C22.1292 46.9927 22.1312 47.8665 22.1195 48.7416L22.1195 48.742C22.1164 49.0522 22.1799 49.3053 22.3439 49.4795C22.509 49.6548 22.7566 49.7299 23.0746 49.7278M23.0953 40.5902L23.0943 40.6902M23.0953 40.5902L23.0943 40.6902M23.0953 40.5902C24.5082 40.6044 25.9186 40.6084 27.3308 40.5882L27.3309 40.5882C27.645 40.584 27.8991 40.6468 28.0739 40.8096C28.25 40.9736 28.3252 41.2198 28.3252 41.5346V41.5346C28.3242 42.7454 28.3242 43.9563 28.3242 45.1671V45.1688C28.3242 46.3791 28.3242 47.5894 28.3232 48.7998C28.3232 49.0912 28.2541 49.3297 28.0908 49.4938C27.9273 49.6583 27.6874 49.73 27.3862 49.7278L27.3869 49.6278M23.0943 40.6902C24.5076 40.7044 25.9189 40.7084 27.3322 40.6882L22.2195 48.743M23.0943 40.6902C22.4909 40.6841 22.2155 40.9453 22.2216 41.5528C22.2302 42.3989 22.2286 43.2461 22.2269 44.0929C22.2263 44.4315 22.2256 44.77 22.2256 45.1084C22.2256 45.4447 22.2264 45.781 22.2272 46.1174C22.2292 46.992 22.2312 47.867 22.2195 48.743M27.3869 49.6278L27.3864 49.7278C25.9491 49.7197 24.5118 49.7197 23.0746 49.7278M27.3869 49.6278C25.9493 49.6197 24.5116 49.6197 23.074 49.6278M27.3869 49.6278C27.9599 49.6319 28.2232 49.3545 28.2232 48.7997C28.2242 47.5889 28.2242 46.3781 28.2242 45.1673C28.2242 43.9564 28.2242 42.7455 28.2252 41.5346L22.2195 48.743M23.0746 49.7278L23.074 49.6278M23.0746 49.7278C23.0746 49.7278 23.0746 49.7278 23.0747 49.7278L23.074 49.6278M23.074 49.6278C22.4666 49.6319 22.2135 49.3403 22.2195 48.743M23.4324 47.8865L23.5324 47.8887C23.5468 47.2448 23.5438 46.5991 23.5409 45.9548C23.5397 45.6899 23.5385 45.4253 23.5385 45.161L23.5385 45.1608C23.5378 44.8762 23.5395 44.591 23.5412 44.3054C23.5447 43.7066 23.5482 43.1064 23.5303 42.5076L23.5303 42.5073C23.5232 42.2872 23.5455 42.163 23.6025 42.0925C23.6538 42.0292 23.7573 41.9831 23.9984 41.9949C24.8348 42.0376 25.6723 42.0233 26.505 41.999L26.5051 41.999C26.6991 41.9931 26.7914 42.0283 26.8403 42.0803C26.8914 42.1344 26.9214 42.2334 26.9204 42.4227C26.9062 44.2416 26.9083 46.0583 26.9184 47.8769C26.9194 48.0598 26.8959 48.1658 26.8458 48.2272C26.8008 48.2822 26.7134 48.3248 26.5151 48.3191C25.6567 48.2927 24.7941 48.2927 23.9357 48.3191C23.7378 48.3249 23.6486 48.2861 23.603 48.2337C23.5538 48.1771 23.5284 48.0756 23.5324 47.8886L23.4324 47.8865ZM23.4324 47.8865C23.4243 48.2651 23.5255 48.4312 23.9386 48.419L23.4304 42.5105C23.4482 43.1076 23.4447 43.7047 23.4412 44.3025C23.4395 44.5885 23.4378 44.8747 23.4385 45.161C23.4385 45.4263 23.4397 45.6915 23.4409 45.9567C23.4438 46.6005 23.4467 47.244 23.4324 47.8865Z" fill="white" stroke="white" stroke-width="0.2"/>
<path id="Vector_3" d="M11.9528 41.6108L11.9528 41.6108C11.9466 41.2833 12.0059 41.0192 12.1742 40.8394C12.3438 40.6584 12.6026 40.5854 12.9409 40.5896L12.941 40.5896C14.3514 40.6078 15.7639 40.6078 17.1743 40.5896L11.9528 41.6108ZM11.9528 41.6108C11.9685 42.4246 11.9651 43.2387 11.9617 44.0544C11.9603 44.3985 11.9589 44.7428 11.9589 45.0876C11.9589 45.4401 11.9604 45.7921 11.962 46.1438C11.9657 47.0019 11.9695 47.8581 11.9508 48.7159L11.9508 48.7162C11.9445 49.0525 12.0117 49.315 12.1868 49.4904C12.3617 49.6656 12.6229 49.7324 12.9528 49.7293L12.9529 49.7293C14.3394 49.7151 15.7255 49.7111 17.1113 49.7313M11.9528 41.6108L12.0508 48.7181C12.0386 49.3681 12.314 49.6354 12.9518 49.6293C14.3389 49.6151 15.7259 49.6111 17.1129 49.6313M17.1129 49.6313L17.1113 49.7313M17.1129 49.6313L17.1114 49.7313C17.1114 49.7313 17.1113 49.7313 17.1113 49.7313M17.1129 49.6313C17.7446 49.6414 18.0423 49.3944 18.0403 48.7444C18.0281 46.349 18.0322 43.9537 18.0382 41.5583M17.1113 49.7313L18.1382 41.5586L18.0382 41.5583M18.1382 41.5585C18.1393 41.251 18.0763 41.0004 17.9113 40.8291C17.7454 40.6567 17.4964 40.5854 17.1744 40.5896L18.1382 41.5585ZM18.1382 41.5585L18.0382 41.5583M18.1382 41.5585L18.0382 41.5583M13.2657 47.9345C13.2596 48.2888 13.371 48.4265 13.7375 48.4164M13.2657 47.9345L13.3657 47.9364C13.3657 47.9364 13.3657 47.9363 13.3657 47.9363C13.3627 48.1088 13.3903 48.1965 13.4347 48.2436C13.4772 48.2888 13.5591 48.3213 13.7347 48.3164L13.7351 48.3164C14.593 48.2961 15.4512 48.2941 16.3096 48.3164C16.5014 48.3213 16.595 48.2847 16.6454 48.2311C16.6978 48.1752 16.7284 48.0749 16.7274 47.8886C16.7152 46.0496 16.7152 44.2106 16.7274 42.3696C16.7283 42.1957 16.6955 42.1121 16.649 42.068C16.6015 42.0229 16.5141 41.9945 16.3417 41.9984L16.3415 41.9984C15.4842 42.0167 14.6258 42.0228 13.7669 41.9964C13.5704 41.9905 13.4797 42.0248 13.4331 42.0746C13.3847 42.1264 13.3566 42.2228 13.3616 42.4141C13.3616 42.4141 13.3616 42.4142 13.3616 42.4142L13.2616 42.4168C13.2807 43.0737 13.2775 43.7306 13.2742 44.3875C13.273 44.6377 13.2718 44.8879 13.2718 45.1382C13.2718 45.4042 13.2728 45.6705 13.2738 45.9368C13.2762 46.6027 13.2787 47.2691 13.2657 47.9345ZM13.2657 47.9345L13.3657 47.9362L13.7375 48.4164M13.7375 48.4164C14.594 48.3962 15.4505 48.3941 16.307 48.4164H13.7375ZM16.3394 41.8985C15.4829 41.9167 14.6264 41.9227 13.7699 41.8964L16.8274 42.3702C16.8294 42.0078 16.6958 41.8904 16.3394 41.8985Z" fill="white" stroke="white" stroke-width="0.2"/>
</g>
</svg>
