<svg width="31" height="31" viewBox="0 0 31 31" fill="none" xmlns="http://www.w3.org/2000/svg">
<g id="Group">
<path id="Vector" d="M29.9912 8.45213C29.9912 13.343 29.9912 18.234 29.9912 23.1249C29.9738 23.2276 29.9514 23.3289 29.9398 23.4324C29.8537 24.2318 29.6743 25.0132 29.3299 25.7367C27.8467 28.8543 25.3708 30.5213 21.9161 30.5633C17.4397 30.6175 12.9627 30.5785 8.48634 30.5756C7.08418 30.5748 5.74713 30.271 4.53671 29.5576C1.82572 27.9601 0.437309 25.5653 0.419945 22.4202C0.396069 18.0024 0.414157 13.5833 0.414157 9.16406C0.414157 8.60407 0.44165 8.04407 0.56537 7.49927C1.30697 4.24059 3.2901 2.154 6.50537 1.23803C6.95105 1.11142 7.41482 1.09333 7.86629 1C12.7572 1 17.6481 1 22.539 1C22.8516 1.04775 23.1685 1.07742 23.476 1.14687C26.7433 1.88847 28.8372 3.87088 29.7539 7.09556C29.8797 7.53979 29.9007 8.00211 29.9912 8.45213ZM28.2584 15.7878C28.2584 13.5833 28.2569 11.3794 28.2591 9.17492C28.2598 8.6728 28.2273 8.17286 28.1115 7.68449C27.4017 4.69061 24.944 2.73859 21.8727 2.73497C17.4253 2.72991 12.9786 2.73425 8.53119 2.7328C8.04861 2.7328 7.56748 2.76753 7.09865 2.87895C4.10477 3.58944 2.15275 6.04647 2.14913 9.11848C2.14406 13.5659 2.14841 18.0126 2.14696 22.46C2.14696 22.9331 2.18169 23.4049 2.28443 23.865C2.94426 26.8169 5.43892 28.8326 8.47404 28.8406C12.9598 28.8522 17.4455 28.8442 21.9313 28.8428C22.8371 28.8428 23.7184 28.6865 24.5345 28.29C26.9626 27.11 28.2142 25.1543 28.2511 22.4578C28.2822 20.2352 28.2584 18.0111 28.2584 15.7878Z" fill="white" stroke="white" stroke-width="0.5"/>
<path id="Vector_2" d="M15.2148 7.70183C19.6666 7.7163 23.3037 11.3642 23.2892 15.8008C23.2747 20.2525 19.6268 23.8896 15.1902 23.8751C10.7385 23.8607 7.10142 20.2127 7.11589 15.7762C7.13036 11.3244 10.7783 7.68736 15.2148 7.70183ZM15.196 9.43607C11.7 9.44186 8.83711 12.3142 8.84941 15.8022C8.86244 19.291 11.7073 22.1329 15.1939 22.1409C18.6841 22.1488 21.5535 19.2837 21.5542 15.7899C21.5564 12.2968 18.6877 9.43029 15.196 9.43607Z" fill="white" stroke="white" stroke-width="0.5"/>
<path id="Vector_3" d="M21.0963 7.19346C21.118 5.88392 22.2351 4.78925 23.5092 4.82976C24.8354 4.87173 25.9113 5.97001 25.8729 7.24411C25.8331 8.57247 24.7551 9.62662 23.4586 9.60636C22.1476 9.58538 21.0746 8.48999 21.0963 7.19346ZM24.1336 7.22096C24.1351 6.87802 23.837 6.57487 23.4926 6.56835C23.1511 6.56184 22.8436 6.85776 22.832 7.20215C22.8205 7.55233 23.1366 7.87356 23.4882 7.87067C23.8319 7.86777 24.1322 7.56535 24.1336 7.22096Z" fill="white" stroke="white" stroke-width="0.5"/>
</g>
</svg>
