<svg width="28" height="32" viewBox="0 0 28 32" fill="none" xmlns="http://www.w3.org/2000/svg">
<g id="Group">
<path id="Vector" d="M15.1803 31.8858C15.6378 31.7742 16.1083 31.8116 16.5719 31.7711C18.7332 31.583 20.8632 31.2341 22.9214 30.5121C24.1281 30.0891 25.2829 29.5607 26.2513 28.6827C26.7309 28.248 27.1074 27.7352 27.2991 27.1046C27.6611 25.9104 27.2701 24.9192 26.4529 24.0724C25.638 23.2271 24.6192 22.7104 23.553 22.2866C22.1486 21.7278 20.6914 21.3618 19.2059 21.1143C18.9585 21.073 18.9516 21.0144 19.0776 20.8146C20.1285 19.1491 21.1809 17.4835 22.2142 15.8071C23.3575 13.9526 23.8845 11.9257 23.7486 9.73334C23.5653 6.78545 22.3571 4.34644 20.1766 2.42333C18.7538 1.16831 17.0988 0.373001 15.2315 0.114661C11.503 -0.400458 8.38015 0.820998 5.98129 3.7603C3.9391 6.26253 3.27008 9.18778 3.8696 12.3971C4.11017 13.6857 4.61728 14.8666 5.31456 15.9678C6.3349 17.5795 7.33843 19.2029 8.35648 20.8162C8.48326 21.0176 8.47256 21.073 8.22741 21.1151C6.52201 21.4094 4.84793 21.8269 3.2632 22.552C2.27418 23.0047 1.35237 23.5612 0.657377 24.4454C-0.174318 25.5046 -0.223961 26.854 0.548927 27.9639C1.11867 28.7826 1.91599 29.3172 2.77289 29.7621C4.51113 30.6643 6.38225 31.1264 8.29156 31.4464C9.52497 31.6532 10.7676 31.7859 12.017 31.8358C12.1171 31.8397 12.2156 31.8686 12.3149 31.8858C13.2695 31.8858 14.2249 31.8858 15.1803 31.8858ZM13.9866 1.85124C16.4894 1.93475 18.7194 3.07738 20.3737 5.35639C22.3341 8.05764 22.4678 11.946 20.7028 14.7667C18.4384 18.3858 16.1755 22.0064 13.9118 25.6263C13.7171 25.9385 13.7163 25.9385 13.5284 25.638C11.2938 22.0611 9.05986 18.4833 6.82368 14.9072C5.53604 12.8475 5.16717 10.6215 5.74607 8.25744C6.6717 4.47288 9.97328 1.84187 13.9866 1.85124ZM13.9523 30.0165C12.5814 30.0126 11.4358 29.9564 10.2925 29.8378C8.30683 29.631 6.35552 29.2634 4.49127 28.511C3.64048 28.1676 2.80726 27.7734 2.18177 27.053C1.71132 26.5122 1.71819 26.0486 2.18177 25.5061C2.61862 24.9957 3.17614 24.6531 3.76344 24.3643C5.55972 23.4816 7.48583 23.0897 9.44173 22.8088C9.59142 22.7869 9.63724 22.8759 9.69757 22.9727C9.91524 23.3231 10.1344 23.672 10.3528 24.0216C11.1929 25.3688 12.0346 26.7151 12.8701 28.0646C13.1099 28.4509 13.4253 28.6616 13.8858 28.5867C14.2165 28.5328 14.4128 28.3049 14.5816 28.0333C15.6157 26.3701 16.6551 24.71 17.6869 23.0445C17.7946 22.8712 17.8855 22.7752 18.1176 22.8275C18.5423 22.9235 18.9806 22.9586 19.4091 23.0398C21.0205 23.3442 22.5992 23.7578 24.0502 24.5695C24.5153 24.8294 24.9514 25.1338 25.2943 25.5553C25.7014 26.0564 25.6976 26.5098 25.2905 27.0109C25.1011 27.2443 24.8789 27.4409 24.6352 27.6119C23.6684 28.2893 22.5846 28.696 21.4688 29.0199C18.9402 29.7559 16.3481 29.9986 13.9523 30.0165Z" fill="#89A0CD"/>
<path id="Vector_2" d="M9.14484 10.3182C9.14102 12.8899 11.2015 14.9988 13.718 14.998C16.2345 14.9972 18.295 12.8876 18.2897 10.3167C18.2843 7.75668 16.2368 5.66108 13.731 5.6525C11.2153 5.64313 9.14865 7.74575 9.14484 10.3182ZM10.9755 10.3206C10.9801 8.79394 12.2211 7.52644 13.7142 7.52332C15.205 7.52019 16.4483 8.78458 16.459 10.3143C16.4697 11.8456 15.2035 13.1389 13.705 13.1272C12.2081 13.1147 10.9709 11.8433 10.9755 10.3206Z" fill="#89A0CD"/>
</g>
</svg>
