<svg width="36" height="24" viewBox="0 0 36 24" fill="none" xmlns="http://www.w3.org/2000/svg">
<g id="Group">
<path id="Vector" d="M0.00439872 1.6247C0.134842 1.25121 0.278373 0.88794 0.580723 0.609095C1.00029 0.221708 1.50084 0.0980657 2.05678 0.0973911C6.46697 0.0893039 10.8762 0.0746899 15.2864 0.0619388C21.4297 0.0441767 27.573 0.025482 33.7162 0.00958549C34.7889 0.00648402 35.5368 0.571456 35.7215 1.52516C35.7518 1.68365 35.7532 1.84875 35.7536 2.01105C35.7746 8.61979 35.7937 15.2285 35.8119 21.8373C35.8155 23.0779 35.0594 23.8477 33.8216 23.8522C23.2336 23.8847 12.6456 23.9153 2.05763 23.9441C1.03717 23.947 0.523927 23.5512 0.0645593 22.4322C0.0445049 15.4961 0.0244504 8.55991 0.00439872 1.6247ZM34.3994 21.4365C34.3808 15.0087 34.3625 8.66678 34.3441 2.28564C34.2035 2.38678 34.1002 2.45891 33.9996 2.53475C29.3198 6.06582 24.6409 9.59876 19.9592 13.128C18.6692 14.0999 17.1571 14.0987 15.8624 13.1342C11.1529 9.6247 6.44335 6.11424 1.73289 2.60566C1.63661 2.53411 1.55792 2.41961 1.41429 2.42469C1.43265 8.77411 1.45098 15.117 1.46952 21.5271C1.60803 21.3625 1.70378 21.2503 1.79673 21.1362C3.90472 18.5174 6.0127 15.8976 8.12069 13.2779C8.46366 12.8515 8.79727 12.4177 9.15614 12.0063C9.40902 11.7164 9.81567 11.7012 10.0971 11.9336C10.3673 12.1558 10.4206 12.5315 10.2238 12.8464C10.1811 12.9146 10.1272 12.9773 10.0761 13.0409C7.61766 16.0935 5.15927 19.1481 2.70182 22.2026C2.6191 22.3054 2.54012 22.412 2.44347 22.5382C12.7973 22.5083 23.0961 22.4785 33.4323 22.4486C33.3461 22.3332 33.2871 22.2485 33.2225 22.1694C31.7023 20.3017 30.1811 18.4349 28.6599 16.5681C27.6676 15.35 26.6735 14.1346 25.6859 12.9137C25.3451 12.493 25.4499 11.9685 25.8971 11.7806C26.2186 11.6454 26.508 11.749 26.801 12.1092C28.6012 14.3193 30.4004 16.5295 32.2005 18.7397C32.9176 19.62 33.6356 20.5003 34.3994 21.4365ZM2.56077 1.48672C2.7113 1.60755 2.79732 1.68005 2.88706 1.74696C7.4919 5.18122 12.0967 8.61549 16.7016 12.0488C17.4793 12.6286 18.3375 12.629 19.1137 12.0437C23.7173 8.5707 28.3208 5.09581 32.9224 1.62094C32.9978 1.56382 33.1059 1.52993 33.1251 1.39835C22.9569 1.42775 12.8045 1.4571 2.56077 1.48672Z" fill="#89A0CD"/>
</g>
</svg>
