<!-- Generated by IcoMoon.io -->
<svg version="1.1" xmlns="http://www.w3.org/2000/svg" width="24" height="24" viewBox="0 0 24 24">
<title>receipt_long</title>
<path d="M19.5 3.516l-1.5-1.5-1.5 1.5-1.5-1.5-1.5 1.5-1.5-1.5-1.5 1.5-1.5-1.5-1.5 1.5-1.5-1.5v13.969h-3v3q0 0.844 0.398 1.523t1.078 1.078 1.523 0.398h12q0.844 0 1.523-0.398t1.078-1.078 0.398-1.523v-16.969zM18.984 18.984q0 0.422-0.281 0.727t-0.703 0.305-0.703-0.305-0.281-0.727v-3h-9v-10.969h10.969v13.969zM9 6.984h6v2.016h-6v-2.016zM15.984 6.984h2.016v2.016h-2.016v-2.016zM9 9.984h6v2.016h-6v-2.016zM15.984 9.984h2.016v2.016h-2.016v-2.016z"></path>
</svg>
