<svg width="26" height="26" viewBox="0 0 26 26" fill="none" xmlns="http://www.w3.org/2000/svg">
<path id="Vector" d="M11.6383 0C12.1024 0.0866605 12.5751 0.106864 13.0397 0.197777C15.2871 0.637991 17.2138 1.67526 18.8167 3.30373C20.2746 4.78493 21.2385 6.54473 21.6526 8.58577C22.1731 11.151 21.7978 13.5887 20.5377 15.887C20.1666 16.5644 19.7275 17.1939 19.2102 17.7659C19.0741 17.9164 19.0672 17.9983 19.2203 18.1477C21.3347 20.2174 23.4401 22.2951 25.5513 24.3681C25.7331 24.5467 25.8974 24.7328 26 24.9683C26 25.0869 26 25.2049 26 25.3235C25.7336 25.8881 25.337 26.0997 24.8654 25.928C24.7022 25.8684 24.5778 25.7552 24.4566 25.6355C22.3113 23.5233 20.1634 21.4131 18.0235 19.2955C17.8704 19.144 17.7816 19.1371 17.6131 19.2668C16.2079 20.3487 14.6236 21.0463 12.8797 21.3419C10.2554 21.7869 7.76143 21.3881 5.44765 20.0404C3.08229 18.6628 1.39693 16.6962 0.564356 14.0815C-0.535115 10.6321 -0.0321656 7.3906 2.10883 4.46168C3.89414 2.01924 6.33445 0.601838 9.31813 0.116965C9.61692 0.068584 9.92262 0.0792172 10.2172 0.000531659C10.6909 0 11.1646 0 11.6383 0ZM1.6952 10.7028C1.71487 11.0792 1.7138 11.3935 1.75102 11.7034C1.98495 13.6658 2.73193 15.4064 4.09511 16.8462C6.48066 19.3657 9.42871 20.3131 12.8069 19.6565C15.7682 19.0807 17.9815 17.3768 19.2936 14.636C20.6164 11.8741 20.5361 9.0818 19.0555 6.41234C17.5381 3.67642 15.144 2.11654 12.0392 1.73427C9.58715 1.43229 7.33238 2.02881 5.3562 3.52596C2.96639 5.33733 1.77707 7.77658 1.6952 10.7028Z" fill="#89A0CD"/>
</svg>
