<svg width="54" height="40" viewBox="0 0 54 40" fill="none" xmlns="http://www.w3.org/2000/svg">
<g id="Group">
<path id="Vector" d="M27.0122 0.0116374C31.8042 0.0116374 36.5976 0.0217955 41.3895 2.823e-05C42.0545 -0.00287407 42.4562 0.217701 42.7748 0.805417C46.3968 7.50683 50.0362 14.1966 53.6713 20.8908C53.7659 21.0649 53.8678 21.2391 53.9362 21.4248C54.1559 22.0154 53.7892 22.5683 53.1314 22.5973C52.4606 22.6264 51.7868 22.6351 51.1174 22.5959C50.6562 22.5698 50.5106 22.6772 50.5121 23.1764C50.5339 28.5717 50.5165 33.9657 50.5397 39.361C50.5426 39.9023 50.3899 40.017 49.8791 39.9981C48.7833 39.9575 48.7833 39.9865 48.7833 38.8865C48.7833 33.6551 48.7775 28.4223 48.795 23.1909C48.7964 22.725 48.7004 22.5901 48.2071 22.593C42.7792 22.6133 37.3513 22.6148 31.9235 22.5915C31.4142 22.5901 31.3443 22.7512 31.3458 23.1996C31.3603 28.6124 31.3487 34.0252 31.3661 39.4379C31.3676 39.8994 31.2395 40.0068 30.7943 39.9966C29.6126 39.9676 29.6126 39.9894 29.6126 38.8096C29.6126 33.5956 29.6068 28.3816 29.6228 23.1676C29.6243 22.7294 29.5355 22.593 29.0669 22.5944C21.2977 22.6104 13.527 22.6104 5.7577 22.5944C5.28913 22.593 5.20182 22.7309 5.20182 23.1676C5.21782 28.5804 5.20473 33.9932 5.22364 39.406C5.2251 39.8878 5.10577 40.0112 4.62702 39.9966C3.46868 39.9618 3.46868 39.9865 3.46868 38.8401C3.46868 33.6986 3.46868 28.5572 3.46868 23.4158C3.46868 22.6046 3.46868 22.6046 2.62758 22.6046C2.13718 22.6046 1.64679 22.6061 1.15784 22.6046C0.073724 22.6002 -0.284253 22.0082 0.233795 21.0548C3.21112 15.568 6.1928 10.0841 9.17158 4.59872C9.85406 3.34348 10.5584 2.09839 11.2074 0.825733C11.5086 0.235115 11.9073 -0.00287407 12.5796 2.823e-05C17.3905 0.0217955 22.2014 0.0116374 27.0122 0.0116374ZM18.5867 20.8676C19.4219 20.8676 20.1495 20.84 20.8728 20.8777C21.2817 20.8995 21.4738 20.7457 21.66 20.4003C24.4467 15.2429 27.248 10.0957 30.0463 4.9441C30.592 3.9399 30.5803 3.96022 31.6179 4.48118C32.0399 4.69305 32.0894 4.85993 31.8595 5.28222C29.1237 10.2814 26.4083 15.2908 23.6915 20.3002C23.6012 20.4671 23.4543 20.618 23.4703 20.869C24.1455 20.869 24.8149 20.8502 25.4814 20.8777C25.7869 20.8893 25.931 20.7703 26.062 20.5178C26.5058 19.6675 26.9729 18.8302 27.4299 17.987C27.9785 16.9756 27.9683 16.9945 28.9971 17.5154C29.406 17.7229 29.505 17.8884 29.2474 18.3135C28.757 19.1247 28.3321 19.9766 27.8504 20.869C28.4543 20.869 28.9636 20.8386 29.4671 20.8792C29.86 20.9097 30.039 20.7399 30.2136 20.4177C33.4878 14.3722 36.7736 8.33399 40.0522 2.29285C40.1351 2.14048 40.2705 2.00262 40.2545 1.75157C39.6593 1.75157 39.067 1.77914 38.4777 1.74141C38.1066 1.71819 37.9378 1.86621 37.7719 2.1753C36.0999 5.28077 34.4119 8.37897 32.7282 11.4786C32.1228 12.5931 32.133 12.5728 31.0213 12.0068C30.6473 11.8167 30.6284 11.6702 30.819 11.3234C32.4648 8.32673 34.0917 5.31995 35.7201 2.31316C35.8088 2.14773 35.9747 2.00262 35.918 1.75302C33.8487 1.75302 31.7794 1.76608 29.7116 1.74141C29.3216 1.73706 29.1412 1.88507 28.9709 2.20287C27.6176 4.72062 26.2497 7.22966 24.8847 9.7416C24.2794 10.8561 24.2896 10.8358 23.1778 10.2684C22.8023 10.0768 22.7878 9.9288 22.977 9.58488C24.3041 7.17597 25.6094 4.7569 26.922 2.33928C27.0137 2.1695 27.101 1.99681 27.229 1.75157C26.58 1.75157 26.0052 1.78059 25.4348 1.74141C25.0288 1.71384 24.8309 1.87201 24.6432 2.21884C21.3806 8.24837 18.1021 14.2706 14.8323 20.2973C14.742 20.4627 14.5863 20.6136 14.6242 20.869C15.1495 20.869 15.6734 20.8473 16.1943 20.8777C16.5203 20.8966 16.6716 20.7602 16.8157 20.4917C17.7994 18.6589 18.7977 16.8334 19.7916 15.0049C20.1364 14.3708 20.1364 14.3708 20.7607 14.7089C21.6673 15.1994 21.6673 15.1994 21.1653 16.1223C20.3198 17.6736 19.4772 19.2278 18.5867 20.8676ZM48.2071 20.8676C46.0548 16.8145 43.9594 12.8674 41.8595 8.91445C41.6471 9.03634 41.6092 9.20468 41.5365 9.34108C39.5851 13.011 37.6366 16.6839 35.6881 20.3553C35.4174 20.8647 35.4203 20.8676 36.0242 20.8676C39.8877 20.8676 43.7498 20.8676 47.6133 20.8676C47.7734 20.8676 47.9335 20.8676 48.2071 20.8676ZM22.8838 1.80816C22.7791 1.77914 22.7325 1.75302 22.6859 1.75302C19.4569 1.75012 16.2293 1.75302 13.0002 1.74286C12.7237 1.74141 12.6262 1.89088 12.5185 2.08968C11.6236 3.74255 10.733 5.39976 9.81623 7.03956C9.6256 7.38058 9.74929 7.5315 10.02 7.67952C10.4783 7.92911 10.9396 7.84495 11.3907 7.38638C11.9044 6.86252 12.4443 6.38509 13.1835 6.21676C14.387 5.94394 15.3911 6.30383 16.2467 7.17016C16.9307 7.86236 17.5971 8.00893 18.3524 7.62728C19.5544 7.01924 20.6472 6.33575 21.2002 4.97312C21.644 3.88186 22.3061 2.87621 22.8838 1.80816ZM2.32054 20.8676C5.48849 20.8676 8.53566 20.8429 11.5814 20.8864C12.2857 20.8966 12.6815 20.7225 12.9929 20.0607C13.5532 18.8737 14.2313 17.7403 14.8905 16.5286C13.7685 16.4546 12.9478 15.9453 12.226 15.2052C11.6716 14.6363 10.9731 14.6654 10.3867 15.2052C10.1742 15.4011 9.98066 15.6202 9.76238 15.8103C8.77722 16.6723 7.40643 16.7579 6.34123 16.0338C5.99926 15.8016 5.74024 15.4838 5.44192 15.1167C4.39564 17.0467 3.38137 18.9129 2.32054 20.8676ZM18.7758 9.37881C17.3148 9.77498 16.139 9.50652 15.1408 8.53715C14.1847 7.60841 13.6521 7.60986 12.7121 8.5357C12.6349 8.61261 12.5578 8.68952 12.4792 8.76353C11.4999 9.66904 10.2921 9.82867 9.12356 9.1771C8.8689 9.03489 8.74375 9.00732 8.5895 9.299C7.91429 10.5775 7.22017 11.8472 6.52022 13.1141C6.39653 13.3376 6.42709 13.4885 6.56387 13.6974C7.49665 15.1254 8.20387 14.9962 9.16867 13.9833C10.3648 12.7281 12.2013 12.7716 13.4644 13.9615C13.6492 14.1357 13.8209 14.3258 14.0261 14.4709C14.6926 14.9411 15.7592 14.8743 16.0925 14.2866C16.9947 12.7019 17.846 11.0897 18.7758 9.37881ZM51.6762 20.8661C48.3773 14.7916 45.1221 8.79981 41.8115 2.70642C38.5009 8.80126 35.2457 14.7931 31.9468 20.8676C32.2567 20.8676 32.4735 20.8356 32.6758 20.8734C33.2797 20.988 33.5577 20.6934 33.8254 20.1812C35.8176 16.3676 37.8447 12.5713 39.8601 8.77078C40.2326 8.06843 40.5935 7.35881 40.985 6.66661C41.324 6.06874 42.0036 5.9541 42.4387 6.41121C42.5842 6.56503 42.6861 6.76674 42.7879 6.95684C45.173 11.4424 47.5551 15.9308 49.9417 20.4148C50.0435 20.6078 50.0741 20.8821 50.403 20.8705C50.7959 20.856 51.1873 20.8661 51.6762 20.8661Z" fill="white"/>
</g>
</svg>
