<svg width="42" height="43" viewBox="0 0 42 43" fill="none" xmlns="http://www.w3.org/2000/svg">
<g id="Group">
<path id="Vector" d="M41.9888 29.4374C41.9888 25.6044 41.9788 21.7725 42 17.9395C42.0033 17.3946 41.8251 17.0564 41.3753 16.7469C37.2821 13.9264 33.2056 11.0815 29.1168 8.25313C28.8017 8.0343 28.6358 7.8033 28.5835 7.40431C28.1603 4.16373 25.8855 1.75761 22.6764 1.11436C18.6154 0.299792 14.5467 3.21211 14.0668 7.2971C14.0145 7.74251 13.8519 8.02435 13.4733 8.28519C9.36898 11.1146 5.28135 13.9684 1.18146 16.8033C0.80064 17.0664 0.640297 17.3648 0.640297 17.8323C0.652546 25.5801 0.649208 33.3278 0.649208 41.0756C0.649208 41.8139 0.848522 42.015 1.57786 42.0162C3.16125 42.0173 4.74464 42.0084 6.32803 42.0228C6.69437 42.0261 6.9939 41.9299 7.29454 41.7255C10.8188 39.3238 14.3485 36.9298 17.8794 34.5359C20.0619 33.057 22.5862 33.0615 24.7764 34.5469C28.3062 36.9409 31.836 39.3348 35.3613 41.7354C35.6497 41.931 35.937 42.025 36.2888 42.0228C37.9001 42.0095 39.5113 42.0184 41.1225 42.0162C41.7706 42.015 41.991 41.794 41.991 41.1408C41.9888 37.2404 41.9888 33.3389 41.9888 29.4374ZM15.3173 27.8812C15.3173 27.6833 15.3173 27.5916 15.3173 27.4988C15.3173 21.074 15.3173 14.6492 15.3173 8.2244C15.3173 7.82319 15.3629 7.42641 15.4498 7.03515C16.1157 4.04436 18.9083 2.00076 21.8802 2.32681C25.0303 2.67165 27.3141 5.17282 27.3174 8.30619C27.3241 14.6901 27.3196 21.0729 27.3163 27.4568C27.3163 27.5662 27.3798 27.6999 27.2539 27.7939C24.2586 23.8382 18.4161 23.8006 15.3173 27.8812ZM3.57213 40.6921C3.56768 40.6655 3.56211 40.6379 3.55766 40.6114C3.64673 40.5462 3.7347 40.4799 3.82489 40.4169C7.30345 37.9997 10.7753 35.5726 14.2684 33.1775C14.9175 32.7321 15.481 32.3099 15.3574 31.4246C15.3485 31.3594 15.3785 31.2886 15.3885 31.2212C15.8083 28.1906 18.5353 25.9879 21.6787 26.1415C24.6717 26.2874 27.1983 28.7952 27.3029 31.765C27.3208 32.2646 27.5 32.5707 27.9031 32.8492C31.5264 35.3504 35.1375 37.8671 38.7519 40.3804C38.8677 40.4611 39.0102 40.5196 39.1026 40.6954C38.2241 40.6954 37.3934 40.6865 36.5616 40.6998C36.2977 40.7042 36.0873 40.628 35.8713 40.481C32.474 38.1655 29.0712 35.8588 25.6706 33.5478C22.8055 31.6003 19.8414 31.5948 16.9853 33.5345C13.5724 35.8522 10.1596 38.1699 6.74559 40.4854C6.62199 40.5694 6.51398 40.6921 6.34807 40.6921C5.42276 40.6932 4.49744 40.6921 3.57213 40.6921ZM13.9432 20.8153C13.9677 20.9071 13.98 20.9314 13.98 20.9568C13.9811 24.4726 13.98 27.9873 13.9889 31.5031C13.9889 31.7208 13.882 31.8181 13.7272 31.9253C12.7585 32.5928 11.7986 33.2748 10.8243 33.9346C10.4769 34.17 10.1551 34.6309 9.75871 34.5635C9.37789 34.4983 9.03716 34.1236 8.70979 33.8484C7.12863 32.5166 6.46054 30.8256 6.71664 28.7753C6.83578 27.8226 7.35244 27.0257 7.69985 26.1592C8.15527 25.0208 8.91468 24.2184 9.94466 23.5674C11.2987 22.7108 12.5881 21.7548 13.9432 20.8153ZM28.6525 20.8463C28.7393 20.8739 28.7683 20.8761 28.7895 20.8905C29.8484 21.6233 30.9084 22.3538 31.9651 23.0899C32.6922 23.5961 33.5407 24.0007 34.103 24.6483C34.6642 25.2971 34.9359 26.1924 35.3346 26.9793C35.3724 27.0533 35.4081 27.1274 35.4437 27.2026C35.9771 28.3387 36.124 29.5158 35.8579 30.746C35.4893 32.4492 34.4226 33.624 32.9951 34.5414C32.7891 34.674 32.6889 34.5469 32.562 34.4596C31.3661 33.6329 30.1791 32.794 28.9743 31.9794C28.7238 31.8092 28.6469 31.6302 28.648 31.3384C28.6592 28.32 28.6547 25.3004 28.6547 22.282C28.6525 21.8156 28.6525 21.3492 28.6525 20.8463ZM28.6525 9.5728C28.7594 9.62806 28.8084 9.64685 28.8518 9.67669C30.433 10.7731 32.0152 11.8706 33.5942 12.9714C33.6933 13.0411 33.7857 13.1339 33.8536 13.2334C34.2489 13.8158 34.6576 14.3917 35.0206 14.994C35.8178 16.3137 36.1085 17.7417 35.9336 19.2768C35.7766 20.6451 35.0751 21.7935 34.4917 22.9927C34.3848 23.2137 34.279 23.08 34.1732 23.007C32.3983 21.7758 30.6256 20.5412 28.8496 19.3122C28.7115 19.2172 28.6491 19.1144 28.6491 18.9409C28.6547 15.8384 28.6525 12.7371 28.6525 9.5728ZM13.9833 9.53743C13.9833 12.7471 13.9822 15.8605 13.9866 18.9751C13.9866 19.1387 13.9087 19.2227 13.7896 19.3056C12.0135 20.5357 10.2375 21.7648 8.46705 23.0015C8.28889 23.1264 8.20427 23.1319 8.10405 22.9197C7.8112 22.2964 7.4727 21.6929 7.19767 21.0618C6.6476 19.8018 6.45942 18.4767 6.79124 17.1415C7.28118 15.1675 8.22543 13.4644 9.99143 12.3016C10.8477 11.738 11.6761 11.1356 12.5179 10.5509C12.9834 10.2304 13.4466 9.9099 13.9833 9.53743ZM8.63408 35.4598C6.41377 37.0017 4.22798 38.5203 2.00099 40.0665C1.98985 39.9372 1.98206 39.8841 1.98206 39.8322C1.98094 36.3584 1.98317 32.8835 1.97538 29.4097C1.97538 29.1854 2.06112 29.0638 2.23594 28.9444C3.4463 28.1133 4.64888 27.2722 5.85702 26.4388C5.92606 26.3913 5.98285 26.2852 6.10088 26.3416C4.3371 29.8706 5.71338 33.6207 8.63408 35.4598ZM34.024 35.4775C37.2854 33.0349 38.1205 30.001 36.5271 26.2587C37.8923 27.207 39.2062 28.1232 40.5246 29.0317C40.6849 29.1423 40.6549 29.2904 40.6549 29.4363C40.656 32.8658 40.6571 36.2943 40.6537 39.7239C40.6537 39.82 40.7161 39.9449 40.5669 40.0234C38.3911 38.5125 36.212 36.9983 34.024 35.4775ZM40.6549 27.5087C38.9523 26.3272 37.3311 25.1976 35.7043 24.0769C35.5116 23.9443 35.5606 23.8238 35.643 23.6614C35.967 23.0225 36.3011 22.3881 36.5973 21.736C37.2921 20.213 37.4858 18.6259 37.1819 16.9768C37.0672 16.3568 36.8545 15.7666 36.6084 15.0891C36.8033 15.214 36.918 15.2814 37.0271 15.3576C38.1306 16.1225 39.2274 16.8961 40.3397 17.6466C40.5903 17.8157 40.6626 17.9981 40.6615 18.2888C40.6504 21.0718 40.6549 23.8537 40.6549 26.6367C40.6549 26.8975 40.6549 27.1561 40.6549 27.5087ZM5.95278 15.1178C6.004 15.3234 5.89265 15.4461 5.84366 15.582C5.07535 17.6731 5.13325 19.7388 6.05411 21.7692C6.33805 22.3958 6.65317 23.0104 6.97831 23.6171C7.11304 23.868 7.06071 23.9918 6.83467 24.1466C5.31586 25.1866 3.80819 26.2421 2.29495 27.2888C2.21033 27.3473 2.14017 27.4523 2.00433 27.4192C1.99765 27.3794 1.98429 27.3407 1.98429 27.3031C1.98317 24.2449 1.9854 21.1856 1.97649 18.1274C1.97538 17.9152 2.0678 17.8069 2.22703 17.6986C2.83388 17.2863 3.43294 16.8641 4.03646 16.4463C4.66892 16.0075 5.30138 15.5687 5.95278 15.1178Z" fill="white"/>
</g>
</svg>
