<svg width="54" height="37" viewBox="0 0 54 37" fill="none" xmlns="http://www.w3.org/2000/svg">
<g id="Group">
<path id="Vector" d="M0.49292 0.718249C13.7599 0.718249 27.0269 0.720321 40.2939 0.709961C40.6989 0.709961 40.93 0.814597 41.132 1.18756C45.1112 8.52449 49.1061 15.8521 53.0967 23.1828C53.1931 23.36 53.2759 23.5433 53.3992 23.7909C52.9724 23.7909 52.6119 23.821 52.2586 23.7837C51.8297 23.7391 51.751 23.9204 51.753 24.3089C51.7655 27.9784 51.7603 31.649 51.7603 35.3185C51.7603 35.7495 51.7634 36.1804 51.7582 36.6104C51.7561 36.7388 51.8079 36.944 51.6318 36.9574C51.2039 36.9895 50.7699 36.9989 50.3441 36.9595C50.1483 36.9419 50.2229 36.7036 50.2218 36.5617C50.2156 35.5454 50.2001 34.528 50.228 33.5127C50.2394 33.116 50.1079 33.0196 49.7297 33.0227C48.6844 33.031 48.6668 33.0144 48.6844 34.0753C48.6906 34.4514 48.6015 34.5705 48.2037 34.5705C37.7453 34.5591 27.2859 34.5601 16.8275 34.5684C16.4742 34.5684 16.354 34.4752 16.353 34.1084C16.3509 32.9792 16.3364 32.9937 15.2207 33.0248C14.885 33.0341 14.8249 33.1678 14.828 33.4599C14.8404 34.4762 14.8156 35.4936 14.8415 36.5088C14.8518 36.9046 14.7182 37.002 14.339 36.9978C13.2958 36.9854 13.2958 37.002 13.2947 35.9815C13.2947 35.1372 13.2833 34.2928 13.2999 33.4485C13.3061 33.1367 13.2067 32.9947 12.8897 33.032C12.8555 33.0362 12.8203 33.0362 12.7861 33.032C12.4525 32.9906 11.9562 33.1988 11.8195 32.9264C11.6516 32.5938 11.7625 32.1214 11.7542 31.7091C11.7511 31.5506 11.8443 31.5019 11.9863 31.5039C12.0546 31.505 12.1241 31.5019 12.1935 31.5008C13.2958 31.4791 13.2958 31.4791 13.2958 30.3913C13.2958 28.3752 13.2854 26.3592 13.3041 24.3431C13.3082 23.937 13.2326 23.706 12.7778 23.793C12.3468 23.8759 12.15 23.6521 11.9656 23.2885C8.25565 15.9681 4.53124 8.65502 0.806827 1.34192C0.715659 1.16269 0.666967 0.95342 0.49292 0.821849C0.49292 0.787661 0.49292 0.752437 0.49292 0.718249ZM38.4508 12.2043C38.4229 12.0075 38.2602 11.9195 38.1473 11.8013C35.1698 8.71615 32.1861 5.6382 29.217 2.54575C28.9839 2.30332 28.7435 2.25774 28.441 2.25878C23.6195 2.26396 18.799 2.26188 13.9775 2.26499C13.8138 2.26499 13.6397 2.2163 13.4823 2.30954C13.4709 2.44215 13.5765 2.49188 13.6418 2.56025C16.6275 5.70865 19.6185 8.85186 22.598 12.0054C22.8176 12.2385 23.0528 12.2655 23.3346 12.2655C28.2069 12.2624 33.0802 12.2634 37.9525 12.2603C38.1162 12.2603 38.2923 12.3152 38.4508 12.2043ZM42.4135 19.9505C42.1193 19.9505 41.9338 19.9505 41.7484 19.9505C35.3926 19.9505 29.0357 19.9464 22.6798 19.9609C22.2509 19.9619 22.0085 19.8438 21.7785 19.4698C18.5472 14.2235 15.2994 8.98758 12.0526 3.75165C11.7449 3.25541 11.5211 2.58304 11.0705 2.33544C10.6177 2.0868 9.92878 2.28364 9.34448 2.25774C8.93008 2.23909 8.79022 2.28053 9.03057 2.73844C12.3727 9.10568 15.6993 15.4802 19.0197 21.8588C19.1782 22.1644 19.3636 22.2566 19.6982 22.2566C28.0525 22.2473 36.4068 22.2494 44.7621 22.2483C45.3506 22.2483 45.3516 22.2452 45.0522 21.7096C43.8442 19.5465 42.5596 17.4206 41.4583 15.2046C40.8947 14.0712 40.2131 13.546 38.9719 13.7967C38.8082 13.8298 38.57 13.7221 38.486 13.8671C38.3783 14.0536 38.6062 14.2007 38.7036 14.3489C39.9137 16.1867 41.133 18.0194 42.4135 19.9505ZM32.5322 23.7909C26.8114 23.7909 21.0906 23.7961 15.3698 23.7816C14.9358 23.7806 14.8208 23.9008 14.8259 24.3286C14.8477 26.3789 14.8353 28.4301 14.8353 30.4804C14.8353 31.5164 14.8353 31.4988 15.8733 31.5102C16.2587 31.5143 16.3779 31.4003 16.3727 31.0129C16.353 29.548 16.3789 28.0831 16.3561 26.6192C16.3499 26.2059 16.4846 26.1023 16.8834 26.1023C27.3087 26.1116 37.7339 26.1126 48.1592 26.1002C48.6077 26.0991 48.6958 26.2421 48.6875 26.6555C48.6616 27.9298 48.6782 29.2051 48.6782 30.4804C48.6782 31.5091 48.6792 31.4843 49.7038 31.5122C50.1607 31.5247 50.2343 31.3558 50.2301 30.9486C50.2115 28.7606 50.2084 26.5716 50.2311 24.3835C50.2363 23.9246 50.1317 23.7775 49.6437 23.7795C43.9395 23.7972 38.2353 23.7909 32.5322 23.7909ZM17.4626 22.2463C17.3983 22.0919 17.3672 21.9966 17.3217 21.9085C13.9536 15.4615 10.5835 9.01555 7.22069 2.56647C7.09947 2.3344 6.96065 2.2536 6.70372 2.2567C5.63665 2.27017 4.56853 2.27535 3.50146 2.25567C3.10881 2.24842 3.01972 2.31783 3.21863 2.697C3.90653 4.00547 4.56853 5.32844 5.23882 6.64622C7.81224 11.7029 10.3857 16.7596 12.9622 21.8153C13.0565 22.0007 13.0865 22.2525 13.3963 22.2504C14.7327 22.2421 16.0691 22.2463 17.4626 22.2463ZM35.9914 2.26292C36.0463 2.40278 36.0629 2.46805 36.095 2.52503C39.7085 8.9969 43.3252 15.4667 46.9336 21.9417C47.0734 22.1924 47.2444 22.2577 47.5127 22.2535C48.4254 22.239 49.3381 22.2494 50.2498 22.2473C50.8268 22.2463 50.8289 22.2432 50.5606 21.748C49.5919 19.965 48.6212 18.1831 47.6515 16.4001C45.1599 11.8241 42.6694 7.2471 40.1758 2.67214C40.0659 2.47012 40.0007 2.24738 39.6712 2.2536C38.4674 2.27535 37.2625 2.26292 35.9914 2.26292ZM30.2675 18.4069C31.4205 18.4069 32.5736 18.41 33.7267 18.4038C33.8935 18.4027 34.1773 18.4783 34.0965 18.1582C33.9308 17.4973 34.2861 16.9938 34.5627 16.4696C34.7047 16.2002 34.7088 15.9785 34.5876 15.6998C34.3856 15.2326 34.0427 14.8037 34.0717 14.2618C34.0913 13.8982 33.9587 13.7915 33.6024 13.7925C31.3304 13.805 29.0585 13.7967 26.7876 13.8008C26.3038 13.8019 26.2385 13.9179 26.4716 14.3623C26.7109 14.8192 26.9513 15.2782 27.2299 15.7102C27.4288 16.0189 27.405 16.2592 27.1968 16.5472C26.945 16.8943 26.7213 17.2652 26.5151 17.6413C26.2406 18.1416 26.4022 18.4048 26.9637 18.4058C28.065 18.4069 29.1662 18.4069 30.2675 18.4069ZM22.5182 30.3706C22.5182 29.5791 22.5099 28.7876 22.5224 27.9961C22.5265 27.7339 22.4498 27.6303 22.1743 27.6324C20.8668 27.6428 19.5594 27.6417 18.252 27.6335C17.9837 27.6314 17.8904 27.7308 17.8915 27.9971C17.8987 29.5459 17.9008 31.0937 17.8904 32.6425C17.8883 32.9336 17.992 33.0351 18.28 33.0331C19.5698 33.0238 20.8606 33.0217 22.1515 33.0341C22.4519 33.0372 22.5286 32.9222 22.5234 32.6415C22.5079 31.8852 22.5182 31.1279 22.5182 30.3706ZM24.0629 30.3291C24.0629 31.0875 24.0733 31.8458 24.0577 32.6031C24.0515 32.8932 24.1002 33.0414 24.4452 33.0362C25.7205 33.0186 26.9958 33.0206 28.2701 33.0351C28.5943 33.0383 28.6814 32.916 28.6793 32.6104C28.6689 31.0937 28.6689 29.578 28.6793 28.0613C28.6814 27.765 28.613 27.6272 28.2784 27.6314C27.0031 27.6469 25.7277 27.648 24.4535 27.6303C24.1209 27.6262 24.0494 27.7516 24.0567 28.0541C24.0743 28.8124 24.0629 29.5708 24.0629 30.3291ZM34.8238 30.3281C34.8238 29.5718 34.8124 28.8145 34.829 28.0592C34.8352 27.764 34.7782 27.6262 34.4394 27.6314C33.1672 27.649 31.895 27.6459 30.6228 27.6335C30.3141 27.6303 30.2001 27.7236 30.2022 28.0437C30.2146 29.5739 30.2157 31.104 30.2022 32.6332C30.1991 32.9637 30.3369 33.0372 30.6332 33.0351C31.9054 33.0248 33.1776 33.0238 34.4498 33.0362C34.743 33.0393 34.8352 32.9398 34.829 32.6508C34.8134 31.8748 34.8238 31.1009 34.8238 30.3281ZM40.989 30.3519C40.989 29.5956 40.9766 28.8383 40.9952 28.082C41.0035 27.7536 40.9103 27.6262 40.5622 27.6314C39.3066 27.649 38.0509 27.648 36.7953 27.6314C36.4586 27.6272 36.3571 27.7277 36.3612 28.0686C36.3788 29.5822 36.3757 31.0958 36.3633 32.6094C36.3612 32.9056 36.4192 33.0403 36.7549 33.0362C38.0271 33.0186 39.3003 33.0186 40.5725 33.0362C40.9351 33.0414 41.0004 32.8839 40.9942 32.571C40.9787 31.8313 40.989 31.0916 40.989 30.3519ZM47.1325 30.3519C47.1325 29.5936 47.118 28.8352 47.1397 28.0769C47.1491 27.7474 47.062 27.6241 46.7119 27.6293C45.4542 27.648 44.1954 27.6438 42.9377 27.6314C42.6331 27.6283 42.5099 27.7112 42.513 28.0375C42.5264 29.5708 42.5233 31.1051 42.515 32.6384C42.513 32.9233 42.6062 33.0351 42.9004 33.0331C44.1923 33.0227 45.4852 33.0206 46.7782 33.0341C47.0962 33.0372 47.1408 32.8922 47.1366 32.627C47.1242 31.8686 47.1325 31.1103 47.1325 30.3519ZM16.5001 7.80965C16.4763 7.83244 16.4525 7.85523 16.4297 7.87803C16.5167 8.02307 16.6027 8.1681 16.6918 8.31211C18.5141 11.2543 20.3364 14.1955 22.1587 17.1378C22.9772 18.4576 22.9772 18.4576 24.526 18.4069C24.5436 18.4058 24.5612 18.4048 24.5778 18.4069C24.8865 18.4545 24.9476 18.2763 24.8699 18.0422C24.7228 17.5926 24.9 17.2414 25.1528 16.8974C25.2647 16.7451 25.3392 16.5638 25.4594 16.4198C25.6563 16.1815 25.6262 15.9733 25.4729 15.7216C25.2408 15.3403 25.0336 14.9425 24.8399 14.5395C24.7342 14.3188 24.9684 13.9604 24.6886 13.8402C24.4535 13.7397 24.1468 13.805 23.8712 13.7998C23.664 13.7967 23.4537 13.7718 23.2517 13.8039C22.4778 13.9262 21.9526 13.6019 21.4325 13.0311C19.8205 11.2606 18.1484 9.54598 16.5001 7.80965ZM31.0704 2.26292C33.4967 4.77314 35.8266 7.18391 38.1898 9.62886C38.1991 9.52837 38.2157 9.489 38.2022 9.46517C36.9072 7.13832 35.608 4.81458 34.3162 2.48566C34.2167 2.30643 34.0924 2.25878 33.9028 2.25981C33.0087 2.26603 32.1147 2.26292 31.0704 2.26292ZM39.5397 18.4038C39.031 17.6361 38.5793 16.9534 38.1266 16.2706C37.6324 15.5247 37.132 14.7819 36.644 14.0318C36.3933 13.6465 35.9965 13.7438 35.7179 13.8516C35.4547 13.9531 35.6308 14.2722 35.723 14.4887C35.9116 14.9311 36.096 15.3776 36.3073 15.8096C36.4182 16.0355 36.412 16.2199 36.2928 16.4385C36.0784 16.8311 35.8536 17.2248 35.7085 17.6433C35.6226 17.8909 35.4433 18.3592 35.8971 18.383C37.074 18.4462 38.2561 18.4038 39.5397 18.4038Z" fill="white"/>
<path id="Vector_2" d="M3.2383 31.1612C3.2383 29.371 3.23001 27.5808 3.24555 25.7906C3.24866 25.4363 3.15335 25.3047 2.78454 25.3244C2.23546 25.3544 1.68327 25.3202 1.13212 25.3368C0.861725 25.3451 0.786097 25.2529 0.775737 24.9856C0.727045 23.7901 0.718758 23.7901 1.89358 23.7901C2.6685 23.7901 3.44447 23.8222 4.21628 23.7787C4.69802 23.7507 4.77987 23.933 4.77572 24.365C4.75604 26.5334 4.7809 28.7028 4.755 30.8721C4.74879 31.3559 4.8586 31.5248 5.37142 31.5134C6.83425 31.4782 8.29811 31.5134 9.76094 31.4937C10.1277 31.4886 10.2209 31.6035 10.2178 31.9599C10.2085 33.0332 10.224 33.0332 9.13624 33.0332C7.84538 33.0332 6.55349 33.0457 5.26368 33.026C4.88865 33.0208 4.74775 33.1192 4.75811 33.516C4.78401 34.5137 4.75604 35.5124 4.77261 36.5111C4.77779 36.8447 4.71356 37.0011 4.3261 37.0001C3.2383 36.998 3.2383 37.0166 3.2383 35.9154C3.23934 34.3293 3.23934 32.7452 3.2383 31.1612Z" fill="white"/>
<path id="Vector_3" d="M4.75192 13.8309C4.75918 15.8646 3.13266 17.6693 1.20778 17.7967C0.847252 17.8205 0.740544 17.7128 0.78302 17.3844C0.787164 17.3502 0.784056 17.316 0.78302 17.2808C0.778876 16.4147 0.77784 16.4147 1.55898 16.1536C2.59498 15.8065 3.25698 14.8368 3.21036 13.7356C3.16374 12.6354 2.43026 11.6739 1.35593 11.4875C0.813064 11.3932 0.764372 11.1508 0.775768 10.7074C0.800632 9.74078 0.812028 9.71799 1.74753 9.97698C3.56053 10.4805 4.74467 11.9993 4.75192 13.8309Z" fill="white"/>
<path id="Vector_4" d="M34.0686 9.18762C34.8238 9.18762 34.8238 9.18762 34.8238 10.0434C34.8238 10.7281 34.8238 10.7281 33.9919 10.7281C33.2802 10.7281 33.275 10.7281 33.2833 9.81336C33.2906 9.08609 33.1725 9.19902 34.0686 9.18762Z" fill="white"/>
<path id="Vector_5" d="M24.0774 9.1876C24.8192 9.1876 24.8244 9.1876 24.8171 10.0154C24.8099 10.8607 24.9207 10.723 23.9531 10.7261C23.1927 10.7281 23.2869 10.839 23.288 9.86722C23.289 9.05914 23.1968 9.20314 24.0774 9.1876Z" fill="white"/>
</g>
</svg>
