<svg width="53" height="44" viewBox="0 0 53 44" fill="none" xmlns="http://www.w3.org/2000/svg">
<g id="Group">
<path id="Vector" d="M0.752243 11.5294C2.20777 10.1839 3.66573 8.84338 5.11636 7.49305C7.33879 5.42352 9.55754 3.34909 11.7702 1.26855C12.0466 1.00925 12.2925 0.89917 12.6985 0.990904C20.6293 2.78401 28.5625 4.56488 36.5006 6.32374C37.0363 6.44239 37.4913 6.64542 37.9329 6.94998C42.4499 10.0641 46.9742 13.1696 51.4925 16.2824C51.7151 16.4353 52.0539 16.5381 51.9927 16.8977C51.9279 17.2768 51.561 17.2622 51.2821 17.3405C50.7207 17.4995 50.1617 17.6683 49.5917 17.7881C49.2737 17.8554 49.2089 18.0071 49.2101 18.3018C49.2199 20.1377 49.2126 21.9737 49.2089 23.8084C49.2028 27.3799 49.1881 30.9502 49.1967 34.5217C49.1979 34.9939 49.0499 35.2287 48.5888 35.395C40.987 38.13 33.3914 40.8808 25.7982 43.6377C25.4288 43.7722 25.1549 43.7392 24.8344 43.5032C17.7953 38.322 10.7489 33.1494 3.69753 27.9866C3.40154 27.7701 3.31103 27.5193 3.2988 27.1854C3.22296 25.0841 3.14101 22.984 3.06029 20.8826C2.96855 18.4816 2.86458 16.0806 2.79609 13.6796C2.78508 13.2846 2.63219 13.0876 2.3154 12.9066C1.78212 12.6033 1.27207 12.2571 0.752243 11.9293C0.752243 11.796 0.752243 11.6627 0.752243 11.5294ZM12.0735 6.05588C12.246 5.73664 12.7878 5.49201 12.679 5.21926C12.5664 4.93671 12.016 4.93916 11.6601 4.80829C11.5818 4.77893 11.5023 4.75325 11.4253 4.72389C11.2724 4.6664 11.1439 4.67007 11.0241 4.80951C10.8076 5.0627 10.5752 5.30243 10.3526 5.55072C10.289 5.62167 10.2082 5.68772 10.3171 5.7978C10.6094 6.09502 11.6662 6.24179 12.0919 6.03631C12.0185 6.39958 12.2081 6.5439 12.5285 6.66989C13.0679 6.88271 13.5853 7.11877 14.1589 6.79587C13.9816 7.09187 14.0513 7.28267 14.3913 7.38297C14.5956 7.4429 14.8011 7.51384 14.987 7.61536C15.546 7.92237 16.0193 7.86733 16.4009 7.32915C16.3863 7.39398 16.3936 7.47715 16.3545 7.51996C15.9851 7.93215 16.2052 8.09361 16.6162 8.24405C17.5923 8.60365 17.5874 8.61588 18.2907 7.85754C18.8888 7.21173 18.8766 7.24231 18.0301 6.91451C17.4663 6.69557 16.9929 6.59895 16.6407 7.22029C16.5881 7.31325 16.4866 7.34016 16.3826 7.34628C16.4034 7.32059 16.4242 7.29368 16.445 7.26922C17.0101 6.59038 16.9721 6.66866 16.1722 6.28705C15.2842 5.86385 14.6592 6.01918 14.1406 6.81177C14.1773 6.47908 14.466 6.32497 14.6531 6.10358C14.8072 5.92256 14.7962 5.84183 14.565 5.76966C14.1382 5.63634 13.7113 5.50058 13.2942 5.34035C13.0324 5.24005 12.8722 5.31588 12.6936 5.51281C12.5126 5.71707 12.383 5.99472 12.0735 6.05588ZM6.68441 11.9465C6.46425 12.3085 6.59635 12.5213 6.97062 12.6461C7.07826 12.6816 7.17611 12.7513 7.27396 12.8124C7.73753 13.1023 8.20109 13.4472 8.61206 12.739C8.62919 12.7097 8.70502 12.7146 8.75272 12.7048C8.66955 12.8075 8.60105 12.9274 8.50076 13.0081C8.1803 13.2687 8.30628 13.4069 8.60962 13.5475C8.90806 13.6857 9.20528 13.8386 9.47437 14.027C9.83397 14.2802 10.1067 14.2839 10.3734 13.8937C10.5275 13.6674 10.7305 13.4644 10.9813 13.3274C10.8174 13.6417 10.5471 13.8668 10.3232 14.1322C10.2584 14.2092 10.0847 14.3181 10.2278 14.4074C10.6498 14.6691 11.095 14.8966 11.5366 15.1254C11.6185 15.1682 11.687 15.0789 11.7433 15.0177C12.1469 14.5786 12.5493 14.1383 12.9737 13.6723C12.6802 13.5304 12.4123 13.4301 12.1763 13.2809C11.7469 13.0106 11.3482 12.9947 10.9544 13.3323C11.1537 12.9776 11.106 12.7256 10.684 12.58C10.4223 12.4895 10.1703 12.3611 9.92693 12.2266C9.5979 12.0443 9.33126 12.1312 9.08541 12.3746C8.96922 12.4895 8.85302 12.6057 8.73682 12.7219C8.7356 12.5372 8.87504 12.4333 8.96922 12.3012C9.08052 12.1458 9.15391 11.9147 8.98389 11.8156C8.5876 11.5869 8.17051 11.3594 7.73141 11.2554C7.40606 11.1771 7.2018 11.5343 6.99142 11.7605C6.89968 11.8596 6.8104 11.9489 6.66851 11.9648C7.39138 11.0218 7.38404 11.0352 6.32971 10.5264C6.01169 10.3723 5.84046 10.4322 5.61662 10.6817C4.87785 11.5037 4.87785 11.478 5.84902 12.0431C6.18905 12.2412 6.43979 12.284 6.68441 11.9465ZM10.9788 7.32181C10.9115 7.57867 10.4235 7.80617 10.881 8.09972C11.8778 8.74064 12.2019 8.69539 13.0532 7.87467C13.0655 7.86366 13.0777 7.85265 13.0899 7.84164C13.1058 8.0349 12.9603 8.13642 12.8526 8.25873C12.4661 8.7015 12.4735 8.77489 12.9982 8.98405C14.4867 9.57726 14.1492 9.72037 15.2977 8.53271C15.2757 8.87152 14.9699 9.01218 14.7938 9.24335C14.6152 9.47819 14.5968 9.6531 14.9124 9.77419C15.2365 9.89894 15.5582 10.0323 15.8762 10.1729C16.0157 10.2353 16.1208 10.2353 16.2285 10.1154C16.5722 9.7326 16.9195 9.35343 17.2694 8.97671C17.388 8.84828 17.399 8.76633 17.2082 8.69661C16.5783 8.46422 15.9667 8.01777 15.2793 8.54983C15.6096 8.19513 15.4885 8.00432 15.0665 7.85632C14.395 7.62026 13.737 7.15058 13.0728 7.85999C13.5241 7.27289 13.5046 7.31325 12.8355 6.99035C12.1591 6.66377 11.5684 6.54635 11.0657 7.2472C11.0387 7.2839 10.9874 7.30347 10.947 7.3316C11.4803 6.47908 11.4803 6.47908 10.5116 6.10603C10.4186 6.07055 10.322 6.04242 10.2339 5.99717C10.0982 5.92622 9.99175 5.93112 9.88289 6.05343C9.58445 6.38857 9.27867 6.71759 8.97411 7.04661C8.86403 7.16525 8.81999 7.25332 9.01814 7.33771C9.67741 7.61414 10.3306 8.06915 10.9788 7.32181ZM9.88778 8.4422C9.85598 8.77734 9.55387 8.91922 9.37774 9.15161C9.19916 9.3889 9.19916 9.56625 9.49761 9.69224C9.78749 9.81577 10.0823 9.92952 10.3599 10.0763C10.6412 10.2243 10.8895 10.1534 11.0926 9.96989C11.3506 9.73749 11.5843 9.47452 11.802 9.20298C11.9267 9.04765 12.0234 8.80914 11.7579 8.70639C11.1537 8.47155 10.574 7.96396 9.87188 8.45932C10.0908 8.16088 10.0456 7.97619 9.67985 7.8233C8.6561 7.3952 8.66221 7.38297 7.92711 8.1829C7.81458 8.30521 7.7045 8.43119 7.58708 8.54861C7.44765 8.68682 7.43052 8.78223 7.6409 8.87029C9.00591 9.44027 8.78208 9.63842 9.74346 8.57674C9.78504 8.52782 9.83886 8.48623 9.88778 8.4422ZM12.0674 12.1201C12.087 12.2168 12.0173 12.2706 11.9671 12.3342C11.643 12.7488 11.6589 12.8112 12.1445 13.0448C12.3842 13.1598 12.6251 13.2723 12.8637 13.3873C13.0019 13.4534 13.1279 13.5157 13.2624 13.3628C13.633 12.9445 14.0134 12.5348 14.3962 12.114C14.3143 12.0614 14.2874 12.0419 14.2592 12.0247C13.4985 11.6003 12.7413 11.2334 12.0491 12.1385C12.0796 11.9391 12.2582 11.8474 12.3658 11.7055C12.4869 11.5465 12.5787 11.3263 12.394 11.2273C11.9426 10.9851 11.4717 10.7466 10.98 10.6255C10.5911 10.5289 10.4125 10.9655 10.1593 11.1906C10.0615 11.2774 9.95383 11.352 9.84987 11.4315C9.89145 11.3606 9.92693 11.286 9.97585 11.2211C10.5813 10.398 10.5825 10.398 9.62359 9.97355C8.99979 9.69713 8.11547 10.1179 7.9528 10.7784C7.93078 10.8664 7.94057 11.0279 7.98949 11.0548C8.38211 11.2676 8.77963 11.4743 9.19182 11.6431C9.45113 11.7495 9.65539 11.5343 9.87311 11.4291C9.67741 11.7251 9.70921 11.9379 10.0725 12.0773C10.3807 12.196 10.6804 12.3403 10.9678 12.5018C11.2846 12.6791 11.5304 12.5886 11.7665 12.3635C11.8619 12.2743 11.9157 12.1373 12.0674 12.1201ZM13.1609 10.9264C13.0826 11.3936 13.4642 11.4425 13.7529 11.571C14.565 11.9318 14.565 11.9306 15.1668 11.2799C15.9569 10.4237 15.9508 10.4383 14.8818 9.976C14.4757 9.79987 14.1993 9.8965 13.9168 10.1949C13.6697 10.4542 13.485 10.782 13.1438 10.9447C13.2966 10.6022 13.6098 10.3931 13.8348 10.1093C13.9926 9.91118 14.099 9.71548 13.8018 9.5369C12.5677 8.79324 12.279 8.8336 11.358 9.89161C11.347 9.90384 11.3335 9.91484 11.3225 9.92708C11.0742 10.2011 11.0693 10.4139 11.4583 10.5607C11.7225 10.6597 11.983 10.7735 12.2289 10.9105C12.5444 11.0829 12.8465 11.1086 13.1609 10.9264ZM24.9053 42.5662C24.9323 42.4036 24.9469 42.3559 24.9469 42.3069C24.9482 36.4702 24.9469 30.6322 24.9543 24.7954C24.9543 24.4786 24.865 24.3673 24.5494 24.4664C24.2473 24.5606 23.9244 24.5985 23.637 24.7233C22.7062 25.1269 21.8683 25.0119 21.1063 24.3453C20.8018 24.0799 20.4727 24.075 20.0887 24.1643C15.8542 25.1403 11.6148 26.1005 7.37793 27.0668C6.50094 27.2674 5.62518 27.4741 4.65524 27.7003C11.4473 32.687 18.1463 37.604 24.9053 42.5662ZM23.3214 23.9857C32.5487 21.5236 41.6267 19.1018 50.8002 16.6543C50.5605 16.483 50.4173 16.3766 50.2694 16.2763C46.0373 13.4313 41.7992 10.5937 37.5782 7.73279C37.1782 7.46125 37.0033 7.51874 36.7146 7.86855C33.7632 11.4425 30.7935 15.0018 27.8286 18.5648C26.3572 20.3322 24.8882 22.1009 23.3214 23.9857ZM4.92433 13.572C4.93412 13.3702 4.94146 13.2711 4.9439 13.1733C4.94757 12.9568 4.93412 12.7378 4.95369 12.5226C4.97326 12.3036 4.86807 12.2009 4.68949 12.0981C4.15621 11.7899 4.15009 11.7165 4.57207 11.2566C6.69664 8.94613 8.82611 6.64298 10.9421 4.32637C11.1708 4.07563 11.3727 4.03772 11.6809 4.14046C14.1284 4.96118 16.582 5.76722 19.0319 6.57938C19.7364 6.81299 19.8771 7.29246 19.3805 7.8392C16.9917 10.4701 14.5919 13.0938 12.2081 15.7296C11.9659 15.9975 11.7751 15.9999 11.4815 15.8311C10.673 15.3651 9.84865 14.9272 9.03037 14.4783C7.91977 13.8692 6.8104 13.2564 5.6949 12.6571C5.58482 12.5972 5.45395 12.4076 5.30839 12.5837C5.0919 12.8455 5.3512 13.8325 5.67411 14.0294C11.0436 17.2976 16.4144 20.5622 21.7766 23.8414C22.1081 24.0444 22.2817 24.0444 22.5423 23.7264C27.0018 18.3214 31.476 12.9286 35.9453 7.52975C36.0346 7.42211 36.1863 7.33894 36.1496 7.15914C36.1141 7.14691 36.0835 7.13223 36.0517 7.12489C28.3056 5.35013 20.5584 3.58027 12.8147 1.79083C12.4857 1.715 12.323 1.83975 12.1237 2.02689C8.80899 5.12752 5.49186 8.22571 2.17596 11.3251C2.10258 11.3936 2.03163 11.4645 1.9558 11.5294C1.82615 11.6407 1.87141 11.7177 1.99616 11.7923C2.94776 12.3697 3.89813 12.9482 4.92433 13.572ZM35.6921 24.0921C35.9221 23.9013 36.1447 23.7007 36.3844 23.5234C37.0314 23.0427 37.2492 22.4213 37.1733 21.6165C37.1317 21.1811 37.029 21.1468 36.6535 21.2496C33.8721 22.003 31.0858 22.7344 28.3044 23.4854C28.1503 23.527 27.9338 23.4867 27.8421 23.6922C27.8763 23.7191 27.8996 23.7448 27.9277 23.7594C30.6993 25.1819 33.4721 26.6032 36.2401 28.0306C36.4358 28.1321 36.607 28.1223 36.8101 28.0673C38.2105 27.6942 39.6159 27.342 41.0127 26.9591C41.398 26.8527 41.4971 26.9383 41.4861 27.3359C41.4592 28.3033 41.4946 29.2708 41.4689 30.2383C41.4592 30.5894 41.5815 30.768 41.8897 30.9233C43.9128 31.9422 45.926 32.983 47.9442 34.0117C48.0726 34.0777 48.19 34.1903 48.3857 34.1572C48.3857 28.833 48.3857 23.5075 48.3857 18.1551C48.1839 18.2052 48.0066 18.2456 47.8317 18.292C44.7738 19.1042 41.716 19.9188 38.657 20.7297C37.358 21.0747 37.3666 21.071 37.3813 22.3956C37.3849 22.6757 37.4754 22.8152 37.7298 22.913C38.1494 23.0733 38.5579 23.2665 39.0618 23.4842C38.8245 23.5539 38.7145 23.5931 38.6007 23.62C38.1959 23.7129 37.7445 23.6958 37.588 24.2389C37.5317 24.4334 37.2271 24.4713 37.1366 24.2964C36.9397 23.9184 36.6853 24.0836 36.4187 24.1251C36.2083 24.1569 36.0101 24.2805 35.6921 24.0921ZM25.7407 33.4454C25.7407 36.3992 25.7395 39.3519 25.7444 42.3057C25.7444 42.5161 25.6172 42.8561 26.0979 42.68C29.0701 41.5963 32.0484 40.5248 35.0267 39.4558C35.2444 39.3775 35.3386 39.2662 35.3386 39.0241C35.3313 35.603 35.3325 32.1831 35.3386 28.762C35.3386 28.5308 35.2603 28.4 35.0536 28.2948C32.2918 26.8882 29.5361 25.4706 26.7743 24.0652C26.2312 23.7888 25.742 24.0958 25.742 24.6841C25.7395 27.6049 25.7407 30.5246 25.7407 33.4454ZM3.60213 13.7041C3.60213 13.9059 3.59846 14.0209 3.60213 14.1346C3.75135 18.0474 3.90424 21.9602 4.04735 25.873C4.09016 27.0399 4.07548 27.0325 5.23256 26.7524C5.48819 26.6913 5.5995 26.591 5.58849 26.3194C5.57014 25.8534 5.61173 25.3837 5.57504 24.9202C5.54568 24.5508 5.69613 24.4236 6.03249 24.3734C6.49238 24.3049 6.94494 24.1521 7.40606 24.1203C8.09346 24.0713 8.34053 23.6237 8.55335 23.0158C8.14605 23.0965 7.79012 23.1687 7.43419 23.2384C6.19883 23.4793 6.19883 23.4781 6.19761 22.2024C6.19761 21.4122 6.19272 21.3902 5.40747 21.548C4.96225 21.6373 4.82648 21.5358 4.83749 21.0673C4.88397 19.0186 4.8962 16.9686 4.92189 14.9187C4.92433 14.7009 4.95002 14.4918 4.70539 14.3585C4.35558 14.1713 4.02166 13.9561 3.60213 13.7041ZM47.8011 34.8287C45.7144 33.7609 43.7427 32.7568 41.7747 31.7428C41.4922 31.5972 41.4726 31.733 41.4726 31.9581C41.4751 33.5591 41.4775 35.1602 41.4702 36.7601C41.4689 37.0573 41.568 37.0976 41.8273 36.9925C42.2285 36.8298 42.6419 36.7001 43.048 36.5521C44.5965 35.9907 46.1437 35.4293 47.8011 34.8287ZM19.6471 23.4598C17.3513 22.0642 15.179 20.7444 13.0092 19.4198C12.7046 19.2339 12.7169 19.4455 12.712 19.6375C12.6961 20.32 12.6704 21.0037 12.679 21.6862C12.6826 22.0287 12.5774 22.1987 12.2191 22.2574C11.6148 22.3565 11.018 22.5045 10.3966 22.6366C11.0632 23.3485 11.095 23.3546 11.9157 23.1858C12.86 22.9913 13.8104 22.8188 14.7522 22.6085C15.0323 22.5461 15.1081 22.6072 15.0971 22.88C15.0812 23.2959 15.0971 23.7129 15.08 24.1288C15.069 24.3857 15.1338 24.5019 15.4163 24.4358C16.7715 24.119 18.1317 23.8084 19.6471 23.4598ZM6.66484 21.2924C6.66484 21.6764 6.69298 22.063 6.6575 22.4421C6.61959 22.8445 6.75535 22.9167 7.12841 22.8347C8.69034 22.4947 10.2559 22.1681 11.8252 21.8599C12.1139 21.8036 12.2166 21.696 12.2166 21.4086C12.2166 20.7077 12.2301 20.0069 12.2631 19.3072C12.2814 18.922 12.1273 18.785 11.7592 18.851C10.1691 19.1397 8.58026 19.4332 6.98775 19.7084C6.73945 19.7512 6.64894 19.8381 6.65995 20.09C6.6783 20.4912 6.66484 20.8924 6.66484 21.2924ZM5.28271 14.7205C5.27292 14.9529 5.26192 15.0972 5.26069 15.2428C5.23623 17.0114 5.21421 18.7801 5.19097 20.5475C5.18119 21.285 5.18486 21.2838 5.90039 21.1003C6.11077 21.0465 6.21473 20.9634 6.2025 20.7322C6.1866 20.4325 6.21106 20.1316 6.19638 19.832C6.18048 19.5091 6.30524 19.3513 6.63916 19.2975C7.51125 19.1592 8.37845 18.9929 9.24809 18.8351C9.91714 18.714 10.5862 18.588 11.3947 18.4376C9.28845 17.1582 7.32656 15.9644 5.28271 14.7205ZM6.05939 25.7042C6.05939 25.8045 6.07407 25.9072 6.05695 26.0039C5.97011 26.5127 6.1866 26.5457 6.62326 26.443C8.94108 25.8938 11.265 25.3715 13.5877 24.8456C14.6568 24.6034 14.6458 24.6095 14.6409 23.5087C14.6396 23.1784 14.5479 23.121 14.2336 23.1858C11.7873 23.6946 9.33615 24.1839 6.88745 24.6841C6.05817 24.8541 6.05939 24.8602 6.05939 25.7042ZM8.56681 9.65676C8.56436 9.64086 8.5717 9.57115 8.54234 9.54791C8.18519 9.26903 7.75465 9.1296 7.34001 8.98038C7.09783 8.89353 6.99998 9.19687 6.86421 9.34242C6.05695 10.2096 6.06062 10.2133 7.13208 10.6915C7.57974 10.8921 8.57904 10.1949 8.56681 9.65676ZM9.01936 23.3301C9.39853 23.2323 9.73734 23.2482 10.0541 23.0696C9.55265 22.6439 9.29579 22.7002 9.01936 23.3301Z" fill="white" stroke="white" stroke-width="0.2"/>
<path id="Vector_2" d="M30.5684 11.2444C30.588 11.4792 30.4547 11.6504 30.3067 11.8119C27.4653 14.9321 24.6228 18.0511 21.7851 21.1749C21.5858 21.3951 21.4158 21.4404 21.1418 21.2887C18.3861 19.7659 15.6242 18.2517 12.8588 16.746C12.5297 16.5674 12.5248 16.3717 12.7205 16.11C12.8098 15.9901 12.915 15.8812 13.0165 15.7712C15.4579 13.1206 17.9054 10.4775 20.3321 7.81472C20.6391 7.47713 20.8935 7.42454 21.3216 7.56887C24.1923 8.54003 27.0678 9.49285 29.9544 10.4163C30.4131 10.5655 30.5501 10.8285 30.5684 11.2444ZM22.1839 13.2136C22.0628 13.2552 21.9625 13.2748 21.8769 13.32C21.3448 13.6001 21.0195 14.093 20.6709 14.5493C20.5351 14.7278 20.6574 14.9186 20.8874 15.014C21.3326 15.2 21.7729 15.3957 22.2108 15.5999C22.4591 15.7161 22.6903 15.6562 22.859 15.4935C23.2064 15.1584 23.5281 14.7963 23.84 14.4282C23.955 14.2924 24.0577 14.0441 23.8608 13.945C23.3116 13.6698 22.7355 13.4509 22.1839 13.2136ZM23.7972 11.3606C23.6663 11.4022 23.5428 11.4058 23.4816 11.4682C23.0976 11.8608 22.7074 12.251 22.3637 12.6779C22.2096 12.8699 22.349 13.0411 22.5802 13.1292C23.0156 13.2956 23.4523 13.4631 23.873 13.6613C24.1825 13.8068 24.4467 13.7139 24.6546 13.5231C24.9861 13.2197 25.2784 12.8748 25.5756 12.536C25.7028 12.3904 25.786 12.1556 25.5817 12.0626C24.9922 11.7972 24.3769 11.5856 23.7972 11.3606ZM19.2092 19.399C19.2557 19.3745 19.3218 19.3574 19.3609 19.3158C19.7229 18.9268 20.107 18.555 20.4287 18.1342C20.5963 17.9153 20.6048 17.6438 20.244 17.5007C19.8746 17.3551 19.5113 17.1863 19.1652 16.9906C18.7921 16.779 18.5023 16.8977 18.2307 17.1545C18.0986 17.2793 17.9837 17.4224 17.8601 17.5582C17.1947 18.292 17.1947 18.292 18.0509 18.7617C18.4301 18.9696 18.8068 19.1776 19.2092 19.399ZM22.1827 16.0451C22.2389 15.891 22.1166 15.8128 21.9674 15.7479C21.6787 15.6219 21.3913 15.4923 21.1039 15.3639C20.2305 14.9761 20.2293 14.9774 19.5811 15.677C18.7359 16.587 18.7041 16.5356 19.8245 17.0408C20.902 17.5276 20.8213 17.7771 21.8133 16.6494C21.96 16.4806 22.1863 16.3558 22.1827 16.0451ZM25.7946 11.8767C26.1921 11.8327 26.4171 11.6517 26.6165 11.4132C26.8819 11.0951 27.162 10.7894 27.436 10.4787C27.0923 10.2059 26.6605 10.1497 26.263 10.0139C25.09 9.61394 25.0876 9.62005 24.2705 10.5557C24.1947 10.6426 24.1091 10.7294 24.0651 10.8322C24.0125 10.9545 23.9904 11.1428 24.1164 11.1979C24.6925 11.4511 25.2808 11.6725 25.7946 11.8767ZM19.9174 12.2816C19.7645 12.3305 19.6569 12.3427 19.5762 12.3953C19.1089 12.6987 18.7799 13.1451 18.4448 13.5744C18.3212 13.7334 18.4093 13.9218 18.6221 14.0123C18.9744 14.1615 19.3364 14.2961 19.6704 14.4783C20.0214 14.6703 20.3235 14.5835 20.5779 14.3511C20.8727 14.0832 21.1271 13.7701 21.3888 13.468C21.5295 13.3053 21.609 13.0424 21.4231 12.9421C20.9302 12.6779 20.3969 12.4858 19.9174 12.2816ZM21.5613 10.4897C21.4378 10.5227 21.3289 10.5276 21.2482 10.579C20.7761 10.8762 20.436 11.3129 20.1205 11.7556C19.9871 11.9428 20.1229 12.1238 20.3516 12.2106C20.7247 12.3513 21.099 12.4932 21.4573 12.6656C21.7631 12.8124 22.0249 12.7317 22.2365 12.5335C22.552 12.2388 22.837 11.911 23.1171 11.582C23.237 11.4413 23.3324 11.215 23.1135 11.1135C22.6034 10.8762 22.0689 10.6903 21.5613 10.4897ZM24.5702 14.2092C24.4332 14.2569 24.3292 14.2728 24.2473 14.3254C23.736 14.6532 23.3874 15.1449 23.0181 15.6073C22.9019 15.7528 22.9838 15.9485 23.2064 16.0378C23.6064 16.1993 24.0027 16.3729 24.3916 16.5589C24.5531 16.6371 24.6607 16.6261 24.7818 16.4904C25.2026 16.0195 25.6343 15.5571 26.0575 15.0874C26.115 15.0238 26.241 14.9162 26.1003 14.8526C25.5866 14.6214 25.0631 14.4147 24.5702 14.2092ZM22.7245 18.7042C22.6267 18.6455 22.5508 18.5917 22.4676 18.5513C22.1386 18.3936 21.7974 18.2578 21.4806 18.0792C21.1308 17.8823 20.8372 17.9667 20.5853 18.2199C20.2452 18.5611 19.937 18.9317 19.6031 19.2803C19.449 19.4418 19.4453 19.5372 19.6569 19.6473C20.0838 19.8674 20.5082 20.0974 20.9204 20.3444C21.1088 20.457 21.2127 20.3958 21.3375 20.2552C21.735 19.8087 22.1423 19.3708 22.5459 18.9293C22.601 18.8681 22.6474 18.8021 22.7245 18.7042ZM27.984 12.9788C27.4458 12.7708 26.9675 12.5923 26.4954 12.399C26.3596 12.344 26.2471 12.3489 26.1162 12.4027C25.4986 12.6559 25.1867 13.2258 24.7794 13.6955C24.7451 13.7359 24.7512 13.8264 24.7622 13.8888C24.8087 14.1517 26.3547 14.7401 26.537 14.5505C27.0177 14.0514 27.4776 13.5316 27.984 12.9788ZM19.8147 15.0092C19.8624 14.8294 19.7352 14.7621 19.586 14.6997C19.2349 14.5493 18.8778 14.4098 18.5414 14.2312C18.2442 14.0722 17.969 14.1346 17.7549 14.3181C17.454 14.5749 17.1923 14.8832 16.9403 15.1914C16.807 15.3553 16.7752 15.5865 17.0015 15.7051C17.4418 15.9351 17.8931 16.1516 18.3555 16.3338C18.5891 16.4255 18.8093 16.2837 18.9781 16.1112C19.2092 15.8727 19.4282 15.6219 19.6557 15.3798C19.7523 15.2758 19.8184 15.1669 19.8147 15.0092ZM18.1757 16.7509C18.2283 16.5784 18.1035 16.4904 17.9323 16.417C17.6571 16.2971 17.3758 16.1858 17.1214 16.0292C16.6505 15.7394 16.2823 15.8421 15.9484 16.2519C15.7074 16.5479 15.2231 16.8512 15.25 17.1093C15.2854 17.4505 15.8469 17.5447 16.1844 17.738C17.0504 18.2321 17.0614 18.2284 17.7231 17.4787C17.9042 17.2732 18.183 17.1227 18.1757 16.7509ZM22.8505 16.143C22.7465 16.1785 22.6658 16.2005 22.5887 16.2323C22.0212 16.4683 21.7142 16.9796 21.3583 17.4297C21.2286 17.5936 21.3436 17.7661 21.5527 17.8566C21.9331 18.0229 22.3086 18.2015 22.6805 18.3874C22.8542 18.4743 22.9814 18.4682 23.1171 18.314C23.4914 17.8896 23.8804 17.4774 24.2595 17.0579C24.3305 16.9784 24.4662 16.8708 24.2877 16.7864C23.807 16.5564 23.3177 16.3497 22.8505 16.143ZM29.6572 11.1453C29.0175 10.9288 28.4708 10.7331 27.9155 10.5606C27.5938 10.4603 26.4135 11.6712 26.4881 12.0088C26.5517 12.2938 28.1246 12.8124 28.3252 12.6008C28.7606 12.1421 29.1789 11.67 29.6572 11.1453ZM17.777 13.6344C18.1659 13.6441 19.2692 12.5812 19.2826 12.2412C19.2838 12.2082 19.2887 12.1739 19.2814 12.1421C19.2276 11.9098 17.7696 11.3532 17.5751 11.4902C17.5482 11.5086 17.5274 11.5355 17.5042 11.5599C17.1446 11.9513 16.7838 12.3415 16.4291 12.7366C16.3618 12.8124 16.2016 12.9225 16.3765 13.0081C16.851 13.2417 17.3415 13.4423 17.777 13.6344ZM24.9518 9.57725C24.5237 9.43292 24.1653 9.31183 23.807 9.19074C22.7049 8.82135 22.7049 8.82135 21.9368 9.71301C21.6163 10.0848 21.653 10.2585 22.0958 10.4371C22.3881 10.5545 22.6915 10.6487 22.974 10.7857C23.4009 10.9936 23.7532 10.8444 24.054 10.5619C24.3537 10.2793 24.613 9.95275 24.9518 9.57725ZM17.8675 11.171C18.3347 11.3679 18.753 11.5232 19.1517 11.7189C19.4906 11.8841 19.7743 11.7874 20.0153 11.5685C20.2966 11.3116 20.5461 11.0193 20.7944 10.7307C20.9277 10.5753 21.0427 10.3393 20.8091 10.2243C20.3504 9.998 19.8599 9.83533 19.3805 9.65308C19.2887 9.61883 19.2288 9.69834 19.1725 9.75827C18.7457 10.2182 18.3212 10.6793 17.8675 11.171ZM16.2113 15.3382C16.6419 15.3247 17.5813 14.4025 17.5984 14.0612C17.5996 14.0441 17.6057 14.0258 17.5996 14.0123C17.3635 13.4827 16.7691 13.5512 16.374 13.2845C16.226 13.1855 16.0634 13.1084 15.8933 13.3066C15.568 13.6857 15.2182 14.0441 14.883 14.4135C14.8109 14.493 14.6775 14.6031 14.8476 14.6899C15.3209 14.9284 15.804 15.1461 16.2113 15.3382ZM16.0548 15.754C16.0903 15.5583 15.9655 15.4874 15.8187 15.4214C15.5753 15.3125 15.3172 15.222 15.1007 15.074C14.6714 14.7804 14.3975 14.8917 14.0684 15.2734C13.2991 16.1675 13.2771 16.1491 14.3143 16.7166C14.9882 17.086 14.9956 17.0921 15.5105 16.505C15.7135 16.2726 16.0022 16.0941 16.0548 15.754ZM22.5802 8.77977C21.9674 8.57428 21.4463 8.40427 20.9277 8.22447C20.7565 8.16453 20.6219 8.15964 20.4874 8.31742C20.2293 8.62198 19.9541 8.91309 19.6765 9.1993C19.504 9.37665 19.5395 9.46227 19.7645 9.53933C20.0948 9.65308 20.425 9.7705 20.7381 9.92339C21.0929 10.0971 21.4072 9.998 21.6592 9.77417C21.9796 9.4904 22.245 9.14793 22.5802 8.77977Z" fill="white" stroke="white" stroke-width="0.2"/>
</g>
</svg>
