<svg width="56" height="47" viewBox="0 0 56 47" fill="none" xmlns="http://www.w3.org/2000/svg">
<g id="Group">
<path id="Vector" d="M55 21.2082C54.3298 21.9651 53.6624 22.7237 52.9894 23.4758C52.4998 24.0234 52.2274 24.0234 51.7435 23.4822C51.5304 23.2439 51.3174 23.0055 51.1114 22.7591C50.7812 22.3613 50.7431 21.883 51.0352 21.5947C51.3724 21.2613 51.7082 21.3274 52.0172 21.6688C52.1174 21.7799 52.2204 21.8862 52.3714 22.0473C52.6931 21.6446 53.0063 21.2533 53.3421 20.8313C53.2617 20.7299 53.1601 20.5978 53.0543 20.469C52.7636 20.1114 52.686 19.7137 53.0035 19.3513C53.3153 18.9954 53.6737 19.0469 53.9813 19.3948C54.3284 19.7877 54.66 20.2 54.9986 20.6026C55 20.8056 55 21.0069 55 21.2082Z" fill="white" stroke="white" stroke-width="0.2"/>
<path id="Vector_2" d="M42.0852 44.472C43.9534 44.472 45.7566 44.472 47.6375 44.472C47.6375 44.1966 47.6375 43.9437 47.6375 43.6893C47.6375 37.6515 47.6375 31.6137 47.6375 25.5759C47.6375 24.6692 47.8209 24.3069 48.2865 24.2908C48.7691 24.2747 48.9737 24.6596 48.9737 25.5904C48.9737 31.9906 48.9737 38.3907 48.9737 44.7909C48.9737 45.8087 48.8128 45.9987 47.9422 45.9987C41.0609 46.0004 34.1809 46.0004 27.2996 45.9987C26.3867 45.9987 26.2597 45.8538 26.2597 44.8118C26.2597 38.3714 26.2597 31.931 26.2597 25.4906C26.2597 25.2893 26.2018 25.03 26.2879 24.8995C26.4516 24.6564 26.6999 24.3359 26.913 24.3359C27.1246 24.3359 27.3786 24.6596 27.5296 24.9076C27.6227 25.059 27.5606 25.3376 27.5606 25.5582C27.562 31.596 27.5606 37.6338 27.5606 43.6716C27.5606 43.9115 27.5606 44.1531 27.5606 44.4478C29.4203 44.4478 31.2531 44.4478 33.1453 44.4478C33.1453 44.2272 33.1453 44.0114 33.1453 43.7972C33.1453 40.7179 33.1283 37.6386 33.1509 34.5593C33.1721 31.5525 35.2406 29.3139 37.8495 29.4234C40.2425 29.5249 42.0669 31.7973 42.081 34.7365C42.0951 37.7353 42.0838 40.734 42.0838 43.7328C42.0852 43.9695 42.0852 44.2046 42.0852 44.472ZM40.7378 44.4704C40.7378 40.9933 40.7589 37.5774 40.7251 34.1615C40.7152 33.2001 40.2891 32.3852 39.6316 31.7748C38.6453 30.86 37.5334 30.6587 36.3708 31.2353C35.1884 31.8215 34.5111 32.8973 34.497 34.3838C34.4645 37.6193 34.4829 40.8564 34.4829 44.0919C34.4829 44.2079 34.5055 44.3238 34.5196 44.4704C36.5895 44.4704 38.6354 44.4704 40.7378 44.4704Z" fill="white" stroke="white" stroke-width="0.2"/>
<path id="Vector_3" d="M6.31832 44.504C6.58641 44.504 6.79382 44.504 6.99983 44.504C12.3658 44.504 17.7318 44.504 23.0963 44.504C23.2543 44.504 23.4138 44.5008 23.5718 44.5089C23.9937 44.5298 24.242 44.7988 24.2378 45.2642C24.235 45.699 23.9993 45.9632 23.6014 45.9905C23.4617 46.0002 23.3206 45.9986 23.1796 45.9986C17.4792 45.9986 11.7802 45.9986 6.07987 45.9986C5.14015 45.9986 5.01175 45.852 5.01175 44.7827C5.01175 39.3504 5.01175 33.9182 5.01175 28.486C5.01175 28.3459 5.01034 28.2041 5.01599 28.064C5.03574 27.5809 5.26855 27.299 5.68197 27.3135C6.09398 27.328 6.30986 27.6276 6.31832 28.1059C6.32114 28.2669 6.31973 28.428 6.31973 28.589C6.31973 33.6186 6.31973 38.6482 6.31973 43.6778C6.31832 43.9178 6.31832 44.1594 6.31832 44.504Z" fill="white" stroke="white" stroke-width="0.2"/>
<path id="Vector_4" d="M11.4331 34.311C11.4331 33.0242 11.4275 31.7375 11.4345 30.4507C11.4388 29.6341 11.6349 29.4183 12.3502 29.4167C14.6177 29.4135 16.8851 29.4135 19.154 29.4167C19.8186 29.4183 20.0359 29.6664 20.0373 30.4281C20.0401 33.021 20.0401 35.6155 20.0373 38.2085C20.0359 39.0105 19.8355 39.2408 19.1215 39.2424C16.8541 39.2472 14.5866 39.2472 12.3178 39.2424C11.6349 39.2408 11.4402 39.0153 11.4359 38.231C11.4275 36.9249 11.4331 35.6188 11.4331 34.311ZM12.7679 37.7108C14.7616 37.7108 16.7045 37.7108 18.6785 37.7108C18.6785 35.4513 18.6785 33.2272 18.6785 30.9709C16.6961 30.9709 14.739 30.9709 12.7679 30.9709C12.7679 33.2304 12.7679 35.4416 12.7679 37.7108Z" fill="white" stroke="white" stroke-width="0.2"/>
<path id="Vector_5" d="M3.17887 24.5241C2.13192 24.537 2.13192 24.537 1.75942 23.4435C1.51109 22.7139 1.22748 21.9972 1.03136 21.25C0.959399 20.9746 1.01584 20.5671 1.15411 20.3255C1.37141 19.9471 1.69452 19.6427 1.99506 19.3351C2.28008 19.042 2.61589 19.0194 2.8995 19.3222C3.20568 19.6491 3.17887 20.0276 2.92348 20.398C2.7457 20.6557 2.40424 20.9633 2.44093 21.1791C2.54534 21.7782 2.76687 22.3709 3.03636 22.9007C3.11397 23.0521 3.51469 22.9974 3.76866 23.0215C4.29637 23.0714 4.62936 23.5578 4.40643 24.0377C4.30766 24.2503 4.06638 24.4243 3.85614 24.5048C3.65296 24.5853 3.40745 24.5241 3.17887 24.5241Z" fill="white" stroke="white" stroke-width="0.2"/>
<path id="Vector_6" d="M37.5405 2.77585C37.1299 3.28477 36.7377 3.79691 36.3186 4.28006C35.9306 4.72778 35.5496 4.7616 35.2674 4.38635C34.9514 3.9644 35.0628 3.57949 35.3803 3.22196C35.9433 2.58742 36.495 1.93839 37.0608 1.30707C37.4234 0.902835 37.7522 0.899614 38.1218 1.28613C38.3815 1.5567 38.6256 1.8482 38.8711 2.13487C39.1674 2.48113 39.2478 2.86282 38.9501 3.25739C38.6933 3.59721 38.2855 3.56339 37.9285 3.19297C37.8269 3.08829 37.7268 2.97716 37.5405 2.77585Z" fill="white" stroke="white" stroke-width="0.2"/>
<path id="Vector_7" d="M34.2952 10.9153C34.195 11.1601 34.1598 11.3534 34.0582 11.4741C33.4275 12.2295 32.7911 12.9784 32.1392 13.7111C31.8627 14.022 31.5297 14.0332 31.2433 13.7208C30.9385 13.389 30.9399 12.9977 31.2249 12.653C31.8415 11.909 32.4553 11.1601 33.1156 10.4708C33.2793 10.3001 33.6405 10.255 33.8663 10.3275C34.0469 10.3854 34.1598 10.714 34.2952 10.9153Z" fill="white" stroke="white" stroke-width="0.2"/>
<path id="Vector_8" d="M29.2708 16.8486C29.1127 17.1272 29.0168 17.3656 28.8672 17.546C28.3254 18.2014 27.7638 18.8344 27.2121 19.4802C26.9031 19.8441 26.5645 19.9714 26.1962 19.6171C25.8675 19.3014 25.8985 18.8682 26.2781 18.4172C26.8481 17.7376 27.4069 17.0419 28.0206 16.4154C28.1998 16.2318 28.5653 16.169 28.8122 16.2286C28.9857 16.2704 29.1057 16.6103 29.2708 16.8486Z" fill="white" stroke="white" stroke-width="0.2"/>
<path id="Vector_9" d="M9.26443 24.5338C8.86089 24.5338 8.45594 24.5483 8.0524 24.529C7.62628 24.5096 7.34127 24.2745 7.3582 23.7479C7.37372 23.2583 7.64745 23.0344 8.0524 23.028C8.84255 23.0167 9.63411 23.0199 10.4243 23.0264C10.8574 23.0296 11.1481 23.2744 11.1509 23.7785C11.1537 24.2906 10.849 24.5193 10.4228 24.5322C10.0377 24.5435 9.65104 24.5338 9.26443 24.5338Z" fill="white" stroke="white" stroke-width="0.2"/>
<path id="Vector_10" d="M15.9511 23.0264C16.3546 23.0264 16.7596 23.0103 17.1631 23.0313C17.5709 23.0522 17.8263 23.3002 17.8277 23.7866C17.8291 24.2456 17.5836 24.5081 17.2026 24.5194C16.3603 24.5451 15.5165 24.5483 14.6741 24.521C14.2678 24.5081 14.0124 24.223 14.0321 23.7415C14.0505 23.297 14.3016 23.0506 14.6868 23.0313C15.1087 23.0103 15.5306 23.0264 15.9511 23.0264Z" fill="white" stroke="white" stroke-width="0.2"/>
<path id="Vector_11" d="M21.9661 24.5159C21.7389 24.5159 21.5075 24.5417 21.2832 24.5095C20.9163 24.458 20.6581 24.1584 20.7329 23.7816C20.7893 23.4981 21.0871 23.271 21.2959 23.0407C21.3424 22.9892 21.468 23.0101 21.5527 23.0262C22.1058 23.1293 22.5121 22.8958 22.8719 22.4062C23.2064 21.9504 23.6409 21.9182 23.9245 22.2339C24.2237 22.5672 24.187 22.9892 23.8159 23.4498C22.9383 24.5369 22.9383 24.5369 21.9661 24.5159Z" fill="white" stroke="white" stroke-width="0.2"/>
<path id="Vector_12" d="M46.513 15.623C46.7359 15.776 46.9221 15.8566 47.0534 16.0015C47.6333 16.6409 48.2047 17.2931 48.7677 17.9551C49.1219 18.3706 49.1402 18.7925 48.8495 19.1194C48.5673 19.4383 48.185 19.4061 47.8308 19.0083C47.2424 18.348 46.6414 17.699 46.0995 16.992C45.9514 16.7987 45.9119 16.388 45.9768 16.1271C46.0262 15.9226 46.3154 15.797 46.513 15.623Z" fill="white" stroke="white" stroke-width="0.2"/>
<path id="Vector_13" d="M41.559 9.96045C41.7918 10.1247 41.9894 10.2165 42.1319 10.3727C42.7033 10.9992 43.2621 11.6402 43.8137 12.2892C44.1707 12.7096 44.1877 13.1235 43.8899 13.4536C43.5965 13.7806 43.2381 13.7484 42.8712 13.3361C42.2941 12.6886 41.7043 12.0509 41.171 11.3584C41.0186 11.1603 40.9607 10.7593 41.0172 10.4967C41.0595 10.2906 41.3488 10.1553 41.559 9.96045Z" fill="white" stroke="white" stroke-width="0.2"/>
<path id="Vector_14" d="M37.6238 7.36571C37.4615 7.53642 37.3176 7.70875 37.1539 7.85369C36.8618 8.11137 36.5556 8.09527 36.2946 7.80377C36.0336 7.51227 35.9983 7.14507 36.2339 6.82458C36.5274 6.42518 36.8505 6.04832 37.1892 5.70045C37.4812 5.4009 37.8072 5.44438 38.0908 5.74876C38.3603 6.03865 38.6241 6.33338 38.8767 6.64259C39.2224 7.06616 39.2422 7.49294 38.9289 7.80538C38.5832 8.14841 38.2545 8.05984 37.9511 7.71036C37.8537 7.59923 37.7465 7.49455 37.6238 7.36571Z" fill="white" stroke="white" stroke-width="0.2"/>
<path id="Vector_15" d="M20.2023 1.94652C20.0373 2.09468 19.8298 2.42967 19.59 2.4651C18.9212 2.56334 18.3441 2.80492 17.8361 3.32028C17.5511 3.60856 17.204 3.5844 16.9416 3.25586C16.658 2.90155 16.6989 2.51341 16.9938 2.18809C17.6922 1.41666 18.5247 1.00759 19.5039 1.01726C19.9314 1.01887 20.129 1.2991 20.2023 1.94652Z" fill="white" stroke="white" stroke-width="0.2"/>
<path id="Vector_16" d="M24.695 2.49726C24.3083 2.49726 23.9217 2.51175 23.5351 2.49243C23.1189 2.47149 22.8776 2.20576 22.8903 1.72261C22.9016 1.26844 23.1457 1.02204 23.5351 1.0156C24.3436 1.00271 25.1521 0.99949 25.9592 1.01882C26.3514 1.02848 26.5814 1.30388 26.5814 1.7516C26.5814 2.19932 26.3514 2.46666 25.9606 2.4876C25.5401 2.51175 25.1168 2.49243 24.6964 2.49243C24.695 2.49565 24.695 2.49565 24.695 2.49726Z" fill="white" stroke="white" stroke-width="0.2"/>
<path id="Vector_17" d="M31.1389 2.49872C30.7692 2.49872 30.4009 2.50194 30.0312 2.49711C29.5953 2.49228 29.3173 2.26037 29.3215 1.74018C29.3243 1.25219 29.5896 1.01545 30.0016 1.01223C30.7748 1.00418 31.548 1.00579 32.3213 1.01062C32.7389 1.01384 33.0056 1.26508 33.0112 1.73534C33.0169 2.23943 32.7389 2.49389 32.2987 2.49872C31.9121 2.50194 31.5255 2.49872 31.1389 2.49872Z" fill="white" stroke="white" stroke-width="0.2"/>
<path id="Vector_18" d="M11.4627 10.376C11.3202 10.6466 11.2412 10.8753 11.1044 11.0411C10.6571 11.5807 10.1943 12.1041 9.72582 12.621C9.3632 13.0205 8.98506 13.0478 8.70145 12.7209C8.42631 12.4036 8.45594 11.9527 8.79881 11.5501C9.26584 11.0025 9.71877 10.4356 10.2281 9.94439C10.4059 9.77368 10.753 9.70764 10.9844 9.77206C11.165 9.82038 11.2906 10.1441 11.4627 10.376Z" fill="white" stroke="white" stroke-width="0.2"/>
<path id="Vector_19" d="M4.29785 16.9451C4.44177 16.6777 4.52361 16.4523 4.65906 16.288C5.10634 15.7485 5.56773 15.2251 6.03477 14.7081C6.38046 14.3248 6.79247 14.2942 7.05491 14.6292C7.35968 15.0189 7.2849 15.4054 6.98859 15.7517C6.50886 16.3105 6.04324 16.8919 5.52258 17.396C5.34762 17.5651 4.99911 17.6231 4.76912 17.5571C4.58992 17.5055 4.46999 17.1818 4.29785 16.9451Z" fill="white" stroke="white" stroke-width="0.2"/>
<path id="Vector_20" d="M14.9126 4.90674C15.072 5.05168 15.3204 5.16925 15.3881 5.36895C15.4643 5.5912 15.4685 5.97772 15.3472 6.13555C14.8265 6.81035 14.2635 7.4465 13.6836 8.05527C13.4226 8.32906 13.0388 8.31617 12.8469 7.97797C12.7143 7.74445 12.6508 7.24519 12.775 7.07609C13.2914 6.3723 13.8854 5.7442 14.4653 5.10322C14.5556 5.00337 14.7179 4.98887 14.9126 4.90674Z" fill="white" stroke="white" stroke-width="0.2"/>
<path id="Vector_21" d="M41.0369 4.85693C41.2698 5.02282 41.4673 5.11622 41.6126 5.27405C42.0839 5.78458 42.5439 6.30961 42.994 6.84429C43.3425 7.25819 43.3665 7.70108 43.0561 8.00386C42.7188 8.33401 42.3802 8.27281 42.074 7.92494C41.5886 7.37254 41.0793 6.84591 40.6376 6.25002C40.4895 6.05032 40.4387 5.6493 40.4994 5.3884C40.5459 5.18064 40.8324 5.04536 41.0369 4.85693Z" fill="white" stroke="white" stroke-width="0.2"/>
<path id="Vector_22" d="M51.5882 16.9822C51.4514 17.1754 51.3385 17.4718 51.1522 17.5571C50.9618 17.6441 50.6245 17.6215 50.482 17.4782C49.9035 16.8968 49.3603 16.2639 48.834 15.6197C48.5885 15.3201 48.5744 14.8821 48.8721 14.663C49.0866 14.5036 49.5437 14.4247 49.7032 14.5745C50.3099 15.1446 50.8446 15.8162 51.3935 16.4636C51.481 16.5683 51.5036 16.7486 51.5882 16.9822Z" fill="white" stroke="white" stroke-width="0.2"/>
<path id="Vector_23" d="M46.798 13.0396C46.5637 12.885 46.3592 12.8013 46.2152 12.645C45.7299 12.1216 45.2628 11.574 44.7944 11.0313C44.4938 10.6834 44.4134 10.2856 44.7309 9.91362C45.0441 9.54642 45.4011 9.60279 45.7101 9.94583C46.2152 10.5047 46.7302 11.0571 47.1874 11.6626C47.3285 11.8494 47.3835 12.2327 47.3229 12.4759C47.2678 12.6917 46.9997 12.8367 46.798 13.0396Z" fill="white" stroke="white" stroke-width="0.2"/>
<path id="Vector_24" d="M30.6846 8.85412C30.8186 8.59644 30.8878 8.38547 31.0147 8.23408C31.4634 7.69456 31.9305 7.17598 32.389 6.64773C32.691 6.30148 33.0212 6.20646 33.3697 6.53822C33.6773 6.83133 33.6617 7.30482 33.3259 7.70422C32.8631 8.25502 32.406 8.8203 31.8952 9.30829C31.7202 9.47578 31.3703 9.53054 31.1403 9.46128C30.9611 9.40653 30.8454 9.0812 30.6846 8.85412Z" fill="white" stroke="white" stroke-width="0.2"/>
<path id="Vector_25" d="M27.0329 14.5581C26.8862 14.4389 26.6167 14.3342 26.5546 14.1426C26.477 13.8994 26.4713 13.4919 26.6012 13.3196C27.1035 12.6561 27.6453 12.0215 28.2337 11.4611C28.3917 11.3097 28.8559 11.3354 29.0153 11.4949C29.1762 11.6559 29.2736 12.2164 29.1593 12.371C28.6189 13.0989 27.9994 13.7512 27.3984 14.4196C27.3335 14.492 27.2051 14.4953 27.0329 14.5581Z" fill="white" stroke="white" stroke-width="0.2"/>
<path id="Vector_26" d="M25.0166 16.9791C24.8784 17.2319 24.8036 17.4397 24.6766 17.5911C24.242 18.1129 23.7947 18.6218 23.3418 19.1227C22.9806 19.5221 22.5658 19.5462 22.2737 19.208C22.0014 18.894 22.0479 18.4817 22.4176 18.0533C22.8847 17.5121 23.3333 16.9436 23.8441 16.4589C24.0148 16.2962 24.3761 16.2656 24.6004 16.3494C24.7754 16.4154 24.8741 16.7504 25.0166 16.9791Z" fill="white" stroke="white" stroke-width="0.2"/>
<path id="Vector_27" d="M18.512 21.6013C18.1438 21.6013 17.7755 21.619 17.4072 21.5964C17.0121 21.5723 16.7864 21.2904 16.792 20.854C16.7977 20.4192 17.0291 20.1341 17.4213 20.1244C18.1579 20.1051 18.8944 20.1019 19.6309 20.1277C20.0204 20.1405 20.2475 20.4256 20.2433 20.8701C20.2391 21.3162 20.0048 21.5755 19.6154 21.598C19.2486 21.619 18.8789 21.6029 18.5106 21.6029C18.512 21.6029 18.512 21.6013 18.512 21.6013Z" fill="white" stroke="white" stroke-width="0.2"/>
<path id="Vector_28" d="M6.25902 21.6076C5.92462 21.6076 5.59022 21.614 5.25723 21.6059C4.84099 21.5947 4.57995 21.3483 4.58137 20.8683C4.58137 20.3932 4.83252 20.1275 5.25158 20.1211C5.95425 20.1114 6.65833 20.1082 7.36241 20.1227C7.75184 20.1307 7.99453 20.3739 8.01005 20.8297C8.02557 21.3161 7.78288 21.5786 7.36805 21.6011C6.99979 21.622 6.63011 21.6059 6.26043 21.6059C6.25902 21.6059 6.25902 21.6059 6.25902 21.6076Z" fill="white" stroke="white" stroke-width="0.2"/>
<path id="Vector_29" d="M12.401 21.6046C12.0497 21.6046 11.6984 21.6159 11.347 21.6014C10.9251 21.5853 10.6839 21.3083 10.6951 20.838C10.705 20.4015 10.9421 20.1294 11.3371 20.1213C12.0567 20.1084 12.7778 20.102 13.4974 20.1245C13.8868 20.1358 14.1182 20.4064 14.1224 20.8557C14.1252 21.3067 13.8967 21.5692 13.5072 21.5949C13.1404 21.6191 12.7707 21.5998 12.401 21.5998C12.401 21.603 12.401 21.6046 12.401 21.6046Z" fill="white" stroke="white" stroke-width="0.2"/>
</g>
</svg>
