<svg width="48" height="48" viewBox="0 0 48 48" fill="none" xmlns="http://www.w3.org/2000/svg">
<g id="Group">
<path id="Vector" d="M7.43423 33.8588C7.33362 34.0002 7.24957 34.1581 7.12859 34.2791C5.50358 35.9117 3.8722 37.538 2.24592 39.1694C1.95555 39.4597 1.66519 39.7335 1.20927 39.5489C0.732977 39.3566 0.717695 38.9478 0.718968 38.5161C0.726609 36.6898 0.73043 34.8623 0.715148 33.0361C0.711327 32.626 0.828491 32.314 1.12267 32.0211C8.63134 24.5226 16.1336 17.0178 23.6372 9.51549C24.1937 8.95896 24.5299 8.95769 25.0865 9.51295C26.9866 11.4105 28.8828 13.3093 30.7829 15.2068C30.9014 15.3253 31.0274 15.4374 31.2261 15.6246C31.2261 14.8235 31.2261 14.1167 31.2261 13.4099C31.2261 12.6 31.2172 11.79 31.2312 10.98C31.2363 10.7177 31.1688 10.6107 30.8886 10.626C30.5091 10.6476 30.1258 10.6413 29.745 10.6273C29.2381 10.6082 28.949 10.3254 28.9427 9.81732C28.9299 8.83289 28.9299 7.84718 28.9427 6.86275C28.949 6.35589 29.242 6.07699 29.7501 6.05789C30.0838 6.04516 30.4212 6.02478 30.7498 6.06171C31.1662 6.10883 31.2414 5.93945 31.2337 5.5574C31.2095 4.27114 31.2223 2.98362 31.2248 1.69736C31.2261 0.977825 31.4834 0.716754 32.1952 0.716754C34.5946 0.714207 36.9926 0.714207 39.3919 0.716754C40.1102 0.716754 40.3725 0.976552 40.3751 1.68718C40.3789 3.00527 40.3878 4.32463 40.3674 5.64272C40.3623 5.98021 40.4578 6.08845 40.7915 6.06171C41.1392 6.03369 41.4907 6.04643 41.8396 6.05789C42.3516 6.07445 42.6508 6.3508 42.6572 6.85257C42.6712 7.85355 42.6725 8.85454 42.6559 9.85425C42.6483 10.328 42.3465 10.6069 41.8638 10.626C41.4996 10.64 41.1315 10.6489 40.7686 10.6247C40.4604 10.6044 40.3623 10.6999 40.3674 11.017C40.3852 12.2561 40.3751 13.4952 40.3751 14.7344C40.3751 17.9436 40.3789 21.1516 40.3687 24.3609C40.3674 24.6691 40.4502 24.8894 40.6731 25.1097C42.973 27.3931 45.2565 29.6918 47.5577 31.974C47.8748 32.2885 48.0136 32.6197 48.0098 33.0692C47.992 34.912 47.9983 36.7548 48.0047 38.5976C48.006 39.0038 47.9499 39.3642 47.5271 39.5438C47.098 39.7259 46.805 39.4979 46.5211 39.2139C44.7598 37.4488 42.9947 35.6876 41.2232 33.9174C41.0666 34.0766 41.1417 34.2587 41.1417 34.4179C41.1366 38.5797 41.1379 42.7416 41.1379 46.9034C41.1379 47.7771 40.915 47.9987 40.0401 47.9987C38.6902 47.9999 37.339 48.0012 35.9891 47.9974C35.3065 47.9949 35.0377 47.7287 35.0377 47.0435C35.0352 43.4688 35.0275 39.8953 35.0479 36.3205C35.0505 35.8684 34.9117 35.7869 34.4952 35.7869C27.7277 35.7996 20.9603 35.7996 14.1941 35.7856C13.7776 35.7844 13.6706 35.8811 13.6732 36.304C13.6923 39.8469 13.6847 43.3885 13.6834 46.9315C13.6834 47.7694 13.4516 47.9974 12.6047 47.9974C11.2548 47.9987 9.90358 47.9999 8.55365 47.9961C7.84303 47.9949 7.58323 47.7325 7.58323 47.013C7.58196 42.8346 7.58196 38.6574 7.58196 34.479C7.58196 34.3071 7.58196 34.1339 7.58196 33.962C7.53484 33.9288 7.4839 33.8945 7.43423 33.8588ZM2.24719 36.8719C2.29558 36.9025 2.3427 36.9331 2.3911 36.9636C2.4968 36.8248 2.58722 36.6707 2.7082 36.5485C9.63742 29.6154 16.5679 22.6837 23.4997 15.7532C24.2409 15.012 24.4854 15.0095 25.2202 15.7443C32.1519 22.6748 39.0824 29.6065 46.0142 36.537C46.1428 36.6644 46.2791 36.7841 46.479 36.9713C46.479 35.7665 46.4663 34.6598 46.4867 33.5532C46.493 33.2106 46.3963 32.9686 46.1492 32.7215C39.0086 25.5949 31.8743 18.462 24.7503 11.3201C24.4484 11.017 24.2918 11.003 23.9823 11.3162C19.9835 15.338 15.9694 19.3445 11.959 23.3548C8.82491 26.4889 5.68951 29.6231 2.55793 32.7585C2.41784 32.8986 2.2421 33.0081 2.24464 33.2602C2.25356 34.4637 2.24719 35.6685 2.24719 36.8719ZM22.0746 19.3496C19.2767 22.145 16.5717 24.8487 13.8604 27.5472C13.705 27.7013 13.6834 27.8643 13.6834 28.0592C13.6872 28.9634 13.7076 29.8701 13.6745 30.7731C13.6592 31.1742 13.8095 31.2303 14.1597 31.229C16.6354 31.215 19.1124 31.2124 21.5881 31.2315C21.9842 31.2341 22.0848 31.1347 22.0835 30.7374C22.067 27.1181 22.0733 23.4987 22.0733 19.8794C22.0746 19.7406 22.0746 19.603 22.0746 19.3496ZM26.7255 19.4031C26.6822 19.4859 26.6567 19.5113 26.6567 19.5368C26.6529 23.3306 26.6542 27.1257 26.6453 30.9195C26.644 31.192 26.7611 31.2239 26.9866 31.2239C29.5591 31.2188 32.1303 31.2162 34.7028 31.2264C34.9792 31.2277 35.0492 31.1373 35.0454 30.8737C35.0314 29.9211 35.0301 28.9685 35.0467 28.0159C35.0517 27.7586 34.9282 27.6109 34.7678 27.4492C33.3058 25.9923 31.8476 24.5315 30.3894 23.0721C29.177 21.861 27.9672 20.6473 26.7255 19.4031ZM38.8354 23.1638C38.8417 23.0988 38.8519 23.0428 38.8519 22.9855C38.8532 18.9841 38.8494 14.984 38.8608 10.9839C38.8621 10.6693 38.7449 10.6247 38.4737 10.626C36.7111 10.6362 34.9486 10.6426 33.1873 10.6222C32.8256 10.6184 32.7403 10.719 32.7441 11.0717C32.762 12.9769 32.7581 14.8821 32.7467 16.7873C32.7454 17.0624 32.8244 17.2559 33.0205 17.4521C34.8569 19.2745 36.6831 21.1083 38.5144 22.9371C38.5985 23.0186 38.6609 23.1396 38.8354 23.1638ZM12.1603 29.2499C11.1249 30.2866 10.185 31.2303 9.24008 32.1688C9.12546 32.2835 9.10891 32.4095 9.10891 32.556C9.11018 37.0833 9.11273 41.612 9.10381 46.1393C9.10381 46.4221 9.20187 46.4832 9.4604 46.4781C10.1914 46.4628 10.9237 46.445 11.6521 46.4845C12.08 46.5074 12.1704 46.3775 12.1704 45.9623C12.1552 40.5766 12.1603 35.1909 12.1603 29.8052C12.1603 29.6651 12.1603 29.5263 12.1603 29.2499ZM36.6271 29.3187C36.5902 29.4066 36.5685 29.4333 36.5685 29.4601C36.566 35.0304 36.5672 40.5995 36.5583 46.1699C36.5583 46.4399 36.6691 46.4794 36.8971 46.4768C37.6739 46.4666 38.452 46.4577 39.2302 46.4806C39.5511 46.4908 39.6211 46.38 39.6199 46.0782C39.6109 41.5878 39.6135 37.0961 39.6148 32.6057C39.6148 32.4261 39.5957 32.2771 39.4518 32.1357C38.5157 31.2124 37.5873 30.2789 36.6271 29.3187ZM24.3402 34.2714C27.58 34.2714 30.8198 34.2714 34.0584 34.2714C35.0403 34.2714 35.0174 34.2701 35.0492 33.2806C35.0632 32.8489 34.946 32.7343 34.508 32.7356C27.9175 32.7508 21.327 32.7457 14.7366 32.7457C13.6796 32.7457 13.6961 32.7457 13.6757 33.8079C13.6681 34.1785 13.7662 34.2816 14.1444 34.2803C17.5434 34.265 20.9424 34.2714 24.3402 34.2714ZM35.8031 6.05407C36.692 6.05407 37.581 6.04643 38.4686 6.05916C38.7348 6.06298 38.8659 6.02605 38.8596 5.70513C38.8379 4.65829 38.8456 3.61019 38.8557 2.56336C38.8583 2.31884 38.7921 2.23479 38.5374 2.23606C36.7124 2.24625 34.8875 2.24625 33.0625 2.23606C32.804 2.23479 32.7441 2.32648 32.7467 2.5659C32.7569 3.61273 32.7645 4.66084 32.7429 5.70767C32.7365 6.03242 32.874 6.06171 33.1364 6.05789C34.0253 6.0477 34.9142 6.05407 35.8031 6.05407ZM25.1247 24.5048C25.1247 22.4251 25.1005 20.3455 25.1412 18.2671C25.1527 17.6915 24.749 17.4826 24.4599 17.1528C24.3988 17.084 24.316 17.0967 24.2523 17.1642C23.939 17.4992 23.5786 17.7475 23.5837 18.3333C23.6181 22.2698 23.6015 26.205 23.6015 30.1414C23.6015 31.2277 23.6015 31.2061 24.6828 31.2315C25.0903 31.2404 25.1361 31.0851 25.1336 30.7412C25.1183 28.6641 25.1247 26.5845 25.1247 24.5048ZM35.7509 9.10542C37.1951 9.10542 38.6405 9.10542 40.0847 9.10542C41.1455 9.10542 41.1213 9.10415 41.1519 8.0484C41.1646 7.6205 41.008 7.57083 40.6387 7.5721C37.6064 7.58611 34.5755 7.57974 31.5432 7.57974C30.4556 7.57974 30.4696 7.57974 30.4556 8.66096C30.4505 9.00609 30.5257 9.11943 30.895 9.11433C32.5124 9.09268 34.1323 9.10542 35.7509 9.10542Z" fill="white"/>
</g>
</svg>
