<svg width="47" height="47" viewBox="0 0 47 47" fill="none" xmlns="http://www.w3.org/2000/svg">
<g id="Group">
<path id="Vector" d="M22.4849 46.8502C21.4524 46.6004 20.3694 46.4754 19.3977 46.0778C15.6137 44.5308 13.3046 41.7151 12.6022 37.6722C11.7542 32.7973 14.438 28.0439 18.8786 25.9938C22.5983 24.276 27.4732 24.9899 30.5146 27.7391C32.5922 29.6162 33.8974 31.9184 34.1599 34.6973C34.5758 39.1115 32.9016 42.6124 29.2208 45.1095C27.8113 46.0663 26.2264 46.5877 24.5327 46.7757C24.4284 46.7871 24.3276 46.825 24.2244 46.8502C23.6446 46.8502 23.0647 46.8502 22.4849 46.8502ZM20.3958 44.8803C24.2244 46.2302 28.7292 44.6946 30.8905 41.5306C30.298 40.646 29.6815 39.775 29.1268 38.8674C28.9687 38.6096 28.8942 38.228 28.9423 37.9301C29.1245 36.8185 29.3721 35.7184 29.5978 34.6148C29.7628 33.8104 29.8453 33.7359 30.6429 33.5812C31.2171 33.47 31.7889 33.3462 32.3733 33.2248C31.9 31.7499 31.1918 30.4974 30.125 29.4191C29.183 30.3622 28.2616 31.2721 27.3609 32.2026C27.2543 32.3126 27.2303 32.5303 27.2211 32.7022C27.1856 33.3703 27.2452 34.0533 27.1317 34.7053C26.9667 35.6473 26.6733 36.5664 26.451 37.4992C26.3571 37.8922 26.1737 38.1913 25.7497 38.2314C25.344 38.2693 25.1148 38.0091 24.9487 37.6688C24.6141 36.9846 24.2462 36.3166 23.9368 35.6221C23.7053 35.1007 23.3936 34.6755 22.8757 34.428C21.5853 33.8115 20.7591 32.842 20.5368 31.4016C20.5322 31.3729 20.5207 31.3385 20.5012 31.3179C20.3855 31.1953 20.2869 31.02 20.1437 30.9649C19.6475 30.7724 19.1204 30.6567 18.6345 30.4424C18.3606 30.3221 18.1039 30.1009 17.9171 29.8637C17.6581 29.5371 17.4713 29.152 17.2502 28.7876C16.0148 29.7548 14.7302 31.664 14.4815 32.8879C14.9342 32.7927 15.2264 33.0105 15.4797 33.3577C16.0721 34.1702 16.6726 34.9781 17.2971 35.7665C17.4324 35.9372 17.6673 36.0805 17.8816 36.1286C18.9061 36.3601 19.942 36.5412 20.9665 36.7715C21.2048 36.8254 21.457 36.9549 21.6334 37.1222C22.3508 37.8052 23.0361 38.5225 23.7454 39.2147C24.0548 39.5172 24.1282 39.8472 23.9861 40.2518C23.7592 40.8981 23.5712 41.5582 23.3214 42.1953C23.216 42.4635 23.0349 42.735 22.8172 42.9207C22.0414 43.5819 21.2358 44.2053 20.3958 44.8803ZM29.0225 28.4484C25.7474 25.8414 21.1006 26.0889 18.4786 27.9408C19.0562 29.0478 19.0562 29.0478 20.1953 29.4305C20.4691 29.5222 20.7407 29.6242 21.0181 29.7021C21.4031 29.811 21.6884 30.039 21.7503 30.4344C21.9841 31.9287 22.8653 32.9016 24.1843 33.5376C24.2256 33.5571 24.268 33.5812 24.2978 33.6132C24.5063 33.847 24.7424 34.0636 24.9097 34.3237C25.108 34.6309 25.2466 34.9758 25.4311 35.3448C25.8781 34.318 25.7302 33.3164 25.7382 32.3321C25.7417 31.9058 25.8689 31.5815 26.1771 31.2824C27.1294 30.3599 28.0565 29.4145 29.0225 28.4484ZM14.4426 34.428C14.2707 34.5953 14.022 34.7214 13.9968 34.883C13.9223 35.3608 13.8891 35.8559 13.9223 36.3383C14.1561 39.6983 15.694 42.2835 18.5623 44.0701C18.7846 44.2087 18.9233 44.1904 19.1181 44.0311C19.9764 43.3264 20.8519 42.6411 21.7125 41.9386C21.8351 41.8389 21.9486 41.6957 22.0036 41.5501C22.1594 41.1387 22.2947 40.717 22.4138 40.2942C22.4448 40.1842 22.4356 40.0065 22.368 39.9355C21.8328 39.374 21.2828 38.825 20.7235 38.2864C20.6353 38.2005 20.484 38.1661 20.3546 38.1398C19.3266 37.9278 18.2999 37.7135 17.2685 37.5221C16.8537 37.4453 16.5465 37.2608 16.2979 36.9159C15.7226 36.1091 15.1175 35.3265 14.4426 34.428ZM31.7568 40.1945C32.6392 38.4091 32.9257 36.6042 32.6781 34.6733C32.167 34.7741 31.7018 34.8474 31.2491 34.9678C31.1311 34.9987 30.9936 35.166 30.9649 35.2932C30.7736 36.1538 30.6051 37.0202 30.4424 37.8865C30.4195 38.0103 30.4195 38.1753 30.4813 38.2738C30.8813 38.9007 31.3019 39.5138 31.7568 40.1945Z" fill="white"/>
<path id="Vector_2" d="M39.8289 14.7896C37.6722 14.7896 35.5911 14.7896 33.4665 14.7896C33.4665 15.6216 33.4665 16.4261 33.4665 17.2305C33.4665 17.8253 33.4597 18.42 33.4688 19.0148C33.4746 19.3712 33.4127 19.6829 33.0632 19.8651C32.6907 20.0599 32.3962 19.8983 32.1029 19.6714C30.5707 18.4876 29.0351 17.3096 27.5007 16.1293C26.4017 15.2836 25.3028 14.4355 24.2026 13.5921C23.5277 13.0742 23.1621 13.0753 22.486 13.5956C18.3778 16.755 14.2695 19.9144 10.1613 23.0749C9.5562 23.5402 9.10584 23.5688 8.81018 23.1597C8.52026 22.7575 8.65777 22.3804 9.26398 21.9152C13.3963 18.7363 17.5298 15.5597 21.6598 12.3786C22.3359 11.8571 23.0796 11.5798 23.9196 11.8262C24.3184 11.9431 24.7126 12.1517 25.0449 12.4026C27.1707 14.0138 29.2792 15.6491 31.3935 17.2752C31.5688 17.4104 31.7476 17.5422 32.002 17.7336C32.002 16.575 32.002 15.515 32.002 14.4539C32.002 13.5004 32.2071 13.2919 33.148 13.2919C34.0464 13.2907 34.9448 13.2919 35.9005 13.2919C35.9086 13.12 35.92 12.9745 35.92 12.8301C35.9212 11.503 35.9132 10.1772 35.9269 8.85016C35.9303 8.55565 35.8685 8.40553 35.5568 8.28979C34.0017 7.70994 33.2305 6.06779 33.7633 4.49668C34.2779 2.98059 35.1568 1.65701 36.0381 0.341452C36.3372 -0.104324 36.9399 -0.116929 37.2402 0.323117C38.1409 1.6444 39.0221 2.98288 39.5344 4.51731C40.0546 6.07466 39.3006 7.69733 37.7627 8.28177C37.4613 8.39637 37.3777 8.53159 37.3823 8.83641C37.3995 9.99268 37.3891 11.1489 37.3891 12.437C38.0698 11.8491 38.6761 11.3346 39.2651 10.8017C39.3189 10.7524 39.2914 10.576 39.257 10.4717C38.5741 8.3597 39.8105 6.44366 42.0268 6.33709C43.4066 6.27062 44.7966 6.36917 46.1786 6.44939C46.9384 6.49294 47.2031 7.0407 46.8375 7.70192C46.1007 9.03695 45.3535 10.3674 44.2924 11.4824C43.2965 12.5287 41.8824 12.7487 40.6242 12.0348C40.3766 11.8938 40.23 11.9122 40.0329 12.0932C39.6192 12.4714 39.186 12.8301 38.6485 13.2942C39.2364 13.2942 39.6971 13.2942 40.1566 13.2942C41.0803 13.2953 41.298 13.5073 41.2991 14.4195C41.3003 17.7439 41.306 21.0683 41.2911 24.3927C41.2888 24.7709 41.4092 25.0001 41.7082 25.2224C42.8576 26.0784 43.9956 26.9494 45.1198 27.8363C46.5797 28.9892 46.5224 31.0267 45.0189 31.9767C44.0976 32.5588 42.9952 32.4843 42.0371 31.7555C40.8236 30.8319 39.6203 29.8979 38.4113 28.9685C33.494 25.1857 28.5768 21.403 23.6583 17.6202C23.5621 17.5457 23.4612 17.4769 23.3397 17.3875C22.0723 18.3616 20.8049 19.3345 19.5375 20.3086C14.6064 24.0982 9.66507 27.8742 4.7535 31.6913C3.19959 32.898 1.51962 32.2735 0.868718 31.1562C0.280844 30.1477 0.412629 28.8448 1.32366 28.0736C2.46274 27.1098 3.67058 26.2263 4.84976 25.3095C5.28294 24.9726 5.71496 24.6334 6.1573 24.3091C6.60422 23.9802 7.01447 24.01 7.28606 24.3698C7.54963 24.7193 7.46598 25.1422 7.03281 25.478C5.56369 26.617 4.08427 27.7458 2.61401 28.8849C2.43524 29.0235 2.25189 29.1794 2.13614 29.3685C1.89893 29.7558 1.93675 30.1592 2.21407 30.5202C2.4742 30.8594 2.9704 30.9934 3.37148 30.8101C3.61672 30.6978 3.84018 30.5282 4.05676 30.362C10.2449 25.6063 16.4308 20.8472 22.6178 16.088C23.2561 15.5964 23.4349 15.5975 24.064 16.0811C30.2865 20.8678 36.5079 25.6556 42.7327 30.4399C42.9126 30.5786 43.1017 30.7173 43.3069 30.8078C43.7435 31.0015 44.2603 30.8399 44.5239 30.4571C44.7897 30.0709 44.7714 29.5988 44.4551 29.2355C44.3268 29.0877 44.1732 28.9571 44.0173 28.8368C42.8107 27.9051 41.6108 26.9643 40.3881 26.0555C39.9779 25.7507 39.8209 25.3932 39.8232 24.8912C39.8369 21.7192 39.83 18.5472 39.83 15.3764C39.8289 15.1953 39.8289 15.0154 39.8289 14.7896ZM36.7577 2.10508C36.6809 2.10508 36.6053 2.10393 36.5297 2.10393C36.053 3.1032 35.5304 4.08414 35.1156 5.10862C34.844 5.77786 35.2898 6.57659 35.9235 6.75536C35.9235 6.36917 35.92 5.98872 35.9246 5.60826C35.9315 5.0307 36.2088 4.6915 36.6592 4.69952C37.1061 4.70754 37.3788 5.05018 37.388 5.62774C37.3937 6.00247 37.3891 6.37605 37.3891 6.76453C38.0824 6.56628 38.4194 5.58076 38.1799 5.05133C37.7306 4.05778 37.2344 3.08601 36.7577 2.10508ZM45.1243 7.75349C44.5502 7.75349 44.109 7.74088 43.669 7.75692C42.9871 7.78099 42.295 7.76036 41.628 7.87725C40.8545 8.01247 40.403 8.84443 40.5955 9.67181C40.9244 9.39564 41.2155 9.1103 41.5478 8.88569C41.7484 8.75047 42.0291 8.61295 42.2411 8.65191C42.4497 8.68973 42.7327 8.92465 42.7751 9.11832C42.8267 9.35438 42.7327 9.69817 42.5734 9.8884C42.2801 10.2402 41.8939 10.5152 41.5157 10.8476C42.1277 11.0745 42.664 11.0263 43.0765 10.631C43.9062 9.83683 44.4803 8.8536 45.1243 7.75349Z" fill="white"/>
</g>
</svg>
