<svg width="61" height="57" viewBox="0 0 61 57" fill="none" xmlns="http://www.w3.org/2000/svg">
<g id="Group 267">
<rect id="Rectangle 51" width="61" height="57" rx="10" fill="#89A0CD"/>
<path id="Vector" d="M40.1406 12C40.3811 12.0536 40.6236 12.1014 40.8628 12.1615C43.3616 12.792 45.124 15.1049 44.993 17.5812C44.8522 20.2487 42.9386 22.3884 40.3192 22.7482C38.5725 22.9886 37.0369 22.4879 35.7601 21.2746C35.5516 21.0763 35.4238 21.0834 35.1977 21.2229C32.3938 22.9543 29.5853 24.6773 26.773 26.3951C26.5944 26.5043 26.5488 26.5941 26.6192 26.7976C27.0109 27.9327 27.0102 29.0749 26.6205 30.2107C26.552 30.4103 26.5892 30.504 26.7704 30.6151C29.6101 32.3497 32.4466 34.0902 35.2785 35.8371C35.4636 35.9514 35.5568 35.923 35.7086 35.7815C37.3055 34.2917 39.1754 33.8117 41.2571 34.4978C43.3388 35.1839 44.5713 36.6795 44.9311 38.8186C45.4166 41.7051 43.2769 44.5593 40.3883 44.9469C37.3022 45.3611 34.529 43.3066 34.1431 40.3342C34.0343 39.4969 34.1092 38.6835 34.3823 37.8896C34.4488 37.6957 34.4071 37.6098 34.2376 37.5065C31.3985 35.7705 28.5627 34.0294 25.7308 32.2819C25.5457 32.1675 25.4492 32.1915 25.2961 32.3336C23.7306 33.7943 21.8932 34.2904 19.8389 33.6509C17.8028 33.0171 16.5527 31.5958 16.1101 29.5214C15.4669 26.5082 17.7206 23.4692 20.8035 23.1455C22.5528 22.9621 24.0506 23.4854 25.3091 24.6915C25.4525 24.8291 25.5444 24.8479 25.7184 24.7406C28.5503 22.9931 31.3862 21.2513 34.2252 19.5154C34.4051 19.4056 34.4442 19.3171 34.3771 19.1084C33.3258 15.8323 35.3717 12.5898 38.8189 12.0517C38.871 12.0433 38.9199 12.0174 38.9701 12C39.3605 12 39.7509 12 40.1406 12ZM39.5534 43.0353C41.4754 43.0275 43.0129 41.4893 43.0038 39.5828C42.9947 37.7035 41.4383 36.1763 39.5351 36.1788C37.6209 36.1808 36.0691 37.7358 36.0873 39.6339C36.1062 41.5313 37.647 43.0431 39.5534 43.0353ZM36.0873 17.4061C36.088 19.2945 37.6307 20.8301 39.5306 20.834C41.4468 20.8372 43.0064 19.2964 43.0038 17.4016C43.0019 15.4996 41.4428 13.9653 39.5254 13.9769C37.6144 13.9885 36.0867 15.5119 36.0873 17.4061ZM18.0016 28.4941C17.9918 30.3825 19.526 31.9208 21.4305 31.9324C23.3525 31.9447 24.9142 30.4161 24.9194 28.518C24.9246 26.629 23.3923 25.0947 21.4872 25.0804C19.5625 25.0669 18.0113 26.5857 18.0016 28.4941Z" fill="white"/>
</g>
</svg>
