<svg width="55" height="55" viewBox="0 0 55 55" fill="none" xmlns="http://www.w3.org/2000/svg">
<g id="Group">
<path id="Vector" d="M13.6135 15.7338C14.5787 14.1257 15.5292 12.5381 16.4826 10.9535C16.6739 10.6357 17.7038 10.4061 17.9922 10.6106C18.0805 10.6739 18.0746 10.7666 18.0864 10.8549C18.2776 12.2218 18.8426 13.4488 19.4694 14.6583C19.9755 15.6338 20.4493 16.6269 20.951 17.6054C21.0688 17.8349 21.0776 17.9688 20.8422 18.1483C19.9667 18.8163 19.5768 19.6947 19.8166 20.8011C19.8578 20.988 19.8137 21.1218 19.6754 21.2381C19.6342 21.2734 19.5945 21.3131 19.5577 21.3543C19.2222 21.7369 18.5999 22.0135 18.5793 22.4784C18.5601 22.9007 18.9942 23.3436 19.2311 23.7761C19.3017 23.9056 19.3767 24.0307 19.4488 24.1587C19.7475 24.6942 19.6004 25.065 19.0207 25.2283C18.5101 25.3725 18.001 25.5344 17.4831 25.6477C17.1668 25.7168 17.0829 25.8654 17.0873 26.1759C17.1035 27.5339 17.102 28.892 17.0888 30.25C17.0858 30.5399 17.1756 30.6723 17.464 30.7385C17.9995 30.8591 18.5263 31.018 19.0545 31.1681C19.568 31.3153 19.7401 31.7081 19.4871 32.1672C19.2296 32.6321 18.9824 33.1044 18.6896 33.5473C18.4836 33.8577 18.5484 34.0446 18.8 34.2888C19.7475 35.2084 20.6818 36.1442 21.6014 37.0917C21.8397 37.3389 22.0192 37.358 22.3017 37.1756C22.7475 36.8872 23.2184 36.6371 23.6833 36.3796C24.1453 36.125 24.547 36.2898 24.6926 36.7916C24.8398 37.3021 24.9972 37.8112 25.1105 38.3291C25.1811 38.6498 25.2988 38.7823 25.6549 38.7764C26.9938 38.7528 28.3342 38.7543 29.6731 38.7749C30.0189 38.7808 30.1542 38.6646 30.2234 38.3365C30.3337 37.8185 30.4941 37.3095 30.6412 36.7989C30.7899 36.281 31.1724 36.1192 31.6418 36.3781C32.1229 36.6444 32.604 36.9122 33.0719 37.2006C33.3102 37.3477 33.4721 37.3521 33.6854 37.1344C34.6462 36.1486 35.6202 35.176 36.6046 34.2152C36.8194 34.0048 36.8267 33.8445 36.6767 33.6032C36.3868 33.1368 36.119 32.6542 35.8527 32.1745C35.5952 31.7125 35.7615 31.3167 36.2706 31.1696C36.7635 31.0269 37.2534 30.865 37.7551 30.765C38.1274 30.6914 38.2613 30.5472 38.2525 30.1485C38.223 28.8464 38.223 27.5428 38.2525 26.2406C38.2613 25.8419 38.1259 25.6977 37.7551 25.6227C37.2534 25.5226 36.7635 25.3622 36.2706 25.221C35.763 25.0739 35.5967 24.6766 35.8542 24.2146C36.1205 23.7335 36.3883 23.2523 36.6781 22.7859C36.8282 22.5432 36.8444 22.3607 36.6016 22.1768C36.4721 22.0782 36.3736 21.937 36.2485 21.831C35.7615 21.4205 35.4525 21.0115 35.5643 20.2641C35.6909 19.4225 35.2362 18.6971 34.5447 18.1895C34.2769 17.9923 34.2548 17.8467 34.4005 17.5656C35.0376 16.3268 35.6438 15.0732 36.2765 13.8329C36.7385 12.9265 37.0769 11.979 37.2225 10.9755C37.2726 10.6342 37.405 10.5915 37.7081 10.5606C38.3613 10.4929 38.7557 10.6989 39.0911 11.3081C39.9121 12.8 40.8258 14.2404 41.7042 15.7059C41.9573 15.647 41.9926 15.4204 42.0882 15.2615C42.9033 13.9167 43.7155 12.5646 44.5203 11.2095C44.7616 10.8034 45.0456 10.4664 45.5694 10.6136C46.0844 10.7578 46.1771 11.1742 46.1741 11.6568C46.1623 13.4915 46.1771 15.3263 46.1624 17.1625C46.1594 17.5038 46.2271 17.6348 46.6067 17.6348C47.9309 17.6363 47.9309 17.6524 47.9309 16.3415C47.9309 14.7451 47.9338 13.1487 47.9294 11.5523C47.9265 10.2193 47.2158 9.23641 46.0314 8.91125C44.8764 8.59491 43.7744 9.06721 43.0858 10.1869C42.6562 10.8858 42.2368 11.5905 41.7616 12.3807C41.1466 11.3596 40.5448 10.4253 40.0181 9.45123C39.7459 8.9495 39.4266 8.74352 38.8586 8.80237C38.3878 8.85093 37.814 8.9598 37.4565 8.75087C37.0695 8.52576 37.2372 7.88279 37.1416 7.42814C36.2529 3.22896 32.4216 0.0803033 28.1135 0.00232259C23.8363 -0.0741868 20.7083 1.7385 18.8117 5.59633C18.3895 6.45706 18.1408 7.38106 18.0658 8.34037C18.0378 8.70379 17.9157 8.8421 17.5317 8.82444C16.9284 8.79796 16.2104 8.63758 15.7499 8.90095C15.2894 9.16285 15.0834 9.8735 14.77 10.3914C14.4272 10.9564 14.0858 11.5199 13.7533 12.0908C13.615 12.3277 13.5164 12.3174 13.3825 12.0879C13.0117 11.4552 12.6365 10.8255 12.2525 10.2001C11.5536 9.05985 10.4325 8.58461 9.25982 8.92155C8.11218 9.25113 7.40447 10.2399 7.40152 11.5391C7.39711 13.4106 7.41183 15.2821 7.39123 17.1537C7.38681 17.548 7.50746 17.6377 7.88412 17.6348C9.16271 17.6245 9.16271 17.6407 9.16271 16.3518C9.16271 14.773 9.17007 13.1958 9.1583 11.617C9.15536 11.1506 9.26865 10.7622 9.74978 10.618C10.2397 10.4723 10.5384 10.7578 10.7753 11.1521C11.6802 12.6617 12.5909 14.1669 13.5017 15.672C13.5105 15.6838 13.5311 15.6882 13.6135 15.7338ZM26.7849 15.3454C26.7849 15.9692 26.7716 16.5931 26.7908 17.2169C26.7996 17.5156 26.7275 17.6363 26.3994 17.6304C25.3533 17.6112 24.3072 17.6142 23.261 17.6289C22.9991 17.6318 22.8711 17.5333 22.7593 17.3067C21.9913 15.7441 21.1835 14.2007 20.442 12.6264C19.7254 11.105 19.5592 9.50125 19.902 7.84748C20.5906 4.52226 23.6377 1.65904 27.9031 1.74291C33.5633 1.85473 37.2446 7.57675 34.8493 12.7058C34.1283 14.2492 33.3294 15.7574 32.5805 17.2876C32.4583 17.5347 32.3127 17.6318 32.0346 17.6274C31.0253 17.6112 30.0159 17.6083 29.0066 17.6289C28.6608 17.6363 28.5299 17.5568 28.5372 17.1801C28.5608 15.9692 28.5549 14.7583 28.5402 13.5474C28.5358 13.2326 28.6182 13.0795 28.936 12.9501C30.2955 12.3939 31.0782 11.3625 31.1753 9.89116C31.296 8.0564 30.0027 6.50415 28.1694 6.20252C26.4994 5.92738 24.7927 7.01617 24.2924 8.67584C23.7701 10.4076 24.622 12.2291 26.3273 12.9162C26.7157 13.0722 26.807 13.2679 26.7908 13.6386C26.7672 14.2066 26.7849 14.7775 26.7849 15.3454ZM27.6471 33.4811C31.321 33.4928 33.8841 29.8292 32.6217 26.3745C32.551 26.1788 32.3862 25.9964 32.5643 25.7624C33.1955 24.9282 33.6016 23.9968 33.7502 22.9581C33.7928 22.6565 34.0974 22.6682 34.2843 22.5432C34.4064 22.4622 34.4976 22.552 34.5579 22.6432C34.7065 22.8713 34.4741 23.0066 34.4064 23.1817C34.3799 23.2494 34.3431 23.3156 34.2975 23.373C33.759 24.0469 33.5913 24.7325 34.1563 25.4917C34.3019 25.6889 34.3578 25.9625 34.4211 26.2097C34.4932 26.4922 34.6536 26.6173 34.9361 26.6967C35.4422 26.8395 36.1529 26.7894 36.3971 27.1852C36.6369 27.5736 36.4383 28.2181 36.4839 28.7463C36.5222 29.1803 36.3677 29.3746 35.9395 29.4261C35.0082 29.5379 34.2799 29.8969 34.1357 30.9607C34.1077 31.1681 33.9709 31.3682 33.8517 31.5521C33.6928 31.7993 33.7134 32.0083 33.8591 32.2598C34.1239 32.716 34.6344 33.178 34.555 33.6458C34.4697 34.1387 33.8282 34.4286 33.478 34.8509C33.2293 35.1525 32.9998 35.1966 32.6952 34.9509C31.9051 34.3153 31.1444 34.2079 30.1689 34.7273C29.5525 35.0554 29.1523 35.329 29.0022 36.0265C28.7888 37.0137 28.7462 37.0049 27.7398 37.0049C26.5701 37.0049 26.5362 37.0123 26.2714 35.8558C26.1434 35.2937 25.9197 34.9539 25.3341 34.8244C24.9663 34.742 24.6176 34.5463 24.2792 34.3668C24.0423 34.2403 23.854 34.2373 23.62 34.3786C23.1669 34.6522 22.6769 35.1172 22.2311 35.0848C21.7441 35.0495 21.4498 34.3712 21.0231 34.0284C20.6994 33.768 20.6656 33.5223 20.9216 33.2015C21.541 32.4276 21.7779 31.6198 21.0996 30.7444C21.0349 30.662 21.0025 30.5428 20.9864 30.4369C20.9128 29.9293 20.5979 29.735 20.1197 29.6188C18.8485 29.3098 18.8529 29.2878 18.8529 27.9665C18.8529 27.1058 18.8456 27.0719 19.7122 26.8807C20.414 26.7247 20.7877 26.4084 21.135 25.7021C21.6308 24.6913 21.5219 23.935 20.8892 23.1199C20.7818 22.9816 20.5876 22.7948 20.8127 22.5917C21.0261 22.4004 21.1776 22.6476 21.3571 22.6918C21.5808 22.7491 21.5749 22.9551 21.6073 23.1361C21.7588 23.9777 22.0545 24.7678 22.5607 25.4549C22.8035 25.7845 22.8432 26.0493 22.7005 26.4466C21.4675 29.8557 24.0217 33.4693 27.6471 33.4811ZM27.6662 22.9095C28.9492 22.9095 30.2322 22.9183 31.5152 22.9036C31.8639 22.8992 32.0008 22.936 31.8728 23.3465C31.3151 25.1356 29.5937 26.4231 27.6942 26.4319C25.7667 26.4407 24.0247 25.1533 23.4597 23.345C23.3317 22.9345 23.4685 22.8992 23.8172 22.9022C25.1002 22.9183 26.3832 22.9095 27.6662 22.9095ZM31.012 27.2264C31.4829 28.6521 30.9179 30.2323 29.6481 31.1048C28.368 31.9847 26.6686 31.9141 25.4489 30.9298C24.3292 30.0264 23.851 28.4535 24.3439 27.2411C26.5657 28.5256 28.7947 28.5212 31.012 27.2264ZM27.7206 21.1469C26.0139 21.1469 24.3072 21.1498 22.6004 21.1454C21.9074 21.1439 21.5028 20.8129 21.5028 20.2655C21.5028 19.7167 21.9074 19.3871 22.6004 19.3857C25.9771 19.3827 29.3538 19.3827 32.7305 19.3857C33.4235 19.3857 33.8282 19.7167 33.8282 20.2655C33.8282 20.8143 33.4235 21.1439 32.7305 21.1454C31.062 21.1498 29.3906 21.1469 27.7206 21.1469ZM25.9065 9.71754C25.8933 8.76117 26.6745 7.95194 27.628 7.93281C28.5858 7.91221 29.3994 8.68466 29.4259 9.64103C29.4524 10.6209 28.6549 11.4478 27.678 11.4537C26.7231 11.4596 25.9197 10.671 25.9065 9.71754Z" fill="white"/>
<path id="Vector_2" d="M50.6072 35.635C51.8741 34.3947 52.5053 32.8866 52.2934 31.0945C52.1139 29.582 51.387 28.3578 50.1555 27.4559C47.7764 25.7138 44.4659 26.2567 42.7474 28.6624C41.098 30.9709 41.457 34.4344 44.3614 36.2868C44.357 36.4899 44.1643 36.5267 44.0466 36.6179C42.3972 37.9082 41.4673 39.5826 41.3069 41.6807C41.2128 42.924 41.0833 44.1658 41.0024 45.4091C40.9803 45.7534 40.8538 45.8328 40.536 45.8284C39.2338 45.8122 37.9302 45.8152 36.6281 45.8196C35.0273 45.8255 33.8399 46.9496 33.8355 48.4533C33.8311 49.9555 35.0214 51.0943 36.6119 51.1046C37.6021 51.1105 38.5938 51.1208 39.584 51.0973C39.9342 51.0884 40.0151 51.2047 40.0078 51.5343C39.9872 52.4332 40.0122 53.3322 39.9945 54.2312C39.9886 54.5402 40.0769 54.6358 40.3932 54.6358C45.1265 54.627 49.8598 54.6255 54.5946 54.6358C54.9212 54.6358 54.9859 54.5211 54.9845 54.2239C54.9742 50.0776 55.0463 45.9285 54.9462 41.7852C54.8815 39.1088 53.469 37.1667 51.0972 35.9308C50.9515 35.8557 50.8029 35.788 50.6558 35.7145C50.6426 35.7071 50.6367 35.6836 50.6072 35.635ZM53.2174 47.0835C53.2174 48.8447 53.2027 50.6073 53.2292 52.3685C53.235 52.7952 53.1026 52.8776 52.7039 52.8747C49.4743 52.8585 46.2447 52.8658 43.0137 52.8658C41.7542 52.8658 41.7704 52.8658 41.7542 51.6181C41.7483 51.2238 41.8337 51.1002 42.2574 51.0855C44.382 51.0134 46.1256 49.4803 46.3978 47.3748C46.6346 45.5386 46.7729 43.6891 46.9274 41.8441C46.9613 41.4483 47.207 40.9539 46.9539 40.6773C46.7082 40.408 46.1785 40.5861 45.7886 40.4963C45.3516 40.3948 45.2722 40.5714 45.2413 40.9598C45.0868 42.8608 44.8911 44.7588 44.7337 46.6597C44.5968 48.3253 43.5566 49.3346 41.9146 49.3405C40.1902 49.3464 38.4643 49.3434 36.7399 49.3405C36.0072 49.339 35.5908 49.0095 35.6011 48.4459C35.6114 47.8854 36.0175 47.5808 36.7679 47.5793C38.0347 47.5779 39.3 47.5793 40.5669 47.5793C42.0485 47.5779 42.6547 46.9864 42.7591 45.5077C42.8592 44.0805 42.9151 42.643 43.1446 41.2349C43.5713 38.613 45.9622 36.8047 48.5621 37.0225C51.1884 37.2432 53.1938 39.434 53.2159 42.1295C53.2277 43.7803 53.2174 45.4312 53.2174 47.0835ZM43.5272 31.7257C43.5257 29.7806 45.1118 28.1945 47.0584 28.1974C48.9785 28.2004 50.5587 29.7703 50.5719 31.6874C50.5866 33.634 49.0094 35.2348 47.0687 35.2437C45.1251 35.251 43.5301 33.6679 43.5272 31.7257Z" fill="white"/>
<path id="Vector_3" d="M10.9092 36.3224C12.1274 35.5426 12.9749 34.5259 13.3634 33.159C14.0549 30.721 12.9014 28.1079 10.637 26.9926C8.33729 25.8612 5.62121 26.4968 4.07631 28.5302C2.53435 30.5577 2.64322 33.393 4.38528 35.2483C4.77519 35.6632 4.66925 35.7235 4.23521 35.9457C1.77072 37.2052 0.412683 39.24 0.370014 42.0106C0.308218 46.0641 0.358242 50.1191 0.344999 54.1741C0.343529 54.5301 0.436222 54.6361 0.799641 54.6346C5.49614 54.6228 10.1926 54.6228 14.8891 54.6346C15.2658 54.6361 15.3453 54.5095 15.3364 54.1652C15.3144 53.2854 15.3453 52.4041 15.3217 51.5242C15.3129 51.1828 15.4159 51.0857 15.7543 51.0946C16.6901 51.1166 17.6258 51.1034 18.5616 51.1019C20.2978 51.1005 21.5028 50.0073 21.4969 48.4447C21.4895 46.9072 20.2875 45.8184 18.5895 45.8169C17.3419 45.8154 16.0942 45.8036 14.8465 45.8242C14.4742 45.8301 14.3506 45.7316 14.3256 45.3446C14.2417 43.991 14.1476 42.6344 13.9887 41.2881C13.768 39.4166 12.8778 37.8967 11.4094 36.7152C11.2564 36.5931 11.1004 36.4725 10.9092 36.3224ZM2.11501 47.122C2.11649 47.122 2.11796 47.122 2.11943 47.122C2.11943 45.3976 2.09295 43.6717 2.12531 41.9473C2.17681 39.2827 4.36763 37.0889 7.0072 37.0124C9.73064 36.9315 12.0347 38.984 12.2555 41.6854C12.3658 43.0375 12.4761 44.3912 12.5924 45.7433C12.6939 46.9395 13.3722 47.5737 14.5625 47.5781C15.9205 47.584 17.2786 47.5766 18.6366 47.581C19.3282 47.5825 19.7328 47.915 19.7313 48.4638C19.7298 49.0112 19.3252 49.3407 18.6307 49.3407C16.8872 49.3437 15.1437 49.3466 13.4001 49.3407C11.8523 49.3349 10.7797 48.3932 10.6208 46.8615C10.4457 45.1651 10.2956 43.4657 10.1617 41.7648C10.0514 40.373 10.0705 40.3803 8.70218 40.5598C8.38142 40.601 8.27402 40.6937 8.30933 41.0409C8.50355 42.9757 8.67275 44.912 8.84343 46.8483C9.03617 49.0406 10.406 50.6134 12.4335 51.0313C12.8072 51.1078 13.3398 50.8739 13.5267 51.2652C13.6841 51.5948 13.5399 52.0598 13.5752 52.46C13.6076 52.8307 13.4355 52.8719 13.1265 52.8705C9.60263 52.8616 6.07879 52.8587 2.55641 52.8734C2.1827 52.8749 2.10324 52.7528 2.10766 52.4055C2.12384 50.6458 2.11501 48.8846 2.11501 47.122ZM4.76048 31.7333C4.75459 29.7867 6.33921 28.1977 8.28432 28.1977C10.2059 28.1977 11.789 29.7632 11.8052 31.6803C11.8229 33.6284 10.2485 35.2321 8.30933 35.2439C6.36423 35.2557 4.76489 33.674 4.76048 31.7333Z" fill="white"/>
<path id="Vector_4" d="M47.0775 19.3857C46.1697 19.3857 46.1697 19.3857 46.1697 20.3083C46.1697 21.1484 46.1697 21.1484 46.9966 21.1484C47.9323 21.1484 47.9323 21.1484 47.9323 20.1979C47.9309 19.3857 47.9309 19.3857 47.0775 19.3857Z" fill="white"/>
<path id="Vector_5" d="M8.25784 19.3857C7.40006 19.3857 7.40006 19.3857 7.40006 20.4142C7.40006 21.1484 7.40006 21.1484 8.49767 21.1484C9.16419 21.1484 9.16418 21.1484 9.16271 20.0375C9.16271 19.3857 9.16271 19.3857 8.25784 19.3857Z" fill="white"/>
<path id="Vector_6" d="M47.001 22.9097C46.1697 22.9097 46.1697 22.9097 46.1697 23.7439C46.1697 24.6723 46.1697 24.6723 47.0731 24.6723C47.2011 24.6723 47.3321 24.6561 47.4571 24.6753C47.8441 24.7341 47.9956 24.5782 47.9353 24.1941C47.9191 24.0867 47.9324 23.9749 47.9324 23.866C47.9309 22.9097 47.9309 22.9097 47.001 22.9097Z" fill="white"/>
<path id="Vector_7" d="M8.25784 22.9097C7.40006 22.9097 7.40006 22.9097 7.40006 23.9381C7.40006 24.6723 7.40006 24.6723 8.49767 24.6723C9.16419 24.6723 9.16418 24.6723 9.16271 23.5615C9.16271 22.9097 9.16271 22.9097 8.25784 22.9097Z" fill="white"/>
</g>
</svg>
