<?xml version="1.0" standalone="no"?><svg xmlns="http://www.w3.org/2000/svg" viewBox="0 0 1440 320"><path fill="#0099ff" fill-opacity="0.8" d="M0,64L14.1,85.3C28.2,107,56,149,85,186.7C112.9,224,141,256,169,245.3C197.6,235,226,181,254,170.7C282.4,160,311,192,339,186.7C367.1,181,395,139,424,117.3C451.8,96,480,96,508,106.7C536.5,117,565,139,593,160C621.2,181,649,203,678,197.3C705.9,192,734,160,762,149.3C790.6,139,819,149,847,144C875.3,139,904,117,932,133.3C960,149,988,203,1016,240C1044.7,277,1073,299,1101,261.3C1129.4,224,1158,128,1186,106.7C1214.1,85,1242,139,1271,181.3C1298.8,224,1327,256,1355,261.3C1383.5,267,1412,245,1426,234.7L1440,224L1440,320L1425.9,320C1411.8,320,1384,320,1355,320C1327.1,320,1299,320,1271,320C1242.4,320,1214,320,1186,320C1157.6,320,1129,320,1101,320C1072.9,320,1045,320,1016,320C988.2,320,960,320,932,320C903.5,320,875,320,847,320C818.8,320,791,320,762,320C734.1,320,706,320,678,320C649.4,320,621,320,593,320C564.7,320,536,320,508,320C480,320,452,320,424,320C395.3,320,367,320,339,320C310.6,320,282,320,254,320C225.9,320,198,320,169,320C141.2,320,113,320,85,320C56.5,320,28,320,14,320L0,320Z"></path></svg>