<?xml version="1.0" standalone="no"?><svg xmlns="http://www.w3.org/2000/svg" viewBox="0 0 1440 320"><path fill="#0099ff" fill-opacity="0.25" d="M0,128L6.5,154.7C13,181,26,235,39,261.3C51.9,288,65,288,78,261.3C90.8,235,104,181,117,160C129.7,139,143,149,156,181.3C168.6,213,182,267,195,282.7C207.6,299,221,277,234,256C246.5,235,259,213,272,197.3C285.4,181,298,171,311,176C324.3,181,337,203,350,197.3C363.2,192,376,160,389,138.7C402.2,117,415,107,428,128C441.1,149,454,203,467,229.3C480,256,493,256,506,245.3C518.9,235,532,213,545,197.3C557.8,181,571,171,584,160C596.8,149,610,139,623,138.7C635.7,139,649,149,662,128C674.6,107,688,53,701,69.3C713.5,85,726,171,739,192C752.4,213,765,171,778,176C791.4,181,804,235,817,245.3C830.3,256,843,224,856,218.7C869.2,213,882,235,895,256C908.1,277,921,299,934,266.7C947,235,960,149,973,112C985.9,75,999,85,1012,128C1024.9,171,1038,245,1051,250.7C1063.8,256,1077,192,1090,186.7C1102.7,181,1116,235,1129,240C1141.6,245,1155,203,1168,197.3C1180.5,192,1194,224,1206,240C1219.5,256,1232,256,1245,256C1258.4,256,1271,256,1284,234.7C1297.3,213,1310,171,1323,133.3C1336.2,96,1349,64,1362,74.7C1375.1,85,1388,139,1401,186.7C1414.1,235,1427,277,1434,298.7L1440,320L1440,320L1433.5,320C1427,320,1414,320,1401,320C1388.1,320,1375,320,1362,320C1349.2,320,1336,320,1323,320C1310.3,320,1297,320,1284,320C1271.4,320,1258,320,1245,320C1232.4,320,1219,320,1206,320C1193.5,320,1181,320,1168,320C1154.6,320,1142,320,1129,320C1115.7,320,1103,320,1090,320C1076.8,320,1064,320,1051,320C1037.8,320,1025,320,1012,320C998.9,320,986,320,973,320C960,320,947,320,934,320C921.1,320,908,320,895,320C882.2,320,869,320,856,320C843.2,320,830,320,817,320C804.3,320,791,320,778,320C765.4,320,752,320,739,320C726.5,320,714,320,701,320C687.6,320,675,320,662,320C648.6,320,636,320,623,320C609.7,320,597,320,584,320C570.8,320,558,320,545,320C531.9,320,519,320,506,320C493,320,480,320,467,320C454.1,320,441,320,428,320C415.1,320,402,320,389,320C376.2,320,363,320,350,320C337.3,320,324,320,311,320C298.4,320,285,320,272,320C259.5,320,246,320,234,320C220.5,320,208,320,195,320C181.6,320,169,320,156,320C142.7,320,130,320,117,320C103.8,320,91,320,78,320C64.9,320,52,320,39,320C25.9,320,13,320,6,320L0,320Z"></path></svg>