<?xml version="1.0" standalone="no"?><svg xmlns="http://www.w3.org/2000/svg" viewBox="0 0 1440 320"><path fill="#0099ff" fill-opacity="0.66" d="M0,160L11.4,170.7C22.9,181,46,203,69,192C91.4,181,114,139,137,101.3C160,64,183,32,206,64C228.6,96,251,192,274,218.7C297.1,245,320,203,343,186.7C365.7,171,389,181,411,208C434.3,235,457,277,480,272C502.9,267,526,213,549,192C571.4,171,594,181,617,154.7C640,128,663,64,686,58.7C708.6,53,731,107,754,144C777.1,181,800,203,823,186.7C845.7,171,869,117,891,106.7C914.3,96,937,128,960,154.7C982.9,181,1006,203,1029,197.3C1051.4,192,1074,160,1097,144C1120,128,1143,128,1166,160C1188.6,192,1211,256,1234,261.3C1257.1,267,1280,213,1303,181.3C1325.7,149,1349,139,1371,138.7C1394.3,139,1417,149,1429,154.7L1440,160L1440,320L1428.6,320C1417.1,320,1394,320,1371,320C1348.6,320,1326,320,1303,320C1280,320,1257,320,1234,320C1211.4,320,1189,320,1166,320C1142.9,320,1120,320,1097,320C1074.3,320,1051,320,1029,320C1005.7,320,983,320,960,320C937.1,320,914,320,891,320C868.6,320,846,320,823,320C800,320,777,320,754,320C731.4,320,709,320,686,320C662.9,320,640,320,617,320C594.3,320,571,320,549,320C525.7,320,503,320,480,320C457.1,320,434,320,411,320C388.6,320,366,320,343,320C320,320,297,320,274,320C251.4,320,229,320,206,320C182.9,320,160,320,137,320C114.3,320,91,320,69,320C45.7,320,23,320,11,320L0,320Z"></path></svg>