<?xml version="1.0" standalone="no"?><svg xmlns="http://www.w3.org/2000/svg" viewBox="0 0 1440 320"><path fill="#0099ff" fill-opacity="0.39" d="M0,64L7.3,64C14.5,64,29,64,44,90.7C58.2,117,73,171,87,186.7C101.8,203,116,181,131,165.3C145.5,149,160,139,175,154.7C189.1,171,204,213,218,202.7C232.7,192,247,128,262,138.7C276.4,149,291,235,305,256C320,277,335,235,349,218.7C363.6,203,378,213,393,202.7C407.3,192,422,160,436,160C450.9,160,465,192,480,170.7C494.5,149,509,75,524,69.3C538.2,64,553,128,567,165.3C581.8,203,596,213,611,197.3C625.5,181,640,139,655,149.3C669.1,160,684,224,698,234.7C712.7,245,727,203,742,192C756.4,181,771,203,785,208C800,213,815,203,829,202.7C843.6,203,858,213,873,186.7C887.3,160,902,96,916,106.7C930.9,117,945,203,960,218.7C974.5,235,989,181,1004,160C1018.2,139,1033,149,1047,133.3C1061.8,117,1076,75,1091,53.3C1105.5,32,1120,32,1135,80C1149.1,128,1164,224,1178,261.3C1192.7,299,1207,277,1222,261.3C1236.4,245,1251,235,1265,240C1280,245,1295,267,1309,261.3C1323.6,256,1338,224,1353,192C1367.3,160,1382,128,1396,122.7C1410.9,117,1425,139,1433,149.3L1440,160L1440,320L1432.7,320C1425.5,320,1411,320,1396,320C1381.8,320,1367,320,1353,320C1338.2,320,1324,320,1309,320C1294.5,320,1280,320,1265,320C1250.9,320,1236,320,1222,320C1207.3,320,1193,320,1178,320C1163.6,320,1149,320,1135,320C1120,320,1105,320,1091,320C1076.4,320,1062,320,1047,320C1032.7,320,1018,320,1004,320C989.1,320,975,320,960,320C945.5,320,931,320,916,320C901.8,320,887,320,873,320C858.2,320,844,320,829,320C814.5,320,800,320,785,320C770.9,320,756,320,742,320C727.3,320,713,320,698,320C683.6,320,669,320,655,320C640,320,625,320,611,320C596.4,320,582,320,567,320C552.7,320,538,320,524,320C509.1,320,495,320,480,320C465.5,320,451,320,436,320C421.8,320,407,320,393,320C378.2,320,364,320,349,320C334.5,320,320,320,305,320C290.9,320,276,320,262,320C247.3,320,233,320,218,320C203.6,320,189,320,175,320C160,320,145,320,131,320C116.4,320,102,320,87,320C72.7,320,58,320,44,320C29.1,320,15,320,7,320L0,320Z"></path></svg>