<?xml version="1.0" standalone="no"?><svg xmlns="http://www.w3.org/2000/svg" viewBox="0 0 1440 320"><path fill="#0099ff" fill-opacity="1" d="M0,32L17.1,64C34.3,96,69,160,103,165.3C137.1,171,171,117,206,122.7C240,128,274,192,309,197.3C342.9,203,377,149,411,144C445.7,139,480,181,514,165.3C548.6,149,583,75,617,64C651.4,53,686,107,720,112C754.3,117,789,75,823,90.7C857.1,107,891,181,926,208C960,235,994,213,1029,224C1062.9,235,1097,277,1131,288C1165.7,299,1200,277,1234,234.7C1268.6,192,1303,128,1337,122.7C1371.4,117,1406,171,1423,197.3L1440,224L1440,320L1422.9,320C1405.7,320,1371,320,1337,320C1302.9,320,1269,320,1234,320C1200,320,1166,320,1131,320C1097.1,320,1063,320,1029,320C994.3,320,960,320,926,320C891.4,320,857,320,823,320C788.6,320,754,320,720,320C685.7,320,651,320,617,320C582.9,320,549,320,514,320C480,320,446,320,411,320C377.1,320,343,320,309,320C274.3,320,240,320,206,320C171.4,320,137,320,103,320C68.6,320,34,320,17,320L0,320Z"></path></svg>