<?xml version="1.0" standalone="no"?><svg xmlns="http://www.w3.org/2000/svg" viewBox="0 0 1440 320"><path fill="#0099ff" fill-opacity="0.5" d="M0,32L9.6,58.7C19.2,85,38,139,58,144C76.8,149,96,107,115,96C134.4,85,154,107,173,106.7C192,107,211,85,230,90.7C249.6,96,269,128,288,160C307.2,192,326,224,346,208C364.8,192,384,128,403,133.3C422.4,139,442,213,461,213.3C480,213,499,139,518,101.3C537.6,64,557,64,576,101.3C595.2,139,614,213,634,234.7C652.8,256,672,224,691,192C710.4,160,730,128,749,96C768,64,787,32,806,21.3C825.6,11,845,21,864,48C883.2,75,902,117,922,149.3C940.8,181,960,203,979,181.3C998.4,160,1018,96,1037,90.7C1056,85,1075,139,1094,176C1113.6,213,1133,235,1152,224C1171.2,213,1190,171,1210,160C1228.8,149,1248,171,1267,160C1286.4,149,1306,107,1325,80C1344,53,1363,43,1382,48C1401.6,53,1421,75,1430,85.3L1440,96L1440,320L1430.4,320C1420.8,320,1402,320,1382,320C1363.2,320,1344,320,1325,320C1305.6,320,1286,320,1267,320C1248,320,1229,320,1210,320C1190.4,320,1171,320,1152,320C1132.8,320,1114,320,1094,320C1075.2,320,1056,320,1037,320C1017.6,320,998,320,979,320C960,320,941,320,922,320C902.4,320,883,320,864,320C844.8,320,826,320,806,320C787.2,320,768,320,749,320C729.6,320,710,320,691,320C672,320,653,320,634,320C614.4,320,595,320,576,320C556.8,320,538,320,518,320C499.2,320,480,320,461,320C441.6,320,422,320,403,320C384,320,365,320,346,320C326.4,320,307,320,288,320C268.8,320,250,320,230,320C211.2,320,192,320,173,320C153.6,320,134,320,115,320C96,320,77,320,58,320C38.4,320,19,320,10,320L0,320Z"></path></svg>